<?xml version="1.0" encoding="utf-8"?>
<!-- Generator: Adobe Illustrator 25.0.0, SVG Export Plug-In . SVG Version: 6.00 Build 0)  -->
<svg version="1.1" id="Layer_1" xmlns="http://www.w3.org/2000/svg" xmlns:xlink="http://www.w3.org/1999/xlink" x="0px" y="0px"
	 viewBox="0 0 48 48" style="enable-background:new 0 0 48 48;" xml:space="preserve">
<style type="text/css">
	.st0{fill:#2EA7E0;}
	.st1{fill:#172A88;}
</style>
<g id="XMLID_986_">
	<g id="XMLID_1606_">
		<path id="XMLID_1610_" class="st0" d="M32.12,12.58c0.64-1.01,1.99-1.31,3-0.67c1.01,0.64,1.31,1.99,0.67,3
			c-0.64,1.01-1.99,1.31-3,0.67c-0.89-0.57-1.23-1.68-0.85-2.63l-2.39-1.15c0,0,0,0,0,0.01c-0.43,0.67-1.32,0.87-1.99,0.44
			c-0.38-0.24-0.6-0.63-0.66-1.04l-2.27,0.02c-0.02,0.1-0.06,0.2-0.11,0.29c-0.24,0.38-0.75,0.5-1.14,0.25
			c-0.38-0.24-0.5-0.75-0.25-1.14c0.24-0.38,0.75-0.5,1.14-0.25c0.2,0.12,0.32,0.32,0.36,0.53l2.27-0.02
			c0.02-0.22,0.09-0.43,0.22-0.62c0.43-0.67,1.32-0.87,1.99-0.44c0.57,0.37,0.8,1.07,0.58,1.69l2.39,1.15
			C32.09,12.63,32.11,12.61,32.12,12.58z"/>
		<path id="XMLID_1608_" class="st0" d="M33.9,8.38c0.35-1.15,1.57-1.79,2.72-1.44c1.15,0.35,1.79,1.57,1.44,2.72
			c-0.06,0.2-0.15,0.39-0.26,0.55l1.83,1.41c0.77-0.9,2.03-1.31,3.23-0.94c1.62,0.5,2.53,2.21,2.03,3.83
			c-0.5,1.62-2.21,2.53-3.83,2.03c-1.62-0.5-2.53-2.21-2.03-3.83c0.09-0.31,0.23-0.59,0.4-0.84l-1.83-1.41
			c-0.55,0.61-1.42,0.89-2.26,0.63c-1.01-0.31-1.63-1.29-1.52-2.31l-2.61-0.48c0,0,0,0.01,0,0.01c-0.23,0.76-1.04,1.19-1.8,0.95
			c-0.43-0.13-0.75-0.44-0.91-0.83l-2.18,0.62c0.01,0.1,0,0.21-0.03,0.31c-0.13,0.44-0.6,0.68-1.03,0.55
			c-0.44-0.13-0.68-0.6-0.55-1.03c0.13-0.44,0.6-0.68,1.03-0.55c0.22,0.07,0.39,0.22,0.49,0.41l2.19-0.62
			c-0.04-0.21-0.03-0.44,0.04-0.66c0.23-0.76,1.04-1.19,1.8-0.95c0.65,0.2,1.06,0.82,1.01,1.47l2.61,0.48
			C33.89,8.44,33.89,8.41,33.9,8.38z"/>
	</g>
	<g id="XMLID_1602_">
		<path id="XMLID_1605_" class="st1" d="M37.95,25.33c1.2,0.05,2.13,1.07,2.08,2.26c-0.05,1.2-1.07,2.13-2.26,2.08
			c-1.2-0.05-2.13-1.07-2.08-2.26c0.05-1.06,0.84-1.9,1.85-2.05l-0.2-2.64c0,0-0.01,0-0.01,0c-0.79-0.03-1.41-0.71-1.38-1.5
			c0.02-0.45,0.24-0.84,0.57-1.09l-1.15-1.96c-0.1,0.03-0.2,0.05-0.31,0.05c-0.45-0.02-0.81-0.4-0.79-0.86
			c0.02-0.45,0.4-0.81,0.86-0.79c0.46,0.02,0.81,0.4,0.79,0.86c-0.01,0.23-0.11,0.44-0.27,0.58l1.15,1.96
			c0.2-0.09,0.42-0.13,0.65-0.12c0.79,0.03,1.41,0.71,1.37,1.5c-0.03,0.68-0.53,1.23-1.17,1.35l0.2,2.65
			C37.89,25.32,37.92,25.32,37.95,25.33z"/>
		<path id="XMLID_1604_" class="st1" d="M42.48,24.77c1.17-0.27,2.33,0.46,2.6,1.63c0.27,1.17-0.46,2.33-1.63,2.6
			c-0.2,0.05-0.41,0.06-0.61,0.05l-0.3,2.29c1.16,0.22,2.15,1.1,2.43,2.33c0.38,1.65-0.65,3.29-2.3,3.67
			c-1.65,0.38-3.29-0.65-3.67-2.3c-0.38-1.65,0.65-3.29,2.3-3.67c0.31-0.07,0.62-0.09,0.93-0.07l0.3-2.29
			c-0.8-0.17-1.48-0.79-1.67-1.64c-0.24-1.03,0.3-2.06,1.24-2.47l-0.89-2.5c0,0,0,0-0.01,0c-0.77,0.18-1.55-0.31-1.72-1.08
			c-0.1-0.44,0.01-0.87,0.26-1.2l-1.63-1.58c-0.08,0.06-0.18,0.1-0.28,0.13c-0.44,0.1-0.89-0.18-0.99-0.62
			c-0.1-0.44,0.18-0.89,0.62-0.99c0.44-0.1,0.89,0.18,0.99,0.62c0.05,0.23,0.01,0.45-0.11,0.63l1.63,1.58
			c0.17-0.14,0.37-0.24,0.59-0.29c0.77-0.18,1.55,0.31,1.72,1.08c0.15,0.66-0.18,1.33-0.77,1.61l0.89,2.5
			C42.42,24.78,42.45,24.78,42.48,24.77z"/>
	</g>
	<g id="XMLID_1324_">
		<path id="XMLID_1601_" class="st0" d="M29.83,36.74c0.55,1.06,0.14,2.38-0.92,2.93c-1.06,0.55-2.38,0.14-2.93-0.92
			c-0.55-1.06-0.14-2.38,0.92-2.93c0.94-0.49,2.07-0.22,2.7,0.57l2.19-1.49c0,0,0,0,0-0.01c-0.37-0.7-0.09-1.57,0.61-1.94
			c0.4-0.21,0.85-0.21,1.23-0.05l1.12-1.98c-0.08-0.07-0.14-0.15-0.19-0.24c-0.21-0.4-0.05-0.9,0.35-1.11
			c0.4-0.21,0.9-0.05,1.11,0.35c0.21,0.4,0.05,0.9-0.35,1.11c-0.21,0.11-0.43,0.12-0.64,0.05l-1.12,1.98
			c0.18,0.13,0.33,0.29,0.43,0.5c0.37,0.7,0.09,1.57-0.61,1.94c-0.6,0.31-1.33,0.16-1.75-0.34l-2.19,1.49
			C29.8,36.69,29.81,36.72,29.83,36.74z"/>
		<path id="XMLID_1600_" class="st0" d="M32.57,40.39c0.82,0.88,0.77,2.25-0.11,3.07c-0.88,0.82-2.25,0.77-3.07-0.11
			c-0.14-0.15-0.26-0.32-0.35-0.5l-2.13,0.88c0.39,1.12,0.12,2.41-0.8,3.27c-1.24,1.15-3.18,1.08-4.33-0.16
			c-1.15-1.24-1.08-3.18,0.16-4.33c1.24-1.15,3.18-1.08,4.33,0.16c0.22,0.23,0.39,0.49,0.52,0.77l2.13-0.88
			c-0.26-0.78-0.06-1.67,0.58-2.27c0.78-0.72,1.94-0.77,2.76-0.16l1.72-2.02c0,0,0,0-0.01-0.01c-0.54-0.58-0.51-1.49,0.07-2.03
			c0.33-0.3,0.76-0.43,1.17-0.37l0.55-2.2c-0.09-0.04-0.18-0.1-0.25-0.18c-0.31-0.33-0.29-0.86,0.04-1.17
			c0.33-0.31,0.86-0.29,1.17,0.04c0.31,0.33,0.29,0.86-0.04,1.17c-0.17,0.16-0.39,0.23-0.6,0.22l-0.55,2.2
			c0.2,0.08,0.39,0.2,0.55,0.37c0.54,0.58,0.51,1.49-0.07,2.03c-0.5,0.46-1.24,0.5-1.78,0.14l-1.72,2.02
			C32.53,40.34,32.55,40.36,32.57,40.39z"/>
	</g>
	<g id="XMLID_995_">
		<path id="XMLID_998_" class="st1" d="M15.88,35.42c-0.64,1.01-1.99,1.31-3,0.67s-1.31-1.99-0.67-3c0.64-1.01,1.99-1.31,3-0.67
			c0.89,0.57,1.23,1.68,0.85,2.63l2.39,1.15c0,0,0,0,0-0.01c0.43-0.67,1.32-0.87,1.99-0.44c0.38,0.24,0.6,0.63,0.66,1.04l2.27-0.02
			c0.02-0.1,0.06-0.2,0.11-0.29c0.24-0.38,0.75-0.5,1.14-0.25c0.38,0.24,0.5,0.75,0.25,1.14c-0.24,0.38-0.75,0.5-1.14,0.25
			c-0.2-0.12-0.32-0.32-0.36-0.53l-2.27,0.02c-0.02,0.22-0.09,0.43-0.22,0.62c-0.43,0.67-1.32,0.87-1.99,0.44
			c-0.57-0.37-0.8-1.07-0.58-1.69l-2.39-1.15C15.91,35.37,15.89,35.39,15.88,35.42z"/>
		<path id="XMLID_997_" class="st1" d="M14.1,39.62c-0.35,1.15-1.57,1.79-2.72,1.44c-1.15-0.35-1.79-1.57-1.44-2.72
			c0.06-0.2,0.15-0.39,0.26-0.55l-1.83-1.41c-0.77,0.9-2.03,1.31-3.23,0.94c-1.62-0.5-2.53-2.21-2.03-3.83
			c0.5-1.62,2.21-2.53,3.83-2.03c1.62,0.5,2.53,2.21,2.03,3.83c-0.09,0.31-0.23,0.59-0.4,0.84l1.83,1.41
			c0.55-0.61,1.42-0.89,2.26-0.63c1.01,0.31,1.63,1.29,1.52,2.31l2.61,0.48c0,0,0-0.01,0-0.01c0.23-0.76,1.04-1.19,1.8-0.95
			c0.43,0.13,0.75,0.44,0.91,0.83l2.18-0.62c-0.01-0.1,0-0.21,0.03-0.31c0.13-0.44,0.6-0.68,1.03-0.55s0.68,0.6,0.55,1.03
			c-0.13,0.44-0.6,0.68-1.03,0.55c-0.22-0.07-0.39-0.22-0.49-0.41l-2.19,0.62c0.04,0.21,0.03,0.44-0.04,0.66
			c-0.23,0.76-1.04,1.19-1.8,0.95c-0.65-0.2-1.06-0.82-1.01-1.47l-2.61-0.48C14.11,39.56,14.11,39.59,14.1,39.62z"/>
	</g>
	<g id="XMLID_991_">
		<path id="XMLID_994_" class="st0" d="M10.05,22.67c-1.2-0.05-2.13-1.07-2.08-2.26c0.05-1.2,1.07-2.13,2.26-2.08
			c1.2,0.05,2.13,1.07,2.08,2.26c-0.05,1.06-0.84,1.9-1.85,2.05l0.2,2.64c0,0,0.01,0,0.01,0c0.79,0.03,1.41,0.71,1.38,1.5
			c-0.02,0.45-0.24,0.84-0.57,1.09l1.15,1.96c0.1-0.03,0.2-0.05,0.31-0.05c0.45,0.02,0.81,0.4,0.79,0.86
			c-0.02,0.45-0.4,0.81-0.86,0.79c-0.46-0.02-0.81-0.4-0.79-0.86c0.01-0.23,0.11-0.44,0.27-0.58l-1.15-1.96
			c-0.2,0.09-0.42,0.13-0.65,0.12c-0.79-0.03-1.41-0.71-1.37-1.5c0.03-0.68,0.53-1.23,1.17-1.35l-0.2-2.65
			C10.11,22.68,10.08,22.68,10.05,22.67z"/>
		<path id="XMLID_993_" class="st0" d="M5.52,23.23c-1.17,0.27-2.33-0.46-2.6-1.63c-0.27-1.17,0.46-2.33,1.63-2.6
			c0.2-0.05,0.41-0.06,0.61-0.05l0.3-2.29c-1.16-0.22-2.15-1.1-2.43-2.33c-0.38-1.65,0.65-3.29,2.3-3.67
			c1.65-0.38,3.29,0.65,3.67,2.3c0.38,1.65-0.65,3.29-2.3,3.67C6.4,16.7,6.09,16.72,5.78,16.7l-0.3,2.29
			c0.8,0.17,1.48,0.79,1.67,1.64c0.24,1.03-0.3,2.06-1.24,2.47l0.89,2.5c0,0,0,0,0.01,0c0.77-0.18,1.55,0.31,1.72,1.08
			c0.1,0.44-0.01,0.87-0.26,1.2l1.63,1.58c0.08-0.06,0.18-0.1,0.28-0.13c0.44-0.1,0.89,0.18,0.99,0.62c0.1,0.44-0.18,0.89-0.62,0.99
			c-0.44,0.1-0.89-0.18-0.99-0.62c-0.05-0.23-0.01-0.45,0.11-0.63l-1.63-1.58c-0.17,0.14-0.37,0.24-0.59,0.29
			c-0.77,0.18-1.55-0.31-1.72-1.08c-0.15-0.66,0.18-1.33,0.77-1.61l-0.89-2.5C5.58,23.22,5.55,23.22,5.52,23.23z"/>
	</g>
	<g id="XMLID_987_">
		<path id="XMLID_990_" class="st1" d="M18.17,11.26c-0.55-1.06-0.14-2.38,0.92-2.93c1.06-0.55,2.38-0.14,2.93,0.92
			c0.55,1.06,0.14,2.38-0.92,2.93c-0.94,0.49-2.07,0.22-2.7-0.57l-2.19,1.49c0,0,0,0,0,0.01c0.37,0.7,0.09,1.57-0.61,1.94
			c-0.4,0.21-0.85,0.21-1.23,0.05l-1.12,1.98c0.08,0.07,0.14,0.15,0.19,0.24c0.21,0.4,0.05,0.9-0.35,1.11
			c-0.4,0.21-0.9,0.05-1.11-0.35c-0.21-0.4-0.05-0.9,0.35-1.11c0.21-0.11,0.43-0.12,0.64-0.05l1.12-1.98
			c-0.18-0.13-0.33-0.29-0.43-0.5c-0.37-0.7-0.09-1.57,0.61-1.94c0.6-0.31,1.33-0.16,1.75,0.34l2.19-1.49
			C18.2,11.31,18.19,11.28,18.17,11.26z"/>
		<path id="XMLID_989_" class="st1" d="M15.43,7.61c-0.82-0.88-0.77-2.25,0.11-3.07c0.88-0.82,2.25-0.77,3.07,0.11
			c0.14,0.15,0.26,0.32,0.35,0.5l2.13-0.88c-0.39-1.12-0.12-2.41,0.8-3.27c1.24-1.15,3.18-1.08,4.33,0.16
			c1.15,1.24,1.08,3.18-0.16,4.33c-1.24,1.15-3.18,1.08-4.33-0.16c-0.22-0.23-0.39-0.49-0.52-0.77l-2.13,0.88
			c0.26,0.78,0.06,1.67-0.58,2.27c-0.78,0.72-1.94,0.77-2.76,0.16l-1.72,2.02c0,0,0,0,0.01,0.01c0.54,0.58,0.51,1.49-0.07,2.03
			c-0.33,0.3-0.76,0.43-1.17,0.37l-0.55,2.2c0.09,0.04,0.18,0.1,0.25,0.18c0.31,0.33,0.29,0.86-0.04,1.17
			c-0.33,0.31-0.86,0.29-1.17-0.04c-0.31-0.33-0.29-0.86,0.04-1.17c0.17-0.16,0.39-0.23,0.6-0.22l0.55-2.2
			c-0.2-0.08-0.39-0.2-0.55-0.37c-0.54-0.58-0.51-1.49,0.07-2.03c0.5-0.46,1.24-0.5,1.78-0.14l1.72-2.02
			C15.47,7.66,15.45,7.64,15.43,7.61z"/>
	</g>
</g>
</svg>
