<?xml version="1.0" encoding="utf-8"?>
<!-- Generator: Adobe Illustrator 25.0.0, SVG Export Plug-In . SVG Version: 6.00 Build 0)  -->
<svg version="1.1" id="Layer_1" xmlns="http://www.w3.org/2000/svg" xmlns:xlink="http://www.w3.org/1999/xlink" x="0px" y="0px"
	 viewBox="0 0 256 256" style="enable-background:new 0 0 256 256;" xml:space="preserve">
<style type="text/css">
	.st0{fill:#2EA7E0;}
	.st1{fill:#172A88;}
</style>
<g id="XMLID_986_">
	<g id="XMLID_1606_">
		<path id="XMLID_1610_" class="st0" d="M171.26,67.19c3.43-5.39,10.58-6.98,15.97-3.55c5.39,3.43,6.98,10.58,3.55,15.97
			c-3.43,5.39-10.58,6.98-15.97,3.55c-4.75-3.03-6.55-8.94-4.55-14l-12.72-6.13c-0.01,0.01-0.01,0.02-0.02,0.04
			c-2.27,3.57-7.01,4.62-10.58,2.35c-2.01-1.28-3.22-3.34-3.49-5.54l-12.1,0.11c-0.1,0.53-0.3,1.05-0.61,1.54
			c-1.3,2.05-4.02,2.65-6.06,1.35c-2.05-1.3-2.65-4.02-1.35-6.06c1.3-2.05,4.02-2.65,6.06-1.35c1.04,0.66,1.7,1.69,1.94,2.81
			l12.1-0.11c0.12-1.15,0.49-2.28,1.15-3.32c2.27-3.57,7.01-4.62,10.58-2.35c3.06,1.95,4.26,5.71,3.11,8.99L171,67.62
			C171.08,67.48,171.17,67.33,171.26,67.19z"/>
		<path id="XMLID_1608_" class="st0" d="M180.74,44.84c1.88-6.11,8.35-9.53,14.46-7.65c6.11,1.88,9.53,8.35,7.65,14.46
			c-0.33,1.07-0.8,2.05-1.38,2.94l9.74,7.48c4.1-4.79,10.79-6.96,17.2-4.99c8.62,2.65,13.45,11.78,10.8,20.4
			c-2.65,8.61-11.78,13.45-20.4,10.8c-8.62-2.65-13.45-11.78-10.8-20.4c0.5-1.63,1.23-3.12,2.15-4.45l-9.74-7.48
			c-2.92,3.26-7.57,4.72-12.03,3.35c-5.38-1.66-8.68-6.89-8.1-12.29l-13.89-2.54c0,0.01-0.01,0.03-0.01,0.04
			c-1.24,4.04-5.53,6.31-9.58,5.07c-2.28-0.7-3.99-2.37-4.83-4.41l-11.63,3.31c0.04,0.54-0.01,1.09-0.18,1.64
			c-0.71,2.32-3.17,3.62-5.49,2.91c-2.32-0.71-3.62-3.17-2.91-5.49s3.17-3.62,5.49-2.91c1.18,0.36,2.09,1.18,2.61,2.19l11.64-3.31
			c-0.19-1.14-0.13-2.33,0.23-3.51c1.24-4.04,5.53-6.31,9.58-5.07c3.47,1.07,5.62,4.37,5.38,7.84l13.9,2.54
			C180.65,45.16,180.69,45,180.74,44.84z"/>
	</g>
	<g id="XMLID_1602_">
		<path id="XMLID_1605_" class="st1" d="M202.29,135.06c6.38,0.28,11.33,5.68,11.06,12.06c-0.28,6.38-5.68,11.33-12.06,11.06
			c-6.38-0.28-11.33-5.68-11.06-12.06c0.24-5.63,4.47-10.14,9.84-10.94l-1.05-14.08c-0.01,0-0.03,0-0.04,0
			c-4.23-0.18-7.51-3.76-7.32-7.99c0.1-2.38,1.28-4.46,3.05-5.79l-6.14-10.42c-0.51,0.18-1.06,0.27-1.64,0.24
			c-2.42-0.11-4.3-2.15-4.2-4.58c0.11-2.42,2.15-4.3,4.58-4.2c2.42,0.11,4.3,2.15,4.2,4.58c-0.05,1.23-0.61,2.32-1.46,3.08
			l6.14,10.43c1.05-0.47,2.22-0.72,3.45-0.66c4.23,0.18,7.51,3.76,7.32,7.99c-0.16,3.63-2.81,6.55-6.23,7.19l1.05,14.09
			C201.96,135.05,202.12,135.05,202.29,135.06z"/>
		<path id="XMLID_1604_" class="st1" d="M226.39,132.09c6.23-1.43,12.43,2.47,13.86,8.7s-2.47,12.43-8.7,13.86
			c-1.09,0.25-2.18,0.33-3.24,0.27l-1.61,12.18c6.2,1.16,11.43,5.87,12.92,12.4c2.01,8.79-3.48,17.54-12.27,19.55
			c-8.79,2.01-17.54-3.48-19.55-12.27c-2.01-8.79,3.48-17.54,12.27-19.55c1.66-0.38,3.32-0.49,4.93-0.36l1.61-12.18
			c-4.28-0.9-7.87-4.2-8.91-8.74c-1.26-5.49,1.62-10.96,6.59-13.16l-4.75-13.3c-0.01,0-0.03,0.01-0.04,0.01
			c-4.12,0.94-8.23-1.63-9.18-5.76c-0.53-2.32,0.05-4.64,1.4-6.39l-8.68-8.42c-0.45,0.31-0.95,0.54-1.51,0.67
			c-2.36,0.54-4.72-0.94-5.26-3.3c-0.54-2.36,0.94-4.72,3.3-5.26c2.36-0.54,4.72,0.94,5.26,3.3c0.28,1.2,0.03,2.4-0.59,3.36
			l8.69,8.42c0.89-0.73,1.95-1.28,3.15-1.56c4.12-0.94,8.23,1.63,9.18,5.76c0.81,3.54-0.98,7.06-4.1,8.59l4.75,13.3
			C226.07,132.17,226.23,132.13,226.39,132.09z"/>
	</g>
	<g id="XMLID_1324_">
		<path id="XMLID_1601_" class="st0" d="M159.04,195.87c2.95,5.67,0.75,12.65-4.92,15.61s-12.65,0.75-15.61-4.92
			c-2.95-5.67-0.75-12.65,4.91-15.61c5-2.6,11.02-1.2,14.4,3.06l11.67-7.95c-0.01-0.01-0.01-0.02-0.02-0.04
			c-1.95-3.75-0.5-8.38,3.25-10.33c2.11-1.1,4.5-1.12,6.54-0.25l5.95-10.53c-0.41-0.35-0.76-0.79-1.03-1.29
			c-1.12-2.15-0.29-4.8,1.87-5.92c2.15-1.12,4.8-0.29,5.92,1.87c1.12,2.15,0.29,4.8-1.87,5.92c-1.09,0.57-2.31,0.63-3.4,0.27
			l-5.96,10.53c0.93,0.68,1.73,1.57,2.3,2.66c1.95,3.75,0.5,8.38-3.25,10.33c-3.22,1.68-7.08,0.84-9.34-1.8l-11.68,7.95
			C158.88,195.57,158.96,195.72,159.04,195.87z"/>
		<path id="XMLID_1600_" class="st0" d="M173.65,215.25c4.35,4.68,4.08,12-0.6,16.35c-4.68,4.35-12,4.08-16.35-0.6
			c-0.76-0.82-1.38-1.72-1.86-2.67l-11.35,4.7c2.1,5.95,0.63,12.83-4.28,17.39c-6.6,6.14-16.93,5.76-23.07-0.85
			c-6.14-6.6-5.76-16.93,0.85-23.07c6.6-6.14,16.93-5.76,23.07,0.85c1.16,1.25,2.08,2.63,2.78,4.08l11.35-4.7
			c-1.37-4.16-0.3-8.92,3.11-12.09c4.13-3.83,10.31-4.08,14.69-0.87l9.14-10.76c-0.01-0.01-0.02-0.02-0.03-0.03
			c-2.88-3.1-2.7-7.95,0.4-10.83c1.75-1.62,4.05-2.27,6.24-1.98l2.95-11.73c-0.49-0.23-0.94-0.56-1.33-0.98
			c-1.65-1.78-1.55-4.56,0.23-6.21c1.78-1.65,4.56-1.55,6.21,0.23c1.65,1.78,1.55,4.56-0.23,6.21c-0.9,0.84-2.06,1.22-3.21,1.17
			l-2.95,11.74c1.08,0.4,2.09,1.05,2.92,1.95c2.88,3.1,2.7,7.95-0.4,10.83c-2.66,2.47-6.6,2.68-9.49,0.74l-9.15,10.76
			C173.42,215.01,173.54,215.13,173.65,215.25z"/>
	</g>
	<g id="XMLID_995_">
		<path id="XMLID_998_" class="st1" d="M84.74,188.81c-3.43,5.39-10.58,6.98-15.97,3.55c-5.39-3.43-6.98-10.58-3.55-15.97
			c3.43-5.39,10.58-6.98,15.97-3.55c4.75,3.03,6.55,8.94,4.55,14l12.72,6.13c0.01-0.01,0.01-0.02,0.02-0.04
			c2.27-3.57,7.01-4.62,10.58-2.35c2.01,1.28,3.22,3.34,3.49,5.54l12.1-0.11c0.1-0.53,0.3-1.05,0.61-1.54
			c1.3-2.05,4.02-2.65,6.06-1.35c2.05,1.3,2.65,4.02,1.35,6.06c-1.3,2.05-4.02,2.65-6.06,1.35c-1.04-0.66-1.7-1.69-1.94-2.81
			l-12.1,0.11c-0.12,1.15-0.49,2.28-1.15,3.32c-2.27,3.57-7.01,4.62-10.58,2.35c-3.06-1.95-4.26-5.71-3.11-8.99L85,188.38
			C84.92,188.52,84.83,188.67,84.74,188.81z"/>
		<path id="XMLID_997_" class="st1" d="M75.26,211.16c-1.88,6.11-8.35,9.53-14.46,7.65c-6.11-1.88-9.53-8.35-7.65-14.46
			c0.33-1.07,0.8-2.05,1.38-2.94l-9.74-7.48c-4.1,4.79-10.79,6.96-17.2,4.99c-8.62-2.65-13.45-11.78-10.8-20.4
			c2.65-8.61,11.78-13.45,20.4-10.8c8.62,2.65,13.45,11.78,10.8,20.4c-0.5,1.63-1.23,3.12-2.15,4.45l9.74,7.48
			c2.92-3.26,7.57-4.72,12.03-3.35c5.38,1.66,8.68,6.89,8.1,12.29l13.89,2.54c0-0.01,0.01-0.03,0.01-0.04
			c1.24-4.04,5.53-6.31,9.58-5.07c2.28,0.7,3.99,2.37,4.83,4.41l11.63-3.31c-0.04-0.54,0.01-1.09,0.18-1.64
			c0.71-2.32,3.17-3.62,5.49-2.91c2.32,0.71,3.62,3.17,2.91,5.49c-0.71,2.32-3.17,3.62-5.49,2.91c-1.18-0.36-2.09-1.18-2.61-2.19
			l-11.64,3.31c0.19,1.14,0.13,2.33-0.23,3.51c-1.24,4.04-5.53,6.31-9.58,5.07c-3.47-1.07-5.62-4.37-5.38-7.84l-13.9-2.54
			C75.35,210.84,75.31,211,75.26,211.16z"/>
	</g>
	<g id="XMLID_991_">
		<path id="XMLID_994_" class="st0" d="M53.71,120.94c-6.38-0.28-11.33-5.68-11.06-12.06c0.28-6.38,5.68-11.33,12.06-11.06
			c6.38,0.28,11.33,5.68,11.06,12.06c-0.24,5.63-4.47,10.14-9.84,10.94l1.05,14.08c0.01,0,0.03,0,0.04,0
			c4.23,0.18,7.51,3.76,7.32,7.99c-0.1,2.38-1.28,4.46-3.05,5.79l6.14,10.42c0.51-0.18,1.06-0.27,1.64-0.24
			c2.42,0.11,4.3,2.15,4.2,4.58c-0.11,2.42-2.15,4.3-4.58,4.2c-2.42-0.11-4.3-2.15-4.2-4.58c0.05-1.23,0.61-2.32,1.46-3.08
			l-6.14-10.43c-1.05,0.47-2.22,0.72-3.45,0.66c-4.23-0.18-7.51-3.76-7.32-7.99c0.16-3.63,2.81-6.55,6.23-7.19l-1.05-14.09
			C54.04,120.95,53.88,120.95,53.71,120.94z"/>
		<path id="XMLID_993_" class="st0" d="M29.61,123.91c-6.23,1.43-12.43-2.47-13.86-8.7c-1.43-6.23,2.47-12.43,8.7-13.86
			c1.09-0.25,2.18-0.33,3.24-0.27L29.3,88.9c-6.2-1.16-11.43-5.87-12.92-12.4c-2.01-8.79,3.48-17.54,12.27-19.55
			c8.79-2.01,17.54,3.48,19.55,12.27C50.2,78,44.71,86.75,35.93,88.76c-1.66,0.38-3.32,0.49-4.93,0.36l-1.61,12.18
			c4.28,0.9,7.87,4.2,8.91,8.74c1.26,5.49-1.62,10.96-6.59,13.16l4.75,13.3c0.01,0,0.03-0.01,0.04-0.01
			c4.12-0.94,8.23,1.63,9.18,5.76c0.53,2.32-0.05,4.64-1.4,6.39l8.68,8.42c0.45-0.31,0.95-0.54,1.51-0.67
			c2.36-0.54,4.72,0.94,5.26,3.3c0.54,2.36-0.94,4.72-3.3,5.26c-2.36,0.54-4.72-0.94-5.26-3.3c-0.28-1.2-0.03-2.4,0.59-3.36
			l-8.69-8.42c-0.89,0.73-1.95,1.28-3.15,1.56c-4.12,0.94-8.23-1.63-9.18-5.76c-0.81-3.54,0.98-7.06,4.1-8.59l-4.75-13.3
			C29.93,123.83,29.77,123.87,29.61,123.91z"/>
	</g>
	<g id="XMLID_987_">
		<path id="XMLID_990_" class="st1" d="M96.96,60.13c-2.95-5.67-0.75-12.65,4.92-15.61c5.67-2.95,12.65-0.75,15.61,4.92
			c2.95,5.67,0.75,12.65-4.91,15.61c-5,2.6-11.02,1.2-14.4-3.06L86.5,69.94c0.01,0.01,0.01,0.02,0.02,0.04
			c1.95,3.75,0.5,8.38-3.25,10.33c-2.11,1.1-4.5,1.12-6.54,0.25L70.78,91.1c0.41,0.35,0.76,0.79,1.03,1.29
			c1.12,2.15,0.29,4.8-1.87,5.92c-2.15,1.12-4.8,0.29-5.92-1.87c-1.12-2.15-0.29-4.8,1.87-5.92c1.09-0.57,2.31-0.63,3.4-0.27
			l5.96-10.53c-0.93-0.68-1.73-1.57-2.3-2.66c-1.95-3.75-0.5-8.38,3.25-10.33c3.22-1.68,7.08-0.84,9.34,1.8l11.68-7.95
			C97.12,60.43,97.04,60.28,96.96,60.13z"/>
		<path id="XMLID_989_" class="st1" d="M82.35,40.75c-4.35-4.68-4.08-12,0.6-16.35c4.68-4.35,12-4.08,16.35,0.6
			c0.76,0.82,1.38,1.72,1.86,2.67l11.35-4.7c-2.1-5.95-0.63-12.83,4.28-17.39c6.6-6.14,16.93-5.76,23.07,0.85
			c6.14,6.6,5.76,16.93-0.85,23.07c-6.6,6.14-16.93,5.76-23.07-0.85c-1.16-1.25-2.08-2.63-2.78-4.08l-11.35,4.7
			c1.37,4.16,0.3,8.92-3.11,12.09c-4.13,3.83-10.31,4.08-14.69,0.87l-9.14,10.76c0.01,0.01,0.02,0.02,0.03,0.03
			c2.88,3.1,2.7,7.95-0.4,10.83c-1.75,1.62-4.05,2.27-6.24,1.98l-2.95,11.73c0.49,0.23,0.94,0.56,1.33,0.98
			c1.65,1.78,1.55,4.56-0.23,6.21c-1.78,1.65-4.56,1.55-6.21-0.23c-1.65-1.78-1.55-4.56,0.23-6.21c0.9-0.84,2.06-1.22,3.21-1.17
			l2.95-11.74c-1.08-0.4-2.09-1.05-2.92-1.95c-2.88-3.1-2.7-7.95,0.4-10.83c2.66-2.47,6.6-2.68,9.49-0.74L82.7,41.1
			C82.58,40.99,82.46,40.87,82.35,40.75z"/>
	</g>
</g>
</svg>
