<?xml version="1.0" encoding="utf-8"?>
<!-- Generator: Adobe Illustrator 25.0.0, SVG Export Plug-In . SVG Version: 6.00 Build 0)  -->
<svg version="1.1" id="Layer_1" xmlns="http://www.w3.org/2000/svg" xmlns:xlink="http://www.w3.org/1999/xlink" x="0px" y="0px"
	 viewBox="0 0 16 16" style="enable-background:new 0 0 16 16;" xml:space="preserve">
<style type="text/css">
	.st0{fill:#2EA7E0;}
	.st1{fill:#172A88;}
</style>
<g id="XMLID_986_">
	<g id="XMLID_1606_">
		<path id="XMLID_1610_" class="st0" d="M10.7,4.2c0.21-0.34,0.66-0.44,1-0.22c0.34,0.21,0.44,0.66,0.22,1
			c-0.21,0.34-0.66,0.44-1,0.22c-0.3-0.19-0.41-0.56-0.28-0.87L9.84,3.94c0,0,0,0,0,0C9.7,4.17,9.4,4.24,9.18,4.09
			c-0.13-0.08-0.2-0.21-0.22-0.35L8.21,3.75C8.2,3.79,8.19,3.82,8.17,3.85C8.09,3.98,7.92,4.02,7.79,3.93
			C7.66,3.85,7.63,3.68,7.71,3.56c0.08-0.13,0.25-0.17,0.38-0.08c0.06,0.04,0.11,0.11,0.12,0.18l0.76-0.01
			C8.97,3.57,8.99,3.5,9.04,3.43C9.18,3.21,9.47,3.14,9.7,3.29c0.19,0.12,0.27,0.36,0.19,0.56l0.79,0.38
			C10.69,4.22,10.69,4.21,10.7,4.2z"/>
		<path id="XMLID_1608_" class="st0" d="M11.29,2.81c0.12-0.38,0.52-0.6,0.9-0.48c0.38,0.12,0.6,0.52,0.48,0.9
			c-0.02,0.07-0.05,0.13-0.09,0.18l0.61,0.47c0.26-0.3,0.67-0.43,1.07-0.31c0.54,0.17,0.84,0.74,0.67,1.27
			c-0.17,0.54-0.74,0.84-1.27,0.67C13.13,5.35,12.83,4.78,13,4.25c0.03-0.1,0.08-0.19,0.13-0.28L12.52,3.5
			c-0.18,0.2-0.47,0.29-0.75,0.21c-0.34-0.1-0.54-0.43-0.51-0.77L10.4,2.79c0,0,0,0,0,0c-0.08,0.25-0.35,0.39-0.6,0.32
			C9.66,3.06,9.55,2.96,9.5,2.83L8.77,3.04c0,0.03,0,0.07-0.01,0.1c-0.04,0.14-0.2,0.23-0.34,0.18c-0.14-0.04-0.23-0.2-0.18-0.34
			c0.04-0.14,0.2-0.23,0.34-0.18c0.07,0.02,0.13,0.07,0.16,0.14l0.73-0.21C9.46,2.65,9.46,2.58,9.48,2.51
			c0.08-0.25,0.35-0.39,0.6-0.32c0.22,0.07,0.35,0.27,0.34,0.49l0.87,0.16C11.29,2.83,11.29,2.82,11.29,2.81z"/>
	</g>
	<g id="XMLID_1602_">
		<path id="XMLID_1605_" class="st1" d="M12.64,8.44c0.4,0.02,0.71,0.35,0.69,0.75c-0.02,0.4-0.35,0.71-0.75,0.69
			c-0.4-0.02-0.71-0.35-0.69-0.75c0.02-0.35,0.28-0.63,0.61-0.68l-0.07-0.88c0,0,0,0,0,0c-0.26-0.01-0.47-0.23-0.46-0.5
			c0.01-0.15,0.08-0.28,0.19-0.36l-0.38-0.65c-0.03,0.01-0.07,0.02-0.1,0.02c-0.15-0.01-0.27-0.13-0.26-0.29
			c0.01-0.15,0.13-0.27,0.29-0.26c0.15,0.01,0.27,0.13,0.26,0.29c0,0.08-0.04,0.14-0.09,0.19l0.38,0.65
			c0.07-0.03,0.14-0.04,0.22-0.04c0.26,0.01,0.47,0.23,0.46,0.5c-0.01,0.23-0.18,0.41-0.39,0.45l0.07,0.88
			C12.62,8.44,12.63,8.44,12.64,8.44z"/>
		<path id="XMLID_1604_" class="st1" d="M14.14,8.26c0.39-0.09,0.78,0.15,0.87,0.54c0.09,0.39-0.15,0.78-0.54,0.87
			c-0.07,0.02-0.14,0.02-0.2,0.02l-0.1,0.76c0.39,0.07,0.71,0.37,0.81,0.77c0.13,0.55-0.22,1.09-0.77,1.22
			c-0.55,0.13-1.09-0.22-1.22-0.77c-0.13-0.55,0.22-1.09,0.77-1.22c0.1-0.02,0.21-0.03,0.31-0.02l0.1-0.76
			c-0.27-0.06-0.49-0.26-0.56-0.55c-0.08-0.34,0.1-0.68,0.41-0.82l-0.3-0.83c0,0,0,0,0,0c-0.26,0.06-0.51-0.1-0.57-0.36
			c-0.03-0.15,0-0.29,0.09-0.4l-0.54-0.53c-0.03,0.02-0.06,0.03-0.09,0.04c-0.15,0.03-0.29-0.06-0.33-0.21
			c-0.03-0.15,0.06-0.29,0.21-0.33c0.15-0.03,0.29,0.06,0.33,0.21c0.02,0.07,0,0.15-0.04,0.21l0.54,0.53
			c0.06-0.05,0.12-0.08,0.2-0.1c0.26-0.06,0.51,0.1,0.57,0.36c0.05,0.22-0.06,0.44-0.26,0.54l0.3,0.83
			C14.12,8.26,14.13,8.26,14.14,8.26z"/>
	</g>
	<g id="XMLID_1324_">
		<path id="XMLID_1601_" class="st0" d="M9.94,12.24c0.18,0.35,0.05,0.79-0.31,0.97c-0.35,0.18-0.79,0.05-0.97-0.31
			c-0.18-0.35-0.05-0.79,0.31-0.97c0.31-0.16,0.69-0.07,0.9,0.19l0.73-0.5c0,0,0,0,0,0c-0.12-0.23-0.03-0.52,0.2-0.65
			c0.13-0.07,0.28-0.07,0.41-0.02l0.37-0.66c-0.03-0.02-0.05-0.05-0.06-0.08c-0.07-0.13-0.02-0.3,0.12-0.37
			c0.13-0.07,0.3-0.02,0.37,0.12c0.07,0.13,0.02,0.3-0.12,0.37c-0.07,0.04-0.14,0.04-0.21,0.02l-0.37,0.66
			c0.06,0.04,0.11,0.1,0.14,0.17c0.12,0.23,0.03,0.52-0.2,0.65c-0.2,0.1-0.44,0.05-0.58-0.11l-0.73,0.5
			C9.93,12.22,9.93,12.23,9.94,12.24z"/>
		<path id="XMLID_1600_" class="st0" d="M10.85,13.45c0.27,0.29,0.25,0.75-0.04,1.02c-0.29,0.27-0.75,0.25-1.02-0.04
			c-0.05-0.05-0.09-0.11-0.12-0.17l-0.71,0.29c0.13,0.37,0.04,0.8-0.27,1.09C8.29,16.03,7.64,16,7.26,15.59
			c-0.38-0.41-0.36-1.06,0.05-1.44c0.41-0.38,1.06-0.36,1.44,0.05c0.07,0.08,0.13,0.16,0.17,0.25l0.71-0.29
			c-0.09-0.26-0.02-0.56,0.19-0.75c0.26-0.24,0.64-0.25,0.92-0.05l0.57-0.67c0,0,0,0,0,0c-0.18-0.19-0.17-0.5,0.02-0.68
			c0.11-0.1,0.25-0.14,0.39-0.12l0.18-0.73c-0.03-0.01-0.06-0.03-0.08-0.06c-0.1-0.11-0.1-0.28,0.01-0.39
			c0.11-0.1,0.28-0.1,0.39,0.01c0.1,0.11,0.1,0.28-0.01,0.39c-0.06,0.05-0.13,0.08-0.2,0.07l-0.18,0.73
			c0.07,0.03,0.13,0.07,0.18,0.12c0.18,0.19,0.17,0.5-0.02,0.68c-0.17,0.15-0.41,0.17-0.59,0.05l-0.57,0.67
			C10.84,13.43,10.84,13.44,10.85,13.45z"/>
	</g>
	<g id="XMLID_995_">
		<path id="XMLID_998_" class="st1" d="M5.3,11.8c-0.21,0.34-0.66,0.44-1,0.22c-0.34-0.21-0.44-0.66-0.22-1
			c0.21-0.34,0.66-0.44,1-0.22c0.3,0.19,0.41,0.56,0.28,0.87l0.79,0.38c0,0,0,0,0,0c0.14-0.22,0.44-0.29,0.66-0.15
			c0.13,0.08,0.2,0.21,0.22,0.35l0.76-0.01c0.01-0.03,0.02-0.07,0.04-0.1c0.08-0.13,0.25-0.17,0.38-0.08
			c0.13,0.08,0.17,0.25,0.08,0.38c-0.08,0.13-0.25,0.17-0.38,0.08c-0.06-0.04-0.11-0.11-0.12-0.18l-0.76,0.01
			c-0.01,0.07-0.03,0.14-0.07,0.21c-0.14,0.22-0.44,0.29-0.66,0.15c-0.19-0.12-0.27-0.36-0.19-0.56l-0.79-0.38
			C5.31,11.78,5.31,11.79,5.3,11.8z"/>
		<path id="XMLID_997_" class="st1" d="M4.71,13.19c-0.12,0.38-0.52,0.6-0.9,0.48c-0.38-0.12-0.6-0.52-0.48-0.9
			c0.02-0.07,0.05-0.13,0.09-0.18l-0.61-0.47c-0.26,0.3-0.67,0.43-1.07,0.31c-0.54-0.17-0.84-0.74-0.67-1.27
			c0.17-0.54,0.74-0.84,1.27-0.67c0.54,0.17,0.84,0.74,0.67,1.27c-0.03,0.1-0.08,0.19-0.13,0.28l0.61,0.47
			c0.18-0.2,0.47-0.29,0.75-0.21c0.34,0.1,0.54,0.43,0.51,0.77l0.87,0.16c0,0,0,0,0,0c0.08-0.25,0.35-0.39,0.6-0.32
			c0.14,0.04,0.25,0.15,0.3,0.28l0.73-0.21c0-0.03,0-0.07,0.01-0.1c0.04-0.14,0.2-0.23,0.34-0.18c0.14,0.04,0.23,0.2,0.18,0.34
			s-0.2,0.23-0.34,0.18c-0.07-0.02-0.13-0.07-0.16-0.14l-0.73,0.21c0.01,0.07,0.01,0.15-0.01,0.22c-0.08,0.25-0.35,0.39-0.6,0.32
			c-0.22-0.07-0.35-0.27-0.34-0.49l-0.87-0.16C4.71,13.17,4.71,13.18,4.71,13.19z"/>
	</g>
	<g id="XMLID_991_">
		<path id="XMLID_994_" class="st0" d="M3.36,7.56c-0.4-0.02-0.71-0.35-0.69-0.75c0.02-0.4,0.35-0.71,0.75-0.69
			c0.4,0.02,0.71,0.35,0.69,0.75C4.1,7.22,3.84,7.5,3.5,7.55l0.07,0.88c0,0,0,0,0,0c0.26,0.01,0.47,0.23,0.46,0.5
			C4.02,9.08,3.95,9.21,3.84,9.29l0.38,0.65c0.03-0.01,0.07-0.02,0.1-0.02c0.15,0.01,0.27,0.13,0.26,0.29
			c-0.01,0.15-0.13,0.27-0.29,0.26c-0.15-0.01-0.27-0.13-0.26-0.29c0-0.08,0.04-0.14,0.09-0.19L3.74,9.35
			C3.68,9.37,3.6,9.39,3.53,9.39c-0.26-0.01-0.47-0.23-0.46-0.5c0.01-0.23,0.18-0.41,0.39-0.45L3.39,7.56
			C3.38,7.56,3.37,7.56,3.36,7.56z"/>
		<path id="XMLID_993_" class="st0" d="M1.86,7.74C1.47,7.83,1.08,7.59,0.99,7.2C0.9,6.81,1.15,6.43,1.54,6.34
			c0.07-0.02,0.14-0.02,0.2-0.02l0.1-0.76C1.45,5.49,1.13,5.19,1.03,4.78C0.91,4.24,1.25,3.69,1.8,3.56
			c0.55-0.13,1.09,0.22,1.22,0.77C3.14,4.88,2.8,5.42,2.25,5.55c-0.1,0.02-0.21,0.03-0.31,0.02l-0.1,0.76
			C2.11,6.39,2.34,6.6,2.4,6.88C2.48,7.22,2.3,7.56,1.99,7.7l0.3,0.83c0,0,0,0,0,0c0.26-0.06,0.51,0.1,0.57,0.36
			c0.03,0.15,0,0.29-0.09,0.4l0.54,0.53C3.34,9.8,3.37,9.78,3.41,9.77C3.56,9.74,3.7,9.83,3.74,9.98c0.03,0.15-0.06,0.29-0.21,0.33
			c-0.15,0.03-0.29-0.06-0.33-0.21c-0.02-0.07,0-0.15,0.04-0.21L2.7,9.37c-0.06,0.05-0.12,0.08-0.2,0.1
			C2.24,9.52,1.99,9.36,1.93,9.1C1.88,8.88,1.99,8.66,2.18,8.57l-0.3-0.83C1.88,7.74,1.87,7.74,1.86,7.74z"/>
	</g>
	<g id="XMLID_987_">
		<path id="XMLID_990_" class="st1" d="M6.06,3.76C5.88,3.41,6.02,2.97,6.37,2.79S7.16,2.74,7.34,3.1c0.18,0.35,0.05,0.79-0.31,0.97
			c-0.31,0.16-0.69,0.07-0.9-0.19l-0.73,0.5c0,0,0,0,0,0c0.12,0.23,0.03,0.52-0.2,0.65C5.08,5.09,4.93,5.09,4.8,5.04L4.43,5.7
			c0.03,0.02,0.05,0.05,0.06,0.08c0.07,0.13,0.02,0.3-0.12,0.37c-0.13,0.07-0.3,0.02-0.37-0.12C3.94,5.9,3.99,5.73,4.12,5.66
			c0.07-0.04,0.14-0.04,0.21-0.02l0.37-0.66C4.65,4.94,4.6,4.89,4.56,4.82C4.44,4.59,4.53,4.3,4.77,4.17
			c0.2-0.1,0.44-0.05,0.58,0.11l0.73-0.5C6.07,3.78,6.07,3.77,6.06,3.76z"/>
		<path id="XMLID_989_" class="st1" d="M5.15,2.55C4.88,2.26,4.9,1.8,5.19,1.53c0.29-0.27,0.75-0.25,1.02,0.04
			c0.05,0.05,0.09,0.11,0.12,0.17l0.71-0.29C6.9,1.07,6.99,0.64,7.3,0.36C7.71-0.03,8.36,0,8.74,0.41C9.12,0.82,9.1,1.47,8.69,1.85
			C8.28,2.23,7.63,2.21,7.25,1.8C7.18,1.72,7.12,1.63,7.07,1.54L6.37,1.84C6.45,2.1,6.38,2.39,6.17,2.59
			C5.91,2.83,5.53,2.84,5.25,2.64L4.68,3.32c0,0,0,0,0,0c0.18,0.19,0.17,0.5-0.02,0.68C4.55,4.1,4.41,4.14,4.27,4.12L4.09,4.85
			c0.03,0.01,0.06,0.03,0.08,0.06c0.1,0.11,0.1,0.28-0.01,0.39C4.04,5.4,3.87,5.4,3.77,5.28C3.66,5.17,3.67,5,3.78,4.9
			c0.06-0.05,0.13-0.08,0.2-0.07l0.18-0.73C4.1,4.07,4.04,4.03,3.98,3.97C3.8,3.78,3.82,3.47,4.01,3.29
			C4.17,3.14,4.42,3.13,4.6,3.25l0.57-0.67C5.16,2.57,5.16,2.56,5.15,2.55z"/>
	</g>
</g>
</svg>
