<?xml version="1.0" encoding="utf-8"?>
<!-- Generator: Adobe Illustrator 25.0.0, SVG Export Plug-In . SVG Version: 6.00 Build 0)  -->
<svg version="1.1" id="Layer_1" xmlns="http://www.w3.org/2000/svg" xmlns:xlink="http://www.w3.org/1999/xlink" x="0px" y="0px"
	 viewBox="0 0 32 32" style="enable-background:new 0 0 32 32;" xml:space="preserve">
<style type="text/css">
	.st0{fill:#2EA7E0;}
	.st1{fill:#172A88;}
</style>
<g id="XMLID_986_">
	<g id="XMLID_1606_">
		<path id="XMLID_1610_" class="st0" d="M21.43,8.36c0.43-0.68,1.33-0.88,2.01-0.45c0.68,0.43,0.88,1.33,0.45,2.01
			c-0.43,0.68-1.33,0.88-2.01,0.45c-0.6-0.38-0.82-1.12-0.57-1.76l-1.6-0.77c0,0,0,0,0,0c-0.29,0.45-0.88,0.58-1.33,0.29
			c-0.25-0.16-0.4-0.42-0.44-0.7l-1.52,0.01c-0.01,0.07-0.04,0.13-0.08,0.19c-0.16,0.26-0.5,0.33-0.76,0.17
			c-0.26-0.16-0.33-0.5-0.17-0.76c0.16-0.26,0.5-0.33,0.76-0.17c0.13,0.08,0.21,0.21,0.24,0.35l1.52-0.01
			c0.01-0.14,0.06-0.29,0.14-0.42c0.29-0.45,0.88-0.58,1.33-0.29c0.38,0.24,0.54,0.72,0.39,1.13l1.6,0.77
			C21.41,8.4,21.42,8.38,21.43,8.36z"/>
		<path id="XMLID_1608_" class="st0" d="M22.62,5.55c0.24-0.77,1.05-1.2,1.82-0.96c0.77,0.24,1.2,1.05,0.96,1.82
			c-0.04,0.13-0.1,0.26-0.17,0.37l1.22,0.94c0.52-0.6,1.36-0.87,2.16-0.63c1.08,0.33,1.69,1.48,1.36,2.56
			c-0.33,1.08-1.48,1.69-2.56,1.36c-1.08-0.33-1.69-1.48-1.36-2.56c0.06-0.2,0.15-0.39,0.27-0.56L25.1,6.95
			c-0.37,0.41-0.95,0.59-1.51,0.42c-0.68-0.21-1.09-0.87-1.02-1.54l-1.74-0.32c0,0,0,0,0,0.01c-0.16,0.51-0.69,0.79-1.2,0.64
			c-0.29-0.09-0.5-0.3-0.61-0.55l-1.46,0.42c0.01,0.07,0,0.14-0.02,0.21c-0.09,0.29-0.4,0.45-0.69,0.36
			c-0.29-0.09-0.45-0.4-0.36-0.69c0.09-0.29,0.4-0.45,0.69-0.36c0.15,0.05,0.26,0.15,0.33,0.28l1.46-0.42
			c-0.02-0.14-0.02-0.29,0.03-0.44c0.16-0.51,0.69-0.79,1.2-0.64c0.44,0.13,0.71,0.55,0.68,0.99l1.75,0.32
			C22.61,5.59,22.62,5.57,22.62,5.55z"/>
	</g>
	<g id="XMLID_1602_">
		<path id="XMLID_1605_" class="st1" d="M25.33,16.89c0.8,0.03,1.42,0.71,1.39,1.51c-0.03,0.8-0.71,1.42-1.51,1.39
			c-0.8-0.03-1.42-0.71-1.39-1.51c0.03-0.71,0.56-1.27,1.24-1.37l-0.13-1.77c0,0,0,0-0.01,0c-0.53-0.02-0.94-0.47-0.92-1
			c0.01-0.3,0.16-0.56,0.38-0.73l-0.77-1.31c-0.06,0.02-0.13,0.03-0.21,0.03c-0.3-0.01-0.54-0.27-0.53-0.57
			c0.01-0.3,0.27-0.54,0.57-0.53c0.3,0.01,0.54,0.27,0.53,0.57c-0.01,0.15-0.08,0.29-0.18,0.39l0.77,1.31
			c0.13-0.06,0.28-0.09,0.43-0.08c0.53,0.02,0.94,0.47,0.92,1c-0.02,0.46-0.35,0.82-0.78,0.9l0.13,1.77
			C25.29,16.89,25.31,16.89,25.33,16.89z"/>
		<path id="XMLID_1604_" class="st1" d="M28.36,16.51c0.78-0.18,1.56,0.31,1.74,1.09c0.18,0.78-0.31,1.56-1.09,1.74
			c-0.14,0.03-0.27,0.04-0.41,0.03l-0.2,1.53c0.78,0.15,1.44,0.74,1.62,1.56c0.25,1.1-0.44,2.2-1.54,2.46
			c-1.1,0.25-2.2-0.44-2.46-1.54c-0.25-1.1,0.44-2.2,1.54-2.46c0.21-0.05,0.42-0.06,0.62-0.05l0.2-1.53
			c-0.54-0.11-0.99-0.53-1.12-1.1c-0.16-0.69,0.2-1.38,0.83-1.65l-0.6-1.67c0,0,0,0,0,0c-0.52,0.12-1.03-0.21-1.15-0.72
			c-0.07-0.29,0.01-0.58,0.18-0.8l-1.09-1.06c-0.06,0.04-0.12,0.07-0.19,0.08c-0.3,0.07-0.59-0.12-0.66-0.41
			c-0.07-0.3,0.12-0.59,0.41-0.66c0.3-0.07,0.59,0.12,0.66,0.41c0.03,0.15,0,0.3-0.07,0.42l1.09,1.06c0.11-0.09,0.25-0.16,0.4-0.2
			c0.52-0.12,1.03,0.21,1.15,0.72c0.1,0.44-0.12,0.89-0.52,1.08l0.6,1.67C28.32,16.52,28.34,16.52,28.36,16.51z"/>
	</g>
	<g id="XMLID_1324_">
		<path id="XMLID_1601_" class="st0" d="M19.9,24.52c0.37,0.71,0.09,1.59-0.62,1.96c-0.71,0.37-1.59,0.09-1.96-0.62
			c-0.37-0.71-0.09-1.59,0.62-1.96c0.63-0.33,1.38-0.15,1.81,0.38l1.47-1c0,0,0,0,0,0c-0.25-0.47-0.06-1.05,0.41-1.3
			c0.27-0.14,0.57-0.14,0.82-0.03l0.75-1.32c-0.05-0.04-0.1-0.1-0.13-0.16c-0.14-0.27-0.04-0.6,0.23-0.74
			c0.27-0.14,0.6-0.04,0.74,0.23c0.14,0.27,0.04,0.6-0.23,0.74c-0.14,0.07-0.29,0.08-0.43,0.03l-0.75,1.32
			c0.12,0.08,0.22,0.2,0.29,0.33c0.25,0.47,0.06,1.05-0.41,1.3c-0.4,0.21-0.89,0.11-1.17-0.23l-1.47,1
			C19.88,24.49,19.89,24.51,19.9,24.52z"/>
		<path id="XMLID_1600_" class="st0" d="M21.73,26.96c0.55,0.59,0.51,1.51-0.08,2.05c-0.59,0.55-1.51,0.51-2.05-0.08
			c-0.1-0.1-0.17-0.22-0.23-0.34l-1.43,0.59c0.26,0.75,0.08,1.61-0.54,2.18c-0.83,0.77-2.13,0.72-2.9-0.11
			c-0.77-0.83-0.72-2.13,0.11-2.9c0.83-0.77,2.13-0.72,2.9,0.11c0.15,0.16,0.26,0.33,0.35,0.51l1.43-0.59
			c-0.17-0.52-0.04-1.12,0.39-1.52c0.52-0.48,1.29-0.51,1.85-0.11l1.15-1.35c0,0,0,0,0,0c-0.36-0.39-0.34-1,0.05-1.36
			c0.22-0.2,0.51-0.29,0.78-0.25l0.37-1.47c-0.06-0.03-0.12-0.07-0.17-0.12c-0.21-0.22-0.19-0.57,0.03-0.78
			c0.22-0.21,0.57-0.19,0.78,0.03c0.21,0.22,0.19,0.57-0.03,0.78c-0.11,0.11-0.26,0.15-0.4,0.15l-0.37,1.47
			c0.14,0.05,0.26,0.13,0.37,0.25c0.36,0.39,0.34,1-0.05,1.36c-0.33,0.31-0.83,0.34-1.19,0.09l-1.15,1.35
			C21.71,26.93,21.72,26.94,21.73,26.96z"/>
	</g>
	<g id="XMLID_995_">
		<path id="XMLID_998_" class="st1" d="M10.57,23.64c-0.43,0.68-1.33,0.88-2.01,0.45s-0.88-1.33-0.45-2.01
			c0.43-0.68,1.33-0.88,2.01-0.45c0.6,0.38,0.82,1.12,0.57,1.76l1.6,0.77c0,0,0,0,0,0c0.29-0.45,0.88-0.58,1.33-0.29
			c0.25,0.16,0.4,0.42,0.44,0.7l1.52-0.01c0.01-0.07,0.04-0.13,0.08-0.19c0.16-0.26,0.5-0.33,0.76-0.17
			c0.26,0.16,0.33,0.5,0.17,0.76c-0.16,0.26-0.5,0.33-0.76,0.17c-0.13-0.08-0.21-0.21-0.24-0.35l-1.52,0.01
			c-0.01,0.14-0.06,0.29-0.14,0.42c-0.29,0.45-0.88,0.58-1.33,0.29c-0.38-0.24-0.54-0.72-0.39-1.13l-1.6-0.77
			C10.59,23.6,10.58,23.62,10.57,23.64z"/>
		<path id="XMLID_997_" class="st1" d="M9.38,26.45c-0.24,0.77-1.05,1.2-1.82,0.96c-0.77-0.24-1.2-1.05-0.96-1.82
			c0.04-0.13,0.1-0.26,0.17-0.37l-1.22-0.94c-0.52,0.6-1.36,0.87-2.16,0.63c-1.08-0.33-1.69-1.48-1.36-2.56
			c0.33-1.08,1.48-1.69,2.56-1.36c1.08,0.33,1.69,1.48,1.36,2.56c-0.06,0.2-0.15,0.39-0.27,0.56l1.22,0.94
			c0.37-0.41,0.95-0.59,1.51-0.42c0.68,0.21,1.09,0.87,1.02,1.54l1.74,0.32c0,0,0,0,0-0.01c0.16-0.51,0.69-0.79,1.2-0.64
			c0.29,0.09,0.5,0.3,0.61,0.55l1.46-0.42c-0.01-0.07,0-0.14,0.02-0.21c0.09-0.29,0.4-0.45,0.69-0.36c0.29,0.09,0.45,0.4,0.36,0.69
			c-0.09,0.29-0.4,0.45-0.69,0.36c-0.15-0.05-0.26-0.15-0.33-0.28l-1.46,0.42c0.02,0.14,0.02,0.29-0.03,0.44
			c-0.16,0.51-0.69,0.79-1.2,0.64c-0.44-0.13-0.71-0.55-0.68-0.99l-1.75-0.32C9.39,26.41,9.38,26.43,9.38,26.45z"/>
	</g>
	<g id="XMLID_991_">
		<path id="XMLID_994_" class="st0" d="M6.67,15.11c-0.8-0.03-1.42-0.71-1.39-1.51c0.03-0.8,0.71-1.42,1.51-1.39
			c0.8,0.03,1.42,0.71,1.39,1.51C8.15,14.43,7.62,15,6.95,15.1l0.13,1.77c0,0,0,0,0.01,0c0.53,0.02,0.94,0.47,0.92,1
			c-0.01,0.3-0.16,0.56-0.38,0.73l0.77,1.31c0.06-0.02,0.13-0.03,0.21-0.03c0.3,0.01,0.54,0.27,0.53,0.57
			c-0.01,0.3-0.27,0.54-0.57,0.53c-0.3-0.01-0.54-0.27-0.53-0.57c0.01-0.15,0.08-0.29,0.18-0.39l-0.77-1.31
			C7.3,18.77,7.15,18.8,7,18.79c-0.53-0.02-0.94-0.47-0.92-1c0.02-0.46,0.35-0.82,0.78-0.9l-0.13-1.77
			C6.71,15.11,6.69,15.11,6.67,15.11z"/>
		<path id="XMLID_993_" class="st0" d="M3.64,15.49c-0.78,0.18-1.56-0.31-1.74-1.09c-0.18-0.78,0.31-1.56,1.09-1.74
			c0.14-0.03,0.27-0.04,0.41-0.03l0.2-1.53c-0.78-0.15-1.44-0.74-1.62-1.56c-0.25-1.1,0.44-2.2,1.54-2.46
			c1.1-0.25,2.2,0.44,2.46,1.54c0.25,1.1-0.44,2.2-1.54,2.46c-0.21,0.05-0.42,0.06-0.62,0.05l-0.2,1.53
			c0.54,0.11,0.99,0.53,1.12,1.1c0.16,0.69-0.2,1.38-0.83,1.65l0.6,1.67c0,0,0,0,0,0c0.52-0.12,1.03,0.21,1.15,0.72
			c0.07,0.29-0.01,0.58-0.18,0.8l1.09,1.06c0.06-0.04,0.12-0.07,0.19-0.08c0.3-0.07,0.59,0.12,0.66,0.41
			c0.07,0.3-0.12,0.59-0.41,0.66c-0.3,0.07-0.59-0.12-0.66-0.41c-0.03-0.15,0-0.3,0.07-0.42l-1.09-1.06
			c-0.11,0.09-0.25,0.16-0.4,0.2c-0.52,0.12-1.03-0.21-1.15-0.72c-0.1-0.44,0.12-0.89,0.52-1.08l-0.6-1.67
			C3.68,15.48,3.66,15.48,3.64,15.49z"/>
	</g>
	<g id="XMLID_987_">
		<path id="XMLID_990_" class="st1" d="M12.1,7.48c-0.37-0.71-0.09-1.59,0.62-1.96s1.59-0.09,1.96,0.62
			c0.37,0.71,0.09,1.59-0.62,1.96c-0.63,0.33-1.38,0.15-1.81-0.38l-1.47,1c0,0,0,0,0,0c0.25,0.47,0.06,1.05-0.41,1.3
			c-0.27,0.14-0.57,0.14-0.82,0.03l-0.75,1.32c0.05,0.04,0.1,0.1,0.13,0.16c0.14,0.27,0.04,0.6-0.23,0.74
			c-0.27,0.14-0.6,0.04-0.74-0.23c-0.14-0.27-0.04-0.6,0.23-0.74c0.14-0.07,0.29-0.08,0.43-0.03l0.75-1.32
			C9.26,9.85,9.15,9.74,9.08,9.6C8.84,9.13,9.02,8.55,9.49,8.3c0.4-0.21,0.89-0.11,1.17,0.23l1.47-1
			C12.12,7.51,12.11,7.49,12.1,7.48z"/>
		<path id="XMLID_989_" class="st1" d="M10.27,5.04c-0.55-0.59-0.51-1.51,0.08-2.05c0.59-0.55,1.51-0.51,2.05,0.08
			c0.1,0.1,0.17,0.22,0.23,0.34l1.43-0.59c-0.26-0.75-0.08-1.61,0.54-2.18c0.83-0.77,2.13-0.72,2.9,0.11
			c0.77,0.83,0.72,2.13-0.11,2.9c-0.83,0.77-2.13,0.72-2.9-0.11c-0.15-0.16-0.26-0.33-0.35-0.51L12.71,3.6
			c0.17,0.52,0.04,1.12-0.39,1.52c-0.52,0.48-1.29,0.51-1.85,0.11L9.33,6.58c0,0,0,0,0,0c0.36,0.39,0.34,1-0.05,1.36
			C9.06,8.14,8.77,8.23,8.5,8.19L8.13,9.66c0.06,0.03,0.12,0.07,0.17,0.12c0.21,0.22,0.19,0.57-0.03,0.78
			c-0.22,0.21-0.57,0.19-0.78-0.03c-0.21-0.22-0.19-0.57,0.03-0.78c0.11-0.11,0.26-0.15,0.4-0.15l0.37-1.47
			C8.15,8.08,8.02,8,7.92,7.89c-0.36-0.39-0.34-1,0.05-1.36C8.3,6.22,8.8,6.19,9.16,6.44l1.15-1.35
			C10.29,5.07,10.28,5.06,10.27,5.04z"/>
	</g>
</g>
</svg>
