<?xml version="1.0" encoding="utf-8"?>
<!-- Generator: Adobe Illustrator 25.0.0, SVG Export Plug-In . SVG Version: 6.00 Build 0)  -->
<svg version="1.1" id="Layer_1" xmlns="http://www.w3.org/2000/svg" xmlns:xlink="http://www.w3.org/1999/xlink" x="0px" y="0px"
	 viewBox="0 0 512 512" style="enable-background:new 0 0 512 512;" xml:space="preserve">
<style type="text/css">
	.st0{fill:#2EA7E0;}
	.st1{fill:#172A88;}
</style>
<g id="XMLID_986_">
	<g id="XMLID_1606_">
		<path id="XMLID_1610_" class="st0" d="M342.64,134.2c6.87-10.79,21.2-13.98,31.99-7.1c10.8,6.87,13.97,21.2,7.1,31.99
			c-6.87,10.8-21.2,13.98-31.99,7.1c-9.52-6.06-13.11-17.91-9.12-28.03l-25.48-12.28c-0.01,0.02-0.03,0.05-0.04,0.07
			c-4.55,7.15-14.04,9.25-21.18,4.7c-4.03-2.56-6.45-6.69-6.99-11.09l-24.23,0.21c-0.2,1.06-0.6,2.11-1.22,3.08
			c-2.61,4.1-8.04,5.3-12.14,2.7c-4.1-2.61-5.3-8.04-2.7-12.14c2.61-4.1,8.05-5.3,12.14-2.7c2.08,1.33,3.41,3.38,3.88,5.62
			l24.24-0.22c0.24-2.3,0.98-4.58,2.31-6.66c4.55-7.15,14.03-9.25,21.18-4.7c6.13,3.9,8.54,11.43,6.23,18.01l25.49,12.29
			C342.29,134.78,342.46,134.49,342.64,134.2z"/>
		<path id="XMLID_1608_" class="st0" d="M361.63,89.44c3.76-12.23,16.73-19.1,28.96-15.33c12.23,3.76,19.1,16.73,15.33,28.96
			c-0.66,2.14-1.6,4.11-2.77,5.9l19.52,14.99c8.21-9.59,21.62-13.94,34.46-9.99c17.25,5.31,26.94,23.6,21.63,40.86
			c-5.31,17.25-23.6,26.94-40.86,21.63c-17.25-5.31-26.94-23.6-21.63-40.86c1-3.26,2.47-6.24,4.3-8.91l-19.51-14.99
			c-5.85,6.53-15.16,9.45-24.09,6.71c-10.79-3.32-17.39-13.79-16.22-24.61l-27.82-5.09c-0.01,0.03-0.01,0.05-0.02,0.08
			c-2.49,8.1-11.08,12.64-19.18,10.15c-4.56-1.4-8-4.74-9.68-8.84l-23.3,6.63c0.09,1.08-0.02,2.19-0.36,3.29
			c-1.43,4.64-6.35,7.25-10.99,5.82c-4.64-1.43-7.25-6.35-5.82-10.99c1.43-4.64,6.35-7.25,10.99-5.82c2.36,0.73,4.19,2.36,5.23,4.39
			l23.31-6.64c-0.38-2.28-0.27-4.67,0.46-7.03c2.49-8.1,11.08-12.64,19.18-10.15c6.95,2.14,11.26,8.76,10.78,15.71l27.83,5.09
			C361.44,90.08,361.53,89.76,361.63,89.44z"/>
	</g>
	<g id="XMLID_1602_">
		<path id="XMLID_1605_" class="st1" d="M404.8,270.13c12.78,0.55,22.7,11.37,22.15,24.15c-0.55,12.79-11.37,22.7-24.15,22.15
			c-12.79-0.55-22.7-11.37-22.15-24.15c0.49-11.27,8.96-20.31,19.72-21.91l-2.1-28.2c-0.03,0-0.05,0-0.08,0
			c-8.47-0.37-15.03-7.53-14.67-15.99c0.21-4.77,2.57-8.93,6.11-11.6l-12.3-20.87c-1.02,0.36-2.13,0.54-3.28,0.49
			c-4.85-0.21-8.62-4.31-8.41-9.17c0.21-4.85,4.31-8.62,9.17-8.41c4.85,0.21,8.62,4.31,8.41,9.17c-0.11,2.47-1.22,4.65-2.93,6.17
			l12.31,20.88c2.11-0.94,4.45-1.44,6.92-1.33c8.47,0.37,15.03,7.53,14.66,15.99c-0.31,7.26-5.63,13.11-12.48,14.4l2.1,28.22
			C404.12,270.12,404.46,270.12,404.8,270.13z"/>
		<path id="XMLID_1604_" class="st1" d="M453.06,264.19c12.47-2.86,24.9,4.94,27.76,17.42c2.86,12.47-4.94,24.9-17.42,27.76
			c-2.18,0.5-4.36,0.67-6.49,0.55l-3.22,24.4c12.41,2.32,22.88,11.75,25.88,24.84c4.03,17.6-6.97,35.13-24.57,39.16
			c-17.6,4.03-35.13-6.97-39.16-24.57c-4.03-17.6,6.97-35.13,24.57-39.16c3.32-0.76,6.64-0.98,9.87-0.73l3.22-24.39
			c-8.58-1.8-15.77-8.4-17.85-17.51c-2.52-11,3.25-21.96,13.2-26.36l-9.51-26.64c-0.03,0.01-0.05,0.02-0.08,0.02
			c-8.26,1.89-16.49-3.27-18.38-11.53c-1.07-4.65,0.11-9.3,2.81-12.8l-17.39-16.86c-0.89,0.62-1.91,1.08-3.03,1.34
			c-4.73,1.08-9.45-1.88-10.54-6.61c-1.08-4.73,1.88-9.45,6.61-10.54c4.73-1.08,9.45,1.88,10.54,6.61c0.55,2.41,0.05,4.81-1.19,6.73
			l17.4,16.87c1.78-1.47,3.91-2.57,6.32-3.12c8.26-1.89,16.49,3.27,18.38,11.53c1.62,7.09-1.95,14.14-8.21,17.19l9.51,26.65
			C452.41,264.36,452.73,264.27,453.06,264.19z"/>
	</g>
	<g id="XMLID_1324_">
		<path id="XMLID_1601_" class="st0" d="M318.16,391.93c5.91,11.35,1.51,25.34-9.84,31.26c-11.35,5.91-25.34,1.5-31.26-9.84
			c-5.91-11.35-1.51-25.34,9.84-31.26c10.01-5.21,22.07-2.4,28.83,6.12l23.37-15.92c-0.01-0.02-0.03-0.05-0.04-0.07
			c-3.92-7.52-1-16.78,6.52-20.7c4.23-2.21,9.02-2.24,13.1-0.51l11.93-21.09c-0.82-0.71-1.53-1.57-2.06-2.59
			c-2.24-4.31-0.57-9.62,3.74-11.86c4.31-2.24,9.62-0.57,11.86,3.74c2.24,4.31,0.57,9.62-3.74,11.86c-2.19,1.14-4.64,1.26-6.81,0.55
			l-11.93,21.1c1.87,1.35,3.47,3.14,4.61,5.32c3.92,7.52,1,16.78-6.52,20.7c-6.45,3.36-14.17,1.68-18.71-3.61l-23.38,15.93
			C317.84,391.34,318,391.63,318.16,391.93z"/>
		<path id="XMLID_1600_" class="st0" d="M347.43,430.76c8.71,9.38,8.17,24.04-1.2,32.75c-9.38,8.71-24.04,8.17-32.75-1.2
			c-1.52-1.64-2.76-3.45-3.72-5.35l-22.74,9.41c4.2,11.91,1.27,25.69-8.57,34.84c-13.23,12.29-33.91,11.53-46.2-1.7
			c-12.29-13.23-11.53-33.91,1.7-46.2c13.23-12.29,33.91-11.53,46.2,1.7c2.32,2.5,4.17,5.26,5.57,8.18l22.74-9.4
			c-2.74-8.33-0.61-17.86,6.24-24.22c8.27-7.68,20.64-8.17,29.42-1.75l18.32-21.55c-0.02-0.02-0.04-0.04-0.06-0.06
			c-5.77-6.21-5.41-15.92,0.8-21.68c3.5-3.25,8.1-4.55,12.49-3.96l5.91-23.5c-0.98-0.46-1.89-1.11-2.67-1.95
			c-3.31-3.56-3.1-9.12,0.46-12.43c3.56-3.31,9.12-3.1,12.43,0.46c3.31,3.56,3.1,9.12-0.46,12.43c-1.81,1.68-4.13,2.45-6.42,2.34
			l-5.91,23.51c2.16,0.81,4.18,2.1,5.86,3.91c5.77,6.21,5.41,15.92-0.8,21.68c-5.32,4.95-13.22,5.38-19,1.48l-18.32,21.56
			C346.97,430.27,347.21,430.51,347.43,430.76z"/>
	</g>
	<g id="XMLID_995_">
		<path id="XMLID_998_" class="st1" d="M169.36,377.8c-6.87,10.79-21.2,13.98-31.99,7.1s-13.97-21.2-7.1-31.99
			c6.87-10.8,21.2-13.98,31.99-7.1c9.52,6.06,13.11,17.91,9.12,28.03l25.48,12.28c0.01-0.02,0.03-0.05,0.04-0.07
			c4.55-7.15,14.04-9.25,21.18-4.7c4.03,2.56,6.45,6.69,6.99,11.09l24.23-0.21c0.2-1.06,0.6-2.11,1.22-3.08
			c2.61-4.1,8.04-5.3,12.14-2.7c4.1,2.61,5.3,8.04,2.7,12.14c-2.61,4.1-8.05,5.3-12.14,2.7c-2.08-1.33-3.41-3.38-3.88-5.62
			l-24.24,0.22c-0.24,2.3-0.98,4.58-2.31,6.66c-4.55,7.15-14.03,9.25-21.18,4.7c-6.13-3.9-8.54-11.43-6.23-18.01l-25.49-12.29
			C169.71,377.22,169.54,377.51,169.36,377.8z"/>
		<path id="XMLID_997_" class="st1" d="M150.37,422.56c-3.76,12.23-16.73,19.1-28.96,15.33c-12.23-3.76-19.1-16.73-15.33-28.96
			c0.66-2.14,1.6-4.11,2.77-5.9l-19.52-14.99c-8.21,9.59-21.62,13.94-34.46,9.99c-17.25-5.31-26.94-23.6-21.63-40.86
			c5.31-17.25,23.6-26.94,40.86-21.63c17.25,5.31,26.94,23.6,21.63,40.86c-1,3.26-2.47,6.24-4.3,8.91l19.51,14.99
			c5.85-6.53,15.16-9.45,24.09-6.71c10.79,3.32,17.39,13.79,16.22,24.61l27.82,5.09c0.01-0.03,0.01-0.05,0.02-0.08
			c2.49-8.1,11.08-12.64,19.18-10.15c4.56,1.4,8,4.74,9.68,8.84l23.3-6.63c-0.09-1.08,0.02-2.19,0.36-3.29
			c1.43-4.64,6.35-7.25,10.99-5.82c4.64,1.43,7.25,6.35,5.82,10.99c-1.43,4.64-6.35,7.25-10.99,5.82c-2.36-0.73-4.19-2.36-5.23-4.39
			l-23.31,6.64c0.38,2.28,0.27,4.67-0.46,7.03c-2.49,8.1-11.08,12.64-19.18,10.15c-6.95-2.14-11.26-8.76-10.78-15.71l-27.83-5.09
			C150.56,421.92,150.47,422.24,150.37,422.56z"/>
	</g>
	<g id="XMLID_991_">
		<path id="XMLID_994_" class="st0" d="M107.2,241.87c-12.78-0.55-22.7-11.37-22.15-24.15c0.55-12.79,11.37-22.7,24.15-22.15
			c12.79,0.55,22.7,11.37,22.15,24.15c-0.49,11.27-8.96,20.31-19.72,21.91l2.1,28.2c0.03,0,0.05,0,0.08,0
			c8.47,0.37,15.03,7.53,14.67,15.99c-0.21,4.77-2.57,8.93-6.11,11.6l12.3,20.87c1.02-0.36,2.13-0.54,3.28-0.49
			c4.85,0.21,8.62,4.31,8.41,9.17c-0.21,4.85-4.31,8.62-9.17,8.41c-4.85-0.21-8.62-4.31-8.41-9.17c0.11-2.47,1.22-4.65,2.93-6.17
			l-12.31-20.88c-2.11,0.94-4.45,1.44-6.92,1.33c-8.47-0.37-15.03-7.53-14.66-15.99c0.31-7.26,5.63-13.11,12.48-14.4l-2.1-28.22
			C107.88,241.88,107.54,241.88,107.2,241.87z"/>
		<path id="XMLID_993_" class="st0" d="M58.94,247.81c-12.47,2.86-24.9-4.94-27.76-17.42s4.94-24.9,17.42-27.76
			c2.18-0.5,4.36-0.67,6.49-0.55l3.22-24.4c-12.41-2.32-22.88-11.75-25.88-24.84c-4.03-17.6,6.97-35.13,24.57-39.16
			c17.6-4.03,35.13,6.97,39.16,24.57c4.03,17.6-6.97,35.13-24.57,39.16c-3.32,0.76-6.64,0.98-9.87,0.73l-3.22,24.39
			c8.58,1.8,15.77,8.4,17.85,17.51c2.52,11-3.25,21.96-13.2,26.36l9.51,26.64c0.03-0.01,0.05-0.02,0.08-0.02
			c8.26-1.89,16.49,3.27,18.38,11.53c1.07,4.65-0.11,9.3-2.81,12.8l17.39,16.86c0.89-0.62,1.91-1.08,3.03-1.34
			c4.73-1.08,9.45,1.88,10.54,6.61c1.08,4.73-1.88,9.45-6.61,10.54s-9.45-1.88-10.54-6.61c-0.55-2.41-0.05-4.81,1.19-6.73
			l-17.4-16.87c-1.78,1.47-3.91,2.57-6.32,3.12c-8.26,1.89-16.49-3.27-18.38-11.53c-1.62-7.09,1.95-14.14,8.21-17.19l-9.51-26.65
			C59.59,247.64,59.27,247.73,58.94,247.81z"/>
	</g>
	<g id="XMLID_987_">
		<path id="XMLID_990_" class="st1" d="M193.84,120.07c-5.91-11.35-1.51-25.34,9.84-31.26s25.34-1.5,31.26,9.84
			c5.91,11.35,1.51,25.34-9.84,31.26c-10.01,5.21-22.07,2.4-28.83-6.12l-23.37,15.92c0.01,0.02,0.03,0.05,0.04,0.07
			c3.92,7.52,1,16.78-6.52,20.7c-4.23,2.21-9.02,2.24-13.1,0.51l-11.93,21.09c0.82,0.71,1.53,1.57,2.06,2.59
			c2.24,4.31,0.57,9.62-3.74,11.86c-4.31,2.24-9.62,0.57-11.86-3.74c-2.24-4.31-0.57-9.62,3.74-11.86c2.19-1.14,4.64-1.26,6.81-0.55
			l11.93-21.1c-1.87-1.35-3.47-3.14-4.61-5.32c-3.92-7.52-1-16.78,6.52-20.7c6.45-3.36,14.17-1.68,18.71,3.61l23.38-15.93
			C194.16,120.66,194,120.37,193.84,120.07z"/>
		<path id="XMLID_989_" class="st1" d="M164.57,81.24c-8.71-9.38-8.17-24.04,1.2-32.75c9.38-8.71,24.04-8.17,32.75,1.2
			c1.52,1.64,2.76,3.45,3.72,5.35l22.74-9.41c-4.2-11.91-1.27-25.69,8.57-34.84c13.23-12.29,33.91-11.53,46.2,1.7
			c12.29,13.23,11.53,33.91-1.7,46.2c-13.23,12.29-33.91,11.53-46.2-1.7c-2.32-2.5-4.17-5.26-5.57-8.18l-22.74,9.4
			c2.74,8.33,0.61,17.86-6.24,24.22c-8.27,7.68-20.64,8.17-29.42,1.75l-18.32,21.55c0.02,0.02,0.04,0.04,0.06,0.06
			c5.77,6.21,5.41,15.92-0.8,21.68c-3.5,3.25-8.1,4.55-12.49,3.96l-5.91,23.5c0.98,0.46,1.89,1.11,2.67,1.95
			c3.31,3.56,3.1,9.12-0.46,12.43c-3.56,3.31-9.12,3.1-12.43-0.46c-3.31-3.56-3.1-9.12,0.46-12.43c1.81-1.68,4.13-2.45,6.42-2.34
			l5.91-23.51c-2.16-0.81-4.18-2.1-5.86-3.91c-5.77-6.21-5.41-15.92,0.8-21.68c5.32-4.95,13.22-5.38,19-1.48l18.32-21.56
			C165.03,81.73,164.79,81.49,164.57,81.24z"/>
	</g>
</g>
</svg>
