<?xml version="1.0" encoding="utf-8"?>
<!-- Generator: Adobe Illustrator 25.0.0, SVG Export Plug-In . SVG Version: 6.00 Build 0)  -->
<svg version="1.1" id="Layer_1" xmlns="http://www.w3.org/2000/svg" xmlns:xlink="http://www.w3.org/1999/xlink" x="0px" y="0px"
	 viewBox="0 0 1024 1024" style="enable-background:new 0 0 1024 1024;" xml:space="preserve">
<style type="text/css">
	.st0{fill:#2EA7E0;}
	.st1{fill:#172A88;}
</style>
<g id="XMLID_986_">
	<g id="XMLID_1606_">
		<path id="XMLID_1610_" class="st0" d="M685.16,268.57c13.74-21.58,42.36-27.93,63.94-14.2s27.93,42.36,14.2,63.94
			c-13.74,21.58-42.36,27.93-63.94,14.2c-19.03-12.11-26.21-35.8-18.22-56.03l-50.92-24.55c-0.03,0.05-0.05,0.1-0.08,0.14
			c-9.1,14.29-28.05,18.5-42.34,9.4c-8.05-5.12-12.9-13.38-13.97-22.16l-48.42,0.43c-0.4,2.13-1.2,4.22-2.43,6.16
			c-5.21,8.19-16.08,10.6-24.27,5.39c-8.19-5.21-10.6-16.08-5.39-24.27c5.21-8.19,16.08-10.6,24.27-5.39
			c4.16,2.65,6.82,6.76,7.76,11.24l48.44-0.43c0.47-4.59,1.96-9.15,4.61-13.3c9.1-14.29,28.05-18.5,42.34-9.4
			c12.25,7.8,17.06,22.85,12.45,35.99l50.94,24.56C684.46,269.71,684.8,269.14,685.16,268.57z"/>
		<path id="XMLID_1608_" class="st0" d="M723.12,179.09c7.52-24.45,33.44-38.17,57.89-30.64c24.45,7.52,38.17,33.44,30.64,57.89
			c-1.32,4.28-3.21,8.22-5.54,11.78l39.01,29.96c16.41-19.17,43.21-27.87,68.87-19.97c34.49,10.61,53.84,47.17,43.23,81.66
			c-10.61,34.49-47.17,53.84-81.66,43.23c-34.49-10.61-53.84-47.17-43.23-81.66c2-6.51,4.93-12.48,8.6-17.81l-39-29.96
			c-11.69,13.06-30.31,18.9-48.15,13.41c-21.56-6.63-34.76-27.57-32.43-49.19l-55.61-10.16c-0.02,0.05-0.02,0.11-0.04,0.16
			c-4.98,16.19-22.14,25.27-38.33,20.29c-9.12-2.81-15.98-9.48-19.35-17.66l-46.57,13.26c0.17,2.16-0.04,4.38-0.71,6.58
			c-2.86,9.28-12.69,14.49-21.97,11.63c-9.28-2.86-14.49-12.69-11.63-21.97s12.69-14.49,21.97-11.63c4.72,1.45,8.37,4.71,10.46,8.78
			l46.6-13.26c-0.76-4.55-0.53-9.34,0.91-14.05c4.98-16.19,22.14-25.27,38.33-20.29c13.89,4.27,22.51,17.51,21.55,31.4l55.63,10.17
			C722.75,180.37,722.92,179.73,723.12,179.09z"/>
	</g>
	<g id="XMLID_1602_">
		<path id="XMLID_1605_" class="st1" d="M809.4,540.25c25.55,1.11,45.37,22.72,44.26,48.28c-1.11,25.55-22.72,45.37-48.28,44.26
			c-25.55-1.11-45.37-22.72-44.27-48.28c0.98-22.53,17.9-40.6,39.41-43.79l-4.2-56.37c-0.06,0-0.11,0-0.16,0
			c-16.92-0.73-30.05-15.05-29.31-31.97c0.41-9.53,5.14-17.86,12.21-23.18l-24.58-41.72c-2.04,0.71-4.25,1.07-6.55,0.97
			c-9.7-0.42-17.22-8.62-16.8-18.32c0.42-9.7,8.62-17.22,18.32-16.8c9.7,0.42,17.22,8.62,16.8,18.32
			c-0.21,4.93-2.44,9.29-5.85,12.34L785,425.73c4.21-1.89,8.9-2.87,13.82-2.66c16.92,0.73,30.04,15.05,29.31,31.97
			c-0.63,14.51-11.26,26.2-24.94,28.78l4.2,56.39C808.06,540.21,808.73,540.22,809.4,540.25z"/>
		<path id="XMLID_1604_" class="st1" d="M905.87,528.38c24.93-5.71,49.77,9.88,55.48,34.81c5.71,24.93-9.88,49.77-34.81,55.48
			c-4.36,1-8.72,1.33-12.98,1.09l-6.44,48.76c24.81,4.63,45.74,23.49,51.73,49.65c8.05,35.17-13.93,70.21-49.11,78.27
			c-35.17,8.05-70.21-13.93-78.27-49.11c-8.05-35.17,13.93-70.22,49.11-78.27c6.64-1.52,13.27-1.97,19.72-1.46l6.44-48.75
			c-17.15-3.59-31.52-16.8-35.69-35c-5.03-21.99,6.49-43.89,26.38-52.68l-19-53.24c-0.05,0.01-0.1,0.03-0.16,0.04
			c-16.51,3.78-32.96-6.54-36.74-23.05c-2.13-9.3,0.22-18.58,5.62-25.59l-34.77-33.71c-1.78,1.23-3.81,2.16-6.05,2.67
			c-9.46,2.17-18.89-3.75-21.06-13.21c-2.17-9.46,3.75-18.89,13.21-21.06c9.46-2.17,18.89,3.75,21.06,13.21
			c1.1,4.81,0.11,9.6-2.37,13.45l34.78,33.72c3.56-2.93,7.82-5.13,12.62-6.23c16.51-3.78,32.96,6.54,36.74,23.05
			c3.24,14.16-3.91,28.25-16.42,34.37l19.01,53.26C904.57,528.7,905.22,528.53,905.87,528.38z"/>
	</g>
	<g id="XMLID_1324_">
		<path id="XMLID_1601_" class="st0" d="M636.24,783.68c11.82,22.68,3.01,50.65-19.68,62.47c-22.68,11.82-50.65,3.01-62.47-19.68
			c-11.82-22.68-3.01-50.66,19.68-62.47c20-10.42,44.11-4.8,57.63,12.23l46.72-31.83c-0.03-0.05-0.06-0.09-0.08-0.14
			c-7.83-15.02-1.99-33.54,13.03-41.37c8.46-4.41,18.03-4.48,26.18-1.02l23.84-42.15c-1.64-1.41-3.05-3.14-4.11-5.18
			c-4.49-8.61-1.14-19.23,7.47-23.71c8.61-4.49,19.23-1.14,23.71,7.47c4.49,8.61,1.14,19.23-7.47,23.71
			c-4.38,2.28-9.27,2.53-13.61,1.1l-23.85,42.17c3.74,2.71,6.94,6.27,9.22,10.64c7.83,15.02,1.99,33.54-13.03,41.37
			c-12.88,6.71-28.32,3.35-37.4-7.21l-46.74,31.84C635.6,782.5,635.93,783.08,636.24,783.68z"/>
		<path id="XMLID_1600_" class="st0" d="M694.75,861.29c17.41,18.74,16.33,48.04-2.41,65.45c-18.74,17.41-48.04,16.33-65.45-2.4
			c-3.05-3.28-5.51-6.89-7.43-10.69l-45.45,18.8c8.39,23.8,2.53,51.35-17.14,69.63c-26.43,24.56-67.77,23.04-92.33-3.39
			c-24.56-26.43-23.04-67.77,3.39-92.33c26.43-24.56,67.77-23.04,92.33,3.39c4.64,4.99,8.34,10.51,11.12,16.35l45.44-18.8
			c-5.47-16.65-1.21-35.7,12.47-48.41c16.52-15.35,41.26-16.32,58.81-3.49l36.61-43.08c-0.04-0.04-0.08-0.07-0.12-0.11
			c-11.53-12.41-10.82-31.81,1.59-43.34c6.99-6.49,16.2-9.1,24.97-7.92l11.81-46.96c-1.96-0.93-3.78-2.22-5.34-3.9
			c-6.61-7.11-6.2-18.24,0.91-24.84c7.11-6.61,18.24-6.2,24.84,0.91c6.61,7.11,6.2,18.23-0.91,24.84c-3.61,3.36-8.26,4.9-12.83,4.67
			l-11.81,46.99c4.32,1.62,8.35,4.21,11.71,7.82c11.53,12.41,10.82,31.81-1.59,43.34c-10.64,9.89-26.42,10.74-37.97,2.96
			l-36.62,43.09C693.82,860.33,694.29,860.8,694.75,861.29z"/>
	</g>
	<g id="XMLID_995_">
		<path id="XMLID_998_" class="st1" d="M338.84,755.43c-13.74,21.58-42.36,27.93-63.94,14.2s-27.93-42.36-14.2-63.94
			c13.74-21.58,42.36-27.93,63.94-14.2c19.03,12.11,26.21,35.8,18.22,56.03l50.92,24.55c0.03-0.05,0.05-0.1,0.08-0.14
			c9.1-14.29,28.05-18.5,42.34-9.4c8.05,5.12,12.9,13.38,13.97,22.16l48.42-0.43c0.4-2.13,1.2-4.22,2.43-6.16
			c5.21-8.19,16.08-10.6,24.27-5.39c8.19,5.21,10.6,16.08,5.39,24.27c-5.21,8.19-16.08,10.6-24.27,5.39
			c-4.16-2.65-6.82-6.76-7.76-11.24l-48.44,0.43c-0.47,4.59-1.96,9.15-4.61,13.3c-9.1,14.29-28.05,18.5-42.34,9.4
			c-12.25-7.8-17.06-22.85-12.45-35.99l-50.94-24.56C339.54,754.29,339.2,754.86,338.84,755.43z"/>
		<path id="XMLID_997_" class="st1" d="M300.88,844.91c-7.52,24.45-33.44,38.17-57.89,30.64c-24.45-7.52-38.17-33.44-30.64-57.89
			c1.32-4.28,3.21-8.22,5.54-11.78l-39.01-29.96c-16.41,19.17-43.21,27.87-68.87,19.97c-34.49-10.61-53.84-47.17-43.23-81.66
			c10.61-34.49,47.17-53.84,81.66-43.23c34.49,10.61,53.84,47.17,43.23,81.66c-2,6.51-4.93,12.48-8.6,17.81l39,29.96
			c11.69-13.06,30.31-18.9,48.15-13.41c21.56,6.63,34.76,27.57,32.43,49.19l55.61,10.16c0.02-0.05,0.02-0.11,0.04-0.16
			c4.98-16.19,22.14-25.27,38.33-20.29c9.12,2.81,15.98,9.48,19.35,17.66l46.57-13.26c-0.17-2.16,0.04-4.38,0.71-6.58
			c2.86-9.28,12.69-14.49,21.97-11.63c9.28,2.86,14.49,12.69,11.63,21.97c-2.86,9.28-12.69,14.49-21.97,11.63
			c-4.72-1.45-8.37-4.71-10.46-8.78l-46.6,13.26c0.76,4.55,0.53,9.34-0.91,14.05c-4.98,16.19-22.14,25.27-38.33,20.29
			c-13.89-4.27-22.51-17.51-21.55-31.4l-55.63-10.17C301.25,843.63,301.08,844.27,300.88,844.91z"/>
	</g>
	<g id="XMLID_991_">
		<path id="XMLID_994_" class="st0" d="M214.6,483.75c-25.55-1.11-45.37-22.72-44.26-48.28c1.11-25.55,22.72-45.37,48.28-44.26
			c25.55,1.11,45.37,22.72,44.27,48.28c-0.98,22.53-17.9,40.6-39.41,43.79l4.2,56.37c0.06,0,0.11,0,0.16,0
			c16.92,0.73,30.05,15.05,29.31,31.97c-0.41,9.53-5.14,17.86-12.21,23.18l24.58,41.72c2.04-0.71,4.25-1.07,6.55-0.97
			c9.7,0.42,17.22,8.62,16.8,18.32c-0.42,9.7-8.62,17.22-18.32,16.8c-9.7-0.42-17.22-8.62-16.8-18.32
			c0.21-4.93,2.44-9.29,5.85-12.34L239,598.27c-4.21,1.89-8.9,2.87-13.82,2.66c-16.92-0.73-30.04-15.05-29.31-31.97
			c0.63-14.51,11.26-26.2,24.94-28.78l-4.2-56.39C215.94,483.79,215.27,483.78,214.6,483.75z"/>
		<path id="XMLID_993_" class="st0" d="M118.13,495.62c-24.93,5.71-49.77-9.88-55.48-34.81s9.88-49.77,34.81-55.48
			c4.36-1,8.72-1.33,12.98-1.09l6.44-48.76c-24.81-4.63-45.74-23.49-51.73-49.65c-8.05-35.17,13.93-70.21,49.11-78.27
			c35.17-8.05,70.21,13.93,78.27,49.11c8.05,35.17-13.93,70.22-49.11,78.27c-6.64,1.52-13.27,1.97-19.72,1.46l-6.44,48.75
			c17.15,3.59,31.52,16.8,35.69,35c5.03,21.99-6.49,43.89-26.38,52.68l19,53.24c0.05-0.01,0.1-0.03,0.16-0.04
			c16.51-3.78,32.96,6.54,36.74,23.05c2.13,9.3-0.22,18.58-5.62,25.59l34.77,33.71c1.78-1.23,3.81-2.16,6.05-2.67
			c9.46-2.17,18.89,3.75,21.06,13.21c2.17,9.46-3.75,18.89-13.21,21.06c-9.46,2.17-18.89-3.75-21.06-13.21
			c-1.1-4.81-0.11-9.6,2.37-13.45l-34.78-33.72c-3.56,2.93-7.82,5.13-12.62,6.23c-16.51,3.78-32.96-6.54-36.74-23.05
			c-3.24-14.16,3.91-28.25,16.42-34.37l-19.01-53.26C119.43,495.3,118.78,495.47,118.13,495.62z"/>
	</g>
	<g id="XMLID_987_">
		<path id="XMLID_990_" class="st1" d="M387.76,240.32c-11.82-22.68-3.01-50.65,19.68-62.47c22.68-11.82,50.65-3.01,62.47,19.68
			c11.82,22.68,3.01,50.66-19.68,62.47c-20,10.42-44.11,4.8-57.63-12.23l-46.72,31.83c0.03,0.05,0.06,0.09,0.08,0.14
			c7.83,15.02,1.99,33.54-13.03,41.37c-8.46,4.41-18.03,4.48-26.18,1.02l-23.84,42.15c1.64,1.41,3.05,3.14,4.11,5.18
			c4.49,8.61,1.14,19.23-7.47,23.71c-8.61,4.49-19.23,1.14-23.71-7.47c-4.49-8.61-1.14-19.23,7.47-23.71
			c4.38-2.28,9.27-2.53,13.61-1.1l23.85-42.17c-3.74-2.71-6.94-6.27-9.22-10.64c-7.83-15.02-1.99-33.54,13.03-41.37
			c12.88-6.71,28.32-3.35,37.4,7.21l46.74-31.84C388.4,241.5,388.07,240.92,387.76,240.32z"/>
		<path id="XMLID_989_" class="st1" d="M329.25,162.71c-17.41-18.74-16.33-48.04,2.41-65.45c18.74-17.41,48.04-16.33,65.45,2.4
			c3.05,3.28,5.51,6.89,7.43,10.69l45.45-18.8c-8.39-23.8-2.53-51.35,17.14-69.63c26.43-24.56,67.77-23.04,92.33,3.39
			c24.56,26.43,23.04,67.77-3.39,92.33c-26.43,24.56-67.77,23.04-92.33-3.39c-4.64-4.99-8.34-10.51-11.13-16.35l-45.44,18.8
			c5.47,16.65,1.21,35.7-12.47,48.41c-16.52,15.35-41.26,16.32-58.81,3.49l-36.61,43.08c0.04,0.04,0.08,0.07,0.12,0.11
			c11.53,12.41,10.82,31.81-1.59,43.34c-6.99,6.49-16.2,9.1-24.97,7.92l-11.81,46.96c1.96,0.93,3.78,2.22,5.34,3.9
			c6.61,7.11,6.2,18.24-0.91,24.84c-7.11,6.61-18.24,6.2-24.84-0.91c-6.61-7.11-6.2-18.23,0.91-24.84c3.61-3.36,8.26-4.9,12.83-4.67
			l11.81-46.99c-4.32-1.62-8.35-4.21-11.71-7.82c-11.53-12.41-10.82-31.81,1.59-43.34c10.64-9.89,26.42-10.74,37.97-2.96
			l36.62-43.09C330.18,163.67,329.71,163.2,329.25,162.71z"/>
	</g>
</g>
</svg>
