<?xml version="1.0" encoding="utf-8"?>
<!-- Generator: Adobe Illustrator 25.0.0, SVG Export Plug-In . SVG Version: 6.00 Build 0)  -->
<svg version="1.1" id="Layer_1" xmlns="http://www.w3.org/2000/svg" xmlns:xlink="http://www.w3.org/1999/xlink" x="0px" y="0px"
	 viewBox="0 0 128 128" style="enable-background:new 0 0 128 128;" xml:space="preserve">
<style type="text/css">
	.st0{fill:#2EA7E0;}
	.st1{fill:#172A88;}
</style>
<g id="XMLID_986_">
	<g id="XMLID_1606_">
		<path id="XMLID_1610_" class="st0" d="M85.61,33.62c1.71-2.69,5.29-3.49,7.98-1.77c2.69,1.71,3.49,5.29,1.77,7.98
			c-1.71,2.69-5.29,3.49-7.98,1.77c-2.37-1.51-3.27-4.47-2.27-6.99l-6.35-3.06c0,0.01-0.01,0.01-0.01,0.02
			c-1.14,1.78-3.5,2.31-5.28,1.17c-1-0.64-1.61-1.67-1.74-2.77l-6.04,0.05c-0.05,0.27-0.15,0.53-0.3,0.77
			c-0.65,1.02-2.01,1.32-3.03,0.67c-1.02-0.65-1.32-2.01-0.67-3.03c0.65-1.02,2.01-1.32,3.03-0.67c0.52,0.33,0.85,0.84,0.97,1.4
			l6.05-0.05c0.06-0.57,0.24-1.14,0.58-1.66c1.14-1.78,3.5-2.31,5.28-1.17c1.53,0.97,2.13,2.85,1.55,4.49l6.36,3.06
			C85.52,33.76,85.57,33.69,85.61,33.62z"/>
		<path id="XMLID_1608_" class="st0" d="M90.35,22.45c0.94-3.05,4.17-4.76,7.22-3.82c3.05,0.94,4.76,4.17,3.82,7.22
			c-0.16,0.53-0.4,1.03-0.69,1.47l4.87,3.74c2.05-2.39,5.39-3.48,8.59-2.49c4.3,1.32,6.72,5.89,5.39,10.19
			c-1.32,4.3-5.89,6.72-10.19,5.39c-4.3-1.32-6.72-5.89-5.39-10.19c0.25-0.81,0.62-1.56,1.07-2.22L100.18,28
			c-1.46,1.63-3.78,2.36-6.01,1.67c-2.69-0.83-4.34-3.44-4.05-6.14l-6.94-1.27c0,0.01,0,0.01-0.01,0.02
			c-0.62,2.02-2.76,3.15-4.78,2.53c-1.14-0.35-1.99-1.18-2.41-2.2l-5.81,1.65c0.02,0.27,0,0.55-0.09,0.82
			c-0.36,1.16-1.58,1.81-2.74,1.45c-1.16-0.36-1.81-1.58-1.45-2.74c0.36-1.16,1.58-1.81,2.74-1.45c0.59,0.18,1.04,0.59,1.31,1.1
			l5.82-1.66c-0.1-0.57-0.07-1.17,0.11-1.75c0.62-2.02,2.76-3.15,4.78-2.53c1.73,0.53,2.81,2.19,2.69,3.92l6.94,1.27
			C90.3,22.61,90.32,22.53,90.35,22.45z"/>
	</g>
	<g id="XMLID_1602_">
		<path id="XMLID_1605_" class="st1" d="M101.12,67.53c3.19,0.14,5.66,2.84,5.52,6.02c-0.14,3.19-2.84,5.66-6.02,5.52
			c-3.19-0.14-5.66-2.84-5.52-6.02c0.12-2.81,2.23-5.07,4.92-5.47l-0.52-7.04c-0.01,0-0.01,0-0.02,0c-2.11-0.09-3.75-1.88-3.66-3.99
			c0.05-1.19,0.64-2.23,1.52-2.89l-3.07-5.21c-0.26,0.09-0.53,0.13-0.82,0.12c-1.21-0.05-2.15-1.08-2.1-2.29
			c0.05-1.21,1.08-2.15,2.29-2.1c1.21,0.05,2.15,1.08,2.1,2.29c-0.03,0.62-0.31,1.16-0.73,1.54l3.07,5.21
			c0.53-0.24,1.11-0.36,1.73-0.33c2.11,0.09,3.75,1.88,3.66,3.99c-0.08,1.81-1.4,3.27-3.11,3.59l0.52,7.04
			C100.95,67.52,101.03,67.52,101.12,67.53z"/>
		<path id="XMLID_1604_" class="st1" d="M113.15,66.04c3.11-0.71,6.21,1.23,6.92,4.34s-1.23,6.21-4.34,6.92
			c-0.54,0.12-1.09,0.17-1.62,0.14l-0.8,6.09c3.1,0.58,5.71,2.93,6.46,6.2c1,4.39-1.74,8.76-6.13,9.77c-4.39,1-8.76-1.74-9.77-6.13
			c-1-4.39,1.74-8.76,6.13-9.77c0.83-0.19,1.66-0.25,2.46-0.18l0.8-6.08c-2.14-0.45-3.93-2.1-4.45-4.37
			c-0.63-2.74,0.81-5.48,3.29-6.57l-2.37-6.64c-0.01,0-0.01,0-0.02,0.01c-2.06,0.47-4.11-0.82-4.58-2.88
			c-0.27-1.16,0.03-2.32,0.7-3.19l-4.34-4.21c-0.22,0.15-0.48,0.27-0.76,0.33c-1.18,0.27-2.36-0.47-2.63-1.65
			c-0.27-1.18,0.47-2.36,1.65-2.63c1.18-0.27,2.36,0.47,2.63,1.65c0.14,0.6,0.01,1.2-0.3,1.68l4.34,4.21
			c0.44-0.37,0.98-0.64,1.58-0.78c2.06-0.47,4.11,0.82,4.58,2.88c0.4,1.77-0.49,3.53-2.05,4.29l2.37,6.65
			C112.99,66.08,113.07,66.06,113.15,66.04z"/>
	</g>
	<g id="XMLID_1324_">
		<path id="XMLID_1601_" class="st0" d="M79.5,97.91c1.47,2.83,0.38,6.32-2.46,7.8c-2.83,1.47-6.32,0.38-7.8-2.46
			c-1.47-2.83-0.38-6.32,2.46-7.8c2.5-1.3,5.5-0.6,7.19,1.53L84.73,93c0-0.01-0.01-0.01-0.01-0.02c-0.98-1.87-0.25-4.19,1.63-5.16
			c1.06-0.55,2.25-0.56,3.27-0.13l2.97-5.26c-0.2-0.18-0.38-0.39-0.51-0.65c-0.56-1.07-0.14-2.4,0.93-2.96
			c1.07-0.56,2.4-0.14,2.96,0.93c0.56,1.07,0.14,2.4-0.93,2.96c-0.55,0.28-1.16,0.32-1.7,0.14l-2.98,5.26
			c0.47,0.34,0.87,0.78,1.15,1.33c0.98,1.87,0.25,4.19-1.63,5.16c-1.61,0.84-3.53,0.42-4.67-0.9l-5.83,3.97
			C79.42,97.76,79.47,97.83,79.5,97.91z"/>
		<path id="XMLID_1600_" class="st0" d="M86.81,107.59c2.17,2.34,2.04,6-0.3,8.17c-2.34,2.17-6,2.04-8.17-0.3
			c-0.38-0.41-0.69-0.86-0.93-1.33l-5.67,2.35c1.05,2.97,0.32,6.41-2.14,8.69c-3.3,3.07-8.46,2.88-11.52-0.42
			c-3.07-3.3-2.88-8.46,0.42-11.52c3.3-3.07,8.46-2.88,11.52,0.42c0.58,0.62,1.04,1.31,1.39,2.04l5.67-2.35
			c-0.68-2.08-0.15-4.45,1.56-6.04c2.06-1.92,5.15-2.04,7.34-0.44l4.57-5.38c0-0.01-0.01-0.01-0.01-0.01
			c-1.44-1.55-1.35-3.97,0.2-5.41c0.87-0.81,2.02-1.14,3.12-0.99l1.47-5.86c-0.24-0.12-0.47-0.28-0.67-0.49
			c-0.82-0.89-0.77-2.28,0.11-3.1c0.89-0.82,2.28-0.77,3.1,0.11c0.82,0.89,0.77,2.28-0.11,3.1c-0.45,0.42-1.03,0.61-1.6,0.58
			l-1.47,5.86c0.54,0.2,1.04,0.52,1.46,0.98c1.44,1.55,1.35,3.97-0.2,5.41c-1.33,1.23-3.3,1.34-4.74,0.37l-4.57,5.38
			C86.69,107.47,86.75,107.53,86.81,107.59z"/>
	</g>
	<g id="XMLID_995_">
		<path id="XMLID_998_" class="st1" d="M42.39,94.38c-1.71,2.69-5.29,3.49-7.98,1.77c-2.69-1.71-3.49-5.29-1.77-7.98
			c1.71-2.69,5.29-3.49,7.98-1.77c2.37,1.51,3.27,4.47,2.27,6.99l6.35,3.06c0-0.01,0.01-0.01,0.01-0.02
			c1.14-1.78,3.5-2.31,5.28-1.17c1,0.64,1.61,1.67,1.74,2.77l6.04-0.05c0.05-0.27,0.15-0.53,0.3-0.77c0.65-1.02,2.01-1.32,3.03-0.67
			c1.02,0.65,1.32,2.01,0.67,3.03c-0.65,1.02-2.01,1.32-3.03,0.67c-0.52-0.33-0.85-0.84-0.97-1.4l-6.05,0.05
			c-0.06,0.57-0.24,1.14-0.58,1.66c-1.14,1.78-3.5,2.31-5.28,1.17c-1.53-0.97-2.13-2.85-1.55-4.49l-6.36-3.06
			C42.48,94.24,42.43,94.31,42.39,94.38z"/>
		<path id="XMLID_997_" class="st1" d="M37.65,105.55c-0.94,3.05-4.17,4.76-7.22,3.82c-3.05-0.94-4.76-4.17-3.82-7.22
			c0.16-0.53,0.4-1.03,0.69-1.47l-4.87-3.74c-2.05,2.39-5.39,3.48-8.59,2.49c-4.3-1.32-6.72-5.89-5.39-10.19
			c1.32-4.3,5.89-6.72,10.19-5.39c4.3,1.32,6.72,5.89,5.39,10.19c-0.25,0.81-0.62,1.56-1.07,2.22l4.87,3.74
			c1.46-1.63,3.78-2.36,6.01-1.67c2.69,0.83,4.34,3.44,4.05,6.14l6.94,1.27c0-0.01,0-0.01,0.01-0.02c0.62-2.02,2.76-3.15,4.78-2.53
			c1.14,0.35,1.99,1.18,2.41,2.2l5.81-1.65c-0.02-0.27,0-0.55,0.09-0.82c0.36-1.16,1.58-1.81,2.74-1.45
			c1.16,0.36,1.81,1.58,1.45,2.74c-0.36,1.16-1.58,1.81-2.74,1.45c-0.59-0.18-1.04-0.59-1.31-1.1l-5.82,1.66
			c0.1,0.57,0.07,1.17-0.11,1.75c-0.62,2.02-2.76,3.15-4.78,2.53c-1.73-0.53-2.81-2.19-2.69-3.92l-6.94-1.27
			C37.7,105.39,37.68,105.47,37.65,105.55z"/>
	</g>
	<g id="XMLID_991_">
		<path id="XMLID_994_" class="st0" d="M26.88,60.47c-3.19-0.14-5.66-2.84-5.52-6.02c0.14-3.19,2.84-5.66,6.02-5.52
			c3.19,0.14,5.66,2.84,5.52,6.02c-0.12,2.81-2.23,5.07-4.92,5.47l0.52,7.04c0.01,0,0.01,0,0.02,0c2.11,0.09,3.75,1.88,3.66,3.99
			c-0.05,1.19-0.64,2.23-1.52,2.89l3.07,5.21c0.26-0.09,0.53-0.13,0.82-0.12c1.21,0.05,2.15,1.08,2.1,2.29
			c-0.05,1.21-1.08,2.15-2.29,2.1c-1.21-0.05-2.15-1.08-2.1-2.29c0.03-0.62,0.31-1.16,0.73-1.54l-3.07-5.21
			c-0.53,0.24-1.11,0.36-1.73,0.33c-2.11-0.09-3.75-1.88-3.66-3.99c0.08-1.81,1.41-3.27,3.11-3.59l-0.52-7.04
			C27.05,60.48,26.97,60.48,26.88,60.47z"/>
		<path id="XMLID_993_" class="st0" d="M14.85,61.96c-3.11,0.71-6.21-1.23-6.92-4.34c-0.71-3.11,1.23-6.21,4.34-6.92
			c0.54-0.12,1.09-0.17,1.62-0.14l0.8-6.09c-3.1-0.58-5.71-2.93-6.46-6.2c-1-4.39,1.74-8.76,6.13-9.77c4.39-1,8.76,1.74,9.77,6.13
			c1,4.39-1.74,8.76-6.13,9.77c-0.83,0.19-1.66,0.25-2.46,0.18l-0.8,6.08c2.14,0.45,3.93,2.1,4.45,4.37
			c0.63,2.74-0.81,5.48-3.29,6.57l2.37,6.64c0.01,0,0.01,0,0.02-0.01c2.06-0.47,4.11,0.82,4.58,2.88c0.27,1.16-0.03,2.32-0.7,3.19
			l4.34,4.21c0.22-0.15,0.48-0.27,0.76-0.33c1.18-0.27,2.36,0.47,2.63,1.65c0.27,1.18-0.47,2.36-1.65,2.63
			c-1.18,0.27-2.36-0.47-2.63-1.65c-0.14-0.6-0.01-1.2,0.3-1.68l-4.34-4.21c-0.44,0.37-0.98,0.64-1.58,0.78
			c-2.06,0.47-4.11-0.82-4.58-2.88c-0.4-1.77,0.49-3.53,2.05-4.29l-2.37-6.65C15.01,61.92,14.93,61.94,14.85,61.96z"/>
	</g>
	<g id="XMLID_987_">
		<path id="XMLID_990_" class="st1" d="M48.5,30.09c-1.47-2.83-0.38-6.32,2.46-7.8c2.83-1.47,6.32-0.38,7.8,2.46
			c1.47,2.83,0.38,6.32-2.46,7.8c-2.5,1.3-5.5,0.6-7.19-1.53L43.27,35c0,0.01,0.01,0.01,0.01,0.02c0.98,1.87,0.25,4.19-1.63,5.16
			c-1.06,0.55-2.25,0.56-3.27,0.13l-2.97,5.26c0.2,0.18,0.38,0.39,0.51,0.65c0.56,1.07,0.14,2.4-0.93,2.96
			c-1.07,0.56-2.4,0.14-2.96-0.93c-0.56-1.07-0.14-2.4,0.93-2.96c0.55-0.28,1.16-0.32,1.7-0.14l2.98-5.26
			c-0.47-0.34-0.87-0.78-1.15-1.33c-0.98-1.87-0.25-4.19,1.63-5.16c1.61-0.84,3.53-0.42,4.67,0.9l5.83-3.97
			C48.58,30.24,48.53,30.17,48.5,30.09z"/>
		<path id="XMLID_989_" class="st1" d="M41.19,20.41c-2.17-2.34-2.04-6,0.3-8.17c2.34-2.17,6-2.04,8.17,0.3
			c0.38,0.41,0.69,0.86,0.93,1.33l5.67-2.35c-1.05-2.97-0.32-6.41,2.14-8.69c3.3-3.07,8.46-2.88,11.52,0.42
			c3.07,3.3,2.88,8.46-0.42,11.52c-3.3,3.07-8.46,2.88-11.52-0.42c-0.58-0.62-1.04-1.31-1.39-2.04l-5.67,2.35
			c0.68,2.08,0.15,4.45-1.56,6.04c-2.06,1.92-5.15,2.04-7.34,0.44l-4.57,5.38c0,0.01,0.01,0.01,0.01,0.01
			c1.44,1.55,1.35,3.97-0.2,5.41c-0.87,0.81-2.02,1.14-3.12,0.99l-1.47,5.86c0.24,0.12,0.47,0.28,0.67,0.49
			c0.82,0.89,0.77,2.28-0.11,3.1c-0.89,0.82-2.28,0.77-3.1-0.11c-0.82-0.89-0.77-2.28,0.11-3.1c0.45-0.42,1.03-0.61,1.6-0.58
			l1.47-5.86c-0.54-0.2-1.04-0.52-1.46-0.98c-1.44-1.55-1.35-3.97,0.2-5.41c1.33-1.23,3.3-1.34,4.74-0.37l4.57-5.38
			C41.31,20.53,41.25,20.47,41.19,20.41z"/>
	</g>
</g>
</svg>
