<?xml version="1.0" encoding="utf-8"?>
<!-- Generator: Adobe Illustrator 25.0.0, SVG Export Plug-In . SVG Version: 6.00 Build 0)  -->
<svg version="1.1" xmlns="http://www.w3.org/2000/svg" xmlns:xlink="http://www.w3.org/1999/xlink" x="0px" y="0px"
	 viewBox="0 0 128 128" style="enable-background:new 0 0 128 128;" xml:space="preserve">
<style type="text/css">
	.st0{fill:url(#SVGID_1_);}
	.st1{fill:url(#SVGID_2_);}
	.st2{fill:url(#SVGID_3_);}
</style>
<g id="Layer_2">
</g>
<g id="Layer_3">
</g>
<g id="Layer_1">
	<g>
		<g>
			<linearGradient id="SVGID_1_" gradientUnits="userSpaceOnUse" x1="1.4352" y1="64.0002" x2="126.7544" y2="64.0002">
				<stop  offset="0" style="stop-color:#B7854D"/>
				<stop  offset="0.1515" style="stop-color:#F5D98F"/>
				<stop  offset="0.303" style="stop-color:#FFF9B3"/>
				<stop  offset="0.5212" style="stop-color:#F4D88E"/>
				<stop  offset="0.6424" style="stop-color:#FEF9B4"/>
				<stop  offset="0.8424" style="stop-color:#D4AF66"/>
				<stop  offset="1" style="stop-color:#B7854D"/>
			</linearGradient>
			<path class="st0" d="M121.83,39.61c-3.16-7.46-7.67-14.16-13.43-19.92c-5.75-5.75-12.46-10.27-19.92-13.43
				C80.76,3,72.55,1.34,64.09,1.34C55.64,1.34,47.43,3,39.7,6.26c-7.46,3.16-14.16,7.67-19.92,13.43
				C14.03,25.45,9.52,32.15,6.36,39.61C3.09,47.34,1.44,55.54,1.44,64c0,8.46,1.66,16.66,4.92,24.39
				c3.16,7.46,7.67,14.16,13.43,19.92c5.75,5.75,12.46,10.27,19.92,13.43c7.73,3.27,15.93,4.92,24.39,4.92
				c8.46,0,16.66-1.66,24.39-4.92c7.46-3.16,14.16-7.67,19.92-13.43c5.75-5.75,10.27-12.46,13.43-19.92
				c3.27-7.73,4.92-15.93,4.92-24.39C126.75,55.54,125.1,47.34,121.83,39.61z M94.66,116.94l-0.66-1.13l-0.87-1.5l-0.87-1.5
				l-0.87-1.5l-0.87-1.5c-0.44,0.26-0.89,0.51-1.34,0.75c-0.45,0.24-0.91,0.48-1.36,0.71c-0.46,0.23-0.92,0.45-1.38,0.67
				c-0.46,0.22-0.93,0.43-1.4,0.63c-0.47,0.2-0.94,0.4-1.42,0.59l0.64,1.61l0.64,1.61l0.64,1.61l0.64,1.61
				c0.54-0.21,1.08-0.44,1.61-0.67c0.53-0.23,1.06-0.47,1.59-0.71c0.53-0.25,1.05-0.5,1.57-0.76l-0.78-1.54l-0.78-1.54
				c-0.49,0.25-0.98,0.48-1.48,0.72l0.73,1.57c-0.51,0.24-1.02,0.47-1.54,0.69l-0.69-1.59l-0.69-1.59c0.49-0.21,0.97-0.43,1.45-0.65
				c0.48-0.22,0.96-0.46,1.43-0.69c0.47-0.24,0.94-0.48,1.41-0.73l0.82,1.52l0.82,1.52l0.82,1.52l0.62,1.15
				c-5.66,3.06-11.85,5.26-18.4,6.41l-0.23-1.31l-0.3-1.7l-0.3-1.7l-0.3-1.7l-0.3-1.7c-0.51,0.09-1.01,0.17-1.52,0.24
				c-0.51,0.07-1.02,0.14-1.53,0.2c-0.51,0.06-1.02,0.11-1.53,0.15c-0.51,0.04-1.02,0.08-1.54,0.11c-0.51,0.03-1.03,0.05-1.54,0.07
				l0.05,1.73l0.05,1.73l0.05,1.73l0.05,1.73c0.58-0.02,1.16-0.04,1.74-0.07c0.58-0.03,1.16-0.07,1.73-0.12
				c0.58-0.05,1.15-0.11,1.73-0.17l-0.2-1.72l-0.2-1.72c-0.54,0.06-1.09,0.12-1.63,0.16l0.15,1.72c-0.56,0.05-1.12,0.09-1.69,0.12
				l-0.1-1.73l-0.1-1.73c0.53-0.03,1.06-0.07,1.59-0.11c0.53-0.05,1.06-0.1,1.58-0.16c0.53-0.06,1.05-0.13,1.58-0.21l0.25,1.71
				l0.25,1.71l0.25,1.71l0.19,1.31c-2.89,0.42-5.85,0.64-8.86,0.64c-3.62,0-7.17-0.32-10.61-0.92l0.23-1.31l0.3-1.7l0.3-1.7l0.3-1.7
				l0.3-1.7c-0.51-0.09-1.01-0.18-1.51-0.29c-0.5-0.1-1-0.21-1.5-0.33c-0.5-0.12-1-0.24-1.49-0.38c-0.5-0.13-0.99-0.27-1.48-0.42
				c-0.49-0.15-0.98-0.3-1.47-0.46l-0.54,1.64l-0.54,1.64l-0.54,1.64l-0.54,1.64c0.55,0.18,1.1,0.36,1.66,0.52
				c0.56,0.17,1.11,0.32,1.68,0.47c0.56,0.15,1.12,0.29,1.69,0.43l0.4-1.68l0.4-1.68c-0.53-0.12-1.06-0.26-1.59-0.4l-0.45,1.67
				c-0.54-0.15-1.09-0.3-1.63-0.46l0.5-1.66l0.5-1.66c0.51,0.15,1.02,0.3,1.53,0.43c0.51,0.14,1.03,0.27,1.54,0.39
				c0.52,0.12,1.03,0.24,1.55,0.34l-0.35,1.69l-0.35,1.69L52,122.59l-0.27,1.3c-6.5-1.34-12.63-3.72-18.21-6.95l0.66-1.13l0.87-1.5
				l0.87-1.5l0.87-1.5l0.87-1.5c-0.44-0.26-0.88-0.52-1.32-0.79c-0.44-0.27-0.87-0.55-1.3-0.83c-0.43-0.28-0.85-0.57-1.27-0.87
				c-0.42-0.29-0.84-0.6-1.25-0.9c-0.41-0.31-0.82-0.62-1.22-0.94l-1.07,1.36l-1.07,1.36l-1.07,1.36l-1.07,1.36
				c0.45,0.36,0.91,0.71,1.38,1.06c0.47,0.35,0.93,0.69,1.41,1.02c0.47,0.33,0.95,0.66,1.44,0.98l0.95-1.44l0.95-1.44
				c-0.46-0.3-0.91-0.61-1.36-0.92l-0.99,1.42c-0.46-0.32-0.92-0.65-1.37-0.99l1.03-1.39l1.03-1.39c0.42,0.32,0.85,0.63,1.29,0.93
				c0.43,0.3,0.87,0.6,1.31,0.89c0.44,0.29,0.89,0.58,1.34,0.85l-0.91,1.47l-0.91,1.47l-0.91,1.47L32,116.03
				c-5.56-3.44-10.53-7.75-14.72-12.74l1-0.84l1.32-1.11l1.32-1.11l1.32-1.11L23.57,98c-0.33-0.39-0.65-0.79-0.97-1.19
				c-0.32-0.4-0.63-0.81-0.94-1.22c-0.31-0.41-0.61-0.83-0.9-1.25c-0.29-0.42-0.58-0.84-0.87-1.27c-0.28-0.43-0.56-0.86-0.83-1.3
				l-1.47,0.91l-1.47,0.91l-1.47,0.91l-1.47,0.91c0.31,0.49,0.62,0.98,0.94,1.47c0.32,0.48,0.65,0.96,0.98,1.44
				c0.33,0.48,0.67,0.94,1.02,1.41l1.39-1.03l1.39-1.03c-0.33-0.44-0.65-0.88-0.96-1.33l-1.42,0.99c-0.32-0.46-0.64-0.93-0.95-1.4
				L17,94.97l1.44-0.95c0.29,0.44,0.59,0.88,0.89,1.31c0.3,0.43,0.62,0.86,0.93,1.29c0.32,0.43,0.64,0.84,0.97,1.26l-1.36,1.07
				l-1.36,1.07l-1.36,1.07l-1.02,0.81c-4.02-5.08-7.26-10.8-9.52-17l1.24-0.45l1.62-0.59l1.62-0.59l1.62-0.59l1.62-0.59
				c-0.18-0.48-0.34-0.97-0.51-1.45c-0.16-0.49-0.32-0.98-0.46-1.47c-0.15-0.49-0.29-0.98-0.42-1.48c-0.13-0.5-0.26-0.99-0.38-1.49
				c-0.12-0.5-0.23-1-0.33-1.5l-1.69,0.35L8.89,75.4L7.2,75.75L5.5,76.1c0.12,0.57,0.24,1.14,0.38,1.7
				c0.13,0.56,0.28,1.13,0.43,1.69c0.15,0.56,0.31,1.12,0.47,1.68l1.66-0.5l1.66-0.5c-0.16-0.52-0.31-1.05-0.45-1.58l-1.67,0.45
				c-0.15-0.54-0.28-1.09-0.41-1.64L9.24,77l1.68-0.4c0.12,0.52,0.25,1.03,0.39,1.54c0.14,0.51,0.28,1.02,0.43,1.53
				c0.15,0.51,0.31,1.01,0.48,1.52l-1.64,0.54l-1.64,0.54L7.3,82.82l-1.25,0.41C4.04,77.18,2.95,70.72,2.95,64l0,0h1.33h1.73h1.73
				h1.73h1.73c0-0.51,0.01-1.03,0.02-1.54c0.01-0.51,0.04-1.03,0.07-1.54c0.03-0.51,0.07-1.02,0.11-1.54
				c0.04-0.51,0.1-1.02,0.15-1.53c0.06-0.51,0.13-1.02,0.2-1.53l-1.71-0.25l-1.71-0.25l-1.71-0.25L4.9,55.33
				c-0.08,0.57-0.16,1.15-0.22,1.73c-0.07,0.58-0.12,1.15-0.17,1.73c-0.05,0.58-0.09,1.16-0.12,1.74l1.73,0.1l1.73,0.1
				c0.03-0.55,0.07-1.09,0.12-1.64l-1.72-0.15c0.05-0.56,0.1-1.12,0.17-1.68l1.72,0.2l1.72,0.2c-0.06,0.53-0.11,1.05-0.16,1.58
				c-0.05,0.53-0.08,1.06-0.11,1.59c-0.03,0.53-0.05,1.06-0.07,1.59l-1.73-0.05l-1.73-0.05L4.3,62.26l-1.33-0.04
				c0.19-6.7,1.47-13.14,3.66-19.14l1.24,0.45l1.62,0.59l1.62,0.59l1.62,0.59l1.62,0.59c0.18-0.48,0.36-0.96,0.55-1.44
				c0.19-0.48,0.39-0.95,0.59-1.42c0.2-0.47,0.41-0.94,0.63-1.4c0.22-0.46,0.44-0.93,0.67-1.38c0.23-0.46,0.47-0.91,0.71-1.36
				L16,38.07l-1.52-0.82l-1.52-0.82l-1.52-0.82c-0.28,0.51-0.54,1.02-0.81,1.54c-0.26,0.52-0.51,1.04-0.76,1.57
				c-0.25,0.53-0.48,1.06-0.71,1.59l1.59,0.69l1.59,0.69c0.22-0.5,0.44-1,0.67-1.5l-1.57-0.73c0.24-0.51,0.48-1.02,0.74-1.52
				l1.54,0.78l1.54,0.78c-0.24,0.47-0.47,0.95-0.69,1.43c-0.22,0.48-0.44,0.96-0.65,1.45c-0.21,0.49-0.41,0.98-0.61,1.47l-1.61-0.64
				l-1.61-0.64l-1.61-0.64l-1.22-0.49c2.44-6.12,5.84-11.75,10.01-16.71l1,0.84l1.32,1.11l1.32,1.11l1.32,1.11L23.57,30
				c0.33-0.39,0.67-0.78,1.01-1.16c0.34-0.38,0.69-0.76,1.04-1.13c0.35-0.37,0.71-0.74,1.07-1.1c0.36-0.36,0.73-0.72,1.1-1.07
				c0.37-0.35,0.75-0.7,1.13-1.04l-1.15-1.29l-1.15-1.29l-1.15-1.29l-1.15-1.29c-0.43,0.39-0.86,0.78-1.28,1.18
				c-0.42,0.4-0.84,0.8-1.25,1.21c-0.41,0.41-0.81,0.83-1.21,1.25l1.26,1.19l1.26,1.19c0.38-0.4,0.76-0.79,1.14-1.18l-1.22-1.22
				c0.4-0.4,0.8-0.79,1.21-1.18l1.19,1.26l1.19,1.26c-0.39,0.36-0.77,0.73-1.14,1.11c-0.37,0.37-0.74,0.76-1.11,1.14
				c-0.36,0.39-0.72,0.78-1.07,1.17l-1.29-1.15l-1.29-1.15l-1.29-1.15l-0.97-0.87c4.33-4.86,9.42-9.03,15.09-12.31l0.66,1.13
				l0.87,1.5l0.87,1.5l0.87,1.5l0.87,1.5c0.44-0.26,0.89-0.51,1.34-0.75c0.45-0.24,0.91-0.48,1.36-0.71
				c0.46-0.23,0.92-0.45,1.38-0.67c0.46-0.22,0.93-0.43,1.4-0.63c0.47-0.2,0.94-0.4,1.42-0.59l-0.64-1.61l-0.64-1.61L42.64,10
				L42,8.4c-0.54,0.21-1.08,0.44-1.61,0.67c-0.53,0.23-1.06,0.47-1.59,0.71c-0.53,0.25-1.05,0.5-1.57,0.76l0.78,1.54l0.78,1.54
				c0.49-0.25,0.98-0.48,1.48-0.72l-0.73-1.57c0.51-0.24,1.02-0.47,1.54-0.69l0.69,1.59l0.69,1.59c-0.49,0.21-0.97,0.43-1.45,0.65
				c-0.48,0.22-0.96,0.46-1.43,0.69c-0.47,0.24-0.94,0.48-1.41,0.74l-0.82-1.52l-0.82-1.52l-0.82-1.52l-0.62-1.15
				c5.66-3.06,11.85-5.26,18.4-6.41l0.23,1.31l0.3,1.7l0.3,1.7l0.3,1.7l0.3,1.7c0.51-0.09,1.01-0.17,1.52-0.24
				c0.51-0.07,1.02-0.14,1.53-0.2c0.51-0.06,1.02-0.11,1.53-0.15c0.51-0.04,1.02-0.08,1.54-0.11c0.51-0.03,1.03-0.05,1.54-0.07
				L62.5,9.39l-0.05-1.73l-0.05-1.73l-0.05-1.73c-0.58,0.02-1.16,0.04-1.74,0.07c-0.58,0.03-1.16,0.08-1.73,0.12
				c-0.58,0.05-1.15,0.11-1.73,0.17l0.2,1.72l0.2,1.72c0.54-0.06,1.09-0.12,1.63-0.16l-0.15-1.72c0.56-0.05,1.12-0.09,1.69-0.12
				l0.1,1.73l0.1,1.73c-0.53,0.03-1.06,0.07-1.59,0.11c-0.53,0.05-1.06,0.1-1.58,0.16c-0.53,0.06-1.05,0.13-1.58,0.21l-0.25-1.71
				l-0.25-1.71l-0.25-1.71l-0.19-1.31c2.89-0.42,5.85-0.64,8.86-0.64c3.62,0,7.17,0.32,10.61,0.92l-0.23,1.31l-0.3,1.7l-0.3,1.7
				l-0.3,1.7l-0.3,1.7c0.51,0.09,1.01,0.18,1.51,0.29c0.5,0.1,1,0.21,1.5,0.33c0.5,0.12,1,0.24,1.49,0.38
				c0.5,0.13,0.99,0.27,1.48,0.42c0.49,0.15,0.98,0.3,1.47,0.46l0.54-1.64l0.54-1.64l0.54-1.64l0.54-1.64
				c-0.55-0.18-1.1-0.36-1.66-0.52c-0.56-0.17-1.11-0.32-1.68-0.47c-0.56-0.15-1.12-0.29-1.69-0.42l-0.4,1.68l-0.4,1.68
				c0.53,0.13,1.06,0.26,1.59,0.4l0.45-1.67c0.54,0.15,1.09,0.3,1.63,0.46l-0.5,1.66l-0.5,1.66c-0.51-0.15-1.02-0.3-1.53-0.43
				c-0.51-0.14-1.03-0.27-1.54-0.39c-0.52-0.12-1.03-0.24-1.55-0.34l0.35-1.69l0.35-1.69l0.35-1.69l0.27-1.3
				c6.5,1.34,12.63,3.72,18.21,6.95l-0.65,1.13l-0.87,1.5l-0.87,1.5l-0.87,1.5l-0.87,1.5c0.44,0.26,0.88,0.52,1.32,0.79
				c0.44,0.27,0.87,0.55,1.3,0.83c0.43,0.28,0.85,0.57,1.27,0.87c0.42,0.29,0.84,0.6,1.25,0.9c0.41,0.31,0.82,0.62,1.22,0.94
				l1.07-1.36l1.07-1.36l1.07-1.36l1.07-1.36c-0.45-0.36-0.91-0.71-1.38-1.06c-0.46-0.35-0.93-0.69-1.41-1.02
				c-0.47-0.33-0.95-0.66-1.44-0.98l-0.95,1.44l-0.95,1.44c0.46,0.3,0.91,0.61,1.36,0.92l0.99-1.42c0.46,0.32,0.92,0.65,1.37,0.99
				l-1.03,1.39l-1.03,1.39c-0.42-0.32-0.85-0.63-1.29-0.93c-0.43-0.3-0.87-0.6-1.31-0.89c-0.44-0.29-0.89-0.58-1.34-0.86l0.91-1.47
				l0.91-1.47l0.91-1.47l0.69-1.11c5.56,3.44,10.53,7.75,14.72,12.74l-1,0.84l-1.32,1.11l-1.32,1.11l-1.32,1.11L104.62,30
				c0.33,0.39,0.66,0.79,0.97,1.19c0.32,0.4,0.63,0.81,0.94,1.22c0.31,0.41,0.61,0.83,0.9,1.25c0.29,0.42,0.58,0.84,0.87,1.27
				c0.28,0.43,0.56,0.86,0.83,1.3l1.47-0.91l1.47-0.91l1.47-0.91l1.47-0.91c-0.31-0.49-0.62-0.98-0.94-1.47
				c-0.32-0.48-0.65-0.96-0.98-1.44c-0.33-0.47-0.67-0.94-1.02-1.41l-1.39,1.03l-1.39,1.03c0.33,0.44,0.65,0.88,0.96,1.33l1.42-0.99
				c0.32,0.46,0.64,0.93,0.95,1.4l-1.44,0.95l-1.44,0.95c-0.29-0.44-0.59-0.88-0.89-1.31c-0.3-0.43-0.62-0.86-0.93-1.29
				c-0.32-0.42-0.64-0.84-0.97-1.26l1.36-1.07l1.36-1.07l1.36-1.07l1.02-0.81c4.02,5.08,7.26,10.8,9.52,17l-1.24,0.45l-1.62,0.59
				l-1.62,0.59l-1.62,0.59l-1.62,0.59c0.18,0.48,0.34,0.97,0.51,1.45c0.16,0.49,0.32,0.98,0.46,1.47c0.15,0.49,0.29,0.98,0.42,1.48
				c0.13,0.5,0.26,0.99,0.38,1.49c0.12,0.5,0.23,1,0.33,1.5l1.69-0.35l1.69-0.35l1.69-0.35l1.69-0.35c-0.12-0.57-0.24-1.14-0.38-1.7
				c-0.13-0.57-0.28-1.13-0.43-1.69c-0.15-0.56-0.31-1.12-0.47-1.68l-1.66,0.5l-1.66,0.5c0.16,0.52,0.31,1.05,0.45,1.58l1.67-0.45
				c0.15,0.54,0.28,1.09,0.41,1.64l-1.68,0.4l-1.68,0.4c-0.12-0.52-0.25-1.03-0.39-1.54c-0.14-0.51-0.28-1.02-0.43-1.53
				c-0.15-0.51-0.31-1.01-0.48-1.52l1.64-0.54l1.64-0.54l1.64-0.54l1.25-0.41c2.01,6.05,3.1,12.52,3.1,19.23h-1.33h-1.73h-1.73
				h-1.73H117c0,0.51-0.01,1.03-0.02,1.54c-0.01,0.51-0.04,1.03-0.07,1.54c-0.03,0.51-0.07,1.02-0.11,1.54
				c-0.04,0.51-0.1,1.02-0.15,1.53c-0.06,0.51-0.13,1.02-0.2,1.53l1.71,0.25l1.71,0.25l1.71,0.25l1.71,0.25
				c0.08-0.57,0.16-1.15,0.23-1.73c0.07-0.58,0.12-1.15,0.17-1.73c0.05-0.58,0.09-1.16,0.12-1.73l-1.73-0.1l-1.73-0.1
				c-0.03,0.55-0.07,1.09-0.12,1.64l1.72,0.15c-0.05,0.56-0.1,1.12-0.17,1.68l-1.72-0.2l-1.72-0.2c0.06-0.53,0.11-1.05,0.16-1.58
				c0.05-0.53,0.08-1.06,0.11-1.59c0.03-0.53,0.05-1.06,0.07-1.59l1.73,0.05l1.73,0.05l1.73,0.05l1.33,0.04
				c-0.19,6.7-1.47,13.14-3.66,19.14l-1.24-0.45l-1.62-0.59l-1.62-0.59l-1.62-0.59l-1.62-0.59c-0.18,0.48-0.36,0.96-0.55,1.44
				c-0.19,0.48-0.39,0.95-0.59,1.42c-0.2,0.47-0.41,0.94-0.63,1.4c-0.22,0.46-0.44,0.93-0.67,1.38c-0.23,0.46-0.47,0.91-0.71,1.36
				l1.52,0.82l1.52,0.82l1.52,0.82l1.52,0.82c0.28-0.51,0.54-1.03,0.8-1.54c0.26-0.52,0.51-1.04,0.76-1.57
				c0.25-0.53,0.48-1.06,0.71-1.59l-1.59-0.69l-1.59-0.69c-0.22,0.5-0.44,1-0.67,1.5l1.57,0.73c-0.24,0.51-0.49,1.02-0.74,1.52
				l-1.54-0.78l-1.54-0.78c0.24-0.47,0.47-0.95,0.69-1.43c0.22-0.48,0.44-0.96,0.65-1.45c0.21-0.49,0.41-0.98,0.61-1.47l1.61,0.64
				l1.61,0.64l1.61,0.64l1.22,0.49c-2.44,6.12-5.84,11.75-10.01,16.71l-1-0.84l-1.32-1.11l-1.32-1.11l-1.32-1.11L104.62,98
				c-0.33,0.39-0.67,0.78-1.01,1.16c-0.34,0.38-0.69,0.76-1.04,1.14c-0.35,0.37-0.71,0.74-1.07,1.1c-0.36,0.36-0.73,0.72-1.1,1.07
				c-0.37,0.35-0.75,0.7-1.14,1.04l1.15,1.29l1.15,1.29l1.15,1.29l1.15,1.29c0.43-0.39,0.86-0.78,1.28-1.18
				c0.42-0.4,0.84-0.8,1.25-1.21c0.41-0.41,0.81-0.83,1.21-1.25l-1.26-1.19l-1.26-1.19c-0.38,0.4-0.76,0.79-1.14,1.18l1.22,1.22
				c-0.4,0.4-0.8,0.79-1.21,1.18l-1.19-1.26l-1.19-1.26c0.39-0.36,0.77-0.73,1.14-1.11c0.37-0.37,0.74-0.75,1.11-1.14
				c0.36-0.39,0.72-0.78,1.07-1.17l1.29,1.15l1.29,1.15l1.29,1.15l0.97,0.87C105.42,109.49,100.33,113.66,94.66,116.94z"/>
			<linearGradient id="SVGID_2_" gradientUnits="userSpaceOnUse" x1="4.3032" y1="64" x2="123.8862" y2="64">
				<stop  offset="0" style="stop-color:#B7854D"/>
				<stop  offset="0.1515" style="stop-color:#F5D98F"/>
				<stop  offset="0.303" style="stop-color:#FFF9B3"/>
				<stop  offset="0.5212" style="stop-color:#F4D88E"/>
				<stop  offset="0.6424" style="stop-color:#FEF9B4"/>
				<stop  offset="0.8424" style="stop-color:#D4AF66"/>
				<stop  offset="1" style="stop-color:#B7854D"/>
			</linearGradient>
			<path class="st1" d="M100.32,107.17l-1.11-1.32l-1.11-1.32l-0.83-0.99c1.14-0.96,2.25-1.98,3.32-3.05c2.86-2.86,5.35-6,7.44-9.4
				l1.09,0.68l1.47,0.91l1.47,0.91l1.47,0.91c-0.3,0.48-0.6,0.95-0.91,1.42c-0.31,0.47-0.63,0.94-0.95,1.4
				c-0.32,0.46-0.65,0.92-0.99,1.37l-1.39-1.03l-1.39-1.03c0.32-0.42,0.63-0.85,0.93-1.29l1.42,0.99c0.31-0.45,0.62-0.9,0.92-1.36
				l-1.44-0.95l-1.44-0.95c-0.28,0.43-0.57,0.85-0.87,1.27c-0.29,0.42-0.6,0.84-0.9,1.25c-0.31,0.41-0.62,0.82-0.94,1.22l1.36,1.07
				l1.36,1.07l1.36,1.07l1.36,1.07c0.36-0.45,0.71-0.91,1.06-1.38c0.35-0.47,0.69-0.93,1.02-1.41c0.33-0.47,0.66-0.95,0.98-1.44
				c0.32-0.48,0.63-0.97,0.94-1.47c0.31-0.49,0.6-0.99,0.89-1.49l-1.5-0.87l-1.5-0.87l-1.5-0.87l-1.5-0.87l-1.11-0.64
				c1.06-1.84,2.01-3.74,2.85-5.72c1.32-3.13,2.32-6.35,3-9.64l1.26,0.26l1.69,0.35l1.69,0.35l1.69,0.35
				c-0.11,0.55-0.24,1.1-0.36,1.65c-0.13,0.55-0.27,1.09-0.41,1.64c-0.15,0.54-0.3,1.09-0.46,1.63l-1.66-0.5l-1.66-0.5
				c0.15-0.51,0.3-1.02,0.43-1.53l1.67,0.45c0.14-0.53,0.27-1.06,0.4-1.59l-1.68-0.4l-1.68-0.4c-0.12,0.5-0.24,1-0.38,1.49
				c-0.13,0.5-0.27,0.99-0.42,1.48c-0.15,0.49-0.3,0.98-0.46,1.47l1.64,0.54l1.64,0.54l1.64,0.54l1.64,0.54
				c0.18-0.55,0.36-1.1,0.52-1.66c0.17-0.56,0.32-1.11,0.47-1.68c0.15-0.56,0.29-1.12,0.43-1.69c0.13-0.56,0.26-1.13,0.38-1.7
				c0.12-0.57,0.23-1.14,0.33-1.71l-1.7-0.3l-1.7-0.3l-1.7-0.3l-1.7-0.3l-1.27-0.22c0.52-2.94,0.77-5.94,0.77-8.97
				c0-2.53-0.18-5.03-0.54-7.49l1.28-0.19l1.71-0.25l1.71-0.25l1.71-0.25c0.08,0.56,0.15,1.12,0.22,1.68
				c0.07,0.56,0.12,1.12,0.17,1.68c0.05,0.56,0.09,1.12,0.12,1.69l-1.73,0.1l-1.73,0.1c-0.03-0.53-0.07-1.06-0.11-1.59l1.72-0.15
				c-0.05-0.54-0.1-1.09-0.16-1.63l-1.72,0.2l-1.72,0.2c0.06,0.51,0.11,1.02,0.15,1.53c0.04,0.51,0.08,1.02,0.11,1.54
				c0.03,0.51,0.05,1.03,0.07,1.54l1.73-0.05l1.73-0.05l1.73-0.05l1.73-0.05c-0.02-0.58-0.04-1.16-0.07-1.74
				c-0.03-0.58-0.08-1.16-0.12-1.74c-0.05-0.58-0.11-1.15-0.17-1.73c-0.07-0.58-0.14-1.15-0.23-1.73c-0.08-0.57-0.18-1.15-0.28-1.72
				l-1.7,0.3l-1.7,0.3l-1.7,0.3l-1.7,0.3l-1.27,0.22c-0.67-3.81-1.76-7.53-3.28-11.12c-0.64-1.51-1.34-2.98-2.11-4.41l1.13-0.61
				l1.52-0.82l1.52-0.82l1.52-0.82c0.27,0.5,0.53,0.99,0.78,1.5c0.25,0.5,0.5,1.01,0.74,1.52c0.24,0.51,0.47,1.02,0.69,1.54
				l-1.59,0.69l-1.59,0.69c-0.21-0.49-0.43-0.97-0.65-1.45l1.57-0.73c-0.23-0.5-0.47-0.99-0.72-1.48l-1.54,0.78l-1.54,0.78
				c0.23,0.46,0.45,0.92,0.67,1.38c0.22,0.46,0.43,0.93,0.63,1.4c0.2,0.47,0.4,0.94,0.59,1.42l1.61-0.64l1.61-0.64l1.61-0.64
				l1.61-0.64c-0.21-0.54-0.44-1.08-0.67-1.61c-0.23-0.53-0.47-1.06-0.71-1.59c-0.25-0.53-0.5-1.05-0.76-1.57
				c-0.26-0.52-0.53-1.03-0.8-1.54c-0.28-0.51-0.56-1.02-0.85-1.52l-1.5,0.87l-1.5,0.87l-1.5,0.87l-1.5,0.87l-1.11,0.65
				c-2.25-3.89-5-7.47-8.21-10.69c-0.71-0.71-1.44-1.4-2.18-2.06l0.86-0.96l1.15-1.29l1.15-1.29l1.15-1.29
				c0.42,0.37,0.84,0.76,1.25,1.14c0.41,0.39,0.81,0.78,1.21,1.18c0.4,0.4,0.79,0.8,1.18,1.21l-1.26,1.19l-1.26,1.19
				c-0.36-0.38-0.73-0.77-1.11-1.14l1.22-1.22c-0.39-0.39-0.78-0.77-1.18-1.14l-1.19,1.26l-1.19,1.26c0.37,0.35,0.74,0.71,1.1,1.07
				c0.36,0.36,0.72,0.73,1.07,1.1c0.35,0.37,0.7,0.75,1.04,1.13l1.29-1.15l1.29-1.15l1.29-1.15l1.29-1.15
				c-0.39-0.43-0.78-0.86-1.18-1.28c-0.4-0.42-0.8-0.84-1.21-1.25c-0.41-0.41-0.83-0.81-1.25-1.21c-0.42-0.4-0.85-0.79-1.28-1.18
				c-0.43-0.39-0.87-0.76-1.32-1.14l-1.11,1.32l-1.11,1.32l-1.11,1.32l-1.11,1.32l-0.83,0.99c-3.94-3.31-8.32-6-13.09-8.01
				c-0.34-0.14-0.69-0.29-1.03-0.42l0.48-1.2l0.64-1.61l0.64-1.61L85.55,10c0.52,0.21,1.04,0.42,1.56,0.65
				c0.52,0.22,1.03,0.45,1.54,0.69c0.51,0.24,1.02,0.48,1.52,0.74l-0.78,1.54l-0.78,1.54c-0.47-0.24-0.95-0.47-1.43-0.69l0.73-1.57
				c-0.5-0.23-0.99-0.46-1.5-0.67l-0.69,1.59l-0.69,1.59c0.47,0.2,0.94,0.41,1.4,0.63c0.47,0.22,0.93,0.44,1.38,0.67
				c0.46,0.23,0.91,0.47,1.36,0.71l0.82-1.52l0.82-1.52l0.82-1.52l0.82-1.52c-0.51-0.28-1.02-0.54-1.54-0.8
				c-0.52-0.26-1.04-0.51-1.57-0.76c-0.53-0.25-1.06-0.48-1.59-0.71c-0.53-0.23-1.07-0.45-1.61-0.67c-0.54-0.21-1.08-0.42-1.63-0.62
				L83.97,9.4l-0.59,1.62l-0.59,1.62l-0.59,1.62l-0.44,1.21c-5.18-1.89-10.59-2.92-16.15-3.08l0.04-1.29l0.05-1.73l0.05-1.73
				l0.05-1.73c0.56,0.02,1.13,0.04,1.69,0.07c0.56,0.03,1.12,0.07,1.69,0.12c0.56,0.05,1.12,0.1,1.68,0.17l-0.2,1.72l-0.2,1.72
				c-0.53-0.06-1.05-0.11-1.58-0.16l0.15-1.72c-0.54-0.05-1.09-0.09-1.64-0.12l-0.1,1.73l-0.1,1.73c0.51,0.03,1.02,0.07,1.54,0.11
				c0.51,0.04,1.02,0.1,1.53,0.15c0.51,0.06,1.02,0.13,1.53,0.2l0.25-1.71l0.25-1.71l0.25-1.71l0.25-1.71
				c-0.57-0.08-1.15-0.16-1.73-0.22c-0.58-0.07-1.15-0.12-1.73-0.17c-0.58-0.05-1.16-0.09-1.73-0.12c-0.58-0.03-1.16-0.06-1.74-0.07
				c-0.58-0.02-1.16-0.02-1.74-0.03v1.73v1.73v1.73v1.73v1.29c0,0,0,0,0,0c-5.58,0-11.02,0.88-16.24,2.61l-0.41-1.23l-0.54-1.64
				l-0.54-1.64l-0.54-1.64c0.53-0.18,1.07-0.35,1.61-0.51c0.54-0.16,1.08-0.31,1.63-0.46c0.54-0.15,1.09-0.28,1.64-0.41l0.4,1.68
				l0.4,1.68c-0.52,0.12-1.03,0.25-1.54,0.39L49.5,9.55c-0.53,0.14-1.05,0.29-1.58,0.45l0.5,1.66l0.5,1.66
				c0.49-0.15,0.98-0.29,1.48-0.42c0.5-0.13,0.99-0.26,1.49-0.38c0.5-0.12,1-0.23,1.5-0.33l-0.35-1.69L52.7,8.79L52.35,7.1L52,5.41
				c-0.57,0.12-1.14,0.24-1.7,0.38c-0.56,0.13-1.13,0.28-1.69,0.42c-0.56,0.15-1.12,0.31-1.68,0.47c-0.56,0.17-1.11,0.34-1.66,0.52
				c-0.55,0.18-1.1,0.37-1.64,0.57l0.59,1.62l0.59,1.62l0.59,1.62L46,14.28l0.44,1.21c-0.82,0.3-1.63,0.62-2.43,0.96
				c-4.3,1.82-8.29,4.18-11.92,7.06l-0.8-1.01l-1.07-1.36l-1.07-1.36l-1.07-1.36c0.44-0.35,0.89-0.69,1.34-1.03
				c0.45-0.34,0.91-0.67,1.37-0.99c0.46-0.32,0.93-0.64,1.4-0.95l0.95,1.44l0.95,1.44c-0.44,0.29-0.88,0.59-1.31,0.89l-0.99-1.42
				c-0.45,0.31-0.89,0.63-1.33,0.96l1.03,1.39l1.03,1.39c0.41-0.31,0.83-0.61,1.25-0.9c0.42-0.29,0.84-0.58,1.27-0.87
				c0.43-0.28,0.86-0.56,1.3-0.83l-0.91-1.47l-0.91-1.47l-0.91-1.47l-0.91-1.47c-0.49,0.31-0.98,0.62-1.47,0.94
				c-0.48,0.32-0.96,0.65-1.44,0.98c-0.47,0.33-0.94,0.67-1.41,1.02c-0.47,0.35-0.92,0.7-1.38,1.06c-0.45,0.36-0.9,0.73-1.35,1.1
				l1.11,1.32l1.11,1.32l1.11,1.32l1.11,1.32l0.83,0.99c-1.15,0.96-2.25,1.98-3.32,3.05c-2.86,2.86-5.35,6-7.44,9.4l-1.09-0.68
				l-1.47-0.91l-1.47-0.91l-1.47-0.91c0.3-0.48,0.6-0.95,0.91-1.42c0.31-0.47,0.63-0.94,0.95-1.4c0.32-0.46,0.65-0.92,0.99-1.37
				l1.39,1.03l1.39,1.03c-0.32,0.42-0.63,0.85-0.93,1.29l-1.42-0.99c-0.31,0.45-0.62,0.9-0.92,1.36l1.44,0.95l1.44,0.95
				c0.28-0.43,0.57-0.85,0.87-1.27c0.29-0.42,0.6-0.84,0.9-1.25c0.31-0.41,0.62-0.82,0.94-1.22l-1.36-1.07l-1.36-1.07l-1.36-1.07
				l-1.36-1.07c-0.36,0.45-0.71,0.91-1.06,1.38c-0.35,0.47-0.69,0.93-1.02,1.41c-0.33,0.47-0.66,0.95-0.98,1.44
				c-0.32,0.48-0.63,0.97-0.94,1.47c-0.31,0.49-0.6,0.99-0.89,1.49l1.5,0.87l1.5,0.87l1.5,0.87l1.5,0.87l1.11,0.64
				c-1.06,1.84-2.01,3.75-2.85,5.72c-1.32,3.13-2.32,6.35-3,9.64l-1.26-0.26l-1.69-0.35L8.89,52.6L7.2,52.25
				c0.11-0.55,0.23-1.1,0.36-1.65c0.13-0.55,0.27-1.09,0.41-1.64c0.15-0.54,0.3-1.09,0.46-1.63l1.66,0.5l1.66,0.5
				c-0.15,0.51-0.3,1.02-0.43,1.53l-1.67-0.45C9.5,49.94,9.37,50.47,9.24,51l1.68,0.4l1.68,0.4c0.12-0.5,0.24-1,0.38-1.49
				c0.13-0.5,0.27-0.99,0.42-1.48c0.15-0.49,0.3-0.98,0.46-1.47l-1.64-0.54l-1.64-0.54l-1.64-0.54L7.3,45.18
				c-0.18,0.55-0.36,1.1-0.52,1.66c-0.17,0.56-0.32,1.11-0.47,1.68c-0.15,0.56-0.29,1.12-0.43,1.69c-0.13,0.56-0.26,1.13-0.38,1.7
				c-0.12,0.57-0.22,1.14-0.32,1.71l1.7,0.3l1.7,0.3l1.7,0.3l1.7,0.3l1.27,0.22c-0.51,2.94-0.77,5.94-0.77,8.97
				c0,2.53,0.18,5.03,0.54,7.49l-1.27,0.18l-1.71,0.25l-1.71,0.25l-1.71,0.25c-0.08-0.56-0.15-1.12-0.22-1.68
				c-0.06-0.56-0.12-1.12-0.17-1.68c-0.05-0.56-0.09-1.12-0.12-1.69l1.73-0.1l1.73-0.1c0.03,0.53,0.07,1.06,0.11,1.59l-1.72,0.15
				c0.05,0.54,0.1,1.09,0.16,1.63l1.72-0.2l1.72-0.2c-0.06-0.51-0.11-1.02-0.15-1.53c-0.04-0.51-0.08-1.02-0.11-1.54
				c-0.03-0.51-0.05-1.03-0.07-1.54l-1.73,0.05l-1.73,0.05l-1.73,0.05L4.3,65.74c0.02,0.58,0.04,1.16,0.07,1.74
				c0.03,0.58,0.07,1.16,0.12,1.73c0.05,0.58,0.11,1.16,0.17,1.73c0.07,0.58,0.14,1.15,0.22,1.73c0.08,0.57,0.18,1.15,0.28,1.72
				l1.7-0.3l1.7-0.3l1.7-0.3l1.7-0.3l1.27-0.22c0.67,3.81,1.76,7.53,3.28,11.12c0.64,1.51,1.34,2.98,2.11,4.41l-1.13,0.61L16,89.93
				l-1.52,0.82l-1.52,0.82c-0.27-0.5-0.53-0.99-0.78-1.5c-0.25-0.5-0.5-1.01-0.74-1.52c-0.24-0.51-0.47-1.02-0.69-1.54l1.59-0.69
				l1.59-0.69c0.21,0.49,0.43,0.97,0.65,1.45L13,87.82c0.23,0.5,0.47,0.99,0.72,1.48l1.54-0.78l1.54-0.78
				c-0.23-0.46-0.45-0.92-0.67-1.38c-0.22-0.46-0.43-0.93-0.63-1.4c-0.2-0.47-0.4-0.94-0.59-1.42l-1.61,0.64l-1.61,0.64l-1.61,0.64
				l-1.61,0.64c0.21,0.54,0.44,1.08,0.67,1.61c0.23,0.53,0.47,1.06,0.71,1.59c0.25,0.53,0.5,1.05,0.76,1.57
				c0.26,0.52,0.53,1.03,0.81,1.54c0.28,0.51,0.56,1.02,0.85,1.52l1.5-0.87l1.5-0.87l1.5-0.87l1.5-0.87l1.11-0.64
				c2.25,3.89,5,7.47,8.21,10.69c0.71,0.71,1.44,1.4,2.18,2.06l-0.86,0.96l-1.15,1.29l-1.15,1.29l-1.15,1.29
				c-0.42-0.37-0.84-0.76-1.25-1.14c-0.41-0.39-0.81-0.78-1.21-1.18c-0.4-0.4-0.79-0.8-1.18-1.21l1.26-1.19l1.26-1.19
				c0.36,0.39,0.73,0.77,1.11,1.14l-1.22,1.22c0.39,0.39,0.78,0.77,1.18,1.14l1.19-1.26l1.19-1.26c-0.37-0.35-0.74-0.71-1.1-1.07
				c-0.36-0.36-0.72-0.73-1.07-1.1c-0.35-0.37-0.7-0.75-1.04-1.14l-1.29,1.15l-1.29,1.15l-1.29,1.15l-1.29,1.15
				c0.39,0.43,0.78,0.86,1.18,1.28c0.4,0.42,0.8,0.84,1.21,1.25c0.41,0.41,0.83,0.81,1.25,1.21c0.42,0.4,0.85,0.79,1.28,1.18
				c0.43,0.39,0.87,0.77,1.32,1.14l1.11-1.32l1.11-1.32l1.11-1.32l1.11-1.32l0.83-0.99c3.94,3.31,8.32,6,13.09,8.01
				c0.34,0.14,0.69,0.29,1.03,0.42l-0.48,1.2l-0.64,1.61l-0.64,1.61L42.64,118c-0.52-0.21-1.04-0.42-1.56-0.65
				c-0.52-0.22-1.03-0.45-1.54-0.69c-0.51-0.24-1.02-0.48-1.52-0.74l0.78-1.54l0.78-1.54c0.47,0.24,0.95,0.47,1.43,0.69l-0.73,1.57
				c0.5,0.23,0.99,0.45,1.5,0.67l0.69-1.59l0.69-1.59c-0.47-0.2-0.94-0.41-1.4-0.63c-0.46-0.22-0.93-0.44-1.38-0.67
				c-0.46-0.23-0.91-0.47-1.36-0.71l-0.82,1.52l-0.82,1.52l-0.82,1.52l-0.82,1.52c0.51,0.28,1.02,0.54,1.54,0.8
				c0.52,0.26,1.04,0.51,1.57,0.76c0.53,0.25,1.06,0.48,1.59,0.71c0.53,0.23,1.07,0.45,1.61,0.67c0.54,0.21,1.08,0.42,1.63,0.62
				l0.59-1.62l0.59-1.62l0.59-1.62l0.59-1.62l0.44-1.21c5.18,1.89,10.59,2.92,16.15,3.08l-0.04,1.29l-0.05,1.73l-0.05,1.73
				l-0.05,1.73c-0.56-0.02-1.13-0.04-1.69-0.07c-0.56-0.03-1.12-0.07-1.69-0.12c-0.56-0.05-1.12-0.1-1.68-0.17l0.2-1.72l0.2-1.72
				c0.53,0.06,1.05,0.11,1.58,0.16l-0.15,1.72c0.54,0.05,1.09,0.09,1.64,0.12l0.1-1.73l0.1-1.73c-0.51-0.03-1.02-0.07-1.54-0.11
				c-0.51-0.04-1.02-0.1-1.53-0.15c-0.51-0.06-1.02-0.13-1.53-0.2l-0.25,1.71l-0.25,1.71l-0.25,1.71l-0.25,1.71
				c0.57,0.08,1.15,0.16,1.73,0.22c0.58,0.07,1.15,0.12,1.73,0.17c0.58,0.05,1.16,0.09,1.73,0.12c0.58,0.03,1.16,0.06,1.74,0.07
				c0.58,0.02,1.16,0.02,1.74,0.02v-1.73v-1.73v-1.73v-1.73v-1.29c5.58,0,11.02-0.88,16.24-2.61l0.41,1.23l0.54,1.64l0.54,1.64
				l0.54,1.64c-0.53,0.18-1.07,0.35-1.61,0.51c-0.54,0.16-1.08,0.31-1.63,0.46c-0.54,0.15-1.09,0.28-1.64,0.41l-0.4-1.68l-0.4-1.68
				c0.52-0.12,1.03-0.25,1.54-0.39l0.45,1.67c0.53-0.14,1.05-0.29,1.58-0.45l-0.5-1.66l-0.5-1.66c-0.49,0.15-0.98,0.29-1.48,0.42
				c-0.5,0.13-0.99,0.26-1.49,0.38c-0.5,0.12-1,0.23-1.5,0.33l0.35,1.69l0.35,1.69l0.35,1.69l0.35,1.69
				c0.57-0.12,1.13-0.24,1.7-0.38c0.56-0.13,1.13-0.28,1.69-0.43c0.56-0.15,1.12-0.31,1.68-0.47c0.56-0.17,1.11-0.34,1.66-0.52
				c0.55-0.18,1.1-0.37,1.64-0.57l-0.59-1.62l-0.59-1.62l-0.59-1.62l-0.59-1.62l-0.44-1.21c0.82-0.3,1.63-0.62,2.43-0.96
				c4.3-1.82,8.29-4.18,11.92-7.06l0.8,1.01l1.07,1.36l1.07,1.36l1.07,1.36c-0.44,0.35-0.89,0.69-1.34,1.03
				c-0.45,0.34-0.91,0.67-1.37,0.99c-0.46,0.32-0.93,0.64-1.4,0.95l-0.95-1.44l-0.95-1.44c0.44-0.29,0.88-0.59,1.31-0.89l0.99,1.42
				c0.45-0.31,0.89-0.63,1.33-0.96l-1.03-1.39l-1.03-1.39c-0.41,0.31-0.83,0.61-1.25,0.9c-0.42,0.29-0.84,0.58-1.27,0.87
				c-0.43,0.28-0.86,0.56-1.3,0.83l0.91,1.47l0.91,1.47l0.91,1.47l0.91,1.47c0.49-0.31,0.98-0.62,1.47-0.94
				c0.48-0.32,0.96-0.65,1.44-0.98c0.47-0.33,0.94-0.67,1.41-1.02c0.47-0.35,0.92-0.7,1.38-1.06c0.46-0.36,0.9-0.73,1.35-1.1
				l-1.11-1.32L100.32,107.17z M64.09,114.1C36.47,114.1,14,91.62,14,64c0-27.62,22.47-50.1,50.1-50.1c27.62,0,50.1,22.47,50.1,50.1
				C114.19,91.62,91.72,114.1,64.09,114.1z"/>
		</g>
		<linearGradient id="SVGID_3_" gradientUnits="userSpaceOnUse" x1="26.716" y1="57.5333" x2="101.4736" y2="57.5333">
			<stop  offset="0" style="stop-color:#B7854D"/>
			<stop  offset="0.1515" style="stop-color:#F5D98F"/>
			<stop  offset="0.303" style="stop-color:#FFF9B3"/>
			<stop  offset="0.5212" style="stop-color:#F4D88E"/>
			<stop  offset="0.6424" style="stop-color:#FEF9B4"/>
			<stop  offset="0.8424" style="stop-color:#D4AF66"/>
			<stop  offset="1" style="stop-color:#B7854D"/>
		</linearGradient>
		<polygon class="st2" points="64.09,24.43 26.72,90.64 32.31,90.64 36.71,90.64 39.48,90.64 46.65,90.64 41.68,81.84 64.09,42.13 
			86.51,81.84 81.54,90.64 88.71,90.64 91.48,90.64 95.88,90.64 101.47,90.64 		"/>
	</g>
</g>
</svg>
