<?xml version="1.0" encoding="utf-8"?>
<!-- Generator: Adobe Illustrator 25.0.0, SVG Export Plug-In . SVG Version: 6.00 Build 0)  -->
<svg version="1.1" xmlns="http://www.w3.org/2000/svg" xmlns:xlink="http://www.w3.org/1999/xlink" x="0px" y="0px"
	 viewBox="0 0 152 152" style="enable-background:new 0 0 152 152;" xml:space="preserve">
<style type="text/css">
	.st0{fill:url(#SVGID_1_);}
	.st1{fill:url(#SVGID_2_);}
	.st2{fill:url(#SVGID_3_);}
</style>
<g id="Layer_2">
</g>
<g id="Layer_3">
</g>
<g id="Layer_1">
	<g>
		<g>
			<linearGradient id="SVGID_1_" gradientUnits="userSpaceOnUse" x1="1.0096" y1="76.0002" x2="151.1799" y2="76.0002">
				<stop  offset="0" style="stop-color:#B7854D"/>
				<stop  offset="0.1515" style="stop-color:#F5D98F"/>
				<stop  offset="0.303" style="stop-color:#FFF9B3"/>
				<stop  offset="0.5212" style="stop-color:#F4D88E"/>
				<stop  offset="0.6424" style="stop-color:#FEF9B4"/>
				<stop  offset="0.8424" style="stop-color:#D4AF66"/>
				<stop  offset="1" style="stop-color:#B7854D"/>
			</linearGradient>
			<path class="st0" d="M145.28,46.77c-3.78-8.94-9.2-16.97-16.09-23.87c-6.9-6.9-14.93-12.31-23.87-16.09
				c-9.26-3.92-19.09-5.9-29.23-5.9c-10.14,0-19.97,1.99-29.23,5.9C37.93,10.6,29.9,16.01,23,22.91
				c-6.9,6.9-12.31,14.93-16.09,23.87C3,56.03,1.01,65.86,1.01,76c0,10.14,1.99,19.97,5.9,29.23c3.78,8.94,9.2,16.97,16.09,23.87
				c6.9,6.9,14.93,12.31,23.87,16.09c9.26,3.91,19.09,5.9,29.23,5.9c10.14,0,19.97-1.99,29.23-5.9c8.94-3.78,16.97-9.2,23.87-16.09
				c6.9-6.9,12.31-14.93,16.09-23.87c3.92-9.26,5.9-19.09,5.9-29.23C151.18,65.86,149.19,56.03,145.28,46.77z M112.73,139.44
				l-0.78-1.36l-1.04-1.79l-1.04-1.79l-1.04-1.79l-1.04-1.79c-0.53,0.31-1.07,0.61-1.61,0.9c-0.54,0.29-1.09,0.58-1.63,0.85
				c-0.55,0.28-1.1,0.54-1.66,0.8c-0.56,0.26-1.12,0.51-1.68,0.76c-0.56,0.24-1.13,0.48-1.7,0.71l0.77,1.93l0.77,1.92l0.77,1.93
				l0.77,1.92c0.65-0.26,1.29-0.52,1.93-0.8c0.64-0.28,1.27-0.56,1.9-0.85c0.63-0.29,1.26-0.6,1.88-0.91l-0.93-1.85l-0.93-1.85
				c-0.59,0.29-1.17,0.58-1.77,0.86l0.88,1.88c-0.61,0.29-1.23,0.56-1.85,0.83l-0.82-1.9l-0.82-1.9c0.58-0.25,1.16-0.51,1.74-0.78
				c0.58-0.27,1.15-0.55,1.71-0.83c0.57-0.29,1.13-0.58,1.69-0.88l0.98,1.82l0.98,1.82l0.99,1.82l0.75,1.38
				c-6.78,3.67-14.2,6.3-22.05,7.68l-0.27-1.57l-0.36-2.04l-0.36-2.04l-0.36-2.04l-0.36-2.04c-0.61,0.11-1.21,0.2-1.82,0.29
				c-0.61,0.09-1.22,0.17-1.83,0.24c-0.61,0.07-1.22,0.13-1.84,0.19c-0.61,0.05-1.23,0.1-1.84,0.13c-0.61,0.03-1.23,0.06-1.84,0.08
				l0.06,2.07l0.06,2.07l0.06,2.07l0.06,2.07c0.69-0.02,1.39-0.05,2.08-0.09c0.69-0.04,1.39-0.09,2.08-0.15
				c0.69-0.06,1.38-0.13,2.07-0.21l-0.24-2.06l-0.24-2.06c-0.65,0.08-1.3,0.14-1.95,0.2l0.18,2.06c-0.67,0.06-1.35,0.11-2.02,0.15
				l-0.12-2.07l-0.12-2.07c0.63-0.04,1.27-0.08,1.9-0.14c0.63-0.05,1.26-0.12,1.9-0.19c0.63-0.07,1.26-0.16,1.89-0.25l0.3,2.05
				l0.3,2.05l0.3,2.05l0.23,1.57c-3.47,0.51-7.01,0.77-10.61,0.77c-4.34,0-8.59-0.38-12.72-1.11l0.27-1.57l0.36-2.04l0.36-2.04
				l0.36-2.04l0.36-2.04c-0.61-0.11-1.21-0.22-1.81-0.34c-0.6-0.12-1.2-0.26-1.8-0.4c-0.6-0.14-1.19-0.29-1.79-0.45
				c-0.59-0.16-1.18-0.33-1.77-0.5c-0.59-0.18-1.17-0.36-1.76-0.55l-0.65,1.97l-0.65,1.97l-0.65,1.97l-0.65,1.97
				c0.66,0.22,1.32,0.43,1.99,0.63c0.67,0.2,1.34,0.39,2.01,0.57c0.67,0.18,1.35,0.35,2.02,0.51l0.48-2.02l0.48-2.02
				c-0.64-0.15-1.27-0.31-1.91-0.48l-0.54,2c-0.65-0.17-1.3-0.36-1.95-0.55l0.59-1.98l0.59-1.98c0.61,0.18,1.22,0.35,1.83,0.52
				c0.61,0.16,1.23,0.32,1.85,0.46c0.62,0.15,1.24,0.28,1.86,0.41l-0.42,2.03l-0.42,2.03l-0.42,2.03l-0.32,1.56
				c-7.79-1.61-15.14-4.45-21.82-8.33l0.79-1.36l1.04-1.79l1.04-1.79l1.04-1.79l1.04-1.79c-0.53-0.31-1.06-0.62-1.58-0.95
				c-0.52-0.32-1.04-0.65-1.55-0.99c-0.51-0.34-1.02-0.68-1.53-1.04c-0.5-0.35-1-0.71-1.49-1.08c-0.49-0.37-0.98-0.74-1.46-1.12
				l-1.29,1.62l-1.29,1.62l-1.29,1.62l-1.29,1.62c0.55,0.43,1.1,0.86,1.65,1.27c0.56,0.42,1.12,0.82,1.69,1.22
				c0.57,0.4,1.14,0.79,1.72,1.17l1.14-1.73l1.14-1.73c-0.55-0.36-1.09-0.73-1.62-1.11l-1.19,1.7c-0.55-0.39-1.1-0.78-1.64-1.19
				l1.24-1.66l1.24-1.66c0.51,0.38,1.02,0.75,1.54,1.12c0.52,0.36,1.05,0.72,1.57,1.07c0.53,0.35,1.07,0.69,1.61,1.02l-1.09,1.76
				l-1.09,1.76l-1.09,1.76l-0.82,1.33c-6.66-4.13-12.62-9.29-17.64-15.27l1.19-1l1.59-1.33l1.59-1.33l1.59-1.33l1.59-1.33
				c-0.4-0.47-0.78-0.95-1.17-1.43c-0.38-0.48-0.76-0.97-1.12-1.46c-0.37-0.49-0.73-0.99-1.08-1.49c-0.35-0.5-0.7-1.01-1.04-1.53
				c-0.34-0.51-0.67-1.03-0.99-1.55l-1.76,1.09l-1.76,1.09l-1.76,1.09l-1.76,1.09c0.37,0.59,0.74,1.18,1.12,1.76
				c0.38,0.58,0.77,1.15,1.17,1.72c0.4,0.57,0.81,1.13,1.22,1.69l1.66-1.24l1.66-1.24c-0.39-0.53-0.78-1.06-1.15-1.59l-1.7,1.19
				c-0.39-0.55-0.77-1.11-1.14-1.67l1.73-1.14l1.73-1.14c0.35,0.53,0.71,1.06,1.07,1.58c0.36,0.52,0.74,1.03,1.12,1.54
				c0.38,0.51,0.77,1.01,1.16,1.51l-1.62,1.29l-1.62,1.29l-1.62,1.29l-1.22,0.97c-4.82-6.08-8.7-12.95-11.41-20.37l1.48-0.54
				l1.95-0.71l1.95-0.71l1.95-0.71l1.95-0.71c-0.21-0.58-0.41-1.16-0.61-1.74c-0.19-0.58-0.38-1.17-0.55-1.76
				c-0.18-0.59-0.34-1.18-0.5-1.77c-0.16-0.59-0.31-1.19-0.45-1.79c-0.14-0.6-0.27-1.2-0.4-1.8l-2.03,0.42l-2.03,0.42l-2.03,0.42
				l-2.03,0.42c0.14,0.68,0.29,1.36,0.45,2.04c0.16,0.68,0.33,1.35,0.51,2.02c0.18,0.67,0.37,1.34,0.57,2.01l1.98-0.59l1.98-0.59
				c-0.19-0.63-0.37-1.26-0.53-1.89l-2,0.54c-0.17-0.65-0.34-1.31-0.49-1.96l2.02-0.48l2.02-0.48c0.15,0.62,0.3,1.23,0.46,1.85
				c0.16,0.61,0.34,1.22,0.52,1.83c0.18,0.61,0.37,1.21,0.57,1.82l-1.97,0.65L10,97.9l-1.97,0.65l-1.5,0.5
				C4.13,91.8,2.82,84.05,2.82,76l0,0h1.59h2.07h2.07h2.07h2.07c0-0.62,0.01-1.23,0.03-1.85c0.02-0.62,0.04-1.23,0.08-1.84
				c0.04-0.61,0.08-1.23,0.13-1.84c0.05-0.61,0.11-1.22,0.19-1.84c0.07-0.61,0.15-1.22,0.24-1.83l-2.05-0.3l-2.05-0.3l-2.05-0.3
				l-2.05-0.3c-0.1,0.69-0.19,1.38-0.27,2.07c-0.08,0.69-0.15,1.38-0.21,2.07c-0.06,0.69-0.11,1.39-0.15,2.08l2.07,0.12l2.07,0.12
				c0.04-0.65,0.08-1.31,0.14-1.96l-2.06-0.18c0.06-0.67,0.13-1.34,0.2-2.01l2.06,0.24l2.06,0.24c-0.07,0.63-0.14,1.26-0.19,1.89
				c-0.05,0.63-0.1,1.27-0.14,1.9c-0.04,0.63-0.06,1.27-0.08,1.9l-2.07-0.06l-2.07-0.06l-2.07-0.06l-1.59-0.05
				c0.23-8.03,1.76-15.74,4.38-22.93l1.48,0.54l1.95,0.71l1.95,0.71l1.95,0.71l1.95,0.71c0.21-0.58,0.43-1.15,0.66-1.72
				c0.23-0.57,0.46-1.14,0.71-1.7c0.24-0.56,0.5-1.12,0.76-1.68c0.26-0.56,0.53-1.11,0.8-1.66c0.28-0.55,0.56-1.09,0.85-1.63
				l-1.82-0.98l-1.82-0.99l-1.82-0.98l-1.82-0.98c-0.33,0.61-0.65,1.23-0.96,1.85c-0.31,0.62-0.62,1.25-0.91,1.88
				c-0.29,0.63-0.58,1.26-0.86,1.9l1.9,0.82l1.9,0.82c0.26-0.6,0.53-1.2,0.8-1.79L13,46.58c0.29-0.61,0.58-1.22,0.88-1.82l1.85,0.93
				l1.85,0.93c-0.29,0.57-0.56,1.14-0.83,1.71c-0.27,0.58-0.53,1.15-0.78,1.74c-0.25,0.58-0.49,1.17-0.73,1.76l-1.92-0.77
				l-1.93-0.77l-1.92-0.77L8,48.95c2.92-7.33,6.99-14.08,11.99-20.03l1.19,1l1.59,1.33l1.59,1.33l1.59,1.33l1.59,1.33
				c0.4-0.47,0.8-0.94,1.21-1.4c0.41-0.46,0.82-0.91,1.25-1.36c0.42-0.45,0.85-0.89,1.29-1.32c0.44-0.43,0.88-0.86,1.32-1.29
				c0.45-0.42,0.9-0.84,1.36-1.25l-1.38-1.55l-1.38-1.55L29.82,24l-1.38-1.55c-0.52,0.46-1.03,0.93-1.54,1.41
				c-0.51,0.48-1,0.96-1.5,1.45c-0.49,0.49-0.98,0.99-1.45,1.5l1.51,1.42l1.51,1.42c0.45-0.48,0.91-0.95,1.37-1.41l-1.46-1.46
				c0.48-0.48,0.96-0.95,1.45-1.41l1.42,1.51l1.42,1.51c-0.46,0.44-0.92,0.88-1.37,1.33c-0.45,0.45-0.89,0.9-1.33,1.37
				c-0.44,0.46-0.86,0.93-1.29,1.4l-1.55-1.38l-1.55-1.38l-1.55-1.38l-1.16-1.04c5.19-5.82,11.29-10.82,18.08-14.75l0.79,1.36
				l1.04,1.79l1.04,1.79l1.04,1.79l1.04,1.79c0.53-0.31,1.07-0.61,1.61-0.9c0.54-0.29,1.09-0.58,1.63-0.85
				c0.55-0.28,1.1-0.54,1.66-0.81c0.56-0.26,1.12-0.51,1.68-0.76c0.56-0.24,1.13-0.48,1.7-0.71l-0.77-1.93l-0.77-1.93l-0.77-1.93
				l-0.77-1.93c-0.65,0.26-1.29,0.52-1.93,0.8c-0.64,0.28-1.27,0.56-1.9,0.85c-0.63,0.29-1.26,0.6-1.88,0.91l0.93,1.85l0.93,1.85
				c0.59-0.29,1.17-0.58,1.77-0.86l-0.88-1.88c0.61-0.29,1.23-0.56,1.85-0.83l0.82,1.9l0.82,1.9c-0.58,0.25-1.16,0.51-1.74,0.78
				c-0.58,0.27-1.15,0.55-1.71,0.83c-0.57,0.29-1.13,0.58-1.69,0.88l-0.98-1.82l-0.98-1.82l-0.98-1.82l-0.75-1.38
				c6.78-3.67,14.2-6.3,22.05-7.68l0.27,1.57l0.36,2.04l0.36,2.04l0.36,2.04l0.36,2.04c0.61-0.11,1.21-0.2,1.82-0.29
				c0.61-0.09,1.22-0.17,1.83-0.24c0.61-0.07,1.22-0.13,1.84-0.18c0.61-0.05,1.23-0.1,1.84-0.13c0.61-0.04,1.23-0.06,1.84-0.08
				l-0.06-2.07l-0.06-2.07l-0.06-2.07l-0.06-2.07c-0.69,0.02-1.39,0.05-2.08,0.09c-0.69,0.04-1.39,0.09-2.08,0.15
				c-0.69,0.06-1.38,0.13-2.07,0.21l0.24,2.06l0.24,2.06c0.65-0.08,1.3-0.14,1.95-0.2l-0.18-2.06c0.67-0.06,1.35-0.11,2.02-0.15
				l0.12,2.07l0.12,2.07c-0.63,0.04-1.27,0.08-1.9,0.14c-0.63,0.05-1.26,0.12-1.9,0.19c-0.63,0.07-1.26,0.16-1.89,0.25l-0.3-2.05
				l-0.3-2.05l-0.3-2.05L65.48,3.5c3.47-0.51,7.01-0.77,10.61-0.77c4.34,0,8.59,0.38,12.72,1.11L88.54,5.4l-0.36,2.04l-0.36,2.04
				l-0.36,2.04l-0.36,2.04c0.61,0.11,1.21,0.22,1.81,0.34c0.6,0.12,1.2,0.26,1.8,0.4c0.6,0.14,1.19,0.29,1.79,0.45
				c0.59,0.16,1.18,0.33,1.77,0.5c0.59,0.18,1.17,0.36,1.76,0.55l0.65-1.97l0.65-1.97l0.65-1.97l0.65-1.97
				c-0.66-0.22-1.32-0.43-1.99-0.63c-0.67-0.2-1.34-0.39-2.01-0.57c-0.67-0.18-1.35-0.35-2.02-0.51l-0.48,2.02l-0.48,2.02
				c0.64,0.15,1.27,0.31,1.91,0.48l0.53-2c0.65,0.17,1.3,0.36,1.95,0.55l-0.59,1.98l-0.59,1.98c-0.61-0.18-1.22-0.35-1.83-0.52
				c-0.61-0.16-1.23-0.32-1.85-0.46c-0.62-0.15-1.24-0.28-1.86-0.41l0.42-2.03l0.42-2.03l0.42-2.03l0.32-1.56
				c7.79,1.61,15.14,4.45,21.82,8.33l-0.78,1.36l-1.04,1.79l-1.04,1.79l-1.04,1.79l-1.04,1.79c0.53,0.31,1.06,0.62,1.58,0.95
				c0.52,0.32,1.04,0.65,1.55,0.99c0.51,0.34,1.02,0.68,1.53,1.04c0.5,0.35,1,0.71,1.49,1.08c0.49,0.37,0.98,0.74,1.46,1.12
				l1.29-1.62l1.29-1.62l1.29-1.62l1.29-1.62c-0.55-0.43-1.1-0.86-1.65-1.27c-0.56-0.41-1.12-0.82-1.69-1.22
				c-0.57-0.4-1.14-0.79-1.72-1.17l-1.14,1.73l-1.14,1.73c0.55,0.36,1.09,0.73,1.62,1.1l1.19-1.7c0.55,0.39,1.1,0.78,1.64,1.19
				l-1.24,1.66l-1.24,1.66c-0.51-0.38-1.02-0.75-1.54-1.12c-0.52-0.36-1.04-0.72-1.58-1.07c-0.53-0.35-1.07-0.69-1.6-1.02l1.09-1.76
				l1.09-1.76l1.09-1.76l0.82-1.33c6.66,4.13,12.62,9.29,17.64,15.27l-1.19,1l-1.59,1.33l-1.59,1.33l-1.59,1.33l-1.59,1.33
				c0.4,0.47,0.78,0.95,1.17,1.43c0.38,0.48,0.76,0.97,1.12,1.46c0.37,0.49,0.73,0.99,1.08,1.49c0.35,0.5,0.7,1.01,1.04,1.53
				c0.34,0.51,0.67,1.03,0.99,1.55l1.76-1.09l1.76-1.09l1.76-1.09l1.76-1.09c-0.37-0.59-0.74-1.18-1.12-1.76
				c-0.38-0.58-0.77-1.16-1.17-1.72c-0.4-0.57-0.81-1.13-1.22-1.69l-1.66,1.24l-1.66,1.24c0.39,0.53,0.78,1.06,1.15,1.59l1.7-1.19
				c0.39,0.55,0.77,1.11,1.14,1.67l-1.73,1.14l-1.73,1.14c-0.35-0.53-0.71-1.06-1.07-1.58c-0.36-0.52-0.74-1.03-1.12-1.54
				c-0.38-0.51-0.77-1.01-1.16-1.51l1.62-1.29l1.62-1.29l1.62-1.29l1.22-0.97c4.82,6.08,8.7,12.95,11.41,20.37l-1.48,0.54
				l-1.95,0.71l-1.95,0.71l-1.95,0.71l-1.95,0.71c0.21,0.58,0.41,1.16,0.61,1.74c0.19,0.58,0.38,1.17,0.55,1.76
				c0.18,0.59,0.34,1.18,0.5,1.77c0.16,0.59,0.31,1.19,0.45,1.79c0.14,0.6,0.27,1.2,0.4,1.8l2.03-0.42l2.03-0.42l2.03-0.42
				l2.03-0.42c-0.14-0.68-0.29-1.36-0.45-2.04c-0.16-0.68-0.33-1.35-0.51-2.02c-0.18-0.67-0.37-1.34-0.57-2.01l-1.99,0.59
				l-1.99,0.59c0.19,0.63,0.37,1.26,0.53,1.89l2-0.54c0.17,0.65,0.34,1.31,0.49,1.96l-2.02,0.48l-2.02,0.48
				c-0.14-0.62-0.3-1.23-0.46-1.85c-0.16-0.61-0.34-1.22-0.52-1.83c-0.18-0.61-0.37-1.21-0.57-1.82l1.97-0.65l1.97-0.65l1.97-0.65
				l1.5-0.5c2.41,7.25,3.71,15,3.71,23.05h-1.59h-2.07h-2.07h-2.07h-2.07c0,0.62-0.01,1.23-0.03,1.85
				c-0.02,0.61-0.04,1.23-0.08,1.84c-0.04,0.61-0.08,1.23-0.13,1.84c-0.05,0.61-0.11,1.22-0.19,1.83c-0.07,0.61-0.15,1.22-0.24,1.83
				l2.05,0.3l2.05,0.3l2.05,0.3l2.05,0.3c0.1-0.69,0.19-1.38,0.27-2.07c0.08-0.69,0.15-1.38,0.21-2.07
				c0.06-0.69,0.11-1.39,0.15-2.08l-2.07-0.12l-2.07-0.12c-0.04,0.65-0.08,1.31-0.14,1.96l2.06,0.18c-0.06,0.67-0.13,1.34-0.2,2.01
				l-2.06-0.24l-2.06-0.24c0.07-0.63,0.14-1.26,0.19-1.89c0.05-0.63,0.1-1.27,0.14-1.9c0.04-0.63,0.06-1.27,0.08-1.9l2.07,0.06
				l2.07,0.06l2.07,0.06l1.59,0.05c-0.23,8.03-1.76,15.74-4.38,22.93l-1.48-0.54l-1.95-0.71l-1.95-0.71l-1.95-0.71l-1.95-0.71
				c-0.21,0.58-0.43,1.15-0.66,1.72c-0.23,0.57-0.46,1.14-0.71,1.7c-0.24,0.56-0.5,1.12-0.76,1.68c-0.26,0.56-0.53,1.11-0.8,1.66
				c-0.28,0.55-0.56,1.09-0.85,1.64l1.82,0.98l1.82,0.99l1.82,0.98l1.82,0.99c0.33-0.61,0.65-1.23,0.96-1.85
				c0.31-0.62,0.62-1.25,0.91-1.88c0.29-0.63,0.58-1.26,0.85-1.9l-1.9-0.82l-1.9-0.82c-0.26,0.6-0.53,1.2-0.8,1.79l1.88,0.88
				c-0.29,0.61-0.58,1.22-0.88,1.82l-1.85-0.93l-1.85-0.93c0.29-0.57,0.56-1.14,0.83-1.71c0.27-0.58,0.53-1.15,0.78-1.74
				c0.25-0.58,0.49-1.17,0.73-1.76l1.93,0.77l1.92,0.77l1.93,0.77l1.47,0.58c-2.92,7.33-6.99,14.08-11.99,20.03l-1.19-1l-1.59-1.33
				l-1.59-1.33l-1.59-1.33l-1.59-1.33c-0.4,0.47-0.8,0.94-1.21,1.4c-0.41,0.46-0.82,0.91-1.25,1.36c-0.42,0.45-0.85,0.89-1.29,1.32
				c-0.43,0.43-0.88,0.86-1.32,1.29c-0.45,0.42-0.9,0.84-1.36,1.25l1.38,1.55l1.38,1.55l1.38,1.55l1.38,1.55
				c0.52-0.46,1.03-0.93,1.54-1.41c0.5-0.48,1-0.96,1.49-1.45c0.49-0.49,0.98-0.99,1.45-1.5l-1.51-1.42l-1.51-1.42
				c-0.45,0.48-0.91,0.95-1.37,1.41l1.46,1.46c-0.48,0.48-0.96,0.95-1.45,1.41l-1.42-1.51l-1.42-1.51c0.46-0.44,0.92-0.88,1.37-1.33
				c0.45-0.45,0.89-0.9,1.33-1.37c0.44-0.46,0.86-0.93,1.29-1.4l1.55,1.38l1.55,1.38l1.55,1.38l1.16,1.04
				C125.62,130.51,119.51,135.51,112.73,139.44z"/>
			<linearGradient id="SVGID_2_" gradientUnits="userSpaceOnUse" x1="4.4464" y1="76" x2="147.743" y2="76">
				<stop  offset="0" style="stop-color:#B7854D"/>
				<stop  offset="0.1515" style="stop-color:#F5D98F"/>
				<stop  offset="0.303" style="stop-color:#FFF9B3"/>
				<stop  offset="0.5212" style="stop-color:#F4D88E"/>
				<stop  offset="0.6424" style="stop-color:#FEF9B4"/>
				<stop  offset="0.8424" style="stop-color:#D4AF66"/>
				<stop  offset="1" style="stop-color:#B7854D"/>
			</linearGradient>
			<path class="st1" d="M119.51,127.74l-1.33-1.59l-1.33-1.59l-0.99-1.18c1.37-1.15,2.7-2.37,3.98-3.65
				c3.43-3.43,6.41-7.2,8.92-11.26l1.31,0.81l1.76,1.09l1.76,1.09l1.76,1.09c-0.36,0.57-0.72,1.14-1.09,1.71
				c-0.37,0.56-0.75,1.12-1.14,1.67c-0.39,0.55-0.78,1.1-1.19,1.64l-1.66-1.24l-1.66-1.24c0.38-0.51,0.75-1.02,1.12-1.54l1.7,1.19
				c0.38-0.54,0.74-1.08,1.1-1.62l-1.73-1.14l-1.73-1.14c-0.34,0.51-0.68,1.02-1.04,1.53c-0.35,0.5-0.71,1-1.08,1.49
				c-0.37,0.49-0.74,0.98-1.12,1.46l1.62,1.29l1.62,1.29l1.62,1.29l1.62,1.29c0.43-0.54,0.86-1.1,1.27-1.65
				c0.42-0.56,0.82-1.12,1.22-1.69c0.4-0.57,0.79-1.14,1.17-1.72c0.38-0.58,0.76-1.17,1.12-1.76c0.37-0.59,0.72-1.19,1.07-1.79
				l-1.79-1.04l-1.79-1.04l-1.79-1.04l-1.79-1.04l-1.34-0.77c1.27-2.2,2.41-4.49,3.41-6.85c1.58-3.75,2.78-7.61,3.6-11.56l1.51,0.31
				l2.03,0.42l2.03,0.42l2.03,0.42c-0.14,0.66-0.28,1.32-0.44,1.98c-0.16,0.66-0.32,1.31-0.49,1.96c-0.17,0.65-0.36,1.3-0.55,1.95
				l-1.99-0.59l-1.98-0.59c0.18-0.61,0.35-1.22,0.52-1.83l2,0.53c0.17-0.63,0.33-1.27,0.48-1.9l-2.02-0.48l-2.02-0.48
				c-0.14,0.6-0.29,1.19-0.45,1.79c-0.16,0.59-0.33,1.19-0.5,1.77c-0.18,0.59-0.36,1.18-0.55,1.76l1.97,0.65l1.97,0.65l1.97,0.65
				l1.97,0.65c0.22-0.66,0.43-1.32,0.63-1.99c0.2-0.67,0.39-1.34,0.57-2.01c0.18-0.67,0.35-1.35,0.51-2.02
				c0.16-0.68,0.31-1.36,0.45-2.04c0.14-0.68,0.27-1.36,0.39-2.05l-2.04-0.36l-2.04-0.36l-2.04-0.36l-2.04-0.36l-1.52-0.27
				c0.62-3.52,0.93-7.11,0.93-10.75c0-3.03-0.22-6.02-0.64-8.97l1.53-0.22l2.05-0.3l2.05-0.3l2.05-0.3c0.1,0.67,0.18,1.34,0.26,2.01
				c0.08,0.67,0.15,1.34,0.2,2.01c0.06,0.67,0.11,1.35,0.15,2.02l-2.07,0.12l-2.07,0.12c-0.04-0.63-0.08-1.27-0.14-1.9l2.06-0.18
				c-0.06-0.65-0.12-1.3-0.2-1.95l-2.06,0.24l-2.06,0.24c0.07,0.61,0.13,1.22,0.19,1.84c0.05,0.61,0.1,1.23,0.13,1.84
				c0.03,0.61,0.06,1.23,0.08,1.84l2.07-0.06l2.07-0.06l2.07-0.06l2.07-0.06c-0.02-0.69-0.05-1.39-0.09-2.08
				c-0.04-0.69-0.09-1.39-0.15-2.08c-0.06-0.69-0.13-1.38-0.21-2.07c-0.08-0.69-0.17-1.38-0.27-2.07c-0.1-0.69-0.21-1.37-0.33-2.06
				l-2.04,0.36l-2.04,0.36l-2.04,0.36l-2.04,0.36l-1.52,0.27c-0.8-4.57-2.11-9.02-3.93-13.32c-0.76-1.81-1.61-3.57-2.53-5.28
				l1.36-0.73l1.82-0.98l1.82-0.99l1.82-0.98c0.32,0.59,0.63,1.19,0.94,1.8c0.3,0.6,0.6,1.21,0.88,1.82
				c0.28,0.61,0.56,1.23,0.83,1.85l-1.9,0.82l-1.9,0.82c-0.25-0.58-0.51-1.16-0.78-1.74l1.88-0.88c-0.28-0.59-0.56-1.18-0.86-1.77
				l-1.85,0.93l-1.85,0.93c0.28,0.55,0.54,1.1,0.8,1.66c0.26,0.56,0.51,1.12,0.76,1.68c0.24,0.56,0.48,1.13,0.71,1.7l1.92-0.77
				l1.93-0.77l1.92-0.77l1.93-0.77c-0.26-0.65-0.52-1.29-0.8-1.93c-0.28-0.64-0.56-1.27-0.85-1.9c-0.29-0.63-0.6-1.26-0.91-1.88
				c-0.31-0.62-0.63-1.24-0.96-1.85c-0.33-0.61-0.67-1.22-1.02-1.82l-1.79,1.04l-1.79,1.04l-1.79,1.04l-1.79,1.04l-1.34,0.77
				c-2.69-4.66-5.99-8.95-9.84-12.81c-0.85-0.85-1.72-1.68-2.62-2.47l1.03-1.15l1.38-1.55l1.38-1.55l1.38-1.55
				c0.5,0.45,1,0.9,1.49,1.37c0.49,0.46,0.98,0.93,1.45,1.41c0.48,0.48,0.95,0.96,1.41,1.45l-1.51,1.42l-1.51,1.42
				c-0.44-0.46-0.88-0.92-1.33-1.37l1.46-1.46c-0.46-0.46-0.93-0.92-1.41-1.37l-1.42,1.51l-1.42,1.51c0.45,0.42,0.89,0.85,1.32,1.29
				c0.43,0.43,0.86,0.88,1.29,1.32c0.42,0.45,0.84,0.9,1.25,1.36l1.55-1.38l1.55-1.38l1.55-1.38l1.55-1.38
				c-0.46-0.52-0.93-1.03-1.41-1.54c-0.48-0.51-0.96-1-1.45-1.5c-0.49-0.49-0.99-0.97-1.49-1.45c-0.51-0.48-1.02-0.95-1.54-1.41
				c-0.52-0.46-1.04-0.92-1.58-1.36l-1.33,1.59l-1.33,1.59l-1.33,1.59l-1.33,1.59l-0.99,1.18c-4.72-3.97-9.97-7.19-15.68-9.6
				c-0.41-0.17-0.82-0.34-1.24-0.51l0.57-1.44l0.77-1.93l0.77-1.93l0.77-1.93c0.63,0.25,1.25,0.51,1.87,0.78
				c0.62,0.27,1.24,0.54,1.85,0.83c0.61,0.29,1.22,0.58,1.82,0.88l-0.93,1.85l-0.93,1.85c-0.57-0.29-1.14-0.56-1.71-0.83l0.88-1.88
				c-0.59-0.28-1.19-0.55-1.79-0.81l-0.82,1.9l-0.82,1.9c0.56,0.24,1.12,0.5,1.68,0.76c0.56,0.26,1.11,0.53,1.66,0.81
				c0.55,0.28,1.09,0.56,1.63,0.85l0.98-1.82l0.98-1.82l0.98-1.82l0.99-1.82c-0.61-0.33-1.23-0.65-1.85-0.96
				c-0.62-0.31-1.25-0.62-1.88-0.91c-0.63-0.29-1.26-0.58-1.9-0.85c-0.64-0.28-1.28-0.54-1.93-0.8c-0.65-0.26-1.3-0.5-1.95-0.74
				l-0.71,1.95l-0.71,1.95l-0.71,1.95l-0.71,1.95l-0.53,1.45c-6.2-2.26-12.69-3.5-19.36-3.69l0.04-1.55L78,10.56l0.06-2.07
				l0.06-2.07c0.67,0.02,1.35,0.05,2.02,0.09c0.67,0.04,1.35,0.09,2.02,0.15c0.67,0.06,1.34,0.13,2.01,0.2l-0.24,2.06l-0.24,2.06
				c-0.63-0.07-1.26-0.14-1.9-0.19l0.18-2.06c-0.65-0.06-1.31-0.1-1.96-0.14l-0.12,2.07l-0.12,2.07c0.61,0.04,1.23,0.08,1.84,0.13
				c0.61,0.05,1.22,0.11,1.84,0.18c0.61,0.07,1.22,0.15,1.83,0.24l0.3-2.05l0.3-2.05l0.3-2.05l0.3-2.05
				c-0.69-0.1-1.38-0.19-2.07-0.27c-0.69-0.08-1.38-0.15-2.07-0.21c-0.69-0.06-1.39-0.11-2.08-0.15c-0.69-0.04-1.39-0.07-2.08-0.09
				c-0.69-0.02-1.39-0.03-2.08-0.03v2.07v2.07v2.07v2.07v1.55c0,0,0,0,0,0c-6.68,0-13.21,1.05-19.46,3.12l-0.49-1.47l-0.65-1.97
				l-0.65-1.97L54.2,9.91c0.64-0.21,1.29-0.41,1.93-0.61c0.65-0.19,1.3-0.38,1.95-0.55c0.65-0.17,1.31-0.34,1.96-0.49l0.48,2.02
				l0.48,2.02c-0.62,0.15-1.23,0.3-1.85,0.46l-0.53-2c-0.63,0.17-1.26,0.35-1.89,0.54l0.59,1.98l0.59,1.98
				c0.59-0.18,1.18-0.34,1.77-0.5c0.59-0.16,1.19-0.31,1.79-0.45c0.6-0.14,1.2-0.27,1.8-0.4l-0.42-2.03l-0.42-2.03l-0.42-2.03
				L61.6,5.79c-0.68,0.14-1.36,0.29-2.04,0.45c-0.68,0.16-1.35,0.33-2.02,0.51c-0.67,0.18-1.34,0.37-2.01,0.57
				c-0.67,0.2-1.33,0.41-1.99,0.63c-0.66,0.22-1.32,0.45-1.97,0.69l0.71,1.95l0.71,1.95l0.71,1.95l0.71,1.95l0.53,1.45
				c-0.98,0.36-1.95,0.74-2.92,1.15c-5.15,2.18-9.93,5.01-14.29,8.47l-0.96-1.21l-1.29-1.62l-1.29-1.62l-1.29-1.62
				c0.53-0.42,1.06-0.83,1.61-1.23c0.54-0.4,1.09-0.8,1.64-1.19c0.55-0.39,1.11-0.77,1.67-1.14l1.14,1.73l1.14,1.73
				c-0.53,0.35-1.05,0.71-1.57,1.07l-1.19-1.7c-0.54,0.38-1.07,0.76-1.59,1.15L37,23.49l1.24,1.66c0.49-0.37,0.99-0.73,1.49-1.08
				c0.5-0.35,1.01-0.7,1.53-1.04c0.51-0.34,1.03-0.67,1.55-0.99l-1.09-1.76l-1.09-1.76l-1.09-1.76l-1.09-1.76
				c-0.59,0.37-1.18,0.74-1.76,1.12c-0.58,0.38-1.16,0.77-1.72,1.17c-0.57,0.4-1.13,0.81-1.69,1.22c-0.56,0.42-1.11,0.84-1.65,1.27
				c-0.55,0.43-1.08,0.87-1.62,1.32l1.33,1.59l1.33,1.59l1.33,1.59l1.33,1.59l0.99,1.18c-1.37,1.15-2.7,2.37-3.98,3.65
				c-3.43,3.43-6.41,7.19-8.92,11.26l-1.31-0.81l-1.76-1.09l-1.76-1.09l-1.76-1.09c0.35-0.57,0.72-1.14,1.09-1.71
				c0.37-0.56,0.75-1.12,1.14-1.67c0.39-0.55,0.78-1.1,1.19-1.64l1.66,1.24l1.66,1.24c-0.38,0.51-0.75,1.02-1.12,1.54l-1.7-1.19
				c-0.38,0.54-0.74,1.08-1.1,1.62l1.73,1.14l1.73,1.14c0.34-0.51,0.68-1.02,1.04-1.53c0.35-0.5,0.71-1,1.08-1.49
				c0.37-0.49,0.74-0.98,1.12-1.46l-1.62-1.29l-1.62-1.29l-1.62-1.29l-1.62-1.29c-0.43,0.55-0.86,1.1-1.27,1.65
				c-0.42,0.56-0.82,1.12-1.22,1.69c-0.4,0.57-0.79,1.14-1.17,1.72c-0.38,0.58-0.76,1.17-1.12,1.76c-0.37,0.59-0.72,1.19-1.07,1.79
				l1.79,1.04l1.79,1.04l1.79,1.04l1.79,1.04l1.34,0.77c-1.27,2.2-2.41,4.49-3.41,6.85c-1.58,3.75-2.78,7.61-3.6,11.56L14,63.17
				l-2.03-0.42l-2.03-0.42l-2.03-0.42c0.14-0.66,0.28-1.32,0.44-1.98c0.15-0.66,0.32-1.31,0.49-1.96c0.17-0.65,0.36-1.3,0.55-1.95
				l1.98,0.59l1.98,0.59c-0.18,0.61-0.35,1.22-0.52,1.83l-2-0.53c-0.17,0.63-0.33,1.27-0.48,1.91l2.02,0.48l2.02,0.48
				c0.14-0.6,0.29-1.19,0.45-1.79c0.16-0.59,0.33-1.19,0.5-1.77c0.18-0.59,0.36-1.17,0.55-1.76l-1.97-0.65l-1.97-0.65L10,54.1
				l-1.97-0.65c-0.22,0.66-0.43,1.32-0.63,1.99c-0.2,0.67-0.39,1.34-0.57,2.01c-0.18,0.67-0.35,1.35-0.51,2.02
				c-0.16,0.68-0.31,1.36-0.45,2.04c-0.14,0.68-0.27,1.36-0.39,2.05l2.04,0.36l2.04,0.36l2.04,0.36l2.04,0.36l1.52,0.27
				c-0.62,3.52-0.93,7.11-0.93,10.75c0,3.03,0.22,6.02,0.64,8.97l-1.53,0.22l-2.05,0.3l-2.05,0.3l-2.05,0.3
				c-0.1-0.67-0.18-1.34-0.26-2.01c-0.08-0.67-0.15-1.34-0.2-2.01c-0.06-0.67-0.11-1.35-0.15-2.02l2.07-0.12l2.07-0.12
				c0.04,0.63,0.08,1.27,0.14,1.9l-2.06,0.18c0.06,0.65,0.12,1.3,0.2,1.95l2.06-0.24l2.06-0.24c-0.07-0.61-0.13-1.22-0.19-1.83
				c-0.05-0.61-0.1-1.23-0.13-1.84c-0.04-0.61-0.06-1.23-0.08-1.84l-2.07,0.06l-2.07,0.06l-2.07,0.06l-2.07,0.06
				c0.02,0.69,0.05,1.39,0.09,2.08c0.04,0.69,0.09,1.39,0.15,2.08c0.06,0.69,0.13,1.38,0.21,2.07c0.08,0.69,0.17,1.38,0.27,2.07
				c0.1,0.69,0.21,1.37,0.33,2.06l2.04-0.36l2.04-0.36l2.04-0.36l2.04-0.36l1.52-0.27c0.8,4.57,2.11,9.02,3.93,13.32
				c0.76,1.81,1.61,3.57,2.53,5.28l-1.36,0.73l-1.82,0.98l-1.82,0.99l-1.82,0.98c-0.32-0.59-0.63-1.19-0.94-1.8
				c-0.3-0.6-0.6-1.21-0.88-1.82c-0.29-0.61-0.56-1.23-0.83-1.85l1.9-0.82l1.9-0.82c0.25,0.58,0.51,1.16,0.78,1.74l-1.88,0.88
				c0.28,0.59,0.56,1.18,0.86,1.77l1.85-0.93l1.85-0.93c-0.28-0.55-0.54-1.1-0.8-1.66c-0.26-0.56-0.51-1.12-0.76-1.68
				c-0.24-0.56-0.48-1.13-0.71-1.7l-1.93,0.77l-1.92,0.77l-1.93,0.77l-1.92,0.77c0.26,0.65,0.52,1.29,0.8,1.93
				c0.28,0.64,0.56,1.27,0.86,1.9c0.29,0.63,0.6,1.25,0.91,1.88c0.31,0.62,0.63,1.24,0.96,1.85c0.33,0.61,0.67,1.22,1.02,1.82
				l1.79-1.04l1.79-1.04l1.79-1.04l1.79-1.04l1.34-0.77c2.69,4.66,5.99,8.95,9.84,12.81c0.85,0.85,1.72,1.68,2.62,2.47l-1.03,1.15
				l-1.38,1.55l-1.38,1.55L29.82,128c-0.5-0.45-1-0.91-1.49-1.37c-0.49-0.46-0.97-0.93-1.45-1.41c-0.48-0.48-0.95-0.96-1.41-1.45
				l1.51-1.42l1.51-1.42c0.44,0.46,0.88,0.92,1.33,1.37l-1.46,1.47c0.46,0.46,0.93,0.92,1.41,1.37l1.42-1.51l1.42-1.51
				c-0.45-0.42-0.89-0.85-1.32-1.29c-0.43-0.44-0.86-0.88-1.29-1.32c-0.42-0.45-0.84-0.9-1.25-1.36l-1.55,1.38l-1.55,1.38
				l-1.55,1.38l-1.55,1.38c0.46,0.52,0.93,1.03,1.41,1.54c0.48,0.5,0.96,1,1.45,1.5c0.49,0.49,0.99,0.98,1.5,1.45
				c0.51,0.48,1.02,0.95,1.54,1.41c0.52,0.46,1.04,0.92,1.58,1.36l1.33-1.59l1.33-1.59l1.33-1.59l1.33-1.59l0.99-1.18
				c4.72,3.97,9.97,7.19,15.68,9.6c0.41,0.17,0.82,0.34,1.24,0.51l-0.57,1.44l-0.77,1.93l-0.77,1.92l-0.77,1.93
				c-0.63-0.25-1.25-0.51-1.87-0.78c-0.62-0.27-1.24-0.54-1.85-0.83c-0.61-0.29-1.22-0.58-1.82-0.88l0.93-1.85l0.93-1.85
				c0.57,0.29,1.14,0.56,1.71,0.83l-0.88,1.88c0.59,0.28,1.19,0.55,1.79,0.81l0.82-1.9l0.82-1.9c-0.56-0.24-1.12-0.5-1.68-0.76
				c-0.56-0.26-1.11-0.53-1.66-0.8c-0.55-0.28-1.09-0.56-1.63-0.85l-0.98,1.82l-0.98,1.82l-0.98,1.82l-0.98,1.82
				c0.61,0.33,1.23,0.65,1.85,0.96c0.62,0.31,1.25,0.62,1.88,0.91c0.63,0.29,1.26,0.58,1.9,0.85c0.64,0.28,1.28,0.54,1.93,0.8
				c0.65,0.26,1.3,0.51,1.95,0.74l0.71-1.95l0.71-1.95l0.71-1.95l0.71-1.95l0.53-1.45c6.2,2.26,12.69,3.5,19.36,3.69l-0.04,1.55
				l-0.06,2.07l-0.06,2.07l-0.06,2.07c-0.67-0.02-1.35-0.05-2.02-0.09c-0.67-0.04-1.35-0.09-2.02-0.15
				c-0.67-0.06-1.34-0.13-2.01-0.2l0.24-2.06l0.24-2.06c0.63,0.07,1.26,0.14,1.9,0.19l-0.18,2.06c0.65,0.06,1.31,0.1,1.96,0.14
				l0.12-2.07l0.12-2.07c-0.61-0.04-1.23-0.08-1.84-0.13c-0.61-0.05-1.22-0.11-1.84-0.19c-0.61-0.07-1.22-0.15-1.83-0.24l-0.3,2.05
				l-0.3,2.05l-0.3,2.05l-0.3,2.05c0.69,0.1,1.38,0.19,2.07,0.27c0.69,0.08,1.38,0.15,2.07,0.21c0.69,0.06,1.39,0.11,2.08,0.15
				c0.69,0.04,1.39,0.07,2.08,0.09c0.69,0.02,1.39,0.03,2.08,0.03v-2.07v-2.07v-2.07v-2.07v-1.55c6.68,0,13.21-1.05,19.46-3.12
				l0.49,1.47l0.65,1.97l0.65,1.97l0.65,1.97c-0.64,0.21-1.29,0.41-1.93,0.61c-0.65,0.19-1.3,0.38-1.95,0.55
				c-0.65,0.17-1.31,0.34-1.96,0.49l-0.48-2.02l-0.48-2.02c0.62-0.14,1.23-0.3,1.85-0.46l0.54,2c0.63-0.17,1.26-0.35,1.89-0.54
				l-0.59-1.98l-0.59-1.98c-0.59,0.18-1.18,0.34-1.77,0.5c-0.59,0.16-1.19,0.31-1.79,0.45c-0.6,0.14-1.2,0.27-1.8,0.4l0.42,2.03
				l0.42,2.03l0.42,2.03l0.42,2.03c0.68-0.14,1.36-0.29,2.04-0.45c0.68-0.16,1.35-0.33,2.02-0.51c0.67-0.18,1.34-0.37,2.01-0.57
				c0.67-0.2,1.33-0.41,1.99-0.63c0.66-0.22,1.32-0.45,1.97-0.69l-0.71-1.95l-0.71-1.95l-0.71-1.95l-0.71-1.95l-0.53-1.45
				c0.98-0.36,1.95-0.74,2.92-1.15c5.15-2.18,9.93-5.01,14.29-8.46l0.96,1.21l1.29,1.62l1.29,1.62l1.29,1.62
				c-0.53,0.42-1.06,0.83-1.61,1.23c-0.54,0.4-1.09,0.8-1.64,1.19c-0.55,0.39-1.11,0.77-1.67,1.14l-1.14-1.73l-1.14-1.73
				c0.53-0.35,1.06-0.71,1.58-1.07l1.19,1.7c0.54-0.38,1.07-0.76,1.59-1.15l-1.24-1.66l-1.24-1.66c-0.49,0.37-0.99,0.73-1.49,1.08
				c-0.5,0.35-1.01,0.7-1.53,1.04c-0.51,0.34-1.03,0.67-1.55,0.99l1.09,1.76l1.09,1.76l1.09,1.76l1.09,1.76
				c0.59-0.37,1.18-0.74,1.76-1.12c0.58-0.38,1.16-0.77,1.72-1.17c0.57-0.4,1.13-0.81,1.69-1.22c0.56-0.41,1.11-0.84,1.65-1.27
				c0.55-0.43,1.08-0.87,1.62-1.32l-1.33-1.59L119.51,127.74z M76.09,136.03c-33.1,0-60.03-26.93-60.03-60.03
				c0-33.1,26.93-60.03,60.03-60.03c33.1,0,60.03,26.93,60.03,60.03C136.13,109.1,109.2,136.03,76.09,136.03z"/>
		</g>
		<linearGradient id="SVGID_3_" gradientUnits="userSpaceOnUse" x1="31.3037" y1="68.251" x2="120.8859" y2="68.251">
			<stop  offset="0" style="stop-color:#B7854D"/>
			<stop  offset="0.1515" style="stop-color:#F5D98F"/>
			<stop  offset="0.303" style="stop-color:#FFF9B3"/>
			<stop  offset="0.5212" style="stop-color:#F4D88E"/>
			<stop  offset="0.6424" style="stop-color:#FEF9B4"/>
			<stop  offset="0.8424" style="stop-color:#D4AF66"/>
			<stop  offset="1" style="stop-color:#B7854D"/>
		</linearGradient>
		<polygon class="st2" points="76.09,28.58 31.3,107.92 38,107.92 43.28,107.92 46.59,107.92 55.19,107.92 49.23,97.38 76.09,49.79 
			102.96,97.38 97,107.92 105.6,107.92 108.91,107.92 114.19,107.92 120.89,107.92 		"/>
	</g>
</g>
</svg>
