<?xml version="1.0" encoding="utf-8"?>
<!-- Generator: Adobe Illustrator 25.0.0, SVG Export Plug-In . SVG Version: 6.00 Build 0)  -->
<svg version="1.1" xmlns="http://www.w3.org/2000/svg" xmlns:xlink="http://www.w3.org/1999/xlink" x="0px" y="0px"
	 viewBox="0 0 192 192" style="enable-background:new 0 0 192 192;" xml:space="preserve">
<style type="text/css">
	.st0{fill:url(#SVGID_1_);}
	.st1{fill:url(#SVGID_2_);}
	.st2{fill:url(#SVGID_3_);}
</style>
<g id="Layer_2">
</g>
<g id="Layer_3">
</g>
<g id="Layer_1">
	<g>
		<g>
			<linearGradient id="SVGID_1_" gradientUnits="userSpaceOnUse" x1="1.648" y1="96.0002" x2="190.5416" y2="96.0002">
				<stop  offset="0" style="stop-color:#B7854D"/>
				<stop  offset="0.1515" style="stop-color:#F5D98F"/>
				<stop  offset="0.303" style="stop-color:#FFF9B3"/>
				<stop  offset="0.5212" style="stop-color:#F4D88E"/>
				<stop  offset="0.6424" style="stop-color:#FEF9B4"/>
				<stop  offset="0.8424" style="stop-color:#D4AF66"/>
				<stop  offset="1" style="stop-color:#B7854D"/>
			</linearGradient>
			<path class="st0" d="M183.12,59.24c-4.76-11.25-11.57-21.35-20.24-30.02c-8.67-8.67-18.77-15.48-30.02-20.24
				c-11.64-4.93-24.01-7.42-36.76-7.42c-12.75,0-25.12,2.5-36.76,7.42c-11.25,4.76-21.35,11.57-30.02,20.24
				c-8.67,8.67-15.48,18.77-20.24,30.02C4.15,70.88,1.65,83.25,1.65,96c0,12.75,2.5,25.12,7.42,36.76
				c4.76,11.25,11.57,21.35,20.24,30.02c8.67,8.67,18.77,15.48,30.02,20.24c11.64,4.92,24.01,7.42,36.76,7.42
				c12.75,0,25.12-2.5,36.76-7.42c11.25-4.76,21.35-11.57,30.02-20.24c8.67-8.67,15.48-18.77,20.24-30.02
				c4.93-11.64,7.42-24.01,7.42-36.76C190.54,83.25,188.04,70.88,183.12,59.24z M142.17,175.8l-0.99-1.71l-1.31-2.25l-1.3-2.26
				l-1.31-2.26l-1.3-2.26c-0.67,0.39-1.34,0.76-2.02,1.13c-0.68,0.37-1.37,0.73-2.06,1.07c-0.69,0.35-1.39,0.68-2.09,1.01
				c-0.7,0.33-1.41,0.64-2.11,0.95c-0.71,0.31-1.42,0.6-2.14,0.89l0.96,2.42l0.96,2.42l0.96,2.42l0.96,2.42
				c0.81-0.32,1.62-0.66,2.42-1c0.8-0.35,1.6-0.71,2.39-1.08c0.79-0.37,1.58-0.75,2.36-1.15l-1.17-2.33l-1.17-2.33
				c-0.74,0.37-1.48,0.73-2.22,1.08l1.1,2.36c-0.77,0.36-1.54,0.71-2.32,1.04l-1.03-2.39l-1.03-2.39c0.73-0.32,1.46-0.64,2.18-0.98
				c0.72-0.34,1.44-0.69,2.16-1.05c0.71-0.36,1.42-0.73,2.12-1.11l1.24,2.29l1.24,2.29l1.24,2.29l0.94,1.74
				c-8.53,4.62-17.87,7.93-27.74,9.67l-0.34-1.97l-0.45-2.57l-0.45-2.57l-0.45-2.57l-0.45-2.57c-0.76,0.13-1.52,0.26-2.29,0.37
				c-0.76,0.11-1.53,0.21-2.3,0.3c-0.77,0.09-1.54,0.17-2.31,0.23c-0.77,0.07-1.54,0.12-2.31,0.17c-0.77,0.04-1.55,0.08-2.32,0.1
				l0.07,2.6l0.07,2.61l0.07,2.6l0.07,2.6c0.87-0.02,1.75-0.06,2.62-0.11c0.87-0.05,1.74-0.11,2.61-0.19
				c0.87-0.08,1.74-0.16,2.61-0.26l-0.3-2.59l-0.3-2.59c-0.82,0.09-1.64,0.18-2.46,0.25l0.22,2.6c-0.85,0.07-1.69,0.13-2.54,0.18
				l-0.15-2.6l-0.15-2.6c0.8-0.05,1.59-0.1,2.39-0.17c0.8-0.07,1.59-0.15,2.38-0.24c0.79-0.09,1.59-0.2,2.38-0.31l0.37,2.58
				l0.37,2.58l0.37,2.58l0.29,1.98c-4.36,0.64-8.82,0.97-13.35,0.97c-5.46,0-10.8-0.48-16-1.39l0.35-1.97l0.45-2.57l0.45-2.57
				l0.45-2.57l0.45-2.57c-0.76-0.13-1.52-0.28-2.28-0.43c-0.76-0.16-1.51-0.32-2.26-0.5c-0.75-0.18-1.5-0.37-2.25-0.57
				c-0.75-0.2-1.49-0.41-2.23-0.63c-0.74-0.22-1.48-0.45-2.21-0.7l-0.82,2.47l-0.82,2.47l-0.82,2.47l-0.82,2.47
				c0.83,0.27,1.66,0.54,2.5,0.79c0.84,0.25,1.68,0.49,2.52,0.71c0.85,0.23,1.69,0.44,2.54,0.64l0.6-2.54l0.6-2.54
				c-0.8-0.19-1.6-0.39-2.4-0.6l-0.67,2.52c-0.82-0.22-1.64-0.45-2.45-0.69l0.75-2.5l0.75-2.5c0.76,0.23,1.53,0.45,2.3,0.65
				c0.77,0.21,1.55,0.4,2.32,0.58c0.78,0.18,1.56,0.36,2.34,0.52l-0.52,2.55l-0.52,2.55l-0.52,2.55l-0.4,1.96
				c-9.8-2.02-19.04-5.6-27.44-10.47l0.99-1.71l1.31-2.25l1.31-2.26l1.3-2.26l1.31-2.26c-0.67-0.39-1.33-0.78-1.99-1.19
				c-0.66-0.41-1.31-0.82-1.96-1.25c-0.65-0.43-1.29-0.86-1.92-1.3c-0.63-0.44-1.26-0.9-1.88-1.36c-0.62-0.46-1.23-0.93-1.84-1.41
				l-1.62,2.04l-1.62,2.04l-1.62,2.04l-1.62,2.04c0.69,0.54,1.38,1.08,2.08,1.6c0.7,0.52,1.41,1.04,2.12,1.54
				c0.72,0.5,1.44,0.99,2.17,1.47l1.43-2.18l1.43-2.18c-0.69-0.45-1.37-0.92-2.04-1.39l-1.5,2.13c-0.7-0.49-1.38-0.99-2.06-1.49
				l1.56-2.09l1.56-2.09c0.64,0.48,1.29,0.95,1.94,1.4c0.65,0.46,1.31,0.91,1.98,1.35c0.67,0.44,1.34,0.87,2.02,1.29l-1.37,2.22
				l-1.37,2.22l-1.37,2.22l-1.04,1.68c-8.38-5.19-15.88-11.69-22.19-19.2l1.5-1.26l2-1.68l2-1.68l2-1.68l2-1.68
				c-0.5-0.59-0.99-1.19-1.47-1.8c-0.48-0.61-0.95-1.22-1.41-1.84c-0.46-0.62-0.92-1.25-1.36-1.88c-0.44-0.63-0.88-1.27-1.3-1.92
				c-0.43-0.65-0.84-1.3-1.25-1.95L26,139.23l-2.22,1.37l-2.22,1.37l-2.22,1.37c0.46,0.74,0.93,1.48,1.41,2.21
				c0.48,0.73,0.97,1.45,1.47,2.17c0.5,0.72,1.01,1.42,1.54,2.13l2.09-1.56l2.09-1.56c-0.49-0.66-0.98-1.33-1.45-2l-2.13,1.5
				c-0.49-0.7-0.96-1.4-1.43-2.11l2.18-1.43l2.18-1.43c0.44,0.67,0.89,1.33,1.35,1.98c0.46,0.65,0.93,1.3,1.4,1.94
				c0.48,0.64,0.96,1.27,1.46,1.9l-2.04,1.62l-2.04,1.62l-2.04,1.62l-1.54,1.22c-6.06-7.65-10.94-16.28-14.35-25.62l1.87-0.68
				l2.45-0.89l2.45-0.89l2.45-0.89l2.45-0.89c-0.26-0.73-0.52-1.46-0.76-2.19c-0.24-0.73-0.47-1.47-0.7-2.21
				c-0.22-0.74-0.43-1.48-0.63-2.23c-0.2-0.75-0.39-1.5-0.57-2.25c-0.18-0.75-0.34-1.51-0.5-2.26l-2.55,0.52l-2.55,0.52l-2.55,0.52
				l-2.55,0.52c0.18,0.86,0.37,1.71,0.57,2.56c0.2,0.85,0.42,1.7,0.64,2.54c0.23,0.85,0.46,1.69,0.71,2.53l2.5-0.75l2.5-0.75
				c-0.24-0.79-0.46-1.58-0.67-2.38l-2.52,0.67c-0.22-0.82-0.43-1.64-0.62-2.47l2.54-0.6l2.54-0.6c0.18,0.78,0.38,1.55,0.58,2.32
				c0.21,0.77,0.42,1.54,0.65,2.3c0.23,0.76,0.47,1.53,0.72,2.28l-2.47,0.82l-2.47,0.82l-2.47,0.82l-1.89,0.63
				C5.57,115.87,3.93,106.12,3.93,96l0,0h2.01h2.61h2.61h2.61h2.61c0-0.77,0.01-1.55,0.03-2.32c0.02-0.77,0.05-1.55,0.1-2.32
				c0.04-0.77,0.1-1.54,0.17-2.32c0.07-0.77,0.14-1.54,0.23-2.31c0.09-0.77,0.19-1.53,0.3-2.3l-2.58-0.37l-2.58-0.37l-2.58-0.37
				l-2.58-0.37c-0.13,0.87-0.24,1.73-0.34,2.6c-0.1,0.87-0.19,1.74-0.26,2.61c-0.08,0.87-0.14,1.74-0.19,2.62l2.6,0.15l2.6,0.15
				c0.05-0.82,0.11-1.64,0.18-2.47l-2.6-0.22c0.07-0.85,0.16-1.69,0.26-2.53l2.59,0.3l2.59,0.3c-0.09,0.79-0.17,1.59-0.24,2.38
				c-0.07,0.8-0.13,1.59-0.17,2.39c-0.05,0.8-0.08,1.6-0.1,2.39l-2.6-0.08l-2.6-0.07l-2.61-0.07l-2-0.06
				c0.29-10.1,2.21-19.8,5.51-28.85l1.87,0.68l2.45,0.89l2.45,0.89l2.45,0.89l2.45,0.89c0.26-0.73,0.54-1.45,0.82-2.17
				c0.29-0.72,0.58-1.43,0.89-2.14c0.31-0.71,0.62-1.41,0.95-2.12c0.33-0.7,0.67-1.4,1.01-2.09c0.35-0.69,0.71-1.38,1.07-2.06
				l-2.29-1.24l-2.29-1.24l-2.29-1.24l-2.29-1.24c-0.42,0.77-0.82,1.54-1.21,2.33s-0.77,1.57-1.14,2.36
				c-0.37,0.79-0.73,1.59-1.08,2.39l2.39,1.03l2.39,1.03c0.33-0.76,0.66-1.51,1.01-2.25l-2.36-1.1c0.36-0.77,0.73-1.53,1.11-2.29
				l2.33,1.17l2.33,1.17c-0.36,0.71-0.71,1.43-1.05,2.15c-0.34,0.72-0.66,1.45-0.98,2.18c-0.32,0.73-0.62,1.47-0.92,2.21l-2.42-0.96
				l-2.42-0.96l-2.42-0.96l-1.84-0.73c3.68-9.22,8.8-17.71,15.09-25.19l1.5,1.26l2,1.68l2,1.68l2,1.68l2,1.68
				c0.5-0.59,1-1.18,1.52-1.76c0.51-0.58,1.04-1.15,1.57-1.71c0.53-0.56,1.07-1.12,1.62-1.66c0.55-0.55,1.1-1.09,1.66-1.62
				c0.56-0.53,1.13-1.05,1.71-1.57l-1.73-1.95l-1.73-1.95l-1.73-1.95l-1.73-1.95c-0.65,0.58-1.3,1.17-1.93,1.77
				c-0.64,0.6-1.26,1.21-1.88,1.83c-0.62,0.62-1.23,1.25-1.83,1.88l1.9,1.79l1.9,1.79c0.57-0.6,1.14-1.19,1.72-1.77l-1.84-1.84
				c0.6-0.6,1.21-1.19,1.83-1.77l1.79,1.9l1.79,1.89c-0.58,0.55-1.15,1.11-1.72,1.67c-0.56,0.56-1.12,1.14-1.67,1.72
				c-0.55,0.58-1.09,1.17-1.62,1.77l-1.95-1.73l-1.95-1.73l-1.95-1.73l-1.47-1.3c6.53-7.33,14.2-13.6,22.74-18.55L51,17.91
				l1.31,2.26l1.31,2.26l1.3,2.26l1.31,2.26c0.67-0.39,1.34-0.76,2.02-1.13c0.68-0.37,1.37-0.73,2.06-1.07
				c0.69-0.35,1.39-0.68,2.09-1.01c0.7-0.33,1.41-0.64,2.12-0.95c0.71-0.31,1.42-0.6,2.14-0.89l-0.96-2.42l-0.96-2.42l-0.96-2.42
				l-0.96-2.42c-0.81,0.32-1.62,0.66-2.42,1c-0.8,0.35-1.6,0.71-2.39,1.08c-0.79,0.37-1.58,0.75-2.36,1.15l1.17,2.33l1.17,2.33
				c0.74-0.37,1.48-0.73,2.22-1.08l-1.1-2.36c0.77-0.36,1.54-0.71,2.32-1.04l1.03,2.39l1.03,2.39c-0.73,0.32-1.46,0.64-2.18,0.98
				c-0.72,0.34-1.44,0.69-2.16,1.05c-0.71,0.36-1.42,0.73-2.12,1.11l-1.24-2.29l-1.24-2.29l-1.24-2.29l-0.94-1.74
				c8.53-4.62,17.87-7.93,27.74-9.66l0.34,1.97l0.45,2.57l0.45,2.57l0.45,2.57l0.45,2.57c0.76-0.13,1.53-0.26,2.29-0.37
				c0.77-0.11,1.53-0.21,2.3-0.3c0.77-0.09,1.54-0.17,2.31-0.23c0.77-0.07,1.54-0.12,2.31-0.17c0.77-0.04,1.55-0.08,2.32-0.1
				l-0.07-2.6l-0.07-2.6l-0.07-2.6l-0.07-2.61c-0.87,0.03-1.75,0.06-2.62,0.11c-0.87,0.05-1.74,0.11-2.61,0.19
				c-0.87,0.08-1.74,0.16-2.61,0.26l0.3,2.59l0.3,2.59c0.82-0.1,1.64-0.18,2.46-0.25l-0.22-2.6c0.85-0.07,1.69-0.13,2.54-0.18
				l0.15,2.6l0.15,2.6c-0.8,0.05-1.59,0.1-2.39,0.17c-0.8,0.07-1.59,0.15-2.38,0.24c-0.79,0.09-1.59,0.2-2.38,0.31l-0.37-2.58
				l-0.37-2.58l-0.37-2.58L82.74,4.8c4.36-0.64,8.82-0.97,13.35-0.97c5.46,0,10.8,0.48,16,1.39l-0.34,1.97l-0.45,2.57l-0.45,2.57
				l-0.45,2.57l-0.45,2.57c0.76,0.13,1.52,0.28,2.28,0.43c0.76,0.16,1.51,0.32,2.26,0.5c0.75,0.18,1.5,0.37,2.25,0.57
				c0.75,0.2,1.49,0.41,2.23,0.63c0.74,0.22,1.48,0.45,2.21,0.7l0.82-2.47l0.82-2.47l0.82-2.47l0.82-2.47
				c-0.83-0.27-1.66-0.54-2.5-0.79c-0.84-0.25-1.68-0.49-2.53-0.72c-0.85-0.23-1.69-0.44-2.54-0.64l-0.6,2.54l-0.6,2.54
				c0.8,0.19,1.6,0.39,2.4,0.6l0.67-2.52c0.82,0.22,1.64,0.45,2.45,0.69l-0.75,2.5l-0.75,2.5c-0.76-0.23-1.53-0.45-2.3-0.65
				c-0.77-0.21-1.55-0.4-2.32-0.58c-0.78-0.18-1.56-0.36-2.34-0.52l0.52-2.55l0.52-2.55l0.52-2.55l0.4-1.96
				c9.8,2.02,19.04,5.6,27.44,10.47l-0.99,1.71l-1.31,2.26l-1.3,2.26l-1.31,2.26l-1.3,2.26c0.67,0.39,1.33,0.78,1.99,1.19
				c0.66,0.41,1.31,0.82,1.96,1.25c0.65,0.43,1.29,0.86,1.92,1.3c0.63,0.44,1.26,0.9,1.88,1.36c0.62,0.46,1.23,0.93,1.84,1.41
				l1.62-2.04l1.62-2.04l1.62-2.04l1.62-2.04c-0.69-0.54-1.38-1.08-2.08-1.6c-0.7-0.52-1.41-1.03-2.12-1.54
				c-0.72-0.5-1.44-0.99-2.17-1.47l-1.43,2.18l-1.43,2.18c0.69,0.45,1.37,0.92,2.04,1.39l1.5-2.13c0.7,0.49,1.38,0.99,2.06,1.49
				l-1.56,2.09l-1.56,2.09c-0.64-0.48-1.29-0.95-1.94-1.4c-0.65-0.46-1.31-0.91-1.98-1.35c-0.67-0.44-1.34-0.87-2.02-1.29l1.37-2.22
				l1.37-2.22l1.37-2.22l1.04-1.68c8.38,5.19,15.88,11.69,22.19,19.2l-1.5,1.26l-2,1.68l-2,1.68l-2,1.68l-2,1.68
				c0.5,0.59,0.99,1.19,1.47,1.8c0.48,0.61,0.95,1.22,1.41,1.84c0.46,0.62,0.92,1.25,1.36,1.88c0.44,0.63,0.88,1.27,1.3,1.92
				c0.43,0.65,0.84,1.3,1.25,1.96l2.22-1.37l2.22-1.37l2.22-1.37l2.22-1.37c-0.46-0.74-0.93-1.48-1.41-2.21
				c-0.48-0.73-0.97-1.45-1.47-2.17c-0.5-0.72-1.01-1.42-1.54-2.12l-2.09,1.56l-2.09,1.56c0.49,0.66,0.98,1.33,1.45,2l2.13-1.5
				c0.49,0.7,0.97,1.4,1.43,2.11l-2.18,1.43l-2.18,1.43c-0.44-0.67-0.89-1.33-1.35-1.98c-0.46-0.65-0.93-1.3-1.4-1.94
				c-0.48-0.64-0.96-1.27-1.46-1.9l2.04-1.62l2.04-1.62l2.04-1.62l1.54-1.22c6.06,7.65,10.94,16.28,14.35,25.62l-1.87,0.68
				l-2.45,0.89l-2.45,0.89l-2.45,0.89l-2.45,0.89c0.26,0.73,0.52,1.46,0.76,2.19c0.24,0.73,0.47,1.47,0.7,2.21
				c0.22,0.74,0.43,1.48,0.63,2.23c0.2,0.75,0.39,1.5,0.57,2.25c0.18,0.75,0.34,1.51,0.5,2.26l2.55-0.52l2.55-0.52l2.55-0.52
				l2.55-0.52c-0.18-0.86-0.36-1.71-0.57-2.56c-0.2-0.85-0.41-1.7-0.64-2.54c-0.23-0.84-0.46-1.69-0.71-2.52l-2.5,0.75l-2.5,0.75
				c0.24,0.79,0.46,1.58,0.67,2.38l2.52-0.67c0.22,0.82,0.43,1.64,0.62,2.47l-2.54,0.6l-2.54,0.6c-0.18-0.78-0.38-1.55-0.58-2.32
				c-0.21-0.77-0.42-1.54-0.65-2.3c-0.23-0.77-0.47-1.53-0.72-2.28l2.47-0.82l2.47-0.82l2.47-0.82l1.89-0.63
				c3.03,9.12,4.67,18.87,4.67,28.99h-2.01h-2.61h-2.61h-2.61h-2.61c0,0.77-0.01,1.55-0.03,2.32c-0.02,0.77-0.06,1.55-0.1,2.32
				c-0.04,0.77-0.1,1.54-0.17,2.31c-0.07,0.77-0.14,1.54-0.23,2.31c-0.09,0.77-0.19,1.54-0.3,2.3l2.58,0.37l2.58,0.37l2.58,0.37
				l2.58,0.37c0.13-0.86,0.24-1.73,0.34-2.6c0.1-0.87,0.19-1.74,0.26-2.61c0.07-0.87,0.14-1.74,0.19-2.62l-2.6-0.15l-2.6-0.15
				c-0.05,0.82-0.11,1.64-0.18,2.47l2.6,0.22c-0.07,0.85-0.16,1.69-0.26,2.53l-2.59-0.3l-2.59-0.3c0.09-0.79,0.17-1.59,0.24-2.38
				c0.07-0.8,0.13-1.59,0.17-2.39c0.05-0.8,0.08-1.6,0.1-2.39l2.6,0.08l2.61,0.07l2.6,0.07l2,0.06c-0.29,10.1-2.21,19.8-5.51,28.85
				l-1.87-0.68l-2.45-0.89l-2.45-0.89l-2.45-0.89l-2.45-0.89c-0.26,0.73-0.54,1.45-0.82,2.17c-0.29,0.72-0.58,1.43-0.89,2.14
				c-0.31,0.71-0.62,1.41-0.95,2.12c-0.33,0.7-0.66,1.4-1.01,2.09c-0.35,0.69-0.71,1.38-1.07,2.06l2.29,1.24l2.29,1.24l2.29,1.24
				l2.29,1.24c0.42-0.77,0.82-1.55,1.21-2.33c0.39-0.78,0.78-1.57,1.15-2.36c0.37-0.79,0.73-1.59,1.08-2.39l-2.39-1.03l-2.39-1.03
				c-0.33,0.76-0.66,1.51-1.01,2.25l2.36,1.1c-0.36,0.77-0.73,1.53-1.11,2.29l-2.33-1.17l-2.33-1.17c0.36-0.71,0.71-1.43,1.05-2.16
				c0.34-0.72,0.66-1.45,0.98-2.18c0.32-0.73,0.62-1.47,0.92-2.21l2.42,0.96l2.42,0.96l2.42,0.96l1.84,0.73
				c-3.67,9.22-8.8,17.71-15.08,25.19l-1.5-1.26l-2-1.68l-2-1.68l-2-1.68l-2-1.68c-0.5,0.59-1,1.18-1.52,1.75
				c-0.51,0.58-1.04,1.15-1.57,1.71c-0.53,0.56-1.07,1.12-1.62,1.66c-0.55,0.55-1.1,1.09-1.66,1.62c-0.56,0.53-1.13,1.05-1.71,1.57
				l1.73,1.95l1.73,1.95l1.73,1.95l1.73,1.95c0.65-0.58,1.3-1.17,1.93-1.77c0.64-0.6,1.26-1.21,1.88-1.83
				c0.62-0.62,1.23-1.25,1.83-1.88l-1.9-1.79l-1.9-1.79c-0.57,0.6-1.14,1.19-1.72,1.77l1.84,1.84c-0.6,0.6-1.21,1.19-1.83,1.77
				l-1.79-1.89l-1.79-1.9c0.58-0.55,1.15-1.11,1.72-1.67c0.56-0.57,1.12-1.14,1.67-1.72c0.55-0.58,1.09-1.17,1.62-1.77l1.95,1.73
				l1.95,1.73l1.95,1.73l1.47,1.3C158.39,164.57,150.71,170.85,142.17,175.8z"/>
			<linearGradient id="SVGID_2_" gradientUnits="userSpaceOnUse" x1="5.971" y1="96" x2="186.2183" y2="96">
				<stop  offset="0" style="stop-color:#B7854D"/>
				<stop  offset="0.1515" style="stop-color:#F5D98F"/>
				<stop  offset="0.303" style="stop-color:#FFF9B3"/>
				<stop  offset="0.5212" style="stop-color:#F4D88E"/>
				<stop  offset="0.6424" style="stop-color:#FEF9B4"/>
				<stop  offset="0.8424" style="stop-color:#D4AF66"/>
				<stop  offset="1" style="stop-color:#B7854D"/>
			</linearGradient>
			<path class="st1" d="M150.7,161.08l-1.68-2l-1.68-2l-1.25-1.49c1.72-1.45,3.4-2.98,5-4.59c4.31-4.31,8.06-9.05,11.22-14.17
				l1.65,1.02l2.22,1.37l2.22,1.37l2.22,1.37c-0.45,0.72-0.9,1.44-1.37,2.15c-0.47,0.71-0.94,1.41-1.43,2.11
				c-0.49,0.69-0.99,1.38-1.49,2.06l-2.09-1.56l-2.09-1.56c0.48-0.64,0.95-1.29,1.4-1.94l2.13,1.5c0.47-0.67,0.94-1.36,1.39-2.04
				l-2.18-1.43l-2.18-1.43c-0.43,0.65-0.86,1.29-1.3,1.92c-0.44,0.63-0.9,1.26-1.36,1.88c-0.46,0.62-0.93,1.23-1.41,1.84l2.04,1.62
				l2.04,1.62l2.04,1.62l2.04,1.62c0.54-0.69,1.08-1.38,1.6-2.08c0.52-0.7,1.03-1.41,1.54-2.13c0.5-0.72,0.99-1.44,1.47-2.17
				c0.48-0.73,0.95-1.47,1.41-2.21c0.46-0.74,0.91-1.49,1.35-2.25l-2.26-1.3l-2.26-1.31l-2.26-1.3l-2.26-1.31l-1.68-0.97
				c1.6-2.77,3.03-5.64,4.29-8.62c1.99-4.71,3.5-9.57,4.52-14.54l1.9,0.39l2.55,0.52l2.55,0.52l2.55,0.52
				c-0.17,0.83-0.35,1.66-0.55,2.49c-0.2,0.83-0.4,1.65-0.62,2.47c-0.22,0.82-0.45,1.64-0.69,2.45l-2.5-0.75l-2.5-0.75
				c0.23-0.76,0.45-1.53,0.65-2.3l2.52,0.67c0.21-0.8,0.41-1.59,0.6-2.4l-2.54-0.6l-2.54-0.6c-0.18,0.75-0.37,1.5-0.57,2.25
				c-0.2,0.75-0.41,1.49-0.63,2.23c-0.22,0.74-0.45,1.48-0.7,2.21l2.47,0.82l2.47,0.82l2.47,0.82l2.47,0.82
				c0.27-0.83,0.54-1.67,0.79-2.5c0.25-0.84,0.49-1.68,0.71-2.53c0.23-0.85,0.44-1.69,0.64-2.54c0.2-0.85,0.39-1.71,0.57-2.56
				c0.18-0.86,0.34-1.72,0.49-2.58l-2.57-0.45l-2.57-0.45l-2.57-0.45l-2.57-0.45l-1.91-0.34c0.78-4.43,1.17-8.95,1.17-13.52
				c0-3.81-0.27-7.57-0.81-11.29l1.92-0.28l2.58-0.37l2.58-0.37l2.58-0.37c0.12,0.84,0.23,1.68,0.33,2.53
				c0.1,0.84,0.18,1.69,0.26,2.53c0.07,0.85,0.13,1.69,0.18,2.54l-2.6,0.15l-2.6,0.15c-0.05-0.8-0.1-1.59-0.17-2.39l2.6-0.22
				c-0.07-0.82-0.15-1.64-0.25-2.46l-2.59,0.3l-2.59,0.3c0.09,0.77,0.17,1.54,0.23,2.31c0.07,0.77,0.12,1.54,0.17,2.32
				c0.04,0.77,0.08,1.55,0.1,2.32l2.61-0.07l2.6-0.08l2.61-0.07l2.6-0.07c-0.03-0.87-0.06-1.75-0.11-2.62
				c-0.05-0.87-0.11-1.74-0.19-2.62c-0.08-0.87-0.16-1.74-0.26-2.61c-0.1-0.87-0.21-1.74-0.34-2.6c-0.12-0.87-0.26-1.73-0.42-2.59
				l-2.57,0.45l-2.57,0.45l-2.57,0.45l-2.57,0.45l-1.91,0.34c-1-5.74-2.66-11.35-4.95-16.76c-0.96-2.27-2.02-4.49-3.19-6.64
				l1.71-0.92l2.29-1.24l2.29-1.24l2.29-1.24c0.4,0.75,0.8,1.5,1.18,2.26c0.38,0.76,0.75,1.52,1.11,2.29
				c0.36,0.77,0.71,1.54,1.04,2.32l-2.39,1.03l-2.39,1.03c-0.32-0.73-0.64-1.46-0.98-2.18l2.36-1.1c-0.35-0.75-0.71-1.49-1.08-2.22
				l-2.33,1.17l-2.33,1.17c0.35,0.69,0.68,1.39,1.01,2.09c0.33,0.7,0.64,1.41,0.95,2.12c0.31,0.71,0.6,1.42,0.89,2.14l2.42-0.96
				l2.42-0.96l2.42-0.96l2.42-0.96c-0.32-0.81-0.66-1.62-1.01-2.42c-0.35-0.8-0.7-1.6-1.08-2.39c-0.37-0.79-0.75-1.58-1.15-2.36
				c-0.39-0.78-0.8-1.56-1.21-2.33c-0.42-0.77-0.84-1.53-1.28-2.29l-2.26,1.31l-2.26,1.3l-2.26,1.31l-2.26,1.3l-1.68,0.97
				c-3.39-5.86-7.53-11.26-12.38-16.11c-1.07-1.07-2.17-2.11-3.29-3.11l1.29-1.45l1.73-1.95l1.73-1.95l1.73-1.95
				c0.63,0.56,1.26,1.14,1.88,1.72c0.62,0.58,1.23,1.17,1.83,1.77c0.6,0.6,1.19,1.21,1.77,1.83l-1.9,1.79l-1.9,1.79
				c-0.55-0.58-1.11-1.15-1.67-1.72l1.84-1.84c-0.58-0.58-1.17-1.16-1.77-1.72l-1.79,1.89L150.81,38c0.56,0.53,1.12,1.07,1.66,1.62
				c0.55,0.55,1.09,1.1,1.62,1.66c0.53,0.56,1.05,1.13,1.57,1.71l1.95-1.73l1.95-1.73l1.95-1.73l1.95-1.73
				c-0.58-0.65-1.17-1.3-1.77-1.93c-0.6-0.64-1.21-1.26-1.83-1.88c-0.62-0.62-1.24-1.23-1.88-1.83c-0.64-0.6-1.28-1.19-1.93-1.77
				c-0.65-0.58-1.31-1.15-1.98-1.71l-1.68,2l-1.68,2l-1.68,2l-1.68,2l-1.25,1.49c-5.94-4.99-12.55-9.04-19.72-12.08
				c-0.52-0.22-1.03-0.43-1.55-0.64l0.72-1.81l0.96-2.42l0.96-2.42l0.96-2.42c0.79,0.31,1.57,0.64,2.35,0.98
				c0.78,0.34,1.55,0.69,2.32,1.04c0.77,0.36,1.53,0.73,2.29,1.11l-1.17,2.33l-1.17,2.33c-0.71-0.36-1.43-0.71-2.16-1.05l1.1-2.36
				c-0.75-0.35-1.5-0.69-2.25-1.01l-1.03,2.39l-1.03,2.39c0.71,0.31,1.41,0.62,2.11,0.95c0.7,0.33,1.4,0.67,2.09,1.01
				c0.69,0.35,1.38,0.71,2.06,1.07l1.24-2.29l1.24-2.29l1.24-2.29l1.24-2.29c-0.77-0.42-1.54-0.82-2.33-1.21
				c-0.78-0.39-1.57-0.77-2.36-1.15c-0.79-0.37-1.59-0.73-2.39-1.08c-0.8-0.35-1.61-0.68-2.42-1c-0.81-0.32-1.63-0.64-2.45-0.93
				l-0.89,2.45l-0.89,2.45l-0.89,2.45l-0.89,2.45l-0.67,1.83c-7.8-2.84-15.97-4.4-24.35-4.64l0.05-1.94l0.07-2.6l0.07-2.6l0.07-2.6
				c0.85,0.02,1.7,0.06,2.54,0.11c0.85,0.05,1.69,0.11,2.54,0.18c0.85,0.07,1.69,0.16,2.53,0.26l-0.3,2.59l-0.3,2.59
				c-0.79-0.09-1.59-0.17-2.38-0.24l0.22-2.6c-0.82-0.07-1.64-0.13-2.47-0.18l-0.15,2.6l-0.15,2.6c0.77,0.04,1.54,0.1,2.31,0.17
				c0.77,0.07,1.54,0.14,2.31,0.23c0.77,0.09,1.54,0.19,2.3,0.3l0.38-2.58l0.37-2.58l0.37-2.58l0.37-2.58
				c-0.87-0.13-1.73-0.24-2.6-0.34c-0.87-0.1-1.74-0.19-2.61-0.26c-0.87-0.07-1.74-0.14-2.61-0.19c-0.87-0.05-1.75-0.09-2.62-0.11
				c-0.87-0.02-1.75-0.04-2.62-0.04v2.61v2.61v2.61v2.61v1.94c0,0,0,0,0,0c-8.41,0-16.62,1.32-24.48,3.93l-0.61-1.85l-0.82-2.47
				l-0.82-2.47l-0.82-2.47c0.81-0.27,1.62-0.52,2.43-0.77c0.81-0.24,1.63-0.47,2.45-0.69c0.82-0.22,1.64-0.43,2.47-0.62l0.6,2.54
				l0.6,2.54c-0.78,0.18-1.55,0.38-2.32,0.58l-0.67-2.52c-0.8,0.21-1.59,0.44-2.38,0.67l0.75,2.5l0.75,2.5
				c0.74-0.22,1.48-0.43,2.23-0.63c0.75-0.2,1.5-0.39,2.25-0.57c0.75-0.18,1.51-0.34,2.26-0.5l-0.52-2.55l-0.52-2.55l-0.52-2.55
				l-0.52-2.55c-0.86,0.18-1.71,0.37-2.56,0.57c-0.85,0.2-1.7,0.42-2.54,0.64c-0.85,0.23-1.69,0.46-2.52,0.72
				c-0.84,0.25-1.67,0.51-2.5,0.79c-0.83,0.28-1.66,0.56-2.48,0.86l0.89,2.45l0.89,2.45l0.89,2.45l0.89,2.45l0.67,1.83
				c-1.23,0.45-2.45,0.93-3.67,1.44c-6.48,2.74-12.49,6.31-17.97,10.65l-1.2-1.52l-1.62-2.04l-1.62-2.04l-1.62-2.04
				c0.67-0.53,1.34-1.05,2.02-1.55c0.68-0.51,1.37-1.01,2.06-1.49c0.7-0.49,1.4-0.96,2.11-1.43l1.43,2.18l1.43,2.18
				c-0.67,0.44-1.33,0.89-1.98,1.35l-1.5-2.13c-0.67,0.47-1.34,0.96-2,1.45l1.56,2.09l1.56,2.09c0.62-0.46,1.25-0.92,1.88-1.36
				c0.63-0.44,1.27-0.88,1.92-1.3c0.65-0.43,1.3-0.84,1.96-1.25l-1.37-2.22l-1.37-2.22l-1.37-2.22l-1.37-2.22
				c-0.74,0.46-1.48,0.93-2.21,1.41c-0.73,0.48-1.45,0.97-2.17,1.47c-0.72,0.5-1.42,1.02-2.12,1.54c-0.7,0.52-1.39,1.06-2.08,1.6
				c-0.69,0.54-1.36,1.09-2.03,1.66l1.68,2l1.68,2l1.68,2l1.68,2l1.25,1.49c-1.73,1.45-3.4,2.98-5,4.59
				c-4.31,4.31-8.06,9.05-11.22,14.17l-1.65-1.02L26,52.77l-2.22-1.37l-2.22-1.37c0.45-0.72,0.9-1.44,1.37-2.15
				c0.47-0.71,0.95-1.41,1.43-2.11c0.49-0.69,0.99-1.38,1.49-2.06l2.09,1.56l2.09,1.56c-0.48,0.64-0.95,1.29-1.4,1.94l-2.13-1.5
				c-0.47,0.67-0.94,1.36-1.39,2.04l2.18,1.43l2.18,1.43c0.43-0.65,0.86-1.29,1.3-1.92c0.44-0.63,0.9-1.26,1.36-1.88
				c0.46-0.62,0.93-1.23,1.41-1.84l-2.04-1.62l-2.04-1.62l-2.04-1.62l-2.04-1.62c-0.54,0.69-1.08,1.38-1.6,2.08
				c-0.52,0.7-1.04,1.41-1.54,2.12c-0.5,0.72-0.99,1.44-1.47,2.17c-0.48,0.73-0.95,1.47-1.41,2.21c-0.46,0.74-0.91,1.49-1.35,2.25
				l2.26,1.31l2.26,1.3l2.26,1.31l2.26,1.3l1.68,0.97c-1.6,2.77-3.03,5.65-4.29,8.62c-1.99,4.71-3.5,9.57-4.52,14.54l-1.9-0.39
				l-2.55-0.52l-2.55-0.52l-2.55-0.52c0.17-0.83,0.35-1.66,0.55-2.49c0.19-0.83,0.4-1.65,0.62-2.47c0.22-0.82,0.45-1.64,0.69-2.45
				l2.5,0.75l2.5,0.75c-0.23,0.76-0.45,1.53-0.65,2.3l-2.52-0.67c-0.21,0.8-0.41,1.59-0.6,2.4l2.54,0.6l2.54,0.6
				c0.18-0.75,0.37-1.5,0.57-2.25c0.2-0.75,0.41-1.49,0.63-2.23c0.22-0.74,0.45-1.48,0.7-2.21l-2.47-0.82l-2.47-0.82l-2.47-0.82
				l-2.47-0.82c-0.27,0.83-0.54,1.66-0.79,2.5c-0.25,0.84-0.49,1.68-0.71,2.52c-0.23,0.85-0.44,1.69-0.64,2.54
				c-0.2,0.85-0.39,1.71-0.57,2.56c-0.18,0.86-0.34,1.72-0.49,2.58l2.57,0.45l2.57,0.45l2.57,0.45l2.57,0.45l1.91,0.34
				C18.69,86.91,18.3,91.43,18.3,96c0,3.81,0.27,7.57,0.81,11.29l-1.92,0.28l-2.58,0.37l-2.58,0.37l-2.58,0.37
				c-0.12-0.84-0.23-1.68-0.33-2.53c-0.1-0.84-0.18-1.69-0.26-2.53c-0.07-0.85-0.13-1.69-0.18-2.54l2.6-0.15l2.6-0.15
				c0.05,0.8,0.1,1.6,0.17,2.39l-2.6,0.22c0.07,0.82,0.15,1.64,0.25,2.46l2.59-0.3l2.59-0.3c-0.09-0.77-0.17-1.54-0.23-2.31
				c-0.07-0.77-0.12-1.54-0.17-2.31c-0.04-0.77-0.08-1.55-0.1-2.32l-2.61,0.07l-2.6,0.08l-2.6,0.07l-2.61,0.07
				c0.03,0.87,0.06,1.75,0.11,2.62c0.05,0.87,0.11,1.74,0.19,2.62c0.07,0.87,0.16,1.74,0.26,2.61c0.1,0.87,0.21,1.74,0.34,2.6
				c0.13,0.87,0.26,1.73,0.42,2.59l2.57-0.45l2.57-0.45l2.57-0.45l2.57-0.45l1.91-0.34c1.01,5.74,2.66,11.35,4.95,16.76
				c0.96,2.27,2.02,4.49,3.19,6.64l-1.71,0.92l-2.29,1.24l-2.29,1.24l-2.29,1.24c-0.4-0.75-0.8-1.5-1.18-2.26
				c-0.38-0.76-0.75-1.52-1.11-2.29c-0.36-0.77-0.71-1.54-1.04-2.32l2.39-1.03l2.39-1.03c0.32,0.73,0.64,1.46,0.98,2.18l-2.36,1.1
				c0.35,0.75,0.71,1.49,1.08,2.22l2.33-1.17l2.33-1.17c-0.35-0.69-0.68-1.39-1.01-2.09c-0.33-0.7-0.64-1.41-0.95-2.12
				c-0.31-0.71-0.6-1.42-0.89-2.14l-2.42,0.96l-2.42,0.96l-2.42,0.96l-2.42,0.96c0.32,0.81,0.66,1.62,1,2.42
				c0.35,0.8,0.71,1.6,1.08,2.39c0.37,0.79,0.75,1.58,1.14,2.36c0.39,0.78,0.8,1.56,1.21,2.33c0.41,0.77,0.84,1.53,1.28,2.29
				l2.26-1.3l2.26-1.31l2.26-1.3l2.26-1.31l1.68-0.97c3.39,5.86,7.53,11.26,12.38,16.11c1.07,1.07,2.17,2.11,3.29,3.11l-1.29,1.45
				l-1.73,1.95l-1.73,1.95l-1.73,1.95c-0.63-0.57-1.26-1.14-1.88-1.72c-0.62-0.58-1.23-1.17-1.83-1.77c-0.6-0.6-1.19-1.21-1.77-1.83
				l1.9-1.79l1.9-1.79c0.55,0.58,1.1,1.15,1.67,1.72l-1.84,1.84c0.58,0.58,1.17,1.16,1.77,1.72l1.79-1.9l1.79-1.9
				c-0.56-0.53-1.12-1.07-1.66-1.62c-0.55-0.55-1.09-1.1-1.62-1.66c-0.53-0.56-1.05-1.13-1.57-1.71l-1.95,1.73l-1.95,1.73
				l-1.95,1.73l-1.95,1.73c0.58,0.65,1.17,1.3,1.77,1.93c0.6,0.64,1.21,1.26,1.83,1.88c0.62,0.62,1.25,1.23,1.88,1.83
				c0.64,0.6,1.28,1.19,1.93,1.77c0.65,0.58,1.31,1.15,1.98,1.72l1.68-2l1.68-1.99l1.68-2l1.68-2l1.25-1.49
				c5.94,4.99,12.55,9.04,19.72,12.08c0.52,0.22,1.03,0.43,1.55,0.64l-0.72,1.81l-0.96,2.42l-0.96,2.42l-0.96,2.42
				c-0.79-0.31-1.57-0.64-2.35-0.98c-0.78-0.34-1.55-0.68-2.32-1.04c-0.77-0.36-1.53-0.73-2.29-1.11l1.17-2.33l1.17-2.33
				c0.71,0.36,1.43,0.71,2.16,1.05l-1.1,2.36c0.75,0.35,1.5,0.69,2.25,1.01l1.03-2.39l1.03-2.39c-0.71-0.31-1.41-0.62-2.12-0.95
				c-0.7-0.33-1.4-0.66-2.09-1.01c-0.69-0.35-1.38-0.71-2.06-1.07l-1.24,2.29l-1.24,2.29l-1.24,2.29l-1.24,2.29
				c0.77,0.42,1.54,0.82,2.33,1.21c0.78,0.39,1.57,0.77,2.36,1.15c0.79,0.37,1.59,0.73,2.39,1.08c0.8,0.35,1.61,0.68,2.42,1
				c0.81,0.32,1.63,0.64,2.45,0.93l0.89-2.45l0.89-2.45l0.89-2.45l0.89-2.45l0.67-1.83c7.8,2.84,15.97,4.4,24.35,4.64l-0.06,1.94
				l-0.07,2.6l-0.07,2.61l-0.07,2.6c-0.85-0.02-1.7-0.06-2.54-0.11c-0.85-0.05-1.69-0.11-2.54-0.18c-0.85-0.07-1.69-0.16-2.53-0.26
				l0.3-2.59l0.3-2.59c0.79,0.09,1.59,0.17,2.38,0.24l-0.22,2.6c0.82,0.07,1.64,0.13,2.47,0.18l0.15-2.6l0.15-2.6
				c-0.77-0.04-1.54-0.1-2.31-0.17c-0.77-0.07-1.54-0.14-2.31-0.23c-0.77-0.09-1.53-0.19-2.3-0.3l-0.37,2.58l-0.37,2.58l-0.37,2.58
				l-0.37,2.58c0.87,0.13,1.73,0.24,2.6,0.34c0.87,0.1,1.74,0.19,2.61,0.26c0.87,0.07,1.74,0.14,2.61,0.19
				c0.87,0.05,1.75,0.09,2.62,0.11c0.87,0.03,1.75,0.04,2.62,0.04v-2.61v-2.61v-2.61v-2.61v-1.94c8.41,0,16.62-1.32,24.48-3.93
				l0.61,1.85l0.82,2.47l0.82,2.47l0.82,2.47c-0.81,0.27-1.62,0.52-2.43,0.76c-0.81,0.24-1.63,0.47-2.45,0.69
				c-0.82,0.22-1.64,0.43-2.47,0.62l-0.6-2.54l-0.6-2.54c0.78-0.18,1.55-0.38,2.32-0.58l0.67,2.52c0.8-0.21,1.59-0.44,2.38-0.67
				l-0.75-2.5l-0.75-2.5c-0.74,0.22-1.48,0.43-2.23,0.63c-0.75,0.2-1.5,0.39-2.25,0.57c-0.75,0.18-1.51,0.34-2.26,0.5l0.52,2.55
				l0.52,2.55l0.52,2.55l0.52,2.55c0.86-0.18,1.71-0.37,2.56-0.57c0.85-0.2,1.7-0.42,2.54-0.64c0.85-0.23,1.69-0.46,2.53-0.71
				c0.84-0.25,1.67-0.51,2.5-0.79c0.83-0.28,1.66-0.56,2.48-0.86l-0.89-2.45l-0.89-2.45l-0.89-2.45l-0.89-2.45l-0.67-1.83
				c1.23-0.45,2.45-0.93,3.67-1.44c6.48-2.74,12.49-6.31,17.97-10.65l1.2,1.52l1.62,2.04l1.62,2.04l1.62,2.04
				c-0.67,0.53-1.34,1.04-2.02,1.55c-0.68,0.51-1.37,1.01-2.06,1.49c-0.7,0.49-1.4,0.96-2.11,1.43l-1.43-2.18l-1.43-2.18
				c0.67-0.44,1.33-0.89,1.98-1.35l1.5,2.13c0.67-0.47,1.34-0.96,2-1.45l-1.56-2.09l-1.56-2.09c-0.62,0.46-1.25,0.92-1.88,1.36
				c-0.63,0.44-1.27,0.88-1.92,1.3c-0.65,0.43-1.3,0.84-1.96,1.25l1.37,2.22l1.37,2.22l1.37,2.22l1.37,2.22
				c0.74-0.46,1.48-0.93,2.21-1.41c0.73-0.48,1.45-0.97,2.17-1.47c0.72-0.5,1.42-1.01,2.12-1.54c0.7-0.52,1.39-1.06,2.08-1.6
				c0.69-0.54,1.36-1.09,2.03-1.66l-1.68-2L150.7,161.08z M96.09,171.51c-41.64,0-75.51-33.87-75.51-75.51
				c0-41.64,33.88-75.51,75.51-75.51c41.64,0,75.51,33.88,75.51,75.51C171.61,137.64,137.73,171.51,96.09,171.51z"/>
		</g>
		<linearGradient id="SVGID_3_" gradientUnits="userSpaceOnUse" x1="39.7538" y1="86.2527" x2="152.4358" y2="86.2527">
			<stop  offset="0" style="stop-color:#B7854D"/>
			<stop  offset="0.1515" style="stop-color:#F5D98F"/>
			<stop  offset="0.303" style="stop-color:#FFF9B3"/>
			<stop  offset="0.5212" style="stop-color:#F4D88E"/>
			<stop  offset="0.6424" style="stop-color:#FEF9B4"/>
			<stop  offset="0.8424" style="stop-color:#D4AF66"/>
			<stop  offset="1" style="stop-color:#B7854D"/>
		</linearGradient>
		<polygon class="st2" points="96.09,36.35 39.75,136.16 48.18,136.16 54.82,136.16 58.99,136.16 69.79,136.16 62.31,122.89 
			96.09,63.03 129.88,122.89 122.39,136.16 133.2,136.16 137.37,136.16 144.01,136.16 152.44,136.16 		"/>
	</g>
</g>
</svg>
