<?xml version="1.0" encoding="utf-8"?>
<!-- Generator: Adobe Illustrator 25.0.0, SVG Export Plug-In . SVG Version: 6.00 Build 0)  -->
<svg version="1.1" xmlns="http://www.w3.org/2000/svg" xmlns:xlink="http://www.w3.org/1999/xlink" x="0px" y="0px"
	 viewBox="0 0 144 144" style="enable-background:new 0 0 144 144;" xml:space="preserve">
<style type="text/css">
	.st0{fill:url(#SVGID_1_);}
	.st1{fill:url(#SVGID_2_);}
	.st2{fill:url(#SVGID_3_);}
</style>
<g id="Layer_2">
</g>
<g id="Layer_3">
</g>
<g id="Layer_1">
	<g>
		<g>
			<linearGradient id="SVGID_1_" gradientUnits="userSpaceOnUse" x1="1.265" y1="72.0002" x2="142.9246" y2="72.0002">
				<stop  offset="0" style="stop-color:#B7854D"/>
				<stop  offset="0.1515" style="stop-color:#F5D98F"/>
				<stop  offset="0.303" style="stop-color:#FFF9B3"/>
				<stop  offset="0.5212" style="stop-color:#F4D88E"/>
				<stop  offset="0.6424" style="stop-color:#FEF9B4"/>
				<stop  offset="0.8424" style="stop-color:#D4AF66"/>
				<stop  offset="1" style="stop-color:#B7854D"/>
			</linearGradient>
			<path class="st0" d="M137.36,44.43c-3.57-8.43-8.67-16.01-15.18-22.51c-6.5-6.5-14.08-11.61-22.51-15.18
				c-8.73-3.69-18.01-5.57-27.57-5.57c-9.56,0-18.84,1.87-27.57,5.57c-8.43,3.57-16.01,8.67-22.51,15.18
				C15.51,28.42,10.4,36,6.83,44.43C3.14,53.16,1.26,62.44,1.26,72c0,9.56,1.87,18.84,5.57,27.57c3.57,8.43,8.67,16.01,15.18,22.51
				c6.5,6.5,14.08,11.61,22.51,15.18c8.73,3.69,18.01,5.57,27.57,5.57c9.56,0,18.84-1.87,27.57-5.57
				c8.43-3.57,16.01-8.68,22.51-15.18c6.5-6.5,11.61-14.08,15.18-22.51c3.69-8.73,5.57-18.01,5.57-27.57
				C142.92,62.44,141.05,53.16,137.36,44.43z M106.65,131.85l-0.74-1.28l-0.98-1.69l-0.98-1.69l-0.98-1.69L102,123.8
				c-0.5,0.29-1.01,0.57-1.52,0.85c-0.51,0.28-1.02,0.54-1.54,0.8c-0.52,0.26-1.04,0.51-1.57,0.76c-0.52,0.24-1.05,0.48-1.59,0.71
				c-0.53,0.23-1.07,0.45-1.61,0.67l0.72,1.82l0.72,1.82l0.72,1.82l0.72,1.82c0.61-0.24,1.22-0.49,1.82-0.75
				c0.6-0.26,1.2-0.53,1.79-0.81c0.59-0.28,1.18-0.56,1.77-0.86l-0.88-1.75l-0.88-1.75c-0.55,0.28-1.11,0.55-1.67,0.81l0.83,1.77
				c-0.58,0.27-1.16,0.53-1.74,0.78l-0.78-1.79l-0.77-1.79c0.55-0.24,1.1-0.48,1.64-0.74c0.54-0.25,1.08-0.51,1.62-0.78
				c0.54-0.27,1.07-0.55,1.59-0.83l0.93,1.72l0.93,1.72l0.93,1.72l0.7,1.3c-6.4,3.46-13.4,5.95-20.8,7.25l-0.26-1.48l-0.34-1.93
				l-0.34-1.92l-0.34-1.93l-0.34-1.92c-0.57,0.1-1.14,0.19-1.72,0.28c-0.57,0.08-1.15,0.16-1.72,0.22
				c-0.58,0.07-1.15,0.12-1.73,0.18c-0.58,0.05-1.16,0.09-1.74,0.12c-0.58,0.03-1.16,0.06-1.74,0.07l0.06,1.95l0.06,1.95l0.06,1.95
				l0.06,1.95c0.65-0.02,1.31-0.05,1.96-0.08c0.65-0.04,1.31-0.08,1.96-0.14c0.65-0.06,1.31-0.12,1.96-0.2l-0.22-1.94l-0.22-1.94
				c-0.61,0.07-1.23,0.13-1.84,0.19l0.17,1.95c-0.63,0.05-1.27,0.1-1.9,0.14l-0.11-1.95l-0.11-1.95c0.6-0.03,1.2-0.08,1.79-0.13
				c0.6-0.05,1.19-0.11,1.79-0.18c0.59-0.07,1.19-0.15,1.78-0.23l0.28,1.93l0.28,1.93l0.28,1.93l0.22,1.48
				c-3.27,0.48-6.61,0.72-10.01,0.72c-4.09,0-8.1-0.36-12-1.04l0.26-1.48l0.34-1.93l0.34-1.92l0.34-1.93l0.34-1.92
				c-0.57-0.1-1.14-0.21-1.71-0.32c-0.57-0.12-1.13-0.24-1.7-0.38c-0.56-0.13-1.13-0.27-1.69-0.42c-0.56-0.15-1.12-0.31-1.67-0.47
				c-0.56-0.17-1.11-0.34-1.66-0.52l-0.61,1.86l-0.61,1.86l-0.61,1.86l-0.61,1.86c0.62,0.21,1.25,0.4,1.88,0.59
				c0.63,0.19,1.26,0.37,1.89,0.54c0.63,0.17,1.27,0.33,1.91,0.48l0.45-1.9l0.45-1.9c-0.6-0.14-1.2-0.29-1.8-0.45l-0.5,1.89
				c-0.62-0.16-1.23-0.34-1.84-0.52l0.56-1.87l0.56-1.87c0.57,0.17,1.15,0.33,1.73,0.49c0.58,0.15,1.16,0.3,1.74,0.44
				c0.58,0.14,1.17,0.27,1.75,0.39l-0.39,1.91l-0.39,1.91l-0.39,1.91l-0.3,1.47c-7.35-1.51-14.28-4.2-20.58-7.85l0.74-1.28
				l0.98-1.69l0.98-1.69l0.98-1.69l0.98-1.69c-0.5-0.29-1-0.59-1.49-0.89c-0.49-0.31-0.98-0.62-1.47-0.94
				c-0.48-0.32-0.96-0.65-1.44-0.98c-0.47-0.33-0.94-0.67-1.41-1.02c-0.47-0.35-0.92-0.7-1.38-1.06l-1.21,1.53l-1.21,1.53
				l-1.21,1.53l-1.21,1.53c0.51,0.41,1.03,0.81,1.56,1.2c0.53,0.39,1.06,0.78,1.59,1.15c0.54,0.38,1.08,0.74,1.63,1.11l1.08-1.63
				l1.08-1.63c-0.52-0.34-1.03-0.69-1.53-1.04l-1.12,1.6c-0.52-0.37-1.04-0.74-1.55-1.12l1.17-1.57l1.17-1.57
				c0.48,0.36,0.97,0.71,1.46,1.05c0.49,0.34,0.99,0.68,1.49,1.01c0.5,0.33,1.01,0.65,1.51,0.97l-1.03,1.66l-1.03,1.66l-1.03,1.66
				l-0.78,1.26c-6.29-3.89-11.91-8.76-16.64-14.4l1.13-0.95l1.5-1.26l1.5-1.26l1.5-1.26l1.5-1.26c-0.37-0.44-0.74-0.89-1.1-1.35
				c-0.36-0.45-0.71-0.91-1.06-1.38c-0.35-0.46-0.69-0.93-1.02-1.41c-0.33-0.47-0.66-0.95-0.98-1.44c-0.32-0.48-0.63-0.97-0.94-1.47
				l-1.66,1.03l-1.66,1.03l-1.66,1.03l-1.66,1.03c0.34,0.56,0.7,1.11,1.06,1.66c0.36,0.55,0.73,1.09,1.11,1.63
				c0.38,0.54,0.76,1.07,1.15,1.59l1.57-1.17l1.57-1.17c-0.37-0.5-0.73-1-1.09-1.5l-1.6,1.12c-0.37-0.52-0.72-1.05-1.07-1.58
				l1.63-1.08l1.63-1.08c0.33,0.5,0.67,1,1.01,1.49c0.34,0.49,0.7,0.98,1.05,1.46c0.36,0.48,0.72,0.95,1.09,1.42l-1.53,1.21
				l-1.53,1.21l-1.53,1.21l-1.15,0.91c-4.55-5.74-8.2-12.21-10.76-19.21l1.4-0.51l1.84-0.67l1.84-0.67l1.84-0.67l1.84-0.67
				c-0.2-0.54-0.39-1.09-0.57-1.64c-0.18-0.55-0.36-1.1-0.52-1.66c-0.17-0.55-0.32-1.11-0.47-1.67c-0.15-0.56-0.29-1.12-0.42-1.69
				c-0.13-0.56-0.26-1.13-0.37-1.7l-1.91,0.39l-1.91,0.39l-1.91,0.39l-1.91,0.39c0.13,0.64,0.27,1.28,0.42,1.92
				c0.15,0.64,0.31,1.27,0.48,1.91c0.17,0.63,0.35,1.27,0.54,1.89l1.87-0.56l1.87-0.56c-0.18-0.59-0.35-1.19-0.5-1.78L8.66,89
				c-0.16-0.62-0.32-1.23-0.47-1.85l1.9-0.45l1.9-0.45c0.14,0.58,0.28,1.16,0.44,1.74c0.15,0.58,0.32,1.15,0.49,1.73
				c0.17,0.57,0.35,1.14,0.54,1.71l-1.86,0.61l-1.86,0.61l-1.86,0.61l-1.42,0.47C4.21,86.9,2.97,79.59,2.97,72l0,0h1.5h1.95h1.95
				h1.95h1.95c0-0.58,0.01-1.16,0.03-1.74c0.02-0.58,0.04-1.16,0.07-1.74c0.03-0.58,0.08-1.16,0.12-1.74
				c0.05-0.58,0.11-1.15,0.17-1.73c0.07-0.58,0.14-1.15,0.22-1.72l-1.93-0.28l-1.93-0.28l-1.93-0.28L5.18,62.2
				c-0.09,0.65-0.18,1.3-0.25,1.95c-0.08,0.65-0.14,1.3-0.2,1.96c-0.06,0.65-0.1,1.31-0.14,1.96l1.95,0.11l1.95,0.11
				c0.04-0.62,0.08-1.23,0.13-1.85l-1.95-0.17c0.05-0.63,0.12-1.27,0.19-1.9l1.94,0.22l1.94,0.22c-0.07,0.59-0.13,1.19-0.18,1.79
				c-0.05,0.6-0.09,1.19-0.13,1.79c-0.03,0.6-0.06,1.2-0.08,1.8l-1.95-0.06l-1.95-0.06l-1.95-0.06L3,69.99
				c0.22-7.58,1.66-14.85,4.14-21.63l1.4,0.51l1.84,0.67l1.84,0.67l1.84,0.67l1.84,0.67c0.2-0.54,0.4-1.09,0.62-1.63
				c0.21-0.54,0.44-1.07,0.67-1.61c0.23-0.53,0.47-1.06,0.71-1.59c0.25-0.53,0.5-1.05,0.76-1.56c0.26-0.52,0.53-1.03,0.8-1.54
				l-1.72-0.93l-1.72-0.93l-1.72-0.93l-1.72-0.93c-0.31,0.58-0.62,1.16-0.91,1.74c-0.29,0.59-0.58,1.18-0.86,1.77
				c-0.28,0.59-0.55,1.19-0.81,1.79l1.79,0.77l1.79,0.77c0.24-0.57,0.5-1.13,0.76-1.69l-1.77-0.83c0.27-0.58,0.55-1.15,0.83-1.72
				l1.75,0.88l1.75,0.88c-0.27,0.54-0.53,1.07-0.78,1.62c-0.25,0.54-0.5,1.09-0.74,1.64c-0.24,0.55-0.47,1.1-0.69,1.66l-1.82-0.72
				l-1.82-0.72l-1.82-0.72l-1.38-0.55c2.76-6.91,6.6-13.28,11.31-18.89l1.13,0.95l1.5,1.26l1.5,1.26l1.5,1.26l1.5,1.26
				c0.37-0.44,0.75-0.88,1.14-1.32c0.39-0.43,0.78-0.86,1.18-1.28c0.4-0.42,0.8-0.84,1.21-1.25c0.41-0.41,0.83-0.81,1.25-1.21
				c0.42-0.4,0.85-0.79,1.28-1.18l-1.3-1.46l-1.3-1.46l-1.3-1.46l-1.3-1.46c-0.49,0.44-0.97,0.88-1.45,1.33
				c-0.48,0.45-0.95,0.91-1.41,1.37c-0.46,0.46-0.92,0.93-1.37,1.41l1.42,1.34l1.42,1.34c0.42-0.45,0.85-0.89,1.29-1.33l-1.38-1.38
				c0.45-0.45,0.91-0.89,1.37-1.33l1.34,1.42l1.34,1.42c-0.44,0.41-0.87,0.83-1.29,1.25c-0.42,0.42-0.84,0.85-1.25,1.29
				c-0.41,0.44-0.82,0.88-1.21,1.32l-1.46-1.3l-1.46-1.3l-1.46-1.3l-1.1-0.98c4.89-5.49,10.65-10.2,17.05-13.91l0.74,1.28l0.98,1.69
				l0.98,1.69l0.98,1.69l0.98,1.69c0.5-0.29,1.01-0.57,1.52-0.85c0.51-0.28,1.02-0.54,1.54-0.8c0.52-0.26,1.04-0.51,1.56-0.76
				c0.53-0.24,1.05-0.48,1.59-0.71c0.53-0.23,1.07-0.45,1.61-0.67l-0.72-1.82l-0.72-1.82l-0.72-1.82l-0.72-1.82
				c-0.61,0.24-1.22,0.49-1.82,0.75c-0.6,0.26-1.2,0.53-1.79,0.81c-0.59,0.28-1.18,0.56-1.77,0.86l0.88,1.75l0.88,1.75
				c0.55-0.28,1.11-0.55,1.67-0.81l-0.83-1.77c0.58-0.27,1.16-0.53,1.74-0.78l0.77,1.79l0.77,1.79c-0.55,0.24-1.1,0.48-1.64,0.74
				c-0.54,0.25-1.08,0.51-1.62,0.78c-0.53,0.27-1.07,0.55-1.59,0.83l-0.93-1.72l-0.93-1.72L40,12.47l-0.7-1.3
				c6.4-3.46,13.4-5.95,20.8-7.25l0.26,1.48l0.34,1.92l0.34,1.93l0.34,1.93l0.34,1.92c0.57-0.1,1.14-0.19,1.72-0.28
				c0.57-0.08,1.15-0.16,1.72-0.22c0.58-0.07,1.15-0.12,1.73-0.17c0.58-0.05,1.16-0.09,1.74-0.12c0.58-0.03,1.16-0.06,1.74-0.07
				l-0.06-1.95l-0.06-1.95l-0.06-1.95l-0.06-1.95c-0.66,0.02-1.31,0.05-1.96,0.08c-0.65,0.04-1.31,0.08-1.96,0.14
				c-0.65,0.06-1.31,0.12-1.96,0.2l0.22,1.94l0.22,1.94c0.61-0.07,1.23-0.13,1.84-0.19l-0.17-1.95c0.63-0.05,1.27-0.1,1.9-0.14
				l0.11,1.95l0.11,1.95c-0.6,0.03-1.2,0.08-1.79,0.13c-0.6,0.05-1.19,0.11-1.79,0.18c-0.6,0.07-1.19,0.15-1.78,0.23l-0.28-1.93
				l-0.28-1.93L62.3,5.09L62.08,3.6c3.27-0.48,6.61-0.72,10.01-0.72c4.09,0,8.1,0.36,12,1.04L83.83,5.4L83.5,7.33l-0.34,1.93
				l-0.34,1.93l-0.34,1.92c0.57,0.1,1.14,0.21,1.71,0.33c0.57,0.12,1.13,0.24,1.7,0.37c0.56,0.13,1.13,0.27,1.69,0.42
				c0.56,0.15,1.12,0.31,1.67,0.47c0.56,0.17,1.11,0.34,1.66,0.52l0.61-1.86l0.61-1.86l0.61-1.86l0.61-1.86
				c-0.62-0.21-1.25-0.4-1.88-0.59c-0.63-0.19-1.26-0.37-1.89-0.54c-0.63-0.17-1.27-0.33-1.91-0.48l-0.45,1.9L86.79,10
				c0.6,0.14,1.2,0.29,1.8,0.45l0.5-1.89c0.62,0.16,1.23,0.34,1.84,0.52l-0.56,1.87l-0.56,1.87c-0.57-0.17-1.15-0.33-1.73-0.49
				c-0.58-0.15-1.16-0.3-1.74-0.44c-0.58-0.14-1.17-0.27-1.75-0.39l0.39-1.91l0.39-1.91l0.39-1.91l0.3-1.47
				c7.35,1.52,14.28,4.2,20.58,7.86l-0.74,1.28l-0.98,1.69l-0.98,1.69l-0.98,1.69L102,20.2c0.5,0.29,1,0.59,1.49,0.89
				c0.49,0.31,0.98,0.62,1.47,0.94c0.48,0.32,0.96,0.65,1.44,0.98c0.47,0.33,0.94,0.67,1.41,1.02c0.47,0.35,0.92,0.7,1.38,1.06
				l1.21-1.53l1.21-1.53l1.21-1.53l1.21-1.53c-0.51-0.41-1.03-0.81-1.56-1.2c-0.53-0.39-1.06-0.78-1.59-1.15
				c-0.54-0.38-1.08-0.74-1.63-1.11l-1.08,1.63l-1.08,1.63c0.52,0.34,1.03,0.69,1.53,1.04l1.12-1.6c0.52,0.37,1.04,0.74,1.55,1.12
				l-1.17,1.57l-1.17,1.57c-0.48-0.36-0.97-0.71-1.46-1.05c-0.49-0.34-0.99-0.68-1.49-1.01c-0.5-0.33-1-0.65-1.51-0.97l1.03-1.66
				l1.03-1.66l1.03-1.66l0.78-1.26c6.29,3.89,11.91,8.76,16.64,14.4l-1.13,0.95l-1.5,1.26l-1.5,1.26l-1.5,1.26l-1.5,1.26
				c0.37,0.44,0.74,0.89,1.1,1.35c0.36,0.46,0.71,0.91,1.06,1.38c0.35,0.46,0.69,0.93,1.02,1.41c0.33,0.47,0.66,0.95,0.98,1.44
				c0.32,0.48,0.63,0.97,0.94,1.47l1.66-1.03l1.66-1.03l1.66-1.03l1.66-1.03c-0.34-0.56-0.7-1.11-1.06-1.66
				c-0.36-0.55-0.73-1.09-1.11-1.63c-0.38-0.54-0.76-1.07-1.15-1.59l-1.57,1.17l-1.57,1.17c0.37,0.5,0.73,1,1.09,1.5l1.6-1.12
				c0.37,0.52,0.72,1.05,1.07,1.58l-1.63,1.08l-1.63,1.08c-0.33-0.5-0.67-1-1.01-1.49c-0.34-0.49-0.7-0.98-1.05-1.46
				c-0.36-0.48-0.72-0.95-1.09-1.42l1.53-1.21l1.53-1.21l1.53-1.21l1.15-0.91c4.55,5.74,8.2,12.21,10.76,19.21l-1.4,0.51l-1.84,0.67
				l-1.84,0.67l-1.84,0.67l-1.84,0.67c0.2,0.54,0.39,1.09,0.57,1.64c0.18,0.55,0.36,1.1,0.52,1.66c0.17,0.55,0.32,1.11,0.47,1.67
				c0.15,0.56,0.29,1.12,0.42,1.69c0.13,0.56,0.26,1.13,0.37,1.7l1.91-0.39l1.91-0.39l1.91-0.39l1.91-0.39
				c-0.13-0.64-0.27-1.28-0.42-1.92c-0.15-0.64-0.31-1.27-0.48-1.91c-0.17-0.63-0.35-1.27-0.54-1.89l-1.87,0.56l-1.87,0.56
				c0.18,0.59,0.34,1.19,0.5,1.78l1.89-0.5c0.16,0.62,0.32,1.23,0.47,1.85l-1.9,0.45l-1.9,0.45c-0.14-0.58-0.28-1.16-0.44-1.74
				c-0.16-0.58-0.32-1.15-0.49-1.73c-0.17-0.57-0.35-1.14-0.54-1.71l1.86-0.61l1.86-0.61l1.86-0.61l1.41-0.47
				c2.27,6.84,3.5,14.15,3.5,21.74h-1.5h-1.95h-1.95h-1.95h-1.95c0,0.58-0.01,1.16-0.02,1.74c-0.02,0.58-0.04,1.16-0.07,1.74
				c-0.03,0.58-0.08,1.16-0.12,1.74c-0.05,0.58-0.11,1.16-0.18,1.73c-0.07,0.58-0.14,1.15-0.22,1.72l1.93,0.28l1.93,0.28l1.93,0.28
				l1.93,0.28c0.09-0.65,0.18-1.3,0.25-1.95c0.08-0.65,0.14-1.3,0.2-1.96c0.06-0.65,0.1-1.31,0.14-1.96l-1.95-0.11l-1.95-0.11
				c-0.04,0.62-0.08,1.23-0.13,1.85l1.95,0.17c-0.05,0.63-0.12,1.27-0.19,1.9l-1.94-0.22l-1.94-0.22c0.07-0.59,0.13-1.19,0.18-1.79
				c0.05-0.6,0.09-1.19,0.13-1.79c0.03-0.6,0.06-1.2,0.08-1.8l1.95,0.06l1.95,0.06l1.95,0.06l1.5,0.04
				c-0.22,7.58-1.66,14.85-4.14,21.63l-1.4-0.51l-1.84-0.67l-1.84-0.67l-1.84-0.67l-1.84-0.67c-0.2,0.54-0.4,1.09-0.62,1.63
				c-0.21,0.54-0.44,1.07-0.67,1.61c-0.23,0.53-0.47,1.06-0.71,1.59c-0.25,0.53-0.5,1.05-0.76,1.56c-0.26,0.52-0.53,1.03-0.8,1.54
				l1.72,0.93l1.72,0.93l1.72,0.93l1.72,0.93c0.31-0.58,0.62-1.16,0.91-1.74c0.3-0.59,0.58-1.18,0.86-1.77
				c0.28-0.59,0.55-1.19,0.81-1.8l-1.79-0.77l-1.79-0.77c-0.25,0.57-0.5,1.13-0.76,1.69l1.77,0.83c-0.27,0.58-0.55,1.15-0.83,1.72
				l-1.75-0.88l-1.75-0.88c0.27-0.54,0.53-1.07,0.78-1.62c0.25-0.54,0.5-1.09,0.74-1.64c0.24-0.55,0.47-1.1,0.69-1.66l1.82,0.72
				l1.82,0.72l1.82,0.72l1.38,0.55c-2.76,6.91-6.6,13.28-11.31,18.89l-1.13-0.95l-1.5-1.26l-1.5-1.26l-1.5-1.26l-1.5-1.26
				c-0.37,0.44-0.75,0.88-1.14,1.32c-0.39,0.43-0.78,0.86-1.18,1.28c-0.4,0.42-0.8,0.84-1.21,1.25c-0.41,0.41-0.83,0.81-1.25,1.21
				c-0.42,0.4-0.85,0.79-1.28,1.18l1.3,1.46l1.3,1.46l1.3,1.46l1.3,1.46c0.49-0.44,0.97-0.88,1.45-1.33
				c0.48-0.45,0.95-0.91,1.41-1.37c0.46-0.46,0.92-0.93,1.37-1.41l-1.42-1.34l-1.42-1.34c-0.42,0.45-0.86,0.89-1.29,1.33l1.38,1.38
				c-0.45,0.45-0.91,0.89-1.37,1.33l-1.34-1.42l-1.34-1.42c0.44-0.41,0.87-0.83,1.29-1.25c0.42-0.42,0.84-0.85,1.25-1.29
				c0.41-0.44,0.82-0.88,1.21-1.32l1.46,1.3l1.46,1.3l1.46,1.3l1.1,0.98C118.81,123.42,113.05,128.13,106.65,131.85z"/>
			<linearGradient id="SVGID_2_" gradientUnits="userSpaceOnUse" x1="4.5069" y1="72" x2="139.6824" y2="72">
				<stop  offset="0" style="stop-color:#B7854D"/>
				<stop  offset="0.1515" style="stop-color:#F5D98F"/>
				<stop  offset="0.303" style="stop-color:#FFF9B3"/>
				<stop  offset="0.5212" style="stop-color:#F4D88E"/>
				<stop  offset="0.6424" style="stop-color:#FEF9B4"/>
				<stop  offset="0.8424" style="stop-color:#D4AF66"/>
				<stop  offset="1" style="stop-color:#B7854D"/>
			</linearGradient>
			<path class="st1" d="M113.05,120.8l-1.26-1.5l-1.26-1.5l-0.94-1.11c1.29-1.09,2.55-2.24,3.75-3.44
				c3.23-3.23,6.05-6.79,8.41-10.63l1.24,0.77l1.66,1.03l1.66,1.03l1.66,1.03c-0.34,0.54-0.68,1.08-1.03,1.61
				c-0.35,0.53-0.71,1.06-1.07,1.58c-0.37,0.52-0.74,1.04-1.12,1.55l-1.57-1.17l-1.57-1.17c0.36-0.48,0.71-0.97,1.05-1.46l1.6,1.12
				c0.35-0.51,0.7-1.02,1.04-1.53l-1.63-1.08l-1.63-1.08c-0.32,0.48-0.65,0.96-0.98,1.44c-0.33,0.47-0.67,0.94-1.02,1.41
				c-0.35,0.47-0.7,0.93-1.06,1.38l1.53,1.21l1.53,1.21l1.53,1.21l1.53,1.21c0.41-0.51,0.81-1.03,1.2-1.56
				c0.39-0.53,0.78-1.06,1.15-1.59c0.38-0.54,0.74-1.08,1.11-1.63c0.36-0.55,0.71-1.1,1.06-1.66c0.34-0.56,0.68-1.12,1.01-1.69
				l-1.69-0.98l-1.69-0.98l-1.69-0.98l-1.69-0.98l-1.26-0.73c1.2-2.08,2.27-4.23,3.22-6.46c1.49-3.53,2.63-7.18,3.39-10.9l1.43,0.29
				l1.91,0.39l1.91,0.39l1.91,0.39c-0.13,0.62-0.27,1.25-0.41,1.87c-0.15,0.62-0.3,1.24-0.47,1.85c-0.16,0.62-0.34,1.23-0.52,1.84
				l-1.87-0.56l-1.87-0.56c0.17-0.57,0.33-1.15,0.49-1.73l1.89,0.5c0.16-0.6,0.31-1.2,0.45-1.8l-1.9-0.45l-1.9-0.45
				c-0.13,0.56-0.28,1.13-0.42,1.69c-0.15,0.56-0.31,1.12-0.47,1.67c-0.17,0.56-0.34,1.11-0.52,1.66l1.86,0.61l1.86,0.61l1.86,0.61
				l1.86,0.61c0.21-0.62,0.4-1.25,0.59-1.88c0.19-0.63,0.37-1.26,0.54-1.89c0.17-0.63,0.33-1.27,0.48-1.91
				c0.15-0.64,0.29-1.28,0.42-1.92c0.13-0.64,0.25-1.29,0.37-1.93l-1.92-0.34l-1.93-0.34l-1.92-0.34l-1.92-0.34l-1.43-0.25
				c0.58-3.32,0.87-6.71,0.87-10.14c0-2.86-0.2-5.68-0.61-8.46l1.44-0.21l1.93-0.28l1.93-0.28l1.93-0.28
				c0.09,0.63,0.17,1.26,0.25,1.89c0.07,0.63,0.14,1.27,0.19,1.9c0.05,0.63,0.1,1.27,0.14,1.91l-1.95,0.11l-1.95,0.11
				c-0.03-0.6-0.08-1.2-0.13-1.79l1.95-0.17c-0.05-0.62-0.11-1.23-0.19-1.84l-1.94,0.22l-1.94,0.22c0.07,0.58,0.13,1.15,0.18,1.73
				c0.05,0.58,0.09,1.16,0.12,1.74c0.03,0.58,0.06,1.16,0.07,1.74l1.95-0.06l1.95-0.06l1.95-0.06l1.95-0.06
				c-0.02-0.65-0.05-1.31-0.08-1.96c-0.04-0.65-0.09-1.31-0.14-1.96c-0.06-0.65-0.12-1.31-0.2-1.96c-0.08-0.65-0.16-1.3-0.25-1.95
				c-0.09-0.65-0.2-1.3-0.31-1.94l-1.92,0.34l-1.93,0.34l-1.92,0.34l-1.92,0.34l-1.43,0.25c-0.75-4.31-1.99-8.51-3.71-12.57
				c-0.72-1.7-1.52-3.36-2.39-4.98l1.28-0.69l1.72-0.93l1.72-0.93l1.72-0.93c0.3,0.56,0.6,1.12,0.88,1.69
				c0.29,0.57,0.56,1.14,0.83,1.72c0.27,0.58,0.53,1.16,0.78,1.74l-1.79,0.77l-1.79,0.78c-0.24-0.55-0.48-1.1-0.74-1.64l1.77-0.83
				c-0.26-0.56-0.53-1.12-0.81-1.67l-1.75,0.88l-1.75,0.88c0.26,0.52,0.51,1.04,0.76,1.56c0.25,0.53,0.48,1.05,0.71,1.59
				c0.23,0.53,0.45,1.07,0.67,1.61l1.82-0.72l1.82-0.72l1.82-0.72l1.82-0.72c-0.24-0.61-0.49-1.22-0.75-1.82
				c-0.26-0.6-0.53-1.2-0.81-1.79c-0.28-0.59-0.56-1.18-0.86-1.77c-0.29-0.59-0.6-1.17-0.91-1.74c-0.31-0.58-0.63-1.15-0.96-1.72
				l-1.69,0.98l-1.69,0.98l-1.69,0.98l-1.69,0.98l-1.26,0.73c-2.54-4.4-5.65-8.44-9.29-12.08c-0.8-0.8-1.63-1.58-2.47-2.33
				l0.97-1.09l1.3-1.46l1.3-1.46l1.3-1.46c0.48,0.42,0.95,0.85,1.41,1.29c0.46,0.44,0.92,0.88,1.37,1.33
				c0.45,0.45,0.89,0.91,1.33,1.37l-1.42,1.34l-1.42,1.34c-0.41-0.44-0.83-0.87-1.25-1.29l1.38-1.38c-0.44-0.44-0.88-0.87-1.33-1.29
				l-1.34,1.42l-1.34,1.42c0.42,0.4,0.84,0.8,1.25,1.21c0.41,0.41,0.81,0.83,1.21,1.25c0.4,0.42,0.79,0.85,1.18,1.28l1.46-1.3
				l1.46-1.3l1.46-1.3l1.46-1.3c-0.44-0.49-0.88-0.97-1.33-1.45c-0.45-0.48-0.91-0.95-1.37-1.41c-0.46-0.46-0.93-0.92-1.41-1.37
				c-0.48-0.45-0.96-0.89-1.45-1.33c-0.49-0.44-0.98-0.86-1.49-1.29l-1.26,1.5l-1.26,1.5l-1.26,1.5l-1.26,1.5l-0.94,1.12
				c-4.45-3.74-9.41-6.78-14.79-9.06c-0.39-0.16-0.78-0.32-1.17-0.48l0.54-1.36l0.72-1.82l0.72-1.82l0.72-1.82
				c0.59,0.24,1.18,0.48,1.77,0.73c0.58,0.25,1.17,0.51,1.74,0.78c0.58,0.27,1.15,0.55,1.72,0.83l-0.88,1.75l-0.88,1.75
				c-0.54-0.27-1.07-0.53-1.62-0.78l0.83-1.77c-0.56-0.26-1.12-0.51-1.69-0.76l-0.77,1.79l-0.77,1.79c0.53,0.23,1.06,0.47,1.59,0.71
				c0.53,0.25,1.05,0.5,1.57,0.76c0.52,0.26,1.03,0.53,1.54,0.8l0.93-1.72l0.93-1.72l0.93-1.72l0.93-1.72
				c-0.58-0.31-1.16-0.62-1.74-0.91c-0.59-0.29-1.18-0.58-1.77-0.86c-0.59-0.28-1.19-0.55-1.79-0.81c-0.6-0.26-1.21-0.51-1.82-0.75
				c-0.61-0.24-1.22-0.48-1.84-0.7l-0.67,1.84l-0.67,1.84l-0.67,1.84l-0.67,1.84l-0.5,1.37c-5.85-2.13-11.98-3.3-18.26-3.48
				l0.04-1.46l0.06-1.95l0.06-1.95L74,6.37c0.64,0.02,1.27,0.05,1.91,0.08c0.64,0.04,1.27,0.08,1.9,0.14
				c0.63,0.05,1.27,0.12,1.9,0.19l-0.22,1.94l-0.22,1.94c-0.59-0.07-1.19-0.13-1.79-0.18l0.17-1.95c-0.62-0.05-1.23-0.1-1.85-0.13
				l-0.11,1.95l-0.11,1.95c0.58,0.03,1.16,0.08,1.74,0.12c0.58,0.05,1.16,0.11,1.73,0.17c0.58,0.07,1.15,0.14,1.72,0.22l0.28-1.93
				l0.28-1.93l0.28-1.93l0.28-1.93c-0.65-0.09-1.3-0.18-1.95-0.25c-0.65-0.08-1.3-0.14-1.96-0.2c-0.65-0.06-1.31-0.1-1.96-0.14
				c-0.65-0.04-1.31-0.07-1.96-0.08c-0.65-0.02-1.31-0.03-1.96-0.03v1.95v1.95v1.95v1.95v1.46c0,0,0,0,0,0
				c-6.31,0-12.46,0.99-18.36,2.95l-0.46-1.39l-0.61-1.86l-0.61-1.86l-0.61-1.86c0.6-0.2,1.21-0.39,1.82-0.57
				c0.61-0.18,1.22-0.36,1.84-0.52c0.62-0.16,1.23-0.32,1.85-0.47L57.4,10l0.45,1.9c-0.58,0.14-1.16,0.28-1.74,0.44l-0.5-1.89
				c-0.6,0.16-1.19,0.33-1.78,0.5l0.56,1.87l0.56,1.87c0.56-0.17,1.11-0.32,1.67-0.47c0.56-0.15,1.12-0.29,1.69-0.42
				c0.56-0.13,1.13-0.26,1.7-0.37l-0.39-1.91L59.21,9.6l-0.39-1.91l-0.39-1.91c-0.64,0.13-1.28,0.27-1.92,0.42
				c-0.64,0.15-1.27,0.31-1.91,0.48c-0.63,0.17-1.27,0.35-1.89,0.54c-0.63,0.19-1.25,0.38-1.88,0.59c-0.62,0.21-1.24,0.42-1.86,0.65
				l0.67,1.84l0.67,1.84l0.67,1.84l0.67,1.84l0.5,1.37c-0.92,0.34-1.84,0.7-2.75,1.08c-4.86,2.05-9.37,4.73-13.48,7.99l-0.9-1.14
				l-1.21-1.53l-1.21-1.53l-1.21-1.53c0.5-0.4,1-0.78,1.51-1.16c0.51-0.38,1.03-0.75,1.55-1.12c0.52-0.37,1.05-0.72,1.58-1.07
				l1.08,1.63l1.08,1.63c-0.5,0.33-1,0.67-1.49,1.01l-1.12-1.6c-0.51,0.35-1.01,0.72-1.5,1.09l1.17,1.57l1.17,1.57
				c0.46-0.35,0.93-0.69,1.41-1.02c0.47-0.33,0.95-0.66,1.44-0.98c0.48-0.32,0.97-0.63,1.47-0.94l-1.03-1.66l-1.03-1.66l-1.03-1.66
				l-1.03-1.66c-0.56,0.34-1.11,0.7-1.66,1.06c-0.55,0.36-1.09,0.73-1.63,1.11c-0.54,0.38-1.07,0.76-1.59,1.15
				c-0.53,0.39-1.04,0.79-1.56,1.2c-0.51,0.41-1.02,0.82-1.52,1.24l1.26,1.5l1.26,1.5l1.26,1.5l1.26,1.5l0.94,1.11
				c-1.29,1.09-2.55,2.24-3.75,3.44c-3.23,3.23-6.05,6.79-8.42,10.62l-1.24-0.76l-1.66-1.03l-1.66-1.03l-1.66-1.03
				c0.33-0.54,0.68-1.08,1.03-1.61c0.35-0.53,0.71-1.06,1.07-1.58c0.37-0.52,0.74-1.04,1.12-1.55l1.57,1.17l1.57,1.17
				c-0.36,0.48-0.71,0.97-1.05,1.46l-1.6-1.12c-0.35,0.51-0.7,1.02-1.04,1.53l1.63,1.08l1.63,1.08c0.32-0.48,0.65-0.96,0.98-1.44
				c0.33-0.48,0.67-0.94,1.02-1.41c0.35-0.47,0.7-0.92,1.06-1.38l-1.53-1.21l-1.53-1.21l-1.53-1.21l-1.53-1.21
				c-0.41,0.51-0.81,1.03-1.2,1.56c-0.39,0.53-0.78,1.06-1.15,1.59c-0.38,0.54-0.75,1.08-1.11,1.63c-0.36,0.55-0.71,1.1-1.06,1.66
				c-0.35,0.56-0.68,1.12-1.01,1.69l1.69,0.98l1.69,0.98l1.69,0.98l1.69,0.98l1.26,0.73c-1.2,2.08-2.27,4.23-3.22,6.46
				c-1.49,3.53-2.63,7.18-3.39,10.9l-1.43-0.29l-1.91-0.39l-1.91-0.39l-1.91-0.39c0.13-0.62,0.27-1.25,0.41-1.87
				c0.15-0.62,0.3-1.24,0.47-1.85c0.16-0.62,0.34-1.23,0.52-1.84l1.87,0.56l1.87,0.56c-0.17,0.57-0.33,1.15-0.49,1.73l-1.89-0.5
				c-0.16,0.6-0.31,1.2-0.45,1.8l1.9,0.45l1.9,0.45c0.13-0.56,0.27-1.13,0.42-1.69c0.15-0.56,0.31-1.12,0.47-1.67
				c0.17-0.56,0.34-1.11,0.52-1.66l-1.86-0.61l-1.86-0.61l-1.86-0.61l-1.86-0.61c-0.21,0.62-0.4,1.25-0.59,1.88
				c-0.19,0.63-0.37,1.26-0.54,1.89c-0.17,0.63-0.33,1.27-0.48,1.91c-0.15,0.64-0.29,1.28-0.42,1.92c-0.13,0.64-0.25,1.29-0.37,1.93
				l1.92,0.34l1.92,0.34l1.93,0.34l1.93,0.34l1.43,0.25c-0.58,3.32-0.87,6.71-0.87,10.14c0,2.86,0.2,5.68,0.61,8.46l-1.44,0.21
				l-1.93,0.28l-1.93,0.28l-1.93,0.28c-0.09-0.63-0.17-1.26-0.25-1.89c-0.07-0.63-0.14-1.27-0.19-1.9c-0.05-0.63-0.1-1.27-0.14-1.9
				l1.95-0.11l1.95-0.11c0.03,0.6,0.08,1.2,0.13,1.79l-1.95,0.17c0.05,0.62,0.11,1.23,0.19,1.84l1.94-0.22l1.94-0.22
				c-0.07-0.58-0.12-1.15-0.17-1.73c-0.05-0.58-0.09-1.16-0.12-1.74c-0.03-0.58-0.06-1.16-0.07-1.74l-1.95,0.06l-1.95,0.06
				l-1.95,0.06l-1.95,0.06c0.02,0.65,0.05,1.31,0.08,1.96c0.04,0.65,0.08,1.31,0.14,1.96c0.06,0.65,0.12,1.31,0.2,1.96
				c0.08,0.65,0.16,1.3,0.25,1.95c0.09,0.65,0.2,1.3,0.31,1.94l1.92-0.34l1.92-0.34l1.93-0.34l1.93-0.34l1.43-0.25
				c0.75,4.31,1.99,8.51,3.71,12.57c0.72,1.7,1.52,3.36,2.39,4.98l-1.28,0.69l-1.72,0.93l-1.72,0.93l-1.72,0.93
				c-0.3-0.56-0.6-1.12-0.88-1.69c-0.29-0.57-0.56-1.14-0.83-1.72c-0.27-0.58-0.53-1.16-0.78-1.74l1.79-0.77l1.79-0.77
				c0.24,0.55,0.48,1.1,0.74,1.64l-1.77,0.83c0.26,0.56,0.53,1.12,0.81,1.67l1.75-0.88l1.75-0.88c-0.26-0.52-0.51-1.04-0.76-1.56
				c-0.25-0.53-0.48-1.05-0.71-1.59c-0.23-0.53-0.45-1.07-0.67-1.61l-1.82,0.72l-1.82,0.72l-1.82,0.72l-1.82,0.72
				c0.24,0.61,0.49,1.22,0.75,1.82c0.26,0.6,0.53,1.2,0.81,1.8c0.28,0.59,0.56,1.18,0.86,1.77c0.29,0.59,0.6,1.17,0.91,1.74
				c0.31,0.58,0.63,1.15,0.96,1.72l1.69-0.98l1.69-0.98l1.69-0.98l1.69-0.98l1.26-0.73c2.54,4.4,5.65,8.44,9.29,12.08
				c0.8,0.8,1.63,1.58,2.47,2.33l-0.97,1.09l-1.3,1.46l-1.3,1.46l-1.3,1.46c-0.48-0.42-0.94-0.85-1.41-1.29
				c-0.46-0.44-0.92-0.88-1.37-1.33c-0.45-0.45-0.89-0.91-1.33-1.37l1.42-1.34l1.42-1.34c0.41,0.44,0.83,0.87,1.25,1.29l-1.38,1.38
				c0.44,0.44,0.88,0.87,1.33,1.29l1.34-1.42l1.34-1.42c-0.42-0.4-0.84-0.8-1.25-1.21c-0.41-0.41-0.81-0.83-1.21-1.25
				c-0.4-0.42-0.79-0.85-1.18-1.28l-1.46,1.3l-1.46,1.3l-1.46,1.3l-1.46,1.3c0.44,0.49,0.88,0.97,1.33,1.45
				c0.45,0.48,0.91,0.95,1.37,1.41c0.46,0.46,0.93,0.92,1.41,1.37c0.48,0.45,0.96,0.89,1.45,1.33c0.49,0.44,0.99,0.86,1.49,1.29
				l1.26-1.5l1.26-1.5l1.26-1.5l1.26-1.5l0.94-1.11c4.45,3.74,9.41,6.78,14.79,9.06c0.39,0.16,0.78,0.32,1.17,0.48l-0.54,1.36
				l-0.72,1.82l-0.72,1.82l-0.72,1.82c-0.59-0.24-1.18-0.48-1.77-0.73c-0.58-0.25-1.17-0.51-1.74-0.78
				c-0.58-0.27-1.15-0.55-1.72-0.83l0.88-1.75l0.88-1.75c0.54,0.27,1.07,0.53,1.62,0.78l-0.83,1.77c0.56,0.26,1.12,0.51,1.69,0.76
				l0.77-1.79l0.78-1.79c-0.53-0.23-1.06-0.47-1.59-0.71c-0.53-0.25-1.05-0.5-1.56-0.76c-0.52-0.26-1.03-0.53-1.54-0.8l-0.93,1.72
				l-0.93,1.72l-0.93,1.72L40,131.53c0.58,0.31,1.16,0.62,1.74,0.91c0.59,0.29,1.18,0.58,1.77,0.86c0.59,0.28,1.19,0.55,1.79,0.81
				c0.6,0.26,1.21,0.51,1.82,0.75c0.61,0.24,1.22,0.48,1.84,0.7l0.67-1.84l0.67-1.84l0.67-1.84l0.67-1.84l0.5-1.37
				c5.85,2.13,11.98,3.3,18.26,3.48l-0.04,1.46l-0.06,1.95l-0.06,1.95l-0.06,1.95c-0.64-0.02-1.27-0.05-1.91-0.08
				c-0.64-0.04-1.27-0.08-1.9-0.14c-0.63-0.05-1.27-0.12-1.9-0.19l0.22-1.94l0.22-1.94c0.59,0.07,1.19,0.13,1.79,0.18l-0.17,1.95
				c0.62,0.05,1.23,0.1,1.85,0.13l0.11-1.95l0.11-1.95c-0.58-0.03-1.16-0.08-1.74-0.12c-0.58-0.05-1.16-0.11-1.73-0.18
				c-0.58-0.07-1.15-0.14-1.72-0.22l-0.28,1.93l-0.28,1.93l-0.28,1.93l-0.28,1.93c0.65,0.09,1.3,0.18,1.95,0.25
				c0.65,0.08,1.3,0.14,1.96,0.2c0.65,0.06,1.31,0.1,1.96,0.14c0.65,0.04,1.31,0.07,1.96,0.08c0.65,0.02,1.31,0.03,1.96,0.03v-1.95
				v-1.95v-1.95v-1.95v-1.46c6.31,0,12.46-0.99,18.36-2.95l0.46,1.39l0.61,1.86l0.61,1.86l0.61,1.86c-0.6,0.2-1.21,0.39-1.82,0.57
				c-0.61,0.18-1.22,0.36-1.84,0.52c-0.62,0.16-1.23,0.32-1.85,0.47l-0.45-1.9l-0.45-1.9c0.58-0.14,1.16-0.28,1.74-0.44l0.5,1.89
				c0.6-0.16,1.19-0.33,1.78-0.5l-0.56-1.87l-0.56-1.87c-0.56,0.17-1.11,0.32-1.67,0.47c-0.56,0.15-1.12,0.29-1.69,0.42
				c-0.56,0.13-1.13,0.26-1.7,0.38l0.39,1.91l0.39,1.91l0.39,1.91l0.39,1.91c0.64-0.13,1.28-0.27,1.92-0.42
				c0.64-0.15,1.27-0.31,1.91-0.48c0.63-0.17,1.27-0.35,1.89-0.54c0.63-0.19,1.25-0.38,1.88-0.59c0.62-0.21,1.24-0.42,1.86-0.65
				l-0.67-1.84l-0.67-1.84l-0.67-1.84l-0.67-1.84l-0.5-1.37c0.92-0.34,1.84-0.7,2.75-1.08c4.86-2.06,9.37-4.73,13.48-7.99l0.9,1.14
				l1.21,1.53l1.21,1.53l1.21,1.53c-0.5,0.39-1,0.78-1.51,1.16c-0.51,0.38-1.03,0.75-1.55,1.12c-0.52,0.37-1.05,0.72-1.58,1.07
				l-1.08-1.63l-1.08-1.63c0.5-0.33,1-0.67,1.49-1.01l1.12,1.6c0.51-0.35,1.01-0.72,1.5-1.09l-1.17-1.57l-1.17-1.57
				c-0.47,0.35-0.94,0.69-1.41,1.02c-0.47,0.33-0.95,0.66-1.44,0.98c-0.48,0.32-0.97,0.63-1.47,0.94l1.03,1.66l1.03,1.66l1.03,1.66
				l1.03,1.66c0.56-0.34,1.11-0.7,1.66-1.06c0.55-0.36,1.09-0.73,1.63-1.11c0.54-0.38,1.07-0.76,1.59-1.15
				c0.53-0.39,1.05-0.79,1.56-1.2c0.51-0.41,1.02-0.82,1.52-1.24l-1.26-1.5L113.05,120.8z M72.09,128.63
				c-31.23,0-56.63-25.4-56.63-56.63c0-31.23,25.4-56.63,56.63-56.63c31.23,0,56.63,25.4,56.63,56.63
				C128.73,103.23,103.32,128.63,72.09,128.63z"/>
		</g>
		<linearGradient id="SVGID_3_" gradientUnits="userSpaceOnUse" x1="29.8422" y1="64.6901" x2="114.3474" y2="64.6901">
			<stop  offset="0" style="stop-color:#B7854D"/>
			<stop  offset="0.1515" style="stop-color:#F5D98F"/>
			<stop  offset="0.303" style="stop-color:#FFF9B3"/>
			<stop  offset="0.5212" style="stop-color:#F4D88E"/>
			<stop  offset="0.6424" style="stop-color:#FEF9B4"/>
			<stop  offset="0.8424" style="stop-color:#D4AF66"/>
			<stop  offset="1" style="stop-color:#B7854D"/>
		</linearGradient>
		<polygon class="st2" points="72.09,27.27 29.84,102.11 36.16,102.11 41.14,102.11 44.27,102.11 52.37,102.11 46.76,92.17 
			72.09,47.28 97.43,92.17 91.82,102.11 99.92,102.11 103.05,102.11 108.03,102.11 114.35,102.11 		"/>
	</g>
</g>
</svg>
