<?xml version="1.0" encoding="utf-8"?>
<!-- Generator: Adobe Illustrator 25.0.0, SVG Export Plug-In . SVG Version: 6.00 Build 0)  -->
<svg version="1.1" xmlns="http://www.w3.org/2000/svg" xmlns:xlink="http://www.w3.org/1999/xlink" x="0px" y="0px"
	 viewBox="0 0 1024 1024" style="enable-background:new 0 0 1024 1024;" xml:space="preserve">
<style type="text/css">
	.st0{fill:url(#SVGID_1_);}
	.st1{fill:url(#SVGID_2_);}
	.st2{fill:url(#SVGID_3_);}
</style>
<g id="Layer_2">
</g>
<g id="Layer_3">
</g>
<g id="Layer_1">
	<g>
		<g>
			<linearGradient id="SVGID_1_" gradientUnits="userSpaceOnUse" x1="12.5416" y1="512.0002" x2="1011.6479" y2="512.0002">
				<stop  offset="0" style="stop-color:#B7854D"/>
				<stop  offset="0.1515" style="stop-color:#F5D98F"/>
				<stop  offset="0.303" style="stop-color:#FFF9B3"/>
				<stop  offset="0.5212" style="stop-color:#F4D88E"/>
				<stop  offset="0.6424" style="stop-color:#FEF9B4"/>
				<stop  offset="0.8424" style="stop-color:#D4AF66"/>
				<stop  offset="1" style="stop-color:#B7854D"/>
			</linearGradient>
			<path class="st0" d="M972.39,317.55c-25.16-59.49-61.18-112.91-107.06-158.79c-45.87-45.88-99.3-81.9-158.79-107.06
				c-61.59-26.05-127.02-39.26-194.45-39.26c-67.43,0-132.86,13.21-194.45,39.26c-59.49,25.16-112.91,61.18-158.79,107.06
				c-45.87,45.87-81.89,99.3-107.05,158.79C25.75,379.14,12.54,444.57,12.54,512c0,67.44,13.21,132.86,39.26,194.45
				c25.16,59.49,61.18,112.91,107.05,158.79c45.88,45.88,99.3,81.9,158.79,107.06c61.59,26.05,127.02,39.26,194.45,39.26
				c67.44,0,132.86-13.21,194.45-39.26c59.49-25.16,112.91-61.18,158.79-107.06c45.88-45.88,81.89-99.3,107.06-158.79
				c26.05-61.59,39.26-127.01,39.26-194.45C1011.65,444.57,998.44,379.14,972.39,317.55z M755.81,934.08l-5.22-9.03l-6.91-11.93
				l-6.9-11.93l-6.91-11.93l-6.9-11.93c-3.54,2.05-7.11,4.05-10.71,5.99c-3.6,1.94-7.22,3.84-10.87,5.68
				c-3.66,1.84-7.33,3.62-11.04,5.35c-3.7,1.73-7.43,3.4-11.18,5.02c-3.75,1.63-7.53,3.19-11.33,4.7l5.09,12.81l5.09,12.81
				l5.09,12.81l5.09,12.8c4.3-1.71,8.58-3.48,12.82-5.31c4.25-1.84,8.47-3.73,12.66-5.69c4.19-1.96,8.35-3.98,12.49-6.06l-6.2-12.31
				l-6.19-12.31c-3.89,1.96-7.81,3.86-11.76,5.71l5.84,12.49c-4.07,1.9-8.17,3.74-12.29,5.52l-5.47-12.65l-5.47-12.65
				c3.87-1.68,7.73-3.41,11.55-5.19c3.83-1.79,7.63-3.63,11.4-5.53c3.78-1.9,7.52-3.85,11.23-5.86l6.55,12.13l6.55,12.13l6.55,12.13
				l4.97,9.19c-45.12,24.43-94.51,41.95-146.73,51.12l-1.82-10.42l-2.38-13.58l-2.38-13.57l-2.38-13.58l-2.38-13.57
				c-4.03,0.7-8.07,1.36-12.12,1.94c-4.04,0.59-8.1,1.12-12.16,1.58c-4.06,0.48-8.13,0.88-12.21,1.23
				c-4.08,0.35-8.16,0.64-12.24,0.88c-4.09,0.23-8.18,0.4-12.27,0.52l0.39,13.77l0.4,13.78l0.39,13.78l0.39,13.78
				c4.62-0.13,9.24-0.33,13.85-0.59c4.61-0.26,9.22-0.6,13.83-0.99c4.6-0.4,9.21-0.86,13.8-1.4l-1.58-13.69l-1.58-13.69
				c-4.33,0.5-8.67,0.94-13,1.31l1.18,13.74c-4.47,0.39-8.95,0.71-13.43,0.96l-0.79-13.76l-0.79-13.76
				c4.22-0.24,8.43-0.55,12.64-0.91c4.21-0.36,8.41-0.78,12.61-1.27c4.19-0.49,8.38-1.03,12.56-1.64l1.98,13.64l1.98,13.64
				l1.98,13.64l1.52,10.47c-23.06,3.36-46.64,5.11-70.62,5.11c-28.85,0-57.13-2.53-84.62-7.36l1.83-10.42l2.38-13.58l2.38-13.57
				l2.38-13.58l2.38-13.57c-4.03-0.71-8.05-1.47-12.05-2.29c-4-0.83-8-1.71-11.98-2.65c-3.98-0.93-7.94-1.94-11.89-2.99
				c-3.95-1.06-7.88-2.16-11.8-3.34c-3.92-1.17-7.82-2.4-11.7-3.68l-4.33,13.08l-4.33,13.08l-4.33,13.09l-4.33,13.08
				c4.39,1.45,8.81,2.84,13.24,4.17c4.43,1.33,8.88,2.58,13.35,3.78c4.47,1.19,8.96,2.33,13.46,3.39l3.17-13.42l3.17-13.42
				c-4.24-1-8.47-2.06-12.68-3.19l-3.56,13.31c-4.34-1.16-8.66-2.38-12.97-3.67l3.95-13.21l3.95-13.21
				c4.05,1.21,8.11,2.36,12.19,3.45c4.08,1.09,8.17,2.13,12.28,3.09c4.11,0.97,8.23,1.88,12.37,2.73l-2.77,13.5l-2.77,13.5
				l-2.77,13.51l-2.13,10.35c-51.85-10.68-100.71-29.64-145.16-55.4l5.22-9.03l6.9-11.93l6.9-11.93l6.9-11.93l6.9-11.93
				c-3.54-2.05-7.05-4.14-10.53-6.3c-3.48-2.15-6.93-4.35-10.34-6.6c-3.41-2.25-6.8-4.55-10.15-6.9c-3.35-2.35-6.66-4.75-9.94-7.2
				c-3.28-2.44-6.52-4.94-9.73-7.48l-8.55,10.81l-8.56,10.81l-8.56,10.81l-8.56,10.81c3.63,2.87,7.29,5.69,11,8.45
				c3.71,2.76,7.45,5.48,11.24,8.13c3.79,2.65,7.61,5.25,11.47,7.8l7.58-11.51l7.59-11.51c-3.64-2.4-7.24-4.85-10.81-7.35
				l-7.92,11.29c-3.68-2.58-7.31-5.21-10.91-7.9l8.24-11.05l8.24-11.05c3.39,2.52,6.81,5,10.27,7.43c3.46,2.43,6.95,4.8,10.48,7.13
				c3.53,2.32,7.09,4.6,10.68,6.82l-7.25,11.73l-7.25,11.72l-7.25,11.73l-5.48,8.86c-44.34-27.45-83.97-61.81-117.39-101.56
				l7.95-6.68l10.55-8.86l10.55-8.87l10.55-8.86l10.55-8.86c-2.63-3.13-5.22-6.3-7.76-9.51c-2.54-3.21-5.04-6.45-7.48-9.73
				c-2.44-3.28-4.84-6.59-7.19-9.94c-2.35-3.35-4.65-6.73-6.9-10.15c-2.25-3.41-4.45-6.86-6.6-10.34l-11.73,7.25l-11.73,7.24
				l-11.72,7.25l-11.72,7.25c2.43,3.93,4.92,7.83,7.46,11.7c2.55,3.86,5.15,7.68,7.8,11.47c2.66,3.79,5.37,7.53,8.13,11.24
				l11.05-8.24l11.05-8.24c-2.6-3.5-5.16-7.02-7.66-10.59l-11.28,7.92c-2.58-3.68-5.1-7.39-7.58-11.14l11.51-7.59l11.51-7.59
				c2.33,3.53,4.7,7.02,7.13,10.48c2.43,3.46,4.9,6.88,7.43,10.27c2.52,3.39,5.1,6.74,7.72,10.05l-10.81,8.55l-10.81,8.55
				l-10.81,8.56l-8.14,6.45C97.8,773.77,72,728.11,53.98,678.74l9.88-3.6l12.95-4.72l12.95-4.72l12.95-4.72l12.95-4.72
				c-1.4-3.84-2.74-7.7-4.03-11.58c-1.28-3.88-2.51-7.78-3.68-11.7c-1.17-3.91-2.28-7.85-3.34-11.8c-1.06-3.95-2.06-7.91-2.99-11.89
				c-0.94-3.98-1.82-7.97-2.64-11.98l-13.5,2.77l-13.5,2.77l-13.5,2.78l-13.5,2.77c0.93,4.53,1.93,9.05,2.99,13.56
				c1.06,4.5,2.2,8.99,3.39,13.46c1.19,4.47,2.45,8.92,3.78,13.36l13.21-3.95l13.21-3.95c-1.25-4.17-2.43-8.37-3.56-12.58
				l-13.32,3.56c-1.16-4.34-2.26-8.7-3.29-13.07l13.42-3.17l13.41-3.17c0.97,4.11,2,8.2,3.09,12.28c1.09,4.08,2.24,8.14,3.45,12.19
				c1.21,4.04,2.48,8.07,3.8,12.08l-13.08,4.33l-13.08,4.33l-13.09,4.34l-9.98,3.31C33.29,617.11,24.6,565.55,24.6,512l0,0h10.61
				h13.78h13.78h13.78h13.78c0-4.1,0.06-8.19,0.18-12.28c0.11-4.09,0.29-8.18,0.52-12.27c0.24-4.09,0.53-8.17,0.88-12.25
				c0.35-4.08,0.76-8.15,1.23-12.21c0.47-4.06,1-8.12,1.59-12.17l-13.64-1.98l-13.64-1.98l-13.64-1.98l-13.64-1.98
				c-0.66,4.58-1.26,9.16-1.79,13.76c-0.53,4.59-0.99,9.2-1.39,13.8c-0.4,4.61-0.73,9.22-1,13.83l13.76,0.79l13.76,0.79
				c0.25-4.35,0.56-8.7,0.94-13.04l-13.73-1.19c0.39-4.47,0.84-8.94,1.35-13.4l13.69,1.58l13.69,1.58
				c-0.49,4.19-0.91,8.4-1.27,12.61c-0.36,4.21-0.67,8.42-0.91,12.64c-0.24,4.22-0.42,8.44-0.54,12.67l-13.78-0.4l-13.78-0.39
				l-13.78-0.39l-10.59-0.3c1.53-53.44,11.7-104.75,29.17-152.58l9.88,3.59l12.95,4.71l12.95,4.72l12.95,4.71l12.95,4.72
				c1.4-3.84,2.85-7.66,4.36-11.46c1.51-3.8,3.07-7.58,4.7-11.33c1.62-3.75,3.3-7.48,5.03-11.19c1.73-3.71,3.52-7.38,5.35-11.04
				c1.83-3.66,3.73-7.28,5.67-10.88l-12.13-6.55l-12.13-6.55l-12.13-6.55l-12.12-6.55c-2.2,4.07-4.34,8.17-6.42,12.3
				s-4.1,8.29-6.06,12.48c-1.96,4.19-3.85,8.41-5.69,12.66l12.65,5.46l12.66,5.46c1.73-4,3.51-7.97,5.36-11.92l-12.49-5.83
				c1.9-4.07,3.86-8.11,5.88-12.12l12.31,6.19l12.31,6.2c-1.9,3.77-3.74,7.57-5.53,11.4c-1.79,3.83-3.51,7.68-5.19,11.56
				c-1.68,3.88-3.29,7.78-4.85,11.7l-12.81-5.09l-12.81-5.09l-12.81-5.09l-9.75-3.87c19.44-48.76,46.53-93.67,79.79-133.23
				l7.95,6.68l10.55,8.86l10.55,8.86l10.55,8.87l10.55,8.87c2.63-3.13,5.31-6.23,8.03-9.28c2.72-3.05,5.49-6.07,8.3-9.05
				c2.81-2.97,5.66-5.91,8.55-8.81c2.9-2.89,5.83-5.74,8.81-8.55c2.97-2.81,5.99-5.57,9.05-8.29l-9.17-10.29l-9.17-10.29
				l-9.17-10.29l-9.17-10.29c-3.45,3.08-6.86,6.2-10.22,9.37c-3.36,3.18-6.68,6.4-9.95,9.66c-3.27,3.27-6.49,6.59-9.66,9.95
				l10.02,9.46l10.02,9.46c2.99-3.17,6.03-6.29,9.11-9.38l-9.75-9.75c3.18-3.18,6.4-6.3,9.66-9.39l9.46,10.02l9.46,10.02
				c-3.07,2.9-6.1,5.85-9.09,8.83c-2.98,2.99-5.93,6.02-8.83,9.09c-2.9,3.07-5.75,6.19-8.56,9.34l-10.29-9.17l-10.29-9.17
				l-10.29-9.17l-7.75-6.9c34.52-38.74,75.12-71.96,120.28-98.14l5.22,9.03l6.9,11.93l6.9,11.93l6.9,11.93l6.9,11.93
				c3.54-2.05,7.11-4.04,10.71-5.99c3.6-1.94,7.22-3.84,10.88-5.67c3.65-1.84,7.33-3.62,11.04-5.36c3.7-1.73,7.43-3.4,11.19-5.03
				c3.75-1.62,7.53-3.19,11.33-4.7l-5.09-12.81l-5.09-12.81l-5.09-12.81l-5.09-12.81c-4.3,1.71-8.57,3.48-12.82,5.32
				c-4.25,1.84-8.47,3.73-12.66,5.69c-4.19,1.96-8.35,3.98-12.49,6.06l6.2,12.31l6.19,12.31c3.89-1.96,7.81-3.86,11.76-5.71
				l-5.83-12.49c4.07-1.9,8.17-3.74,12.29-5.52l5.47,12.65l5.47,12.65c-3.87,1.67-7.73,3.41-11.55,5.19
				c-3.83,1.79-7.63,3.63-11.4,5.53c-3.77,1.9-7.52,3.85-11.23,5.86l-6.55-12.13l-6.55-12.13l-6.55-12.13l-4.96-9.19
				c45.12-24.43,94.51-41.94,146.73-51.12l1.82,10.42l2.38,13.58l2.38,13.58l2.38,13.58l2.38,13.58c4.03-0.7,8.07-1.35,12.11-1.94
				c4.05-0.58,8.1-1.11,12.17-1.59c4.06-0.47,8.13-0.88,12.21-1.23c4.08-0.35,8.16-0.65,12.24-0.88c4.09-0.24,8.18-0.41,12.27-0.53
				l-0.39-13.78l-0.39-13.78l-0.39-13.78l-0.39-13.78c-4.62,0.13-9.24,0.33-13.85,0.59c-4.61,0.27-9.23,0.6-13.83,0.99
				c-4.61,0.4-9.21,0.86-13.8,1.39l1.58,13.69l1.58,13.69c4.33-0.5,8.66-0.94,13-1.31l-1.18-13.73c4.47-0.39,8.95-0.71,13.43-0.97
				l0.79,13.76l0.79,13.76c-4.22,0.24-8.43,0.55-12.64,0.91c-4.21,0.36-8.41,0.78-12.61,1.27c-4.2,0.49-8.38,1.03-12.57,1.64
				l-1.98-13.64l-1.98-13.64L443,40.09l-1.52-10.47c23.06-3.36,46.64-5.11,70.61-5.11c28.85,0,57.13,2.53,84.62,7.36l-1.82,10.42
				l-2.38,13.58l-2.38,13.58l-2.38,13.58l-2.38,13.58c4.03,0.71,8.05,1.47,12.05,2.29c4.01,0.83,8,1.71,11.98,2.64
				c3.98,0.94,7.94,1.94,11.9,2.99c3.95,1.06,7.88,2.16,11.8,3.34c3.92,1.17,7.82,2.4,11.7,3.68l4.33-13.08l4.33-13.08l4.33-13.09
				l4.33-13.08c-4.39-1.45-8.81-2.84-13.24-4.17c-4.43-1.33-8.89-2.59-13.36-3.78c-4.47-1.19-8.96-2.33-13.46-3.39l-3.17,13.42
				l-3.17,13.41c4.24,1,8.47,2.07,12.68,3.19l3.56-13.31c4.34,1.16,8.67,2.38,12.97,3.67L641,81.44l-3.95,13.21
				c-4.05-1.21-8.11-2.36-12.19-3.45c-4.08-1.09-8.18-2.12-12.28-3.09c-4.11-0.97-8.23-1.88-12.37-2.73l2.77-13.5l2.77-13.5
				l2.77-13.5l2.13-10.35c51.85,10.69,100.71,29.64,145.16,55.4l-5.22,9.03l-6.91,11.93l-6.9,11.93l-6.91,11.93l-6.9,11.93
				c3.54,2.05,7.05,4.15,10.53,6.3c3.48,2.15,6.93,4.35,10.34,6.6c3.42,2.25,6.8,4.55,10.15,6.9c3.35,2.35,6.66,4.75,9.95,7.19
				c3.28,2.44,6.52,4.94,9.73,7.48l8.56-10.81l8.55-10.81l8.56-10.81l8.55-10.81c-3.63-2.87-7.29-5.69-11-8.45
				c-3.7-2.76-7.45-5.47-11.24-8.13c-3.79-2.65-7.61-5.25-11.47-7.8l-7.58,11.51l-7.59,11.51c3.64,2.4,7.24,4.85,10.81,7.35
				l7.91-11.28c3.68,2.58,7.31,5.21,10.92,7.9l-8.24,11.05l-8.24,11.05c-3.39-2.52-6.81-5-10.27-7.43
				c-3.46-2.43-6.95-4.8-10.48-7.13c-3.52-2.33-7.09-4.6-10.68-6.82l7.25-11.72l7.25-11.72l7.25-11.72l5.48-8.86
				c44.34,27.45,83.97,61.81,117.39,101.57l-7.95,6.68l-10.55,8.86l-10.56,8.86l-10.55,8.87l-10.56,8.87
				c2.64,3.13,5.22,6.3,7.76,9.51c2.54,3.21,5.04,6.45,7.48,9.73c2.44,3.28,4.84,6.59,7.19,9.94c2.35,3.35,4.65,6.73,6.9,10.15
				c2.25,3.41,4.45,6.86,6.6,10.34l11.72-7.25l11.73-7.25l11.73-7.25l11.72-7.25c-2.43-3.93-4.92-7.83-7.46-11.69
				c-2.55-3.86-5.15-7.68-7.8-11.47c-2.66-3.79-5.37-7.53-8.13-11.24l-11.05,8.24l-11.05,8.24c2.6,3.49,5.16,7.02,7.66,10.59
				l11.28-7.92c2.58,3.68,5.11,7.39,7.57,11.14l-11.51,7.59l-11.51,7.58c-2.33-3.53-4.7-7.02-7.13-10.48
				c-2.43-3.46-4.91-6.88-7.43-10.27c-2.52-3.39-5.1-6.73-7.72-10.05l10.81-8.56l10.81-8.55l10.81-8.56l8.14-6.44
				c32.07,40.47,57.87,86.14,75.89,135.51l-9.87,3.59l-12.95,4.71l-12.95,4.72L921.48,363l-12.95,4.72c1.4,3.84,2.74,7.7,4.03,11.58
				c1.28,3.88,2.51,7.78,3.68,11.7c1.18,3.91,2.28,7.85,3.34,11.8c1.05,3.95,2.06,7.91,2.99,11.89c0.94,3.98,1.82,7.97,2.64,11.98
				l13.5-2.77l13.5-2.77l13.5-2.77l13.5-2.77c-0.93-4.53-1.93-9.05-2.99-13.55c-1.06-4.5-2.19-8.99-3.39-13.46
				c-1.19-4.47-2.45-8.92-3.78-13.35l-13.21,3.95l-13.21,3.95c1.25,4.17,2.43,8.37,3.56,12.58l13.32-3.56
				c1.16,4.34,2.26,8.7,3.29,13.07l-13.42,3.17l-13.42,3.17c-0.96-4.11-2-8.2-3.09-12.28c-1.09-4.08-2.24-8.14-3.45-12.19
				c-1.21-4.05-2.48-8.07-3.81-12.08l13.09-4.33l13.08-4.33l13.08-4.33l9.98-3.31c16.02,48.24,24.71,99.79,24.72,153.34h-10.61
				H975.2h-13.79h-13.78h-13.79c0,4.1-0.06,8.19-0.18,12.28c-0.12,4.09-0.29,8.19-0.52,12.27c-0.23,4.08-0.53,8.17-0.88,12.24
				c-0.35,4.07-0.76,8.15-1.23,12.21c-0.47,4.06-1,8.12-1.59,12.17l13.64,1.98l13.64,1.98l13.64,1.98l13.64,1.98
				c0.67-4.57,1.27-9.16,1.8-13.76c0.53-4.59,0.99-9.19,1.39-13.8c0.39-4.61,0.73-9.22,0.99-13.83l-13.76-0.79l-13.76-0.79
				c-0.25,4.35-0.56,8.7-0.94,13.04l13.73,1.19c-0.38,4.47-0.83,8.94-1.35,13.4l-13.69-1.58l-13.69-1.59
				c0.49-4.19,0.91-8.4,1.27-12.61c0.36-4.21,0.67-8.42,0.91-12.64c0.24-4.22,0.42-8.44,0.54-12.66l13.78,0.4l13.78,0.39l13.77,0.39
				l10.6,0.3c-1.53,53.44-11.7,104.75-29.17,152.58l-9.88-3.6l-12.95-4.72l-12.95-4.72L921.48,661l-12.95-4.72
				c-1.4,3.84-2.85,7.66-4.36,11.46c-1.51,3.8-3.08,7.58-4.7,11.33c-1.62,3.75-3.3,7.48-5.03,11.19c-1.73,3.7-3.52,7.38-5.35,11.03
				c-1.84,3.66-3.73,7.28-5.67,10.88l12.13,6.55l12.13,6.55l12.12,6.55l12.13,6.55c2.2-4.07,4.34-8.17,6.42-12.31
				c2.08-4.13,4.1-8.29,6.06-12.48c1.96-4.19,3.85-8.41,5.69-12.66l-12.65-5.46l-12.65-5.47c-1.73,4-3.52,7.98-5.35,11.92
				l12.49,5.83c-1.91,4.07-3.87,8.11-5.88,12.12l-12.31-6.19l-12.31-6.2c1.9-3.77,3.74-7.57,5.53-11.4
				c1.78-3.83,3.51-7.68,5.19-11.56c1.68-3.87,3.29-7.78,4.85-11.7l12.81,5.09l12.81,5.09l12.81,5.09l9.75,3.88
				c-19.44,48.76-46.53,93.66-79.78,133.23l-7.95-6.68l-10.55-8.86l-10.56-8.87l-10.55-8.86l-10.56-8.86
				c-2.63,3.13-5.3,6.23-8.03,9.28c-2.72,3.05-5.48,6.08-8.3,9.05c-2.81,2.97-5.66,5.91-8.55,8.8c-2.89,2.89-5.83,5.74-8.8,8.55
				c-2.97,2.81-6,5.57-9.05,8.29l9.17,10.3l9.17,10.29l9.16,10.29l9.17,10.29c3.45-3.07,6.86-6.2,10.23-9.37
				c3.36-3.17,6.68-6.4,9.94-9.66c3.27-3.27,6.49-6.59,9.67-9.95l-10.02-9.46l-10.02-9.46c-2.99,3.17-6.03,6.29-9.11,9.38l9.74,9.75
				c-3.18,3.17-6.4,6.3-9.66,9.38l-9.46-10.02l-9.46-10.02c3.07-2.9,6.1-5.84,9.09-8.83c2.98-2.99,5.93-6.02,8.83-9.09
				c2.9-3.07,5.75-6.19,8.56-9.34l10.29,9.17l10.29,9.17l10.3,9.17l7.75,6.9C841.57,874.69,800.97,907.9,755.81,934.08z"/>
			<linearGradient id="SVGID_2_" gradientUnits="userSpaceOnUse" x1="35.4069" y1="511.9989" x2="988.7813" y2="511.9989">
				<stop  offset="0" style="stop-color:#B7854D"/>
				<stop  offset="0.1515" style="stop-color:#F5D98F"/>
				<stop  offset="0.303" style="stop-color:#FFF9B3"/>
				<stop  offset="0.5212" style="stop-color:#F4D88E"/>
				<stop  offset="0.6424" style="stop-color:#FEF9B4"/>
				<stop  offset="0.8424" style="stop-color:#D4AF66"/>
				<stop  offset="1" style="stop-color:#B7854D"/>
			</linearGradient>
			<path class="st1" d="M800.91,856.21l-8.86-10.56l-8.87-10.55l-6.6-7.86c9.12-7.68,17.96-15.78,26.47-24.28
				c22.8-22.8,42.64-47.87,59.35-74.94l8.73,5.4l11.72,7.25l11.73,7.24l11.73,7.25c-2.37,3.82-4.78,7.61-7.25,11.36
				c-2.47,3.75-5,7.46-7.57,11.14c-2.58,3.68-5.21,7.31-7.89,10.92l-11.05-8.24l-11.05-8.24c2.52-3.39,5-6.81,7.43-10.27l11.28,7.92
				c2.5-3.57,4.95-7.17,7.35-10.81l-11.51-7.59l-11.51-7.59c-2.25,3.42-4.55,6.8-6.9,10.15c-2.35,3.35-4.75,6.66-7.19,9.94
				c-2.44,3.28-4.94,6.53-7.48,9.73l10.81,8.56l10.81,8.55l10.81,8.55l10.81,8.56c2.87-3.63,5.69-7.29,8.45-11
				c2.76-3.71,5.47-7.45,8.13-11.24c2.65-3.78,5.25-7.61,7.8-11.47c2.54-3.86,5.03-7.77,7.46-11.7c2.43-3.93,4.81-7.9,7.12-11.91
				l-11.93-6.9l-11.93-6.9l-11.93-6.9l-11.93-6.91l-8.88-5.14c8.46-14.65,16.04-29.85,22.69-45.58
				c10.54-24.93,18.53-50.62,23.93-76.89l10.06,2.07l13.5,2.77l13.5,2.77l13.5,2.78c-0.9,4.4-1.87,8.79-2.9,13.16
				c-1.03,4.37-2.13,8.73-3.29,13.07c-1.16,4.34-2.38,8.66-3.67,12.97l-13.21-3.95l-13.21-3.95c1.21-4.04,2.36-8.11,3.45-12.19
				l13.31,3.56c1.12-4.21,2.19-8.43,3.19-12.67l-13.42-3.17l-13.41-3.17c-0.94,3.98-1.94,7.95-2.99,11.89
				c-1.06,3.95-2.17,7.89-3.34,11.8c-1.17,3.92-2.4,7.82-3.68,11.7l13.08,4.33l13.09,4.33l13.08,4.33l13.08,4.34
				c1.45-4.39,2.84-8.81,4.17-13.24c1.33-4.43,2.58-8.89,3.78-13.36c1.2-4.47,2.33-8.96,3.39-13.46c1.06-4.5,2.06-9.02,2.99-13.56
				c0.94-4.53,1.8-9.08,2.59-13.63l-13.57-2.37l-13.58-2.38l-13.57-2.38l-13.58-2.38l-10.12-1.77c4.11-23.44,6.17-47.32,6.17-71.51
				c0-20.14-1.44-40.07-4.28-59.7l10.17-1.48l13.64-1.98l13.64-1.98l13.64-1.98c0.64,4.44,1.23,8.9,1.74,13.36
				c0.52,4.46,0.97,8.93,1.35,13.4c0.39,4.48,0.71,8.95,0.97,13.44l-13.76,0.79l-13.76,0.79c-0.24-4.22-0.55-8.43-0.91-12.64
				l13.73-1.19c-0.37-4.34-0.81-8.68-1.31-13l-13.69,1.58l-13.69,1.58c0.48,4.06,0.88,8.13,1.23,12.21
				c0.35,4.08,0.65,8.16,0.88,12.25c0.23,4.09,0.41,8.18,0.52,12.27l13.78-0.39l13.78-0.4l13.78-0.39l13.77-0.39
				c-0.13-4.62-0.33-9.24-0.59-13.85c-0.27-4.61-0.6-9.23-0.99-13.83c-0.4-4.6-0.86-9.21-1.39-13.8c-0.53-4.59-1.13-9.18-1.8-13.76
				c-0.66-4.58-1.4-9.14-2.2-13.7l-13.57,2.38l-13.58,2.38l-13.57,2.38l-13.58,2.38l-10.12,1.77
				c-5.32-30.38-14.06-60.01-26.17-88.65c-5.08-12.02-10.7-23.73-16.85-35.13l9.04-4.88l12.13-6.55l12.13-6.55l12.12-6.55
				c2.13,3.95,4.22,7.93,6.23,11.95c2.02,4.01,3.98,8.05,5.88,12.12c1.9,4.07,3.74,8.17,5.52,12.29l-12.65,5.46l-12.65,5.47
				c-1.68-3.88-3.41-7.73-5.19-11.56l12.49-5.83c-1.85-3.95-3.75-7.87-5.71-11.76l-12.31,6.2l-12.31,6.2
				c1.84,3.65,3.62,7.33,5.35,11.04c1.73,3.7,3.4,7.43,5.03,11.19c1.62,3.75,3.19,7.53,4.7,11.33l12.81-5.09l12.81-5.09l12.81-5.09
				l12.81-5.09c-1.71-4.3-3.48-8.57-5.32-12.82c-1.84-4.25-3.73-8.47-5.69-12.66c-1.96-4.19-3.98-8.35-6.06-12.48
				c-2.07-4.13-4.22-8.23-6.42-12.3c-2.2-4.07-4.46-8.11-6.77-12.11l-11.93,6.9l-11.93,6.9l-11.93,6.9l-11.93,6.9l-8.88,5.14
				c-17.91-31.02-39.83-59.55-65.49-85.21c-5.67-5.67-11.47-11.15-17.42-16.45l6.84-7.68l9.17-10.29l9.17-10.29l9.16-10.29
				c3.35,2.99,6.67,6.02,9.93,9.1c3.27,3.08,6.49,6.21,9.66,9.39c3.17,3.18,6.3,6.4,9.39,9.66l-10.02,9.46l-10.02,9.46
				c-2.9-3.07-5.84-6.1-8.83-9.09l9.75-9.75c-3.08-3.08-6.21-6.12-9.38-9.11l-9.46,10.02l-9.46,10.02c2.97,2.81,5.91,5.66,8.8,8.55
				c2.89,2.89,5.74,5.83,8.55,8.81c2.81,2.97,5.57,5.99,8.3,9.05l10.29-9.16l10.29-9.17l10.29-9.17l10.3-9.17
				c-3.08-3.45-6.2-6.86-9.37-10.22c-3.17-3.36-6.4-6.68-9.67-9.95c-3.27-3.26-6.58-6.49-9.94-9.66c-3.36-3.17-6.77-6.3-10.23-9.37
				c-3.45-3.08-6.95-6.1-10.49-9.07l-8.86,10.55l-8.87,10.55l-8.86,10.55l-8.87,10.55l-6.6,7.86
				c-31.4-26.41-66.36-47.84-104.32-63.9c-2.73-1.15-5.47-2.27-8.22-3.37l3.81-9.57l5.09-12.81l5.09-12.81l5.09-12.81
				c4.17,1.66,8.33,3.38,12.45,5.16c4.12,1.78,8.22,3.62,12.29,5.52c4.06,1.9,8.11,3.86,12.12,5.88l-6.19,12.31l-6.2,12.31
				c-3.77-1.9-7.57-3.74-11.4-5.53l5.84-12.49c-3.95-1.84-7.92-3.63-11.92-5.36l-5.47,12.65l-5.47,12.65
				c3.75,1.62,7.48,3.3,11.18,5.03c3.71,1.74,7.38,3.52,11.04,5.36c3.65,1.83,7.28,3.73,10.87,5.67l6.55-12.13l6.55-12.13
				l6.55-12.13l6.55-12.13c-4.07-2.2-8.17-4.34-12.3-6.42c-4.14-2.08-8.3-4.1-12.49-6.06c-4.19-1.95-8.41-3.85-12.66-5.69
				c-4.24-1.84-8.52-3.61-12.82-5.32c-4.3-1.71-8.62-3.36-12.97-4.94l-4.72,12.95l-4.71,12.95l-4.72,12.95l-4.71,12.95l-3.52,9.67
				c-41.28-15.05-84.46-23.27-128.78-24.53l0.29-10.28l0.39-13.78l0.4-13.78l0.39-13.78c4.49,0.13,8.97,0.32,13.46,0.58
				c4.48,0.26,8.96,0.58,13.43,0.97c4.48,0.39,8.94,0.83,13.4,1.35l-1.58,13.69l-1.58,13.69c-4.2-0.49-8.4-0.91-12.61-1.27
				l1.19-13.73c-4.34-0.38-8.69-0.69-13.04-0.94l-0.79,13.76l-0.79,13.76c4.08,0.24,8.17,0.53,12.24,0.88
				c4.08,0.35,8.15,0.76,12.21,1.23c4.06,0.47,8.12,1,12.16,1.59l1.98-13.64l1.98-13.64l1.98-13.64l1.98-13.64
				c-4.58-0.66-9.16-1.26-13.76-1.79c-4.59-0.53-9.2-0.99-13.8-1.39c-4.61-0.4-9.22-0.73-13.83-0.99
				c-4.62-0.26-9.23-0.46-13.85-0.59c-4.62-0.13-9.24-0.2-13.86-0.2V48.9v13.78v13.78v13.78v10.29c0,0,0,0,0,0
				c-44.47,0-87.88,6.98-129.46,20.78l-3.24-9.77l-4.33-13.08l-4.33-13.08l-4.33-13.09c4.27-1.41,8.55-2.76,12.85-4.05
				c4.3-1.29,8.63-2.51,12.97-3.67c4.34-1.16,8.7-2.26,13.07-3.29l3.17,13.41l3.17,13.42c-4.11,0.97-8.2,2-12.28,3.09l-3.56-13.32
				c-4.21,1.13-8.41,2.31-12.58,3.56l3.95,13.21l3.95,13.21c3.92-1.17,7.85-2.28,11.8-3.34c3.95-1.06,7.91-2.06,11.89-2.99
				c3.98-0.94,7.97-1.82,11.98-2.64l-2.77-13.5l-2.77-13.5l-2.77-13.5l-2.77-13.5c-4.53,0.93-9.05,1.93-13.55,2.99
				c-4.5,1.06-8.99,2.2-13.46,3.39c-4.47,1.2-8.92,2.45-13.35,3.78c-4.43,1.32-8.85,2.72-13.24,4.17
				c-4.39,1.45-8.76,2.98-13.11,4.56l4.71,12.95l4.71,12.95l4.72,12.95l4.72,12.95l3.52,9.67c-6.52,2.38-12.98,4.92-19.4,7.63
				c-34.26,14.49-66.08,33.36-95.04,56.32l-6.37-8.05l-8.55-10.81l-8.56-10.81l-8.56-10.81c3.52-2.79,7.08-5.53,10.68-8.21
				c3.6-2.68,7.24-5.32,10.91-7.9c3.68-2.58,7.39-5.1,11.14-7.58l7.59,11.51l7.58,11.51c-3.53,2.33-7.02,4.7-10.48,7.13l-7.91-11.29
				c-3.57,2.5-7.1,5.06-10.59,7.66l8.24,11.05l8.24,11.05c3.28-2.44,6.59-4.84,9.94-7.19c3.35-2.35,6.73-4.65,10.15-6.9
				c3.41-2.25,6.86-4.45,10.34-6.6l-7.25-11.73l-7.25-11.72l-7.25-11.72l-7.25-11.72c-3.93,2.43-7.83,4.92-11.69,7.46
				c-3.86,2.55-7.68,5.15-11.47,7.8c-3.79,2.66-7.53,5.37-11.24,8.13c-3.71,2.76-7.37,5.58-11,8.45c-3.63,2.87-7.21,5.79-10.75,8.77
				l8.86,10.55l8.86,10.55l8.87,10.55l8.86,10.55l6.61,7.86c-9.13,7.68-17.96,15.77-26.47,24.29c-22.8,22.8-42.64,47.87-59.35,74.93
				l-8.73-5.39l-11.73-7.25l-11.73-7.25l-11.72-7.25c2.36-3.82,4.78-7.61,7.25-11.35c2.47-3.75,5-7.46,7.58-11.14
				c2.58-3.68,5.21-7.31,7.89-10.91l11.05,8.24l11.05,8.24c-2.52,3.39-5,6.81-7.43,10.27L144,254.27c-2.5,3.57-4.95,7.17-7.35,10.81
				l11.51,7.58l11.51,7.58c2.25-3.41,4.55-6.8,6.9-10.15c2.35-3.35,4.75-6.66,7.19-9.94c2.44-3.28,4.94-6.52,7.48-9.73l-10.81-8.55
				l-10.81-8.56l-10.81-8.55l-10.81-8.56c-2.87,3.63-5.69,7.29-8.45,11c-2.76,3.71-5.48,7.45-8.13,11.24
				c-2.65,3.79-5.25,7.61-7.8,11.47c-2.54,3.86-5.03,7.76-7.46,11.69c-2.43,3.93-4.8,7.9-7.12,11.91l11.93,6.9l11.93,6.9l11.93,6.9
				l11.93,6.9l8.88,5.14c-8.46,14.65-16.04,29.86-22.69,45.58c-10.54,24.93-18.53,50.62-23.93,76.89l-10.06-2.07l-13.5-2.77
				l-13.5-2.77l-13.5-2.77c0.91-4.4,1.87-8.79,2.9-13.16c1.03-4.37,2.13-8.73,3.29-13.07c1.16-4.34,2.38-8.66,3.67-12.97l13.21,3.95
				l13.21,3.95c-1.21,4.04-2.36,8.11-3.45,12.19l-13.32-3.56c-1.12,4.21-2.19,8.43-3.19,12.68l13.41,3.17l13.42,3.17
				c0.94-3.98,1.94-7.94,2.99-11.89c1.06-3.95,2.17-7.89,3.34-11.8c1.17-3.92,2.4-7.82,3.68-11.7l-13.09-4.33l-13.08-4.33
				l-13.08-4.33l-13.09-4.33c-1.45,4.39-2.84,8.8-4.17,13.24c-1.33,4.43-2.59,8.89-3.78,13.35c-1.19,4.47-2.33,8.96-3.39,13.46
				c-1.06,4.5-2.06,9.02-2.99,13.55c-0.93,4.53-1.79,9.08-2.59,13.63l13.58,2.38l13.58,2.38l13.58,2.38l13.58,2.38l10.11,1.77
				c-4.1,23.44-6.17,47.32-6.17,71.52c0,20.14,1.44,40.06,4.28,59.7l-10.16,1.47l-13.64,1.98l-13.64,1.98l-13.64,1.98
				c-0.64-4.44-1.22-8.9-1.74-13.36c-0.52-4.46-0.97-8.93-1.35-13.4c-0.38-4.48-0.71-8.95-0.97-13.44l13.76-0.79l13.76-0.79
				c0.24,4.22,0.54,8.44,0.91,12.64l-13.73,1.19c0.37,4.34,0.81,8.67,1.31,13.01l13.69-1.59l13.69-1.58
				c-0.47-4.06-0.88-8.13-1.23-12.21c-0.35-4.08-0.65-8.16-0.88-12.24c-0.23-4.09-0.41-8.18-0.52-12.27l-13.78,0.39l-13.78,0.4
				l-13.78,0.39l-13.78,0.39c0.13,4.62,0.33,9.24,0.59,13.85c0.27,4.61,0.6,9.22,1,13.83c0.4,4.61,0.86,9.21,1.39,13.8
				c0.53,4.59,1.13,9.18,1.79,13.76c0.66,4.58,1.4,9.15,2.2,13.7l13.58-2.37l13.58-2.38l13.58-2.38l13.58-2.38l10.11-1.77
				c5.32,30.37,14.06,60.01,26.17,88.65c5.08,12.02,10.71,23.73,16.85,35.13l-9.04,4.88l-12.13,6.55l-12.13,6.55l-12.13,6.55
				c-2.13-3.95-4.21-7.93-6.23-11.95c-2.02-4.01-3.98-8.05-5.88-12.12c-1.9-4.07-3.74-8.17-5.52-12.29l12.66-5.47l12.65-5.47
				c1.68,3.88,3.4,7.73,5.19,11.56l-12.49,5.83c1.85,3.95,3.75,7.87,5.71,11.76l12.31-6.2l12.31-6.2
				c-1.84-3.65-3.62-7.33-5.35-11.03c-1.73-3.71-3.4-7.43-5.03-11.19c-1.62-3.75-3.19-7.53-4.7-11.33l-12.81,5.09l-12.81,5.09
				l-12.81,5.09l-12.81,5.09c1.71,4.3,3.48,8.57,5.31,12.82c1.84,4.25,3.73,8.47,5.69,12.66c1.96,4.19,3.98,8.35,6.06,12.48
				c2.08,4.13,4.22,8.23,6.42,12.31c2.19,4.07,4.46,8.11,6.77,12.11l11.93-6.9l11.93-6.9l11.93-6.9l11.93-6.91l8.88-5.14
				c17.91,31.01,39.83,59.55,65.49,85.21c5.67,5.66,11.47,11.15,17.42,16.44l-6.83,7.67l-9.17,10.3l-9.17,10.29l-9.17,10.29
				c-3.35-2.99-6.66-6.02-9.93-9.1c-3.26-3.08-6.48-6.21-9.66-9.38c-3.17-3.18-6.3-6.4-9.39-9.66l10.02-9.46l10.02-9.46
				c2.9,3.07,5.84,6.1,8.83,9.09l-9.75,9.75c3.08,3.08,6.21,6.12,9.38,9.11l9.46-10.02l9.46-10.03c-2.97-2.81-5.91-5.66-8.81-8.55
				c-2.89-2.9-5.74-5.83-8.55-8.8c-2.81-2.97-5.57-6-8.3-9.05l-10.29,9.16l-10.29,9.17l-10.29,9.17l-10.29,9.17
				c3.08,3.45,6.2,6.86,9.37,10.22c3.17,3.36,6.4,6.67,9.66,9.95c3.27,3.27,6.59,6.49,9.95,9.66c3.36,3.18,6.77,6.3,10.22,9.37
				c3.45,3.08,6.95,6.1,10.49,9.07l8.86-10.56l8.86-10.55l8.87-10.56l8.86-10.55l6.6-7.86c31.4,26.41,66.36,47.84,104.32,63.89
				c2.73,1.15,5.47,2.27,8.22,3.37l-3.8,9.57l-5.09,12.81l-5.09,12.81l-5.09,12.81c-4.17-1.66-8.33-3.38-12.45-5.16
				c-4.12-1.78-8.22-3.62-12.29-5.52c-4.07-1.9-8.11-3.86-12.12-5.88l6.19-12.31l6.19-12.31c3.77,1.9,7.57,3.74,11.4,5.53
				l-5.83,12.49c3.95,1.84,7.92,3.63,11.92,5.36l5.47-12.65l5.47-12.66c-3.75-1.62-7.48-3.3-11.19-5.02
				c-3.71-1.73-7.38-3.52-11.04-5.35c-3.65-1.84-7.28-3.73-10.88-5.68l-6.55,12.13l-6.55,12.13l-6.55,12.13l-6.55,12.13
				c4.07,2.2,8.17,4.34,12.3,6.42c4.13,2.08,8.3,4.1,12.49,6.06c4.19,1.96,8.41,3.85,12.66,5.69c4.25,1.84,8.52,3.61,12.82,5.31
				c4.3,1.71,8.62,3.36,12.97,4.94l4.71-12.95l4.71-12.95l4.72-12.95l4.72-12.95l3.52-9.67c41.28,15.05,84.46,23.27,128.78,24.53
				l-0.29,10.28l-0.39,13.77l-0.39,13.78l-0.39,13.78c-4.49-0.13-8.97-0.32-13.46-0.58c-4.48-0.26-8.96-0.58-13.43-0.96
				c-4.47-0.39-8.94-0.84-13.4-1.35l1.58-13.69l1.58-13.69c4.19,0.49,8.4,0.91,12.61,1.27l-1.19,13.73
				c4.34,0.38,8.69,0.69,13.04,0.94l0.79-13.76l0.79-13.76c-4.09-0.24-8.17-0.53-12.24-0.88c-4.08-0.35-8.15-0.76-12.21-1.23
				c-4.06-0.47-8.12-1-12.17-1.58l-1.98,13.64l-1.98,13.64l-1.98,13.64L443,983.91c4.58,0.66,9.16,1.26,13.76,1.79
				c4.59,0.54,9.19,1,13.8,1.4c4.61,0.4,9.22,0.73,13.83,0.99c4.61,0.26,9.23,0.46,13.85,0.59c4.62,0.13,9.24,0.2,13.86,0.2V975.1
				v-13.79v-13.78v-13.78v-10.28c44.48,0,87.89-6.98,129.47-20.78l3.24,9.77l4.33,13.08l4.33,13.08l4.33,13.09
				c-4.26,1.41-8.55,2.76-12.85,4.04c-4.3,1.29-8.62,2.51-12.97,3.67c-4.34,1.16-8.69,2.26-13.07,3.29l-3.17-13.42l-3.17-13.41
				c4.11-0.96,8.21-2,12.28-3.09l3.56,13.32c4.21-1.13,8.41-2.31,12.58-3.56l-3.95-13.21l-3.95-13.21
				c-3.91,1.18-7.85,2.28-11.8,3.34c-3.95,1.05-7.91,2.06-11.9,2.99c-3.98,0.94-7.97,1.82-11.98,2.65l2.78,13.5l2.77,13.5l2.77,13.5
				l2.77,13.51c4.53-0.93,9.05-1.93,13.55-2.99c4.5-1.06,8.99-2.2,13.46-3.39c4.47-1.19,8.92-2.45,13.36-3.78
				c4.43-1.32,8.85-2.71,13.24-4.17c4.39-1.46,8.76-2.98,13.11-4.56l-4.72-12.95l-4.71-12.95l-4.72-12.95l-4.71-12.95l-3.52-9.67
				c6.51-2.37,12.98-4.92,19.4-7.63c34.26-14.49,66.08-33.36,95.05-56.32l6.37,8.04l8.56,10.81l8.55,10.81l8.56,10.81
				c-3.52,2.78-7.08,5.52-10.68,8.21c-3.6,2.68-7.24,5.32-10.92,7.9c-3.68,2.58-7.39,5.1-11.14,7.57l-7.59-11.51l-7.59-11.51
				c3.53-2.33,7.02-4.7,10.48-7.13l7.92,11.28c3.57-2.5,7.09-5.06,10.59-7.66l-8.24-11.05l-8.24-11.05c-3.28,2.45-6.6,4.85-9.95,7.2
				c-3.35,2.35-6.73,4.65-10.15,6.9c-3.41,2.25-6.86,4.45-10.34,6.6l7.25,11.72l7.25,11.73l7.25,11.72l7.25,11.73
				c3.93-2.43,7.83-4.92,11.7-7.46c3.86-2.55,7.68-5.15,11.47-7.8c3.79-2.65,7.53-5.37,11.24-8.13c3.71-2.76,7.37-5.58,11-8.45
				c3.63-2.87,7.21-5.79,10.75-8.77l-8.86-10.56L800.91,856.21z M512.09,911.41c-220.23,0-399.41-179.17-399.41-399.4
				c0-220.24,179.18-399.41,399.41-399.41c220.24,0,399.41,179.17,399.41,399.41C911.5,732.24,732.33,911.41,512.09,911.41z"/>
		</g>
		<linearGradient id="SVGID_3_" gradientUnits="userSpaceOnUse" x1="214.0928" y1="460.4433" x2="810.0967" y2="460.4433">
			<stop  offset="0" style="stop-color:#B7854D"/>
			<stop  offset="0.1515" style="stop-color:#F5D98F"/>
			<stop  offset="0.303" style="stop-color:#FFF9B3"/>
			<stop  offset="0.5212" style="stop-color:#F4D88E"/>
			<stop  offset="0.6424" style="stop-color:#FEF9B4"/>
			<stop  offset="0.8424" style="stop-color:#D4AF66"/>
			<stop  offset="1" style="stop-color:#B7854D"/>
		</linearGradient>
		<polygon class="st2" points="512.09,196.5 214.09,724.39 258.66,724.39 293.77,724.39 315.82,724.39 372.99,724.39 333.38,654.23 
			512.09,337.64 690.81,654.23 651.2,724.39 708.37,724.39 730.42,724.39 765.53,724.39 810.1,724.39 		"/>
	</g>
</g>
</svg>
