<?xml version="1.0" encoding="utf-8"?>
<!-- Generator: Adobe Illustrator 25.0.0, SVG Export Plug-In . SVG Version: 6.00 Build 0)  -->
<svg version="1.1" xmlns="http://www.w3.org/2000/svg" xmlns:xlink="http://www.w3.org/1999/xlink" x="0px" y="0px"
	 viewBox="0 0 180 180" style="enable-background:new 0 0 180 180;" xml:space="preserve">
<style type="text/css">
	.st0{fill:url(#SVGID_1_);}
	.st1{fill:url(#SVGID_2_);}
	.st2{fill:url(#SVGID_3_);}
</style>
<g id="Layer_2">
</g>
<g id="Layer_3">
</g>
<g id="Layer_1">
	<g>
		<g>
			<linearGradient id="SVGID_1_" gradientUnits="userSpaceOnUse" x1="1.5628" y1="90.0002" x2="178.6267" y2="90.0002">
				<stop  offset="0" style="stop-color:#B7854D"/>
				<stop  offset="0.1515" style="stop-color:#F5D98F"/>
				<stop  offset="0.303" style="stop-color:#FFF9B3"/>
				<stop  offset="0.5212" style="stop-color:#F4D88E"/>
				<stop  offset="0.6424" style="stop-color:#FEF9B4"/>
				<stop  offset="0.8424" style="stop-color:#D4AF66"/>
				<stop  offset="1" style="stop-color:#B7854D"/>
			</linearGradient>
			<path class="st0" d="M171.67,55.54C167.21,45,160.83,35.53,152.7,27.4c-8.13-8.13-17.6-14.51-28.14-18.97
				c-10.92-4.62-22.51-6.96-34.46-6.96c-11.95,0-23.55,2.34-34.46,6.96C45.09,12.88,35.62,19.27,27.49,27.4
				C19.36,35.53,12.98,45,8.52,55.54C3.9,66.46,1.56,78.05,1.56,90c0,11.95,2.34,23.55,6.96,34.46
				c4.46,10.54,10.84,20.01,18.97,28.14c8.13,8.13,17.6,14.51,28.14,18.97c10.92,4.62,22.51,6.96,34.46,6.96
				c11.95,0,23.55-2.34,34.46-6.96c10.54-4.46,20.01-10.84,28.14-18.97c8.13-8.13,14.51-17.6,18.97-28.14
				c4.62-10.92,6.96-22.51,6.96-34.46C178.63,78.05,176.29,66.46,171.67,55.54z M133.29,164.8l-0.93-1.6l-1.22-2.11l-1.22-2.11
				l-1.22-2.11l-1.22-2.11c-0.63,0.36-1.26,0.72-1.9,1.06c-0.64,0.34-1.28,0.68-1.93,1.01c-0.65,0.33-1.3,0.64-1.96,0.95
				c-0.66,0.31-1.32,0.6-1.98,0.89c-0.67,0.29-1.33,0.57-2.01,0.83l0.9,2.27l0.9,2.27l0.9,2.27l0.9,2.27
				c0.76-0.3,1.52-0.62,2.27-0.94c0.75-0.33,1.5-0.66,2.24-1.01c0.74-0.35,1.48-0.71,2.21-1.07l-1.1-2.18l-1.1-2.18
				c-0.69,0.35-1.38,0.68-2.08,1.01l1.03,2.21c-0.72,0.34-1.45,0.66-2.18,0.98l-0.97-2.24l-0.97-2.24c0.69-0.3,1.37-0.6,2.05-0.92
				c0.68-0.32,1.35-0.64,2.02-0.98c0.67-0.34,1.33-0.68,1.99-1.04l1.16,2.15l1.16,2.15l1.16,2.15l0.88,1.63
				c-8,4.33-16.75,7.43-26,9.06l-0.32-1.85l-0.42-2.41l-0.42-2.41l-0.42-2.41l-0.42-2.41c-0.71,0.12-1.43,0.24-2.15,0.34
				c-0.72,0.1-1.44,0.2-2.16,0.28c-0.72,0.08-1.44,0.16-2.16,0.22c-0.72,0.06-1.45,0.11-2.17,0.16c-0.72,0.04-1.45,0.07-2.17,0.09
				l0.07,2.44l0.07,2.44l0.07,2.44l0.07,2.44c0.82-0.02,1.64-0.06,2.45-0.11c0.82-0.05,1.63-0.11,2.45-0.18
				c0.82-0.07,1.63-0.15,2.45-0.25l-0.28-2.43l-0.28-2.43c-0.77,0.09-1.54,0.17-2.3,0.23l0.21,2.43c-0.79,0.07-1.59,0.13-2.38,0.17
				l-0.14-2.44l-0.14-2.44c0.75-0.04,1.49-0.1,2.24-0.16c0.75-0.06,1.49-0.14,2.23-0.23c0.74-0.09,1.49-0.18,2.23-0.29l0.35,2.42
				l0.35,2.42l0.35,2.42l0.27,1.86c-4.09,0.6-8.27,0.91-12.52,0.91c-5.11,0-10.12-0.45-15-1.3l0.32-1.85l0.42-2.41l0.42-2.41
				l0.42-2.41l0.42-2.41c-0.71-0.13-1.43-0.26-2.14-0.41c-0.71-0.15-1.42-0.3-2.12-0.47c-0.71-0.17-1.41-0.34-2.11-0.53
				c-0.7-0.19-1.4-0.38-2.09-0.59c-0.69-0.21-1.39-0.43-2.07-0.65l-0.77,2.32l-0.77,2.32l-0.77,2.32l-0.77,2.32
				c0.78,0.26,1.56,0.5,2.35,0.74c0.79,0.24,1.57,0.46,2.37,0.67c0.79,0.21,1.59,0.41,2.39,0.6l0.56-2.38l0.56-2.38
				c-0.75-0.18-1.5-0.37-2.25-0.56l-0.63,2.36c-0.77-0.21-1.54-0.42-2.3-0.65l0.7-2.34l0.7-2.34c0.72,0.21,1.44,0.42,2.16,0.61
				c0.72,0.19,1.45,0.38,2.18,0.55c0.73,0.17,1.46,0.33,2.19,0.48L73.99,168l-0.49,2.39l-0.49,2.39l-0.38,1.83
				c-9.19-1.89-17.85-5.25-25.73-9.82l0.93-1.6l1.22-2.11l1.22-2.11l1.22-2.11l1.22-2.11c-0.63-0.36-1.25-0.73-1.87-1.12
				c-0.62-0.38-1.23-0.77-1.83-1.17c-0.61-0.4-1.2-0.81-1.8-1.22c-0.59-0.42-1.18-0.84-1.76-1.28c-0.58-0.43-1.16-0.88-1.72-1.33
				l-1.52,1.92l-1.52,1.92l-1.52,1.91l-1.52,1.91c0.64,0.51,1.29,1.01,1.95,1.5c0.66,0.49,1.32,0.97,1.99,1.44
				c0.67,0.47,1.35,0.93,2.03,1.38l1.34-2.04l1.34-2.04c-0.64-0.43-1.28-0.86-1.92-1.3l-1.4,2c-0.65-0.46-1.3-0.92-1.93-1.4
				l1.46-1.96l1.46-1.96c0.6,0.45,1.21,0.89,1.82,1.32c0.61,0.43,1.23,0.85,1.86,1.26c0.63,0.41,1.26,0.81,1.89,1.21l-1.28,2.08
				L47,159.86l-1.28,2.08l-0.97,1.57c-7.86-4.86-14.88-10.95-20.8-18l1.41-1.18l1.87-1.57l1.87-1.57l1.87-1.57l1.87-1.57
				c-0.47-0.56-0.92-1.12-1.37-1.69c-0.45-0.57-0.89-1.14-1.33-1.73c-0.43-0.58-0.86-1.17-1.27-1.76c-0.42-0.59-0.82-1.19-1.22-1.8
				c-0.4-0.6-0.79-1.22-1.17-1.83l-2.08,1.28l-2.08,1.28l-2.08,1.28l-2.08,1.28c0.43,0.7,0.87,1.39,1.32,2.07
				c0.45,0.68,0.91,1.36,1.38,2.03c0.47,0.67,0.95,1.33,1.44,1.99l1.96-1.46l1.96-1.46c-0.46-0.62-0.91-1.24-1.36-1.88l-2,1.4
				c-0.46-0.65-0.9-1.31-1.34-1.97l2.04-1.34l2.04-1.34c0.41,0.63,0.83,1.24,1.26,1.86c0.43,0.61,0.87,1.22,1.32,1.82
				c0.45,0.6,0.9,1.19,1.37,1.78l-1.92,1.52l-1.92,1.52l-1.91,1.52l-1.44,1.14c-5.68-7.17-10.26-15.27-13.45-24.01l1.75-0.64
				l2.3-0.84l2.3-0.84l2.3-0.84l2.3-0.84c-0.25-0.68-0.49-1.36-0.71-2.05c-0.23-0.69-0.45-1.38-0.65-2.07
				c-0.21-0.69-0.4-1.39-0.59-2.09c-0.19-0.7-0.36-1.4-0.53-2.11c-0.17-0.7-0.32-1.41-0.47-2.12l-2.39,0.49l-2.39,0.49L9.7,106.6
				l-2.39,0.49c0.17,0.8,0.34,1.6,0.53,2.4c0.19,0.8,0.39,1.59,0.6,2.39c0.21,0.79,0.43,1.58,0.67,2.37l2.34-0.7l2.34-0.7
				c-0.22-0.74-0.43-1.48-0.63-2.23l-2.36,0.63c-0.21-0.77-0.4-1.54-0.58-2.32l2.38-0.56l2.38-0.56c0.17,0.73,0.36,1.45,0.55,2.18
				c0.19,0.72,0.4,1.44,0.61,2.16c0.21,0.72,0.44,1.43,0.67,2.14l-2.32,0.77l-2.32,0.77l-2.32,0.77l-1.77,0.59
				C5.24,108.63,3.7,99.49,3.7,90l0,0h1.88h2.44h2.44h2.44h2.44c0-0.73,0.01-1.45,0.03-2.18c0.02-0.73,0.05-1.45,0.09-2.17
				c0.04-0.72,0.09-1.45,0.16-2.17c0.06-0.72,0.13-1.44,0.22-2.16c0.08-0.72,0.18-1.44,0.28-2.16l-2.42-0.35l-2.42-0.35l-2.42-0.35
				l-2.42-0.35c-0.12,0.81-0.22,1.62-0.32,2.44c-0.09,0.81-0.18,1.63-0.25,2.45c-0.07,0.82-0.13,1.63-0.18,2.45l2.44,0.14l2.44,0.14
				c0.04-0.77,0.1-1.54,0.17-2.31l-2.43-0.21c0.07-0.79,0.15-1.58,0.24-2.38L11,80.75l2.43,0.28c-0.09,0.74-0.16,1.49-0.23,2.23
				c-0.06,0.75-0.12,1.49-0.16,2.24c-0.04,0.75-0.07,1.5-0.1,2.24l-2.44-0.07l-2.44-0.07l-2.44-0.07l-1.88-0.05
				c0.27-9.47,2.07-18.56,5.17-27.04l1.75,0.64l2.3,0.84l2.3,0.84l2.3,0.84l2.3,0.84c0.25-0.68,0.51-1.36,0.77-2.03
				c0.27-0.67,0.54-1.34,0.83-2.01c0.29-0.67,0.58-1.33,0.89-1.98c0.31-0.66,0.62-1.31,0.95-1.96c0.33-0.65,0.66-1.29,1.01-1.93
				l-2.15-1.16l-2.15-1.16l-2.15-1.16l-2.15-1.16c-0.39,0.72-0.77,1.45-1.14,2.18c-0.37,0.73-0.73,1.47-1.07,2.21
				c-0.35,0.74-0.68,1.49-1.01,2.24l2.24,0.97l2.24,0.97c0.31-0.71,0.62-1.41,0.95-2.11l-2.21-1.03c0.34-0.72,0.68-1.44,1.04-2.15
				l2.18,1.1l2.18,1.1c-0.34,0.67-0.66,1.34-0.98,2.02c-0.32,0.68-0.62,1.36-0.92,2.05c-0.3,0.69-0.58,1.38-0.86,2.07l-2.27-0.9
				l-2.27-0.9l-2.27-0.9L9.8,58.1c3.45-8.64,8.25-16.6,14.14-23.61l1.41,1.18l1.87,1.57l1.87,1.57l1.87,1.57l1.87,1.57
				c0.47-0.56,0.94-1.1,1.42-1.65c0.48-0.54,0.97-1.08,1.47-1.6c0.5-0.53,1-1.05,1.52-1.56c0.51-0.51,1.03-1.02,1.56-1.52
				c0.53-0.5,1.06-0.99,1.6-1.47l-1.62-1.82l-1.62-1.82l-1.62-1.82l-1.62-1.82c-0.61,0.55-1.22,1.1-1.81,1.66
				c-0.6,0.56-1.18,1.13-1.76,1.71c-0.58,0.58-1.15,1.17-1.71,1.76l1.78,1.68l1.78,1.68c0.53-0.56,1.07-1.12,1.61-1.66l-1.73-1.73
				c0.56-0.56,1.13-1.12,1.71-1.66l1.68,1.78l1.68,1.78c-0.54,0.51-1.08,1.04-1.61,1.57c-0.53,0.53-1.05,1.07-1.56,1.61
				c-0.51,0.54-1.02,1.1-1.52,1.66l-1.82-1.62l-1.82-1.62l-1.82-1.62l-1.37-1.22C31.7,25.72,38.9,19.84,46.9,15.2l0.93,1.6
				l1.22,2.11l1.22,2.11l1.22,2.11l1.22,2.11c0.63-0.36,1.26-0.72,1.9-1.06c0.64-0.34,1.28-0.68,1.93-1.01
				c0.65-0.33,1.3-0.64,1.96-0.95c0.66-0.31,1.32-0.6,1.98-0.89c0.66-0.29,1.33-0.56,2.01-0.83l-0.9-2.27l-0.9-2.27l-0.9-2.27
				l-0.9-2.27c-0.76,0.3-1.52,0.62-2.27,0.94c-0.75,0.33-1.5,0.66-2.24,1.01c-0.74,0.35-1.48,0.71-2.21,1.07l1.1,2.18l1.1,2.18
				c0.69-0.35,1.38-0.68,2.08-1.01L55.4,15.6c0.72-0.34,1.45-0.66,2.18-0.98l0.97,2.24l0.97,2.24c-0.69,0.3-1.37,0.6-2.05,0.92
				c-0.68,0.32-1.35,0.64-2.02,0.98c-0.67,0.34-1.33,0.68-1.99,1.04L52.3,19.9l-1.16-2.15l-1.16-2.15l-0.88-1.63
				c8-4.33,16.75-7.43,26-9.06l0.32,1.85l0.42,2.41l0.42,2.41l0.42,2.41l0.42,2.41c0.71-0.12,1.43-0.24,2.15-0.34
				c0.72-0.1,1.44-0.2,2.16-0.28c0.72-0.08,1.44-0.16,2.16-0.22c0.72-0.06,1.45-0.11,2.17-0.16c0.72-0.04,1.45-0.07,2.17-0.09
				l-0.07-2.44l-0.07-2.44l-0.07-2.44l-0.07-2.44C86.82,5.54,86,5.58,85.18,5.63c-0.82,0.05-1.63,0.11-2.45,0.18
				c-0.82,0.07-1.63,0.15-2.45,0.25l0.28,2.43l0.28,2.43c0.77-0.09,1.54-0.17,2.3-0.23l-0.21-2.43c0.79-0.07,1.59-0.13,2.38-0.17
				l0.14,2.44l0.14,2.44c-0.75,0.04-1.49,0.1-2.24,0.16c-0.75,0.06-1.49,0.14-2.23,0.23c-0.74,0.09-1.49,0.18-2.23,0.29l-0.35-2.42
				L78.2,8.78l-0.35-2.42l-0.27-1.86c4.09-0.6,8.27-0.91,12.51-0.91c5.11,0,10.13,0.45,15,1.3l-0.32,1.85l-0.42,2.41l-0.42,2.41
				l-0.42,2.41l-0.42,2.41c0.71,0.13,1.43,0.26,2.14,0.41c0.71,0.15,1.42,0.3,2.12,0.47c0.71,0.17,1.41,0.34,2.11,0.53
				c0.7,0.19,1.4,0.38,2.09,0.59c0.69,0.21,1.39,0.43,2.07,0.65l0.77-2.32l0.77-2.32l0.77-2.32l0.77-2.32
				c-0.78-0.26-1.56-0.5-2.35-0.74c-0.79-0.24-1.57-0.46-2.37-0.67c-0.79-0.21-1.59-0.41-2.38-0.6l-0.56,2.38l-0.56,2.38
				c0.75,0.18,1.5,0.37,2.25,0.57l0.63-2.36c0.77,0.21,1.54,0.42,2.3,0.65l-0.7,2.34l-0.7,2.34c-0.72-0.21-1.44-0.42-2.16-0.61
				c-0.72-0.19-1.45-0.38-2.18-0.55c-0.73-0.17-1.46-0.33-2.19-0.48L106.2,12l0.49-2.39l0.49-2.39l0.38-1.83
				c9.19,1.89,17.85,5.25,25.73,9.82l-0.93,1.6l-1.22,2.11l-1.22,2.11l-1.22,2.11l-1.22,2.11c0.63,0.36,1.25,0.73,1.87,1.12
				c0.62,0.38,1.23,0.77,1.83,1.17c0.61,0.4,1.2,0.81,1.8,1.22c0.59,0.42,1.18,0.84,1.76,1.27c0.58,0.43,1.16,0.88,1.72,1.33
				l1.52-1.91l1.52-1.91l1.52-1.92l1.52-1.92c-0.64-0.51-1.29-1.01-1.95-1.5c-0.66-0.49-1.32-0.97-1.99-1.44
				c-0.67-0.47-1.35-0.93-2.03-1.38l-1.34,2.04l-1.34,2.04c0.64,0.43,1.28,0.86,1.92,1.3l1.4-2c0.65,0.46,1.3,0.92,1.93,1.4
				l-1.46,1.96l-1.46,1.96c-0.6-0.45-1.21-0.89-1.82-1.32c-0.61-0.43-1.23-0.85-1.86-1.26c-0.62-0.41-1.26-0.81-1.89-1.21l1.28-2.08
				l1.28-2.08l1.28-2.08l0.97-1.57c7.86,4.87,14.88,10.95,20.8,18l-1.41,1.18l-1.87,1.57l-1.87,1.57l-1.87,1.57l-1.87,1.57
				c0.47,0.55,0.93,1.12,1.38,1.69c0.45,0.57,0.89,1.14,1.33,1.72c0.43,0.58,0.86,1.17,1.27,1.76c0.42,0.59,0.82,1.19,1.22,1.8
				c0.4,0.61,0.79,1.22,1.17,1.83l2.08-1.28l2.08-1.28l2.08-1.28l2.08-1.28c-0.43-0.7-0.87-1.39-1.32-2.07
				c-0.45-0.68-0.91-1.36-1.38-2.03c-0.47-0.67-0.95-1.33-1.44-1.99l-1.96,1.46l-1.96,1.46c0.46,0.62,0.91,1.24,1.36,1.88l2-1.4
				c0.46,0.65,0.9,1.31,1.34,1.97l-2.04,1.34l-2.04,1.34c-0.41-0.62-0.83-1.24-1.26-1.86c-0.43-0.61-0.87-1.22-1.32-1.82
				c-0.45-0.6-0.9-1.19-1.37-1.78l1.92-1.52l1.91-1.52l1.91-1.52l1.44-1.14c5.68,7.17,10.26,15.27,13.45,24.01l-1.75,0.64l-2.3,0.84
				l-2.3,0.84l-2.3,0.84l-2.3,0.84c0.25,0.68,0.49,1.37,0.71,2.05c0.23,0.69,0.45,1.38,0.65,2.07c0.21,0.69,0.4,1.39,0.59,2.09
				c0.19,0.7,0.36,1.4,0.53,2.11c0.17,0.71,0.32,1.41,0.47,2.12l2.39-0.49l2.39-0.49l2.39-0.49l2.39-0.49
				c-0.17-0.8-0.34-1.6-0.53-2.4c-0.19-0.8-0.39-1.59-0.6-2.39c-0.21-0.79-0.43-1.58-0.67-2.37l-2.34,0.7l-2.34,0.7
				c0.22,0.74,0.43,1.48,0.63,2.23l2.36-0.63c0.21,0.77,0.4,1.54,0.58,2.32l-2.38,0.56l-2.38,0.56c-0.17-0.73-0.35-1.45-0.55-2.18
				c-0.19-0.72-0.4-1.44-0.61-2.16c-0.21-0.72-0.44-1.43-0.67-2.14l2.32-0.77l2.32-0.77l2.32-0.77l1.77-0.59
				c2.84,8.55,4.38,17.69,4.38,27.18h-1.88h-2.44h-2.44h-2.44h-2.44c0,0.73-0.01,1.45-0.03,2.18c-0.02,0.73-0.05,1.45-0.09,2.17
				c-0.04,0.72-0.09,1.45-0.16,2.17c-0.06,0.72-0.13,1.44-0.22,2.16c-0.08,0.72-0.18,1.44-0.28,2.16l2.42,0.35l2.42,0.35l2.42,0.35
				l2.42,0.35c0.12-0.81,0.22-1.62,0.32-2.44c0.09-0.81,0.18-1.63,0.25-2.45c0.07-0.82,0.13-1.63,0.18-2.45l-2.44-0.14l-2.44-0.14
				c-0.04,0.77-0.1,1.54-0.17,2.31l2.43,0.21c-0.07,0.79-0.15,1.59-0.24,2.38l-2.43-0.28l-2.43-0.28c0.09-0.74,0.16-1.49,0.23-2.23
				c0.06-0.75,0.12-1.49,0.16-2.24c0.04-0.75,0.07-1.5,0.1-2.24l2.44,0.07l2.44,0.07l2.44,0.07l1.88,0.05
				c-0.27,9.47-2.07,18.56-5.17,27.04l-1.75-0.64l-2.3-0.84l-2.3-0.84l-2.3-0.84l-2.3-0.84c-0.25,0.68-0.51,1.36-0.77,2.03
				c-0.27,0.67-0.55,1.34-0.83,2.01c-0.29,0.67-0.58,1.33-0.89,1.98c-0.31,0.66-0.62,1.31-0.95,1.96c-0.33,0.65-0.66,1.29-1.01,1.93
				l2.15,1.16l2.15,1.16l2.15,1.16l2.15,1.16c0.39-0.72,0.77-1.45,1.14-2.18c0.37-0.73,0.73-1.47,1.07-2.21
				c0.35-0.74,0.68-1.49,1.01-2.24l-2.24-0.97l-2.24-0.97c-0.31,0.71-0.62,1.41-0.95,2.11l2.21,1.03c-0.34,0.72-0.69,1.44-1.04,2.15
				l-2.18-1.1l-2.18-1.1c0.34-0.67,0.66-1.34,0.98-2.02c0.32-0.68,0.62-1.36,0.92-2.05c0.3-0.69,0.58-1.38,0.86-2.07l2.27,0.9
				l2.27,0.9l2.27,0.9l1.73,0.69c-3.44,8.64-8.25,16.6-14.14,23.61l-1.41-1.18l-1.87-1.57l-1.87-1.57l-1.87-1.57l-1.87-1.57
				c-0.47,0.55-0.94,1.1-1.42,1.64c-0.48,0.54-0.97,1.08-1.47,1.6c-0.5,0.53-1,1.05-1.52,1.56c-0.51,0.51-1.03,1.02-1.56,1.52
				c-0.53,0.5-1.06,0.99-1.6,1.47l1.62,1.82l1.62,1.82l1.62,1.82l1.62,1.82c0.61-0.54,1.22-1.1,1.81-1.66
				c0.6-0.56,1.18-1.13,1.76-1.71c0.58-0.58,1.15-1.17,1.71-1.76l-1.78-1.68l-1.78-1.68c-0.53,0.56-1.07,1.12-1.61,1.66l1.73,1.73
				c-0.56,0.56-1.13,1.12-1.71,1.66l-1.68-1.78l-1.68-1.78c0.54-0.51,1.08-1.04,1.61-1.57c0.53-0.53,1.05-1.07,1.56-1.61
				c0.51-0.54,1.02-1.1,1.52-1.66l1.82,1.62l1.82,1.62l1.82,1.62l1.37,1.22C148.49,154.28,141.29,160.16,133.29,164.8z"/>
			<linearGradient id="SVGID_2_" gradientUnits="userSpaceOnUse" x1="5.6151" y1="90" x2="174.5743" y2="90">
				<stop  offset="0" style="stop-color:#B7854D"/>
				<stop  offset="0.1515" style="stop-color:#F5D98F"/>
				<stop  offset="0.303" style="stop-color:#FFF9B3"/>
				<stop  offset="0.5212" style="stop-color:#F4D88E"/>
				<stop  offset="0.6424" style="stop-color:#FEF9B4"/>
				<stop  offset="0.8424" style="stop-color:#D4AF66"/>
				<stop  offset="1" style="stop-color:#B7854D"/>
			</linearGradient>
			<path class="st1" d="M141.28,151l-1.57-1.87l-1.57-1.87l-1.17-1.39c1.62-1.36,3.18-2.8,4.69-4.3c4.04-4.04,7.56-8.48,10.52-13.28
				l1.55,0.96l2.08,1.28l2.08,1.28l2.08,1.28c-0.42,0.68-0.85,1.35-1.28,2.01c-0.44,0.66-0.89,1.32-1.34,1.97
				c-0.46,0.65-0.92,1.3-1.4,1.93l-1.96-1.46l-1.96-1.46c0.45-0.6,0.89-1.21,1.32-1.82l2,1.4c0.44-0.63,0.88-1.27,1.3-1.92
				l-2.04-1.34l-2.04-1.34c-0.4,0.61-0.81,1.21-1.22,1.8c-0.42,0.59-0.84,1.18-1.27,1.76c-0.43,0.58-0.88,1.16-1.33,1.73l1.92,1.52
				l1.92,1.52l1.91,1.52l1.91,1.52c0.51-0.64,1.01-1.29,1.5-1.95c0.49-0.66,0.97-1.32,1.44-1.99c0.47-0.67,0.93-1.35,1.38-2.03
				c0.45-0.68,0.89-1.38,1.32-2.07c0.43-0.7,0.85-1.4,1.26-2.11l-2.11-1.22l-2.11-1.22l-2.11-1.22l-2.11-1.22l-1.57-0.91
				c1.5-2.6,2.84-5.29,4.02-8.08c1.87-4.42,3.28-8.97,4.24-13.63l1.78,0.37l2.39,0.49l2.39,0.49l2.39,0.49
				c-0.16,0.78-0.33,1.56-0.51,2.33c-0.18,0.77-0.38,1.55-0.58,2.32c-0.21,0.77-0.42,1.54-0.65,2.3l-2.34-0.7l-2.34-0.7
				c0.21-0.72,0.42-1.44,0.61-2.16l2.36,0.63c0.2-0.75,0.39-1.49,0.57-2.25l-2.38-0.56l-2.38-0.56c-0.17,0.71-0.34,1.41-0.53,2.11
				c-0.19,0.7-0.38,1.4-0.59,2.09c-0.21,0.69-0.42,1.39-0.65,2.07l2.32,0.77l2.32,0.77l2.32,0.77l2.32,0.77
				c0.26-0.78,0.5-1.56,0.74-2.35c0.24-0.79,0.46-1.57,0.67-2.37c0.21-0.79,0.41-1.59,0.6-2.39c0.19-0.8,0.36-1.6,0.53-2.4
				c0.17-0.8,0.32-1.61,0.46-2.42l-2.41-0.42l-2.41-0.42l-2.41-0.42l-2.41-0.42l-1.79-0.31c0.73-4.15,1.09-8.39,1.09-12.67
				c0-3.57-0.25-7.1-0.76-10.58l1.8-0.26l2.42-0.35l2.42-0.35l2.42-0.35c0.11,0.79,0.22,1.58,0.31,2.37
				c0.09,0.79,0.17,1.58,0.24,2.38c0.07,0.79,0.13,1.59,0.17,2.38l-2.44,0.14l-2.44,0.14c-0.04-0.75-0.1-1.49-0.16-2.24l2.43-0.21
				c-0.07-0.77-0.14-1.54-0.23-2.3l-2.43,0.28l-2.43,0.28c0.08,0.72,0.16,1.44,0.22,2.16c0.06,0.72,0.11,1.45,0.16,2.17
				c0.04,0.72,0.07,1.45,0.09,2.17l2.44-0.07l2.44-0.07l2.44-0.07l2.44-0.07c-0.02-0.82-0.06-1.64-0.1-2.45
				c-0.05-0.82-0.11-1.64-0.18-2.45c-0.07-0.82-0.15-1.63-0.25-2.45c-0.09-0.81-0.2-1.63-0.32-2.44c-0.12-0.81-0.25-1.62-0.39-2.43
				l-2.41,0.42l-2.41,0.42l-2.41,0.42l-2.41,0.42l-1.79,0.31c-0.94-5.38-2.49-10.64-4.64-15.71c-0.9-2.13-1.9-4.21-2.99-6.23
				l1.6-0.87l2.15-1.16l2.15-1.16l2.15-1.16c0.38,0.7,0.75,1.41,1.1,2.12c0.36,0.71,0.7,1.43,1.04,2.15
				c0.34,0.72,0.66,1.45,0.98,2.18l-2.24,0.97l-2.24,0.97c-0.3-0.69-0.6-1.37-0.92-2.05l2.21-1.03c-0.33-0.7-0.66-1.39-1.01-2.08
				l-2.18,1.1l-2.18,1.1c0.33,0.65,0.64,1.3,0.95,1.96c0.31,0.66,0.6,1.32,0.89,1.98c0.29,0.66,0.56,1.33,0.83,2.01l2.27-0.9
				l2.27-0.9l2.27-0.9l2.27-0.9c-0.3-0.76-0.62-1.52-0.94-2.27c-0.33-0.75-0.66-1.5-1.01-2.24c-0.35-0.74-0.7-1.48-1.07-2.21
				c-0.37-0.73-0.75-1.46-1.14-2.18c-0.39-0.72-0.79-1.44-1.2-2.15l-2.11,1.22l-2.11,1.22l-2.11,1.22l-2.11,1.22l-1.57,0.91
				c-3.17-5.5-7.06-10.55-11.61-15.1c-1-1-2.03-1.98-3.09-2.91l1.21-1.36l1.62-1.82l1.62-1.82l1.62-1.82
				c0.59,0.53,1.18,1.07,1.76,1.61c0.58,0.55,1.15,1.1,1.71,1.66c0.56,0.56,1.12,1.13,1.66,1.71l-1.78,1.68l-1.78,1.68
				c-0.51-0.54-1.04-1.08-1.56-1.61l1.73-1.73c-0.55-0.55-1.1-1.08-1.66-1.61l-1.68,1.78l-1.68,1.78c0.53,0.5,1.05,1,1.56,1.52
				c0.51,0.51,1.02,1.03,1.52,1.56c0.5,0.53,0.99,1.06,1.47,1.6l1.82-1.62l1.82-1.62l1.82-1.62l1.82-1.62
				c-0.55-0.61-1.1-1.22-1.66-1.81c-0.56-0.6-1.13-1.18-1.71-1.76c-0.58-0.58-1.17-1.15-1.76-1.71c-0.6-0.56-1.2-1.12-1.81-1.66
				c-0.61-0.55-1.23-1.08-1.86-1.61l-1.57,1.87L141.28,29l-1.57,1.87l-1.57,1.87l-1.17,1.39c-5.56-4.68-11.76-8.48-18.49-11.32
				c-0.48-0.2-0.97-0.4-1.46-0.6l0.68-1.7l0.9-2.27l0.9-2.27l0.9-2.27c0.74,0.29,1.48,0.6,2.21,0.91c0.73,0.32,1.46,0.64,2.18,0.98
				c0.72,0.34,1.44,0.68,2.15,1.04l-1.1,2.18l-1.1,2.18c-0.67-0.34-1.34-0.66-2.02-0.98l1.03-2.21c-0.7-0.33-1.4-0.64-2.11-0.95
				l-0.97,2.24l-0.97,2.24c0.66,0.29,1.33,0.58,1.98,0.89c0.66,0.31,1.31,0.62,1.96,0.95c0.65,0.33,1.29,0.66,1.93,1.01l1.16-2.15
				l1.16-2.15l1.16-2.15l1.16-2.15c-0.72-0.39-1.45-0.77-2.18-1.14c-0.73-0.37-1.47-0.73-2.21-1.07c-0.74-0.35-1.49-0.68-2.24-1.01
				c-0.75-0.33-1.51-0.64-2.27-0.94c-0.76-0.3-1.53-0.6-2.3-0.88l-0.84,2.3l-0.84,2.3l-0.84,2.3l-0.83,2.3l-0.62,1.71
				c-7.32-2.67-14.97-4.12-22.82-4.35l0.05-1.82l0.07-2.44l0.07-2.44l0.07-2.44c0.8,0.02,1.59,0.06,2.38,0.1
				c0.79,0.05,1.59,0.1,2.38,0.17c0.79,0.07,1.58,0.15,2.38,0.24l-0.28,2.43l-0.28,2.43c-0.74-0.09-1.49-0.16-2.23-0.23l0.21-2.43
				c-0.77-0.07-1.54-0.12-2.31-0.17l-0.14,2.44l-0.14,2.44c0.72,0.04,1.45,0.09,2.17,0.16c0.72,0.06,1.44,0.13,2.16,0.22
				c0.72,0.08,1.44,0.18,2.16,0.28l0.35-2.42l0.35-2.42l0.35-2.42l0.35-2.42c-0.81-0.12-1.62-0.22-2.44-0.32
				c-0.81-0.09-1.63-0.18-2.45-0.25c-0.82-0.07-1.63-0.13-2.45-0.18c-0.82-0.05-1.64-0.08-2.45-0.11c-0.82-0.02-1.64-0.04-2.46-0.04
				v2.44v2.44v2.44v2.44v1.82c0,0,0,0,0,0c-7.88,0-15.57,1.24-22.94,3.68l-0.57-1.73l-0.77-2.32l-0.77-2.32l-0.77-2.32
				c0.76-0.25,1.52-0.49,2.28-0.72c0.76-0.23,1.53-0.44,2.3-0.65c0.77-0.21,1.54-0.4,2.32-0.58l0.56,2.38l0.56,2.38
				c-0.73,0.17-1.45,0.36-2.18,0.55l-0.63-2.36c-0.75,0.2-1.49,0.41-2.23,0.63l0.7,2.34l0.7,2.34c0.69-0.21,1.39-0.4,2.09-0.59
				c0.7-0.19,1.4-0.36,2.11-0.53c0.71-0.17,1.41-0.32,2.12-0.47l-0.49-2.39L73.99,12L73.5,9.61l-0.49-2.39
				c-0.8,0.17-1.6,0.34-2.4,0.53c-0.8,0.19-1.59,0.39-2.39,0.6c-0.79,0.21-1.58,0.43-2.37,0.67c-0.79,0.23-1.57,0.48-2.35,0.74
				c-0.78,0.26-1.55,0.53-2.32,0.81l0.84,2.3l0.84,2.3l0.84,2.3l0.84,2.3l0.62,1.71c-1.15,0.42-2.3,0.87-3.44,1.35
				c-6.07,2.57-11.71,5.91-16.84,9.98l-1.13-1.43l-1.52-1.91l-1.52-1.91l-1.52-1.92c0.62-0.49,1.25-0.98,1.89-1.45
				c0.64-0.48,1.28-0.94,1.93-1.4c0.65-0.46,1.31-0.9,1.97-1.34l1.34,2.04l1.34,2.04c-0.62,0.41-1.24,0.83-1.86,1.26l-1.4-2
				c-0.63,0.44-1.26,0.9-1.88,1.36L44,28.08l1.46,1.96c0.58-0.43,1.17-0.86,1.76-1.27c0.59-0.42,1.19-0.82,1.8-1.22
				c0.61-0.4,1.22-0.79,1.83-1.17l-1.28-2.08l-1.28-2.08L47,20.14l-1.28-2.08c-0.7,0.43-1.39,0.87-2.07,1.32
				c-0.68,0.45-1.36,0.91-2.03,1.38c-0.67,0.47-1.33,0.95-1.99,1.44c-0.66,0.49-1.31,0.99-1.95,1.5c-0.64,0.51-1.28,1.03-1.9,1.55
				l1.57,1.87L38.91,29l1.57,1.87l1.57,1.87l1.17,1.39c-1.62,1.36-3.18,2.8-4.69,4.3c-4.04,4.04-7.56,8.48-10.52,13.28l-1.55-0.96
				l-2.08-1.28l-2.08-1.28l-2.08-1.28c0.42-0.68,0.85-1.35,1.28-2.01c0.44-0.66,0.89-1.32,1.34-1.97c0.46-0.65,0.92-1.3,1.4-1.93
				l1.96,1.46l1.96,1.46c-0.45,0.6-0.89,1.21-1.32,1.82l-2-1.4c-0.44,0.63-0.88,1.27-1.3,1.92l2.04,1.34l2.04,1.34
				c0.4-0.61,0.81-1.2,1.22-1.8c0.42-0.59,0.84-1.18,1.27-1.76c0.43-0.58,0.88-1.16,1.33-1.72l-1.91-1.52l-1.92-1.52l-1.92-1.52
				l-1.91-1.52c-0.51,0.64-1.01,1.29-1.5,1.95c-0.49,0.66-0.97,1.32-1.44,1.99c-0.47,0.67-0.93,1.35-1.38,2.03
				c-0.45,0.68-0.89,1.38-1.32,2.07c-0.43,0.7-0.85,1.4-1.26,2.11l2.11,1.22l2.11,1.22l2.11,1.22l2.11,1.22l1.57,0.91
				c-1.5,2.6-2.84,5.29-4.02,8.08c-1.87,4.42-3.28,8.97-4.24,13.63l-1.78-0.37l-2.39-0.49l-2.39-0.49L9.7,73.4
				c0.16-0.78,0.33-1.56,0.51-2.33c0.18-0.77,0.38-1.55,0.58-2.32c0.21-0.77,0.42-1.54,0.65-2.3l2.34,0.7l2.34,0.7
				c-0.21,0.72-0.42,1.44-0.61,2.16l-2.36-0.63c-0.2,0.75-0.39,1.49-0.57,2.25l2.38,0.56l2.38,0.56c0.17-0.71,0.34-1.41,0.53-2.11
				c0.19-0.7,0.38-1.4,0.59-2.09c0.21-0.69,0.43-1.39,0.65-2.07l-2.32-0.77l-2.32-0.77l-2.32-0.77l-2.32-0.77
				c-0.26,0.78-0.5,1.56-0.74,2.35c-0.24,0.79-0.46,1.57-0.67,2.37c-0.21,0.79-0.41,1.59-0.6,2.39c-0.19,0.8-0.36,1.6-0.53,2.4
				c-0.17,0.8-0.32,1.61-0.46,2.42l2.41,0.42l2.41,0.42l2.41,0.42l2.41,0.42l1.79,0.31c-0.73,4.15-1.09,8.39-1.09,12.67
				c0,3.57,0.25,7.1,0.76,10.58l-1.8,0.26l-2.42,0.35l-2.42,0.35l-2.42,0.35c-0.11-0.79-0.22-1.58-0.31-2.37
				c-0.09-0.79-0.17-1.58-0.24-2.38c-0.07-0.79-0.13-1.59-0.17-2.38l2.44-0.14l2.44-0.14c0.04,0.75,0.1,1.5,0.16,2.24l-2.43,0.21
				c0.07,0.77,0.14,1.54,0.23,2.3l2.43-0.28l2.43-0.28c-0.08-0.72-0.16-1.44-0.22-2.16c-0.06-0.72-0.11-1.45-0.16-2.17
				c-0.04-0.72-0.07-1.45-0.09-2.17l-2.44,0.07l-2.44,0.07l-2.44,0.07l-2.44,0.07c0.02,0.82,0.06,1.64,0.11,2.45
				c0.05,0.82,0.11,1.63,0.18,2.45c0.07,0.82,0.15,1.63,0.25,2.45c0.09,0.81,0.2,1.63,0.32,2.44c0.12,0.81,0.25,1.62,0.39,2.43
				l2.41-0.42l2.41-0.42l2.41-0.42l2.41-0.42l1.79-0.31c0.94,5.38,2.49,10.64,4.64,15.71c0.9,2.13,1.9,4.21,2.99,6.23l-1.6,0.87
				l-2.15,1.16l-2.15,1.16l-2.15,1.16c-0.38-0.7-0.75-1.41-1.1-2.12c-0.36-0.71-0.71-1.43-1.04-2.15c-0.34-0.72-0.66-1.45-0.98-2.18
				l2.24-0.97l2.24-0.97c0.3,0.69,0.6,1.37,0.92,2.05l-2.21,1.03c0.33,0.7,0.66,1.39,1.01,2.08l2.18-1.1l2.18-1.1
				c-0.33-0.65-0.64-1.3-0.95-1.96c-0.31-0.66-0.6-1.32-0.89-1.98c-0.29-0.67-0.56-1.33-0.83-2.01l-2.27,0.9l-2.27,0.9l-2.27,0.9
				l-2.27,0.9c0.3,0.76,0.62,1.52,0.94,2.27c0.33,0.75,0.66,1.5,1.01,2.24c0.35,0.74,0.71,1.48,1.07,2.21
				c0.37,0.73,0.75,1.46,1.14,2.18c0.39,0.72,0.79,1.44,1.2,2.15l2.11-1.22l2.11-1.22l2.11-1.22l2.11-1.22l1.57-0.91
				c3.17,5.5,7.06,10.55,11.61,15.1c1,1,2.03,1.98,3.09,2.91l-1.21,1.36l-1.62,1.82l-1.62,1.82l-1.62,1.82
				c-0.59-0.53-1.18-1.07-1.76-1.61c-0.58-0.55-1.15-1.1-1.71-1.66c-0.56-0.56-1.12-1.13-1.66-1.71l1.78-1.68l1.78-1.68
				c0.51,0.54,1.04,1.08,1.56,1.61l-1.73,1.73c0.55,0.55,1.1,1.08,1.66,1.61l1.68-1.78l1.68-1.78c-0.53-0.5-1.05-1-1.56-1.52
				c-0.51-0.51-1.02-1.03-1.52-1.56c-0.5-0.53-0.99-1.06-1.47-1.6l-1.82,1.62l-1.82,1.62l-1.82,1.62l-1.82,1.62
				c0.55,0.61,1.1,1.22,1.66,1.81c0.56,0.6,1.13,1.18,1.71,1.76c0.58,0.58,1.17,1.15,1.76,1.71c0.6,0.56,1.2,1.12,1.81,1.66
				c0.61,0.55,1.23,1.08,1.86,1.61l1.57-1.87l1.57-1.87l1.57-1.87l1.57-1.87l1.17-1.39c5.56,4.68,11.76,8.48,18.49,11.32
				c0.48,0.2,0.97,0.4,1.46,0.6l-0.67,1.7l-0.9,2.27l-0.9,2.27l-0.9,2.27c-0.74-0.29-1.48-0.6-2.21-0.91
				c-0.73-0.32-1.46-0.64-2.18-0.98c-0.72-0.34-1.44-0.68-2.15-1.04l1.1-2.18l1.1-2.18c0.67,0.34,1.34,0.66,2.02,0.98l-1.03,2.21
				c0.7,0.33,1.4,0.64,2.11,0.95l0.97-2.24l0.97-2.24c-0.67-0.29-1.33-0.58-1.98-0.89c-0.66-0.31-1.31-0.62-1.96-0.95
				c-0.65-0.33-1.29-0.66-1.93-1.01l-1.16,2.15l-1.16,2.15l-1.16,2.15l-1.16,2.15c0.72,0.39,1.45,0.77,2.18,1.14
				c0.73,0.37,1.47,0.73,2.21,1.07c0.74,0.35,1.49,0.68,2.24,1.01c0.75,0.33,1.51,0.64,2.27,0.94c0.76,0.3,1.53,0.6,2.3,0.88
				l0.84-2.3l0.84-2.3l0.84-2.29l0.84-2.3l0.62-1.71c7.32,2.67,14.97,4.12,22.82,4.35l-0.05,1.82l-0.07,2.44l-0.07,2.44l-0.07,2.44
				c-0.8-0.02-1.59-0.06-2.38-0.1c-0.79-0.05-1.59-0.1-2.38-0.17c-0.79-0.07-1.58-0.15-2.38-0.24l0.28-2.43l0.28-2.43
				c0.74,0.09,1.49,0.16,2.23,0.23l-0.21,2.43c0.77,0.07,1.54,0.12,2.31,0.17l0.14-2.44l0.14-2.44c-0.72-0.04-1.45-0.09-2.17-0.16
				c-0.72-0.06-1.44-0.13-2.16-0.22c-0.72-0.08-1.44-0.18-2.16-0.28l-0.35,2.42l-0.35,2.42l-0.35,2.42l-0.35,2.42
				c0.81,0.12,1.62,0.22,2.44,0.32c0.81,0.1,1.63,0.18,2.45,0.25c0.82,0.07,1.63,0.13,2.45,0.18c0.82,0.05,1.64,0.08,2.45,0.11
				c0.82,0.02,1.64,0.04,2.46,0.04v-2.44v-2.44v-2.44v-2.44v-1.82c7.88,0,15.58-1.24,22.94-3.68l0.57,1.73l0.77,2.32l0.77,2.32
				l0.77,2.32c-0.76,0.25-1.52,0.49-2.28,0.72c-0.76,0.23-1.53,0.44-2.3,0.65c-0.77,0.21-1.54,0.4-2.32,0.58l-0.56-2.38l-0.56-2.38
				c0.73-0.17,1.45-0.35,2.18-0.55l0.63,2.36c0.75-0.2,1.49-0.41,2.23-0.63l-0.7-2.34l-0.7-2.34c-0.69,0.21-1.39,0.4-2.09,0.59
				c-0.7,0.19-1.4,0.36-2.11,0.53c-0.71,0.17-1.41,0.32-2.12,0.47l0.49,2.39l0.49,2.39l0.49,2.39l0.49,2.39
				c0.8-0.17,1.6-0.34,2.4-0.53c0.8-0.19,1.59-0.39,2.38-0.6c0.79-0.21,1.58-0.43,2.37-0.67c0.79-0.23,1.57-0.48,2.35-0.74
				c0.78-0.26,1.55-0.53,2.32-0.81l-0.84-2.3l-0.84-2.3l-0.84-2.29l-0.83-2.3l-0.62-1.71c1.15-0.42,2.3-0.87,3.44-1.35
				c6.07-2.57,11.71-5.91,16.84-9.98l1.13,1.43l1.52,1.92l1.52,1.92l1.52,1.91c-0.62,0.49-1.26,0.98-1.89,1.45
				c-0.64,0.48-1.28,0.94-1.93,1.4c-0.65,0.46-1.31,0.9-1.97,1.34l-1.34-2.04l-1.34-2.04c0.63-0.41,1.24-0.83,1.86-1.26l1.4,2
				c0.63-0.44,1.26-0.9,1.88-1.36l-1.46-1.96l-1.46-1.96c-0.58,0.43-1.17,0.86-1.76,1.28c-0.59,0.42-1.19,0.82-1.8,1.22
				c-0.6,0.4-1.22,0.79-1.83,1.17l1.28,2.08l1.28,2.08l1.28,2.08l1.28,2.08c0.7-0.43,1.39-0.87,2.07-1.32
				c0.68-0.45,1.36-0.91,2.03-1.38c0.67-0.47,1.34-0.95,1.99-1.44c0.66-0.49,1.31-0.99,1.95-1.5c0.64-0.51,1.28-1.03,1.9-1.55
				l-1.57-1.87L141.28,151z M90.09,160.78c-39.03,0-70.78-31.75-70.78-70.78c0-39.03,31.75-70.78,70.78-70.78
				c39.03,0,70.78,31.75,70.78,70.78C160.88,129.03,129.13,160.78,90.09,160.78z"/>
		</g>
		<linearGradient id="SVGID_3_" gradientUnits="userSpaceOnUse" x1="37.2822" y1="80.8632" x2="142.9074" y2="80.8632">
			<stop  offset="0" style="stop-color:#B7854D"/>
			<stop  offset="0.1515" style="stop-color:#F5D98F"/>
			<stop  offset="0.303" style="stop-color:#FFF9B3"/>
			<stop  offset="0.5212" style="stop-color:#F4D88E"/>
			<stop  offset="0.6424" style="stop-color:#FEF9B4"/>
			<stop  offset="0.8424" style="stop-color:#D4AF66"/>
			<stop  offset="1" style="stop-color:#B7854D"/>
		</linearGradient>
		<polygon class="st2" points="90.09,34.09 37.28,127.64 45.18,127.64 51.4,127.64 55.31,127.64 65.44,127.64 58.42,115.21 
			90.09,59.1 121.77,115.21 114.75,127.64 124.88,127.64 128.79,127.64 135.01,127.64 142.91,127.64 		"/>
	</g>
</g>
</svg>
