<?xml version="1.0" encoding="utf-8"?>
<!-- Generator: Adobe Illustrator 25.0.0, SVG Export Plug-In . SVG Version: 6.00 Build 0)  -->
<svg version="1.1" xmlns="http://www.w3.org/2000/svg" xmlns:xlink="http://www.w3.org/1999/xlink" x="0px" y="0px"
	 viewBox="0 0 256 256" style="enable-background:new 0 0 256 256;" xml:space="preserve">
<style type="text/css">
	.st0{fill:url(#SVGID_1_);}
	.st1{fill:url(#SVGID_2_);}
	.st2{fill:url(#SVGID_3_);}
</style>
<g id="Layer_2">
</g>
<g id="Layer_3">
</g>
<g id="Layer_1">
	<g>
		<g>
			<linearGradient id="SVGID_1_" gradientUnits="userSpaceOnUse" x1="2.1587" y1="128.0002" x2="254.0309" y2="128.0002">
				<stop  offset="0" style="stop-color:#B7854D"/>
				<stop  offset="0.1515" style="stop-color:#F5D98F"/>
				<stop  offset="0.303" style="stop-color:#FFF9B3"/>
				<stop  offset="0.5212" style="stop-color:#F4D88E"/>
				<stop  offset="0.6424" style="stop-color:#FEF9B4"/>
				<stop  offset="0.8424" style="stop-color:#D4AF66"/>
				<stop  offset="1" style="stop-color:#B7854D"/>
			</linearGradient>
			<path class="st0" d="M244.13,78.98c-6.34-15-15.42-28.46-26.99-40.03c-11.56-11.57-25.03-20.65-40.03-26.99
				c-15.53-6.57-32.02-9.9-49.02-9.9c-17,0-33.49,3.33-49.02,9.9c-15,6.34-28.46,15.42-40.03,26.99
				C27.48,50.51,18.4,63.98,12.06,78.98C5.49,94.51,2.16,111,2.16,128c0,17,3.33,33.49,9.9,49.02c6.34,15,15.42,28.46,26.99,40.03
				c11.57,11.57,25.03,20.65,40.03,26.99c15.53,6.57,32.02,9.9,49.02,9.9c17,0,33.49-3.33,49.02-9.9
				c15-6.34,28.46-15.42,40.03-26.99c11.57-11.57,20.65-25.03,26.99-40.03c6.57-15.53,9.9-32.02,9.9-49.02
				C254.03,111,250.7,94.51,244.13,78.98z M189.54,234.41l-1.32-2.28l-1.74-3.01l-1.74-3.01l-1.74-3.01l-1.74-3.01
				c-0.89,0.52-1.79,1.02-2.7,1.51c-0.91,0.49-1.82,0.97-2.74,1.43c-0.92,0.46-1.85,0.91-2.78,1.35c-0.93,0.44-1.87,0.86-2.82,1.27
				c-0.95,0.41-1.9,0.8-2.86,1.18l1.28,3.23l1.28,3.23l1.28,3.23l1.28,3.23c1.08-0.43,2.16-0.88,3.23-1.34
				c1.07-0.46,2.13-0.94,3.19-1.43c1.06-0.49,2.11-1,3.15-1.53l-1.56-3.1l-1.56-3.1c-0.98,0.49-1.97,0.97-2.96,1.44l1.47,3.15
				c-1.03,0.48-2.06,0.94-3.1,1.39l-1.38-3.19l-1.38-3.19c0.98-0.42,1.95-0.86,2.91-1.31c0.96-0.45,1.92-0.92,2.87-1.39
				c0.95-0.48,1.89-0.97,2.83-1.48l1.65,3.06l1.65,3.06l1.65,3.06l1.25,2.32c-11.38,6.16-23.82,10.57-36.99,12.89l-0.46-2.63
				l-0.6-3.42l-0.6-3.42l-0.6-3.42l-0.6-3.42c-1.02,0.18-2.03,0.34-3.05,0.49c-1.02,0.15-2.04,0.28-3.07,0.4
				c-1.02,0.12-2.05,0.22-3.08,0.31c-1.03,0.09-2.06,0.16-3.09,0.22c-1.03,0.06-2.06,0.1-3.09,0.13l0.1,3.47l0.1,3.47l0.1,3.47
				l0.1,3.47c1.16-0.03,2.33-0.08,3.49-0.15c1.16-0.07,2.33-0.15,3.49-0.25c1.16-0.1,2.32-0.22,3.48-0.35l-0.4-3.45l-0.4-3.45
				c-1.09,0.13-2.18,0.24-3.28,0.33l0.3,3.46c-1.13,0.1-2.26,0.18-3.39,0.24l-0.2-3.47l-0.2-3.47c1.06-0.06,2.13-0.14,3.19-0.23
				c1.06-0.09,2.12-0.2,3.18-0.32c1.06-0.12,2.11-0.26,3.17-0.41l0.5,3.44l0.5,3.44l0.5,3.44l0.38,2.64
				c-5.81,0.85-11.76,1.29-17.8,1.29c-7.27,0-14.4-0.64-21.33-1.86l0.46-2.63l0.6-3.42l0.6-3.42l0.6-3.42l0.6-3.42
				c-1.02-0.18-2.03-0.37-3.04-0.58c-1.01-0.21-2.02-0.43-3.02-0.67c-1-0.24-2-0.49-3-0.75c-1-0.27-1.99-0.55-2.97-0.84
				c-0.99-0.3-1.97-0.6-2.95-0.93l-1.09,3.3l-1.09,3.3l-1.09,3.3l-1.09,3.3c1.11,0.37,2.22,0.72,3.34,1.05
				c1.12,0.34,2.24,0.65,3.37,0.95c1.13,0.3,2.26,0.59,3.39,0.85l0.8-3.38l0.8-3.38c-1.07-0.25-2.13-0.52-3.2-0.8l-0.9,3.36
				c-1.09-0.29-2.18-0.6-3.27-0.93l0.99-3.33l1-3.33c1.02,0.31,2.04,0.59,3.07,0.87c1.03,0.28,2.06,0.54,3.1,0.78
				c1.04,0.24,2.08,0.47,3.12,0.69l-0.7,3.4l-0.7,3.4l-0.7,3.4l-0.54,2.61c-13.07-2.69-25.39-7.47-36.59-13.97l1.32-2.28l1.74-3.01
				l1.74-3.01l1.74-3.01l1.74-3.01c-0.89-0.52-1.78-1.04-2.65-1.59c-0.88-0.54-1.75-1.1-2.61-1.66c-0.86-0.57-1.71-1.15-2.56-1.74
				c-0.84-0.59-1.68-1.2-2.51-1.81c-0.83-0.61-1.64-1.25-2.45-1.89L60,214.13l-2.16,2.72l-2.16,2.72l-2.16,2.72
				c0.91,0.72,1.84,1.43,2.77,2.13c0.93,0.7,1.88,1.38,2.83,2.05c0.95,0.67,1.92,1.32,2.89,1.97l1.91-2.9l1.91-2.9
				c-0.92-0.6-1.83-1.22-2.72-1.85l-2,2.85c-0.93-0.65-1.84-1.31-2.75-1.99l2.08-2.79l2.08-2.79c0.85,0.64,1.72,1.26,2.59,1.87
				c0.87,0.61,1.75,1.21,2.64,1.8c0.89,0.59,1.79,1.16,2.69,1.72l-1.83,2.96l-1.83,2.95l-1.83,2.96l-1.38,2.23
				c-11.18-6.92-21.17-15.58-29.59-25.6l2-1.68l2.66-2.23l2.66-2.24l2.66-2.23l2.66-2.23c-0.66-0.79-1.32-1.59-1.96-2.4
				c-0.64-0.81-1.27-1.63-1.89-2.45c-0.62-0.83-1.22-1.66-1.81-2.51c-0.59-0.84-1.17-1.7-1.74-2.56c-0.57-0.86-1.12-1.73-1.66-2.61
				l-2.96,1.83l-2.96,1.83l-2.96,1.83l-2.96,1.83c0.61,0.99,1.24,1.97,1.88,2.95c0.64,0.97,1.3,1.94,1.97,2.89
				c0.67,0.96,1.35,1.9,2.05,2.83l2.79-2.08l2.79-2.08c-0.66-0.88-1.3-1.77-1.93-2.67l-2.84,2c-0.65-0.93-1.29-1.86-1.91-2.81
				l2.9-1.91l2.9-1.91c0.59,0.89,1.18,1.77,1.8,2.64c0.61,0.87,1.24,1.73,1.87,2.59c0.64,0.85,1.29,1.7,1.95,2.53l-2.72,2.16
				l-2.72,2.16l-2.72,2.16l-2.05,1.63c-8.09-10.2-14.59-21.71-19.13-34.16l2.49-0.91l3.26-1.19l3.27-1.19l3.27-1.19l3.27-1.19
				c-0.35-0.97-0.69-1.94-1.02-2.92c-0.32-0.98-0.63-1.96-0.93-2.95c-0.3-0.99-0.58-1.98-0.84-2.97c-0.27-0.99-0.52-1.99-0.75-3
				c-0.24-1-0.46-2.01-0.67-3.02l-3.4,0.7l-3.4,0.7l-3.4,0.7l-3.4,0.7c0.24,1.14,0.49,2.28,0.75,3.42c0.27,1.14,0.55,2.27,0.85,3.39
				c0.3,1.13,0.62,2.25,0.95,3.37l3.33-0.99l3.33-1c-0.32-1.05-0.61-2.11-0.9-3.17l-3.36,0.9c-0.29-1.09-0.57-2.19-0.83-3.29
				l3.38-0.8l3.38-0.8c0.24,1.04,0.51,2.07,0.78,3.1c0.27,1.03,0.56,2.05,0.87,3.07c0.31,1.02,0.63,2.03,0.96,3.05l-3.3,1.09
				l-3.3,1.09l-3.3,1.09l-2.52,0.83C7.39,154.5,5.2,141.5,5.2,128l0,0h2.67h3.47h3.47h3.48h3.47c0-1.03,0.02-2.07,0.05-3.1
				c0.03-1.03,0.07-2.06,0.13-3.09c0.06-1.03,0.13-2.06,0.22-3.09c0.09-1.03,0.19-2.05,0.31-3.08c0.12-1.02,0.25-2.05,0.4-3.07
				l-3.44-0.5l-3.44-0.5l-3.44-0.5l-3.44-0.5c-0.17,1.15-0.32,2.31-0.45,3.47c-0.13,1.16-0.25,2.32-0.35,3.48
				c-0.1,1.16-0.18,2.32-0.25,3.49l3.47,0.2l3.47,0.2c0.06-1.1,0.14-2.19,0.24-3.29l-3.46-0.3c0.1-1.13,0.21-2.25,0.34-3.38
				l3.45,0.4l3.45,0.4c-0.12,1.06-0.23,2.12-0.32,3.18c-0.09,1.06-0.17,2.12-0.23,3.19c-0.06,1.06-0.11,2.13-0.14,3.19l-3.47-0.1
				l-3.47-0.1l-3.47-0.1l-2.67-0.08c0.39-13.47,2.95-26.41,7.35-38.47l2.49,0.91l3.26,1.19l3.27,1.19l3.27,1.19l3.27,1.19
				c0.35-0.97,0.72-1.93,1.1-2.89c0.38-0.96,0.77-1.91,1.18-2.86c0.41-0.95,0.83-1.89,1.27-2.82c0.44-0.93,0.89-1.86,1.35-2.78
				c0.46-0.92,0.94-1.83,1.43-2.74l-3.06-1.65l-3.06-1.65l-3.06-1.65l-3.06-1.65c-0.55,1.03-1.09,2.06-1.62,3.1
				c-0.52,1.04-1.03,2.09-1.53,3.15c-0.49,1.06-0.97,2.12-1.43,3.19l3.19,1.38l3.19,1.38c0.44-1.01,0.89-2.01,1.35-3.01l-3.15-1.47
				c0.48-1.03,0.97-2.04,1.48-3.06l3.1,1.56l3.1,1.56c-0.48,0.95-0.94,1.91-1.39,2.87c-0.45,0.96-0.89,1.94-1.31,2.91
				c-0.42,0.98-0.83,1.96-1.22,2.95l-3.23-1.28l-3.23-1.28l-3.23-1.28l-2.46-0.98C18.78,70.33,25.61,59.01,34,49.04l2,1.68
				l2.66,2.23l2.66,2.23l2.66,2.24l2.66,2.23c0.66-0.79,1.34-1.57,2.02-2.34c0.69-0.77,1.38-1.53,2.09-2.28
				c0.71-0.75,1.43-1.49,2.16-2.22c0.73-0.73,1.47-1.45,2.22-2.16c0.75-0.71,1.51-1.4,2.28-2.09l-2.31-2.59l-2.31-2.6l-2.31-2.59
				l-2.31-2.59c-0.87,0.78-1.73,1.56-2.58,2.36c-0.85,0.8-1.68,1.61-2.51,2.44c-0.82,0.83-1.64,1.66-2.44,2.51l2.53,2.38l2.53,2.39
				c0.75-0.8,1.52-1.59,2.3-2.36l-2.46-2.46c0.8-0.8,1.61-1.59,2.44-2.37l2.39,2.53l2.38,2.53c-0.77,0.73-1.54,1.47-2.29,2.23
				c-0.75,0.75-1.49,1.52-2.23,2.29c-0.73,0.77-1.45,1.56-2.16,2.36l-2.6-2.31l-2.59-2.31l-2.59-2.31l-1.95-1.74
				c8.7-9.77,18.94-18.14,30.32-24.74l1.32,2.28l1.74,3.01l1.74,3.01l1.74,3.01l1.74,3.01c0.89-0.52,1.79-1.02,2.7-1.51
				c0.91-0.49,1.82-0.97,2.74-1.43c0.92-0.46,1.85-0.91,2.78-1.35c0.93-0.44,1.87-0.86,2.82-1.27c0.95-0.41,1.9-0.8,2.86-1.18
				l-1.28-3.23l-1.28-3.23l-1.28-3.23l-1.28-3.23c-1.08,0.43-2.16,0.88-3.23,1.34c-1.07,0.46-2.13,0.94-3.19,1.43
				c-1.06,0.49-2.11,1-3.15,1.53l1.56,3.1l1.56,3.1c0.98-0.49,1.97-0.97,2.96-1.44l-1.47-3.15c1.03-0.48,2.06-0.94,3.1-1.39
				l1.38,3.19l1.38,3.19c-0.98,0.42-1.95,0.86-2.91,1.31c-0.96,0.45-1.92,0.92-2.87,1.39c-0.95,0.48-1.89,0.97-2.83,1.48l-1.65-3.06
				l-1.65-3.06l-1.65-3.06l-1.25-2.32C81.15,13.69,93.6,9.27,106.76,6.96l0.46,2.63l0.6,3.42l0.6,3.42l0.6,3.42l0.6,3.42
				c1.02-0.18,2.03-0.34,3.05-0.49c1.02-0.15,2.04-0.28,3.07-0.4c1.02-0.12,2.05-0.22,3.08-0.31c1.03-0.09,2.06-0.16,3.09-0.22
				c1.03-0.06,2.06-0.1,3.09-0.13l-0.1-3.47l-0.1-3.47l-0.1-3.47l-0.1-3.47c-1.16,0.03-2.33,0.08-3.49,0.15
				c-1.16,0.07-2.33,0.15-3.49,0.25c-1.16,0.1-2.32,0.22-3.48,0.35l0.4,3.45l0.4,3.45c1.09-0.13,2.18-0.24,3.28-0.33l-0.3-3.46
				c1.13-0.1,2.26-0.18,3.39-0.24l0.2,3.47l0.2,3.47c-1.06,0.06-2.13,0.14-3.19,0.23c-1.06,0.09-2.12,0.2-3.18,0.32
				c-1.06,0.12-2.11,0.26-3.17,0.41l-0.5-3.44l-0.5-3.44l-0.5-3.44l-0.38-2.64c5.81-0.85,11.76-1.29,17.8-1.29
				c7.27,0,14.4,0.64,21.33,1.86l-0.46,2.63l-0.6,3.42l-0.6,3.42l-0.6,3.42l-0.6,3.42c1.02,0.18,2.03,0.37,3.04,0.58
				c1.01,0.21,2.02,0.43,3.02,0.67c1,0.24,2,0.49,3,0.75c1,0.27,1.99,0.55,2.97,0.84c0.99,0.3,1.97,0.6,2.95,0.93l1.09-3.3l1.09-3.3
				l1.09-3.3l1.09-3.3c-1.11-0.37-2.22-0.72-3.34-1.05c-1.12-0.33-2.24-0.65-3.37-0.95c-1.13-0.3-2.26-0.59-3.39-0.85l-0.8,3.38
				l-0.8,3.38c1.07,0.25,2.13,0.52,3.2,0.8l0.9-3.36c1.09,0.29,2.18,0.6,3.27,0.93l-1,3.33l-1,3.33c-1.02-0.31-2.04-0.59-3.07-0.87
				c-1.03-0.27-2.06-0.54-3.1-0.78c-1.04-0.24-2.08-0.47-3.12-0.69l0.7-3.4l0.7-3.4l0.7-3.4l0.54-2.61
				c13.07,2.69,25.39,7.47,36.59,13.97l-1.32,2.28l-1.74,3.01l-1.74,3.01L183,32.89l-1.74,3.01c0.89,0.52,1.78,1.05,2.65,1.59
				c0.88,0.54,1.75,1.1,2.61,1.66c0.86,0.57,1.71,1.15,2.56,1.74c0.84,0.59,1.68,1.2,2.51,1.81c0.83,0.62,1.64,1.25,2.45,1.88
				l2.16-2.72l2.16-2.72l2.16-2.72l2.16-2.72c-0.91-0.72-1.84-1.43-2.77-2.13c-0.93-0.7-1.88-1.38-2.83-2.05
				c-0.95-0.67-1.92-1.32-2.89-1.97l-1.91,2.9l-1.91,2.9c0.92,0.6,1.83,1.22,2.73,1.85l2-2.84c0.93,0.65,1.84,1.31,2.75,1.99
				l-2.08,2.79l-2.08,2.79c-0.85-0.64-1.72-1.26-2.59-1.87c-0.87-0.61-1.75-1.21-2.64-1.8c-0.89-0.59-1.79-1.16-2.69-1.72l1.83-2.96
				l1.83-2.96l1.83-2.96l1.38-2.23c11.18,6.92,21.17,15.58,29.59,25.6l-2,1.68l-2.66,2.23l-2.66,2.23l-2.66,2.24l-2.66,2.23
				c0.66,0.79,1.32,1.59,1.96,2.4c0.64,0.81,1.27,1.63,1.89,2.45c0.62,0.83,1.22,1.66,1.81,2.51c0.59,0.84,1.17,1.7,1.74,2.56
				c0.57,0.86,1.12,1.73,1.66,2.61l2.96-1.83l2.96-1.83l2.96-1.83l2.96-1.83c-0.61-0.99-1.24-1.97-1.88-2.95
				c-0.64-0.97-1.3-1.94-1.97-2.89c-0.67-0.95-1.35-1.9-2.05-2.83l-2.79,2.08l-2.79,2.08c0.66,0.88,1.3,1.77,1.93,2.67l2.84-2
				c0.65,0.93,1.29,1.86,1.91,2.81l-2.9,1.91l-2.9,1.91c-0.59-0.89-1.19-1.77-1.8-2.64c-0.61-0.87-1.24-1.73-1.87-2.59
				c-0.64-0.85-1.29-1.7-1.95-2.53l2.72-2.16l2.72-2.16l2.72-2.16l2.05-1.62c8.09,10.2,14.59,21.71,19.13,34.16l-2.49,0.91
				l-3.26,1.19l-3.27,1.19l-3.27,1.19l-3.27,1.19c0.35,0.97,0.69,1.94,1.02,2.92c0.32,0.98,0.63,1.96,0.93,2.95
				c0.3,0.99,0.58,1.98,0.84,2.97c0.27,1,0.52,1.99,0.75,3c0.24,1,0.46,2.01,0.67,3.02l3.4-0.7l3.4-0.7l3.4-0.7l3.4-0.7
				c-0.23-1.14-0.49-2.28-0.75-3.42c-0.27-1.14-0.55-2.27-0.85-3.39c-0.3-1.13-0.62-2.25-0.95-3.37l-3.33,1l-3.33,1
				c0.32,1.05,0.61,2.11,0.9,3.17l3.36-0.9c0.29,1.09,0.57,2.19,0.83,3.29l-3.38,0.8l-3.38,0.8c-0.24-1.04-0.5-2.07-0.78-3.1
				c-0.28-1.03-0.56-2.05-0.87-3.07c-0.31-1.02-0.62-2.04-0.96-3.05l3.3-1.09l3.3-1.09l3.3-1.09l2.52-0.83
				c4.04,12.16,6.23,25.16,6.23,38.66h-2.67h-3.47h-3.48h-3.47h-3.48c0,1.03-0.01,2.06-0.04,3.1c-0.03,1.03-0.07,2.06-0.13,3.09
				c-0.06,1.03-0.13,2.06-0.22,3.09c-0.09,1.03-0.19,2.05-0.31,3.08c-0.12,1.02-0.25,2.05-0.4,3.07l3.44,0.5l3.44,0.5l3.44,0.5
				l3.44,0.5c0.17-1.15,0.32-2.31,0.45-3.47c0.13-1.16,0.25-2.32,0.35-3.48c0.1-1.16,0.18-2.32,0.25-3.49l-3.47-0.2l-3.47-0.2
				c-0.06,1.1-0.14,2.19-0.24,3.29l3.46,0.3c-0.1,1.13-0.21,2.25-0.34,3.38l-3.45-0.4l-3.45-0.4c0.12-1.06,0.23-2.12,0.32-3.18
				c0.09-1.06,0.17-2.12,0.23-3.19c0.06-1.06,0.11-2.13,0.14-3.19l3.47,0.1l3.47,0.1l3.47,0.1l2.67,0.08
				c-0.39,13.47-2.95,26.41-7.35,38.47l-2.49-0.91l-3.26-1.19l-3.27-1.19l-3.27-1.19l-3.27-1.19c-0.35,0.97-0.72,1.93-1.1,2.89
				c-0.38,0.96-0.78,1.91-1.18,2.86c-0.41,0.95-0.83,1.89-1.27,2.82c-0.44,0.93-0.89,1.86-1.35,2.78c-0.46,0.92-0.94,1.84-1.43,2.74
				l3.06,1.65l3.06,1.65l3.06,1.65l3.06,1.65c0.55-1.03,1.09-2.06,1.62-3.1c0.52-1.04,1.03-2.09,1.53-3.15
				c0.49-1.06,0.97-2.12,1.43-3.19l-3.19-1.38l-3.19-1.38c-0.44,1.01-0.89,2.01-1.35,3.01l3.15,1.47c-0.48,1.03-0.97,2.05-1.48,3.06
				l-3.1-1.56l-3.1-1.56c0.48-0.95,0.94-1.91,1.4-2.87c0.45-0.97,0.89-1.94,1.31-2.91c0.42-0.98,0.83-1.96,1.22-2.95l3.23,1.28
				l3.23,1.28l3.23,1.28l2.46,0.98c-4.9,12.29-11.73,23.61-20.11,33.59l-2-1.68l-2.66-2.23l-2.66-2.24l-2.66-2.23l-2.66-2.23
				c-0.66,0.79-1.34,1.57-2.02,2.34c-0.69,0.77-1.38,1.53-2.09,2.28c-0.71,0.75-1.43,1.49-2.16,2.22c-0.73,0.73-1.47,1.45-2.22,2.16
				c-0.75,0.71-1.51,1.4-2.28,2.09l2.31,2.6l2.31,2.6l2.31,2.59l2.31,2.59c0.87-0.78,1.73-1.56,2.58-2.36
				c0.85-0.8,1.68-1.61,2.51-2.44c0.82-0.82,1.64-1.66,2.44-2.51l-2.53-2.39l-2.53-2.39c-0.75,0.8-1.52,1.59-2.3,2.36l2.46,2.46
				c-0.8,0.8-1.61,1.59-2.44,2.37l-2.38-2.53l-2.39-2.53c0.78-0.73,1.54-1.47,2.29-2.23c0.75-0.75,1.49-1.52,2.23-2.29
				c0.73-0.77,1.45-1.56,2.16-2.36l2.6,2.31l2.59,2.31l2.6,2.31l1.95,1.74C211.15,219.43,200.92,227.81,189.54,234.41z"/>
			<linearGradient id="SVGID_2_" gradientUnits="userSpaceOnUse" x1="7.9229" y1="127.9999" x2="248.2663" y2="127.9999">
				<stop  offset="0" style="stop-color:#B7854D"/>
				<stop  offset="0.1515" style="stop-color:#F5D98F"/>
				<stop  offset="0.303" style="stop-color:#FFF9B3"/>
				<stop  offset="0.5212" style="stop-color:#F4D88E"/>
				<stop  offset="0.6424" style="stop-color:#FEF9B4"/>
				<stop  offset="0.8424" style="stop-color:#D4AF66"/>
				<stop  offset="1" style="stop-color:#B7854D"/>
			</linearGradient>
			<path class="st1" d="M200.91,214.77l-2.23-2.66l-2.24-2.66l-1.66-1.98c2.3-1.94,4.53-3.98,6.67-6.12
				c5.75-5.75,10.75-12.07,14.96-18.89l2.2,1.36l2.96,1.83l2.96,1.83l2.96,1.83c-0.6,0.96-1.2,1.92-1.83,2.86
				c-0.62,0.94-1.26,1.88-1.91,2.81c-0.65,0.93-1.31,1.84-1.99,2.75l-2.79-2.08l-2.79-2.08c0.64-0.85,1.26-1.72,1.87-2.59l2.84,2
				c0.63-0.9,1.25-1.81,1.85-2.73l-2.9-1.91l-2.9-1.91c-0.57,0.86-1.15,1.71-1.74,2.56c-0.59,0.84-1.2,1.68-1.81,2.51
				c-0.62,0.83-1.25,1.65-1.89,2.45l2.72,2.16l2.72,2.16l2.72,2.16l2.72,2.16c0.72-0.91,1.43-1.84,2.13-2.77
				c0.7-0.93,1.38-1.88,2.05-2.83c0.67-0.95,1.32-1.92,1.97-2.89c0.64-0.97,1.27-1.96,1.88-2.95c0.61-0.99,1.21-1.99,1.8-3
				l-3.01-1.74l-3.01-1.74l-3.01-1.74l-3.01-1.74l-2.24-1.3c2.13-3.69,4.04-7.53,5.72-11.49c2.66-6.28,4.67-12.76,6.03-19.38
				l2.54,0.52l3.4,0.7l3.4,0.7l3.4,0.7c-0.23,1.11-0.47,2.21-0.73,3.32c-0.26,1.1-0.54,2.2-0.83,3.29c-0.29,1.09-0.6,2.18-0.92,3.27
				l-3.33-1l-3.33-0.99c0.31-1.02,0.59-2.04,0.87-3.07l3.36,0.9c0.28-1.06,0.55-2.13,0.8-3.19l-3.38-0.8l-3.38-0.8
				c-0.24,1-0.49,2-0.75,3c-0.27,1-0.55,1.99-0.84,2.97c-0.3,0.99-0.6,1.97-0.93,2.95l3.3,1.09l3.3,1.09l3.3,1.09l3.3,1.09
				c0.37-1.11,0.72-2.22,1.05-3.34c0.33-1.12,0.65-2.24,0.95-3.37c0.3-1.13,0.59-2.26,0.85-3.39c0.27-1.14,0.52-2.27,0.75-3.42
				c0.24-1.14,0.45-2.29,0.65-3.44l-3.42-0.6l-3.42-0.6l-3.42-0.6l-3.42-0.6l-2.55-0.45c1.04-5.91,1.56-11.93,1.56-18.03
				c0-5.08-0.36-10.1-1.08-15.05l2.56-0.37l3.44-0.5l3.44-0.5l3.44-0.5c0.16,1.12,0.31,2.24,0.44,3.37
				c0.13,1.13,0.24,2.25,0.34,3.38c0.1,1.13,0.18,2.26,0.24,3.39l-3.47,0.2l-3.47,0.2c-0.06-1.06-0.14-2.13-0.23-3.19l3.46-0.3
				c-0.09-1.09-0.2-2.19-0.33-3.28l-3.45,0.4l-3.45,0.4c0.12,1.02,0.22,2.05,0.31,3.08c0.09,1.03,0.16,2.06,0.22,3.09
				c0.06,1.03,0.1,2.06,0.13,3.09l3.47-0.1l3.47-0.1l3.47-0.1l3.47-0.1c-0.03-1.16-0.08-2.33-0.15-3.49
				c-0.07-1.16-0.15-2.33-0.25-3.49c-0.1-1.16-0.22-2.32-0.35-3.48c-0.13-1.16-0.28-2.31-0.45-3.47c-0.17-1.15-0.35-2.31-0.55-3.45
				l-3.42,0.6l-3.42,0.6l-3.42,0.6l-3.42,0.6l-2.55,0.45c-1.34-7.66-3.54-15.13-6.6-22.35c-1.28-3.03-2.7-5.98-4.25-8.86l2.28-1.23
				l3.06-1.65l3.06-1.65l3.06-1.65c0.54,1,1.06,2,1.57,3.01c0.51,1.01,1,2.03,1.48,3.06c0.48,1.03,0.94,2.06,1.39,3.1l-3.19,1.38
				l-3.19,1.38c-0.42-0.98-0.86-1.95-1.31-2.91l3.15-1.47c-0.47-0.99-0.95-1.98-1.44-2.97l-3.1,1.56l-3.1,1.56
				c0.46,0.92,0.91,1.85,1.35,2.78c0.44,0.93,0.86,1.87,1.27,2.82c0.41,0.95,0.8,1.9,1.18,2.86l3.23-1.28l3.23-1.28l3.23-1.28
				l3.23-1.28c-0.43-1.08-0.88-2.16-1.34-3.23c-0.46-1.07-0.94-2.13-1.43-3.19c-0.49-1.06-1-2.11-1.53-3.15
				c-0.52-1.04-1.06-2.08-1.62-3.1c-0.55-1.03-1.12-2.04-1.71-3.05l-3.01,1.74l-3.01,1.74l-3.01,1.74l-3.01,1.74l-2.24,1.3
				c-4.52-7.82-10.04-15.01-16.51-21.48c-1.43-1.43-2.89-2.81-4.39-4.15l1.72-1.94l2.31-2.59l2.31-2.6l2.31-2.59
				c0.85,0.75,1.68,1.52,2.5,2.3c0.82,0.78,1.64,1.57,2.44,2.37c0.8,0.8,1.59,1.61,2.37,2.44l-2.53,2.39l-2.53,2.38
				c-0.73-0.77-1.47-1.54-2.23-2.29l2.46-2.46c-0.78-0.78-1.57-1.54-2.36-2.3l-2.39,2.53l-2.38,2.53c0.75,0.71,1.49,1.43,2.22,2.16
				c0.73,0.73,1.45,1.47,2.16,2.22c0.71,0.75,1.41,1.51,2.09,2.28l2.59-2.31l2.6-2.31l2.59-2.31l2.6-2.31
				c-0.78-0.87-1.56-1.73-2.36-2.58c-0.8-0.85-1.61-1.68-2.44-2.51c-0.82-0.82-1.66-1.64-2.51-2.44c-0.85-0.8-1.71-1.59-2.58-2.36
				c-0.87-0.78-1.75-1.54-2.64-2.29l-2.23,2.66l-2.24,2.66l-2.23,2.66l-2.24,2.66l-1.66,1.98c-7.92-6.66-16.73-12.06-26.3-16.11
				c-0.69-0.29-1.38-0.57-2.07-0.85l0.96-2.41l1.28-3.23l1.28-3.23l1.28-3.23c1.05,0.42,2.1,0.85,3.14,1.3
				c1.04,0.45,2.07,0.91,3.1,1.39c1.02,0.48,2.04,0.97,3.06,1.48l-1.56,3.1l-1.56,3.1c-0.95-0.48-1.91-0.94-2.87-1.39l1.47-3.15
				c-1-0.46-2-0.91-3.01-1.35l-1.38,3.19l-1.38,3.19c0.95,0.41,1.89,0.83,2.82,1.27c0.93,0.44,1.86,0.89,2.78,1.35
				c0.92,0.46,1.83,0.94,2.74,1.43l1.65-3.06l1.65-3.06l1.65-3.06l1.65-3.06c-1.03-0.55-2.06-1.09-3.1-1.62
				c-1.04-0.52-2.09-1.03-3.15-1.53c-1.06-0.49-2.12-0.97-3.19-1.43c-1.07-0.46-2.15-0.91-3.23-1.34c-1.08-0.43-2.17-0.85-3.27-1.24
				l-1.19,3.27l-1.19,3.26l-1.19,3.27l-1.19,3.27l-0.89,2.44c-10.41-3.79-21.29-5.87-32.46-6.18l0.07-2.59l0.1-3.47l0.1-3.47
				l0.1-3.47c1.13,0.03,2.26,0.08,3.39,0.15c1.13,0.06,2.26,0.15,3.39,0.24c1.13,0.1,2.25,0.21,3.38,0.34l-0.4,3.45l-0.4,3.45
				c-1.06-0.12-2.12-0.23-3.18-0.32l0.3-3.46c-1.09-0.09-2.19-0.17-3.29-0.24l-0.2,3.47l-0.2,3.47c1.03,0.06,2.06,0.13,3.09,0.22
				c1.03,0.09,2.05,0.19,3.08,0.31c1.02,0.12,2.05,0.25,3.07,0.4l0.5-3.44l0.5-3.44l0.5-3.44l0.5-3.44
				c-1.15-0.17-2.31-0.32-3.47-0.45c-1.16-0.13-2.32-0.25-3.48-0.35c-1.16-0.1-2.32-0.18-3.49-0.25c-1.16-0.07-2.33-0.12-3.49-0.15
				c-1.16-0.03-2.33-0.05-3.49-0.05v3.47v3.47v3.47v3.47v2.59c0,0,0,0,0,0c-11.21,0-22.16,1.76-32.64,5.24l-0.82-2.46l-1.09-3.3
				l-1.09-3.3l-1.09-3.3c1.08-0.36,2.16-0.7,3.24-1.02c1.08-0.33,2.17-0.63,3.27-0.93c1.09-0.29,2.19-0.57,3.29-0.83l0.8,3.38
				l0.8,3.38c-1.04,0.24-2.07,0.51-3.1,0.78l-0.9-3.36c-1.06,0.28-2.12,0.58-3.17,0.9l1,3.33l1,3.33c0.99-0.3,1.98-0.58,2.97-0.84
				c1-0.27,2-0.52,3-0.75c1-0.24,2.01-0.46,3.02-0.67l-0.7-3.4l-0.7-3.4l-0.7-3.4l-0.7-3.4c-1.14,0.23-2.28,0.49-3.42,0.75
				c-1.14,0.27-2.27,0.55-3.39,0.85c-1.13,0.3-2.25,0.62-3.37,0.95c-1.12,0.33-2.23,0.68-3.34,1.05c-1.11,0.37-2.21,0.75-3.3,1.15
				l1.19,3.27l1.19,3.26l1.19,3.27l1.19,3.27l0.89,2.44c-1.64,0.6-3.27,1.24-4.89,1.92c-8.64,3.65-16.66,8.41-23.96,14.2l-1.61-2.03
				L60,41.87l-2.16-2.72l-2.16-2.72c0.89-0.7,1.78-1.39,2.69-2.07c0.91-0.68,1.82-1.34,2.75-1.99c0.93-0.65,1.86-1.29,2.81-1.91
				l1.91,2.9l1.91,2.9c-0.89,0.59-1.77,1.18-2.64,1.8l-2-2.85c-0.9,0.63-1.79,1.28-2.67,1.93l2.08,2.79l2.08,2.79
				c0.83-0.62,1.66-1.22,2.51-1.81c0.84-0.59,1.7-1.17,2.56-1.74c0.86-0.57,1.73-1.12,2.61-1.66l-1.83-2.96l-1.83-2.96l-1.83-2.96
				l-1.83-2.96c-0.99,0.61-1.97,1.24-2.95,1.88c-0.97,0.64-1.94,1.3-2.89,1.97c-0.95,0.67-1.9,1.35-2.83,2.05
				c-0.93,0.7-1.86,1.41-2.77,2.13c-0.91,0.72-1.82,1.46-2.71,2.21l2.23,2.66l2.23,2.66l2.24,2.66l2.23,2.66l1.67,1.98
				c-2.3,1.94-4.53,3.98-6.67,6.12C49,60.4,44,66.72,39.78,73.54l-2.2-1.36l-2.96-1.83l-2.96-1.83l-2.96-1.83
				c0.6-0.96,1.2-1.92,1.83-2.86c0.62-0.95,1.26-1.88,1.91-2.81c0.65-0.93,1.31-1.84,1.99-2.75l2.79,2.08l2.79,2.08
				c-0.64,0.85-1.26,1.72-1.87,2.59l-2.85-1.99c-0.63,0.9-1.25,1.81-1.85,2.72l2.9,1.91l2.9,1.91c0.57-0.86,1.15-1.71,1.74-2.56
				c0.59-0.84,1.2-1.68,1.81-2.51c0.62-0.83,1.25-1.64,1.89-2.45l-2.72-2.16l-2.72-2.16l-2.72-2.16l-2.72-2.16
				c-0.72,0.91-1.43,1.84-2.13,2.77c-0.7,0.93-1.38,1.88-2.05,2.83c-0.67,0.95-1.32,1.92-1.97,2.89c-0.64,0.97-1.27,1.96-1.88,2.95
				c-0.61,0.99-1.21,1.99-1.8,3l3.01,1.74l3.01,1.74l3.01,1.74L36,74.84l2.24,1.3c-2.13,3.69-4.04,7.53-5.72,11.49
				c-2.66,6.28-4.67,12.76-6.03,19.38l-2.54-0.52l-3.4-0.7l-3.4-0.7l-3.4-0.7c0.23-1.11,0.47-2.21,0.73-3.32
				c0.26-1.1,0.54-2.2,0.83-3.29c0.29-1.09,0.6-2.18,0.92-3.27l3.33,1l3.33,1c-0.31,1.02-0.59,2.04-0.87,3.07l-3.36-0.9
				c-0.28,1.06-0.55,2.13-0.8,3.2l3.38,0.8l3.38,0.8c0.24-1,0.49-2,0.75-3c0.27-1,0.55-1.99,0.84-2.97c0.3-0.99,0.61-1.97,0.93-2.95
				l-3.3-1.09l-3.3-1.09l-3.3-1.09l-3.3-1.09c-0.37,1.11-0.72,2.22-1.05,3.34c-0.34,1.12-0.65,2.24-0.95,3.37
				c-0.3,1.13-0.59,2.26-0.85,3.39c-0.27,1.14-0.52,2.27-0.75,3.42c-0.23,1.14-0.45,2.29-0.65,3.44l3.42,0.6l3.42,0.6l3.42,0.6
				l3.42,0.6l2.55,0.45c-1.03,5.91-1.56,11.93-1.56,18.03c0,5.08,0.36,10.1,1.08,15.05l-2.56,0.37l-3.44,0.5l-3.44,0.5l-3.44,0.5
				c-0.16-1.12-0.31-2.24-0.44-3.37c-0.13-1.12-0.24-2.25-0.34-3.38c-0.1-1.13-0.18-2.26-0.24-3.39l3.47-0.2l3.47-0.2
				c0.06,1.06,0.14,2.13,0.23,3.19l-3.46,0.3c0.09,1.09,0.2,2.19,0.33,3.28l3.45-0.4l3.45-0.4c-0.12-1.02-0.22-2.05-0.31-3.08
				c-0.09-1.03-0.16-2.06-0.22-3.09c-0.06-1.03-0.1-2.06-0.13-3.09l-3.47,0.1l-3.47,0.1l-3.47,0.1l-3.47,0.1
				c0.03,1.16,0.08,2.33,0.15,3.49c0.07,1.16,0.15,2.33,0.25,3.49c0.1,1.16,0.22,2.32,0.35,3.48c0.13,1.16,0.28,2.32,0.45,3.47
				c0.17,1.15,0.35,2.31,0.55,3.45l3.42-0.6l3.42-0.6l3.42-0.6l3.42-0.6l2.55-0.45c1.34,7.66,3.54,15.13,6.6,22.35
				c1.28,3.03,2.7,5.98,4.25,8.86l-2.28,1.23l-3.06,1.65l-3.06,1.65l-3.06,1.65c-0.54-1-1.06-2-1.57-3.01
				c-0.51-1.01-1-2.03-1.48-3.06c-0.48-1.03-0.94-2.06-1.39-3.1l3.19-1.38l3.19-1.38c0.42,0.98,0.86,1.95,1.31,2.91l-3.15,1.47
				c0.47,0.99,0.95,1.98,1.44,2.97l3.1-1.56l3.1-1.56c-0.46-0.92-0.91-1.85-1.35-2.78c-0.44-0.93-0.86-1.87-1.27-2.82
				c-0.41-0.95-0.8-1.9-1.18-2.86l-3.23,1.28l-3.23,1.28l-3.23,1.28l-3.23,1.28c0.43,1.08,0.88,2.16,1.34,3.23
				c0.46,1.07,0.94,2.13,1.43,3.19c0.49,1.06,1,2.1,1.53,3.15c0.52,1.04,1.06,2.08,1.62,3.1c0.55,1.03,1.12,2.04,1.71,3.05
				l3.01-1.74l3.01-1.74l3.01-1.74l3.01-1.74l2.24-1.3c4.52,7.82,10.04,15.01,16.51,21.48c1.43,1.43,2.89,2.81,4.39,4.15l-1.72,1.93
				l-2.31,2.6l-2.31,2.6l-2.31,2.59c-0.84-0.75-1.68-1.52-2.5-2.3c-0.82-0.78-1.63-1.57-2.44-2.37c-0.8-0.8-1.59-1.61-2.37-2.44
				l2.53-2.39l2.53-2.38c0.73,0.78,1.47,1.54,2.23,2.29L48,208.1c0.78,0.78,1.57,1.54,2.36,2.3l2.38-2.53l2.39-2.53
				c-0.75-0.71-1.49-1.43-2.22-2.16c-0.73-0.73-1.45-1.47-2.16-2.22c-0.71-0.75-1.4-1.51-2.09-2.28l-2.59,2.31l-2.6,2.31l-2.59,2.31
				l-2.59,2.31c0.78,0.87,1.56,1.73,2.36,2.58c0.8,0.85,1.61,1.68,2.44,2.51c0.82,0.82,1.66,1.64,2.51,2.44
				c0.85,0.8,1.71,1.59,2.58,2.36c0.87,0.78,1.75,1.54,2.64,2.29l2.23-2.66l2.23-2.66l2.24-2.66l2.23-2.66l1.66-1.98
				c7.92,6.66,16.73,12.06,26.3,16.11c0.69,0.29,1.38,0.57,2.07,0.85l-0.96,2.41l-1.28,3.23l-1.28,3.23l-1.28,3.23
				c-1.05-0.42-2.1-0.85-3.14-1.3c-1.04-0.45-2.07-0.91-3.1-1.39c-1.03-0.48-2.04-0.97-3.06-1.48l1.56-3.1l1.56-3.1
				c0.95,0.48,1.91,0.94,2.87,1.39l-1.47,3.15c1,0.46,2,0.91,3.01,1.35l1.38-3.19l1.38-3.19c-0.95-0.41-1.89-0.83-2.82-1.27
				c-0.93-0.44-1.86-0.89-2.78-1.35c-0.92-0.46-1.83-0.94-2.74-1.43l-1.65,3.06l-1.65,3.06l-1.65,3.06l-1.65,3.06
				c1.03,0.55,2.06,1.09,3.1,1.62c1.04,0.52,2.09,1.03,3.15,1.53c1.06,0.49,2.12,0.97,3.19,1.43c1.07,0.46,2.15,0.91,3.23,1.34
				c1.08,0.43,2.17,0.85,3.27,1.25l1.19-3.27l1.19-3.27l1.19-3.26l1.19-3.27l0.89-2.44c10.41,3.79,21.29,5.87,32.46,6.18l-0.07,2.59
				l-0.1,3.47l-0.1,3.47l-0.1,3.47c-1.13-0.03-2.26-0.08-3.39-0.15c-1.13-0.06-2.26-0.15-3.39-0.24c-1.13-0.1-2.25-0.21-3.38-0.34
				l0.4-3.45l0.4-3.45c1.06,0.12,2.12,0.23,3.18,0.32l-0.3,3.46c1.09,0.1,2.19,0.17,3.29,0.24l0.2-3.47l0.2-3.47
				c-1.03-0.06-2.06-0.13-3.09-0.22c-1.03-0.09-2.05-0.19-3.08-0.31c-1.02-0.12-2.05-0.25-3.07-0.4l-0.5,3.44l-0.5,3.44l-0.5,3.44
				l-0.5,3.44c1.15,0.17,2.31,0.32,3.47,0.45c1.16,0.14,2.32,0.25,3.48,0.35c1.16,0.1,2.32,0.18,3.49,0.25
				c1.16,0.07,2.33,0.12,3.49,0.15c1.16,0.03,2.33,0.05,3.49,0.05v-3.47v-3.48v-3.47v-3.47v-2.59c11.21,0,22.16-1.76,32.64-5.24
				l0.82,2.46l1.09,3.3l1.09,3.3l1.09,3.3c-1.07,0.36-2.16,0.7-3.24,1.02c-1.08,0.33-2.17,0.63-3.27,0.93
				c-1.09,0.29-2.19,0.57-3.29,0.83l-0.8-3.38l-0.8-3.38c1.04-0.24,2.07-0.5,3.1-0.78l0.9,3.36c1.06-0.28,2.12-0.58,3.17-0.9
				l-1-3.33l-1-3.33c-0.99,0.3-1.98,0.58-2.97,0.84c-1,0.27-2,0.52-3,0.75c-1,0.24-2.01,0.46-3.02,0.67l0.7,3.4l0.7,3.4l0.7,3.4
				l0.7,3.4c1.14-0.24,2.28-0.49,3.42-0.75c1.13-0.27,2.27-0.55,3.39-0.85c1.13-0.3,2.25-0.62,3.37-0.95
				c1.12-0.33,2.23-0.68,3.34-1.05c1.11-0.37,2.21-0.75,3.31-1.15l-1.19-3.27l-1.19-3.27l-1.19-3.26l-1.19-3.27l-0.89-2.44
				c1.64-0.6,3.27-1.24,4.89-1.92c8.64-3.65,16.66-8.41,23.96-14.2l1.61,2.03l2.16,2.72l2.16,2.72l2.16,2.72
				c-0.89,0.7-1.79,1.39-2.69,2.07c-0.91,0.68-1.82,1.34-2.75,1.99c-0.93,0.65-1.86,1.29-2.81,1.91l-1.91-2.9l-1.91-2.9
				c0.89-0.59,1.77-1.19,2.64-1.8l2,2.84c0.9-0.63,1.79-1.27,2.67-1.93l-2.08-2.79l-2.08-2.79c-0.83,0.62-1.66,1.22-2.51,1.81
				c-0.84,0.59-1.7,1.17-2.56,1.74c-0.86,0.57-1.73,1.12-2.61,1.66l1.83,2.96l1.83,2.96l1.83,2.95l1.83,2.96
				c0.99-0.61,1.98-1.24,2.95-1.88c0.97-0.64,1.94-1.3,2.89-1.97c0.95-0.67,1.9-1.35,2.83-2.05c0.93-0.7,1.86-1.41,2.77-2.13
				c0.91-0.72,1.82-1.46,2.71-2.21l-2.23-2.66L200.91,214.77z M128.09,228.69C72.57,228.69,27.4,183.52,27.4,128
				c0-55.52,45.17-100.69,100.69-100.69c55.52,0,100.69,45.17,100.69,100.69C228.78,183.52,183.62,228.69,128.09,228.69z"/>
		</g>
		<linearGradient id="SVGID_3_" gradientUnits="userSpaceOnUse" x1="52.9692" y1="115.0028" x2="203.2204" y2="115.0028">
			<stop  offset="0" style="stop-color:#B7854D"/>
			<stop  offset="0.1515" style="stop-color:#F5D98F"/>
			<stop  offset="0.303" style="stop-color:#FFF9B3"/>
			<stop  offset="0.5212" style="stop-color:#F4D88E"/>
			<stop  offset="0.6424" style="stop-color:#FEF9B4"/>
			<stop  offset="0.8424" style="stop-color:#D4AF66"/>
			<stop  offset="1" style="stop-color:#B7854D"/>
		</linearGradient>
		<polygon class="st2" points="128.09,48.46 52.97,181.54 64.2,181.54 73.06,181.54 78.62,181.54 93.03,181.54 83.04,163.86 
			128.09,84.04 173.15,163.86 163.16,181.54 177.57,181.54 183.13,181.54 191.99,181.54 203.22,181.54 		"/>
	</g>
</g>
</svg>
