<?xml version="1.0" encoding="utf-8"?>
<!-- Generator: Adobe Illustrator 25.0.0, SVG Export Plug-In . SVG Version: 6.00 Build 0)  -->
<svg version="1.1" xmlns="http://www.w3.org/2000/svg" xmlns:xlink="http://www.w3.org/1999/xlink" x="0px" y="0px"
	 viewBox="0 0 32 32" style="enable-background:new 0 0 32 32;" xml:space="preserve">
<style type="text/css">
	.st0{fill:url(#SVGID_1_);}
	.st1{fill:url(#SVGID_2_);}
	.st2{fill:url(#SVGID_3_);}
</style>
<g id="Layer_2">
</g>
<g id="Layer_3">
</g>
<g id="Layer_1">
	<g>
		<g>
			<linearGradient id="SVGID_1_" gradientUnits="userSpaceOnUse" x1="0.3886" y1="16.0002" x2="31.801" y2="16.0002">
				<stop  offset="0" style="stop-color:#B7854D"/>
				<stop  offset="0.1515" style="stop-color:#F5D98F"/>
				<stop  offset="0.303" style="stop-color:#FFF9B3"/>
				<stop  offset="0.5212" style="stop-color:#F4D88E"/>
				<stop  offset="0.6424" style="stop-color:#FEF9B4"/>
				<stop  offset="0.8424" style="stop-color:#D4AF66"/>
				<stop  offset="1" style="stop-color:#B7854D"/>
			</linearGradient>
			<path class="st0" d="M30.57,9.89c-0.79-1.87-1.92-3.55-3.37-4.99c-1.44-1.44-3.12-2.57-4.99-3.37c-1.94-0.82-3.99-1.23-6.11-1.23
				c-2.12,0-4.18,0.42-6.11,1.23C8.11,2.32,6.43,3.45,4.99,4.89C3.55,6.34,2.41,8.02,1.62,9.89C0.8,11.82,0.39,13.88,0.39,16
				c0,2.12,0.42,4.18,1.23,6.11c0.79,1.87,1.92,3.55,3.37,4.99c1.44,1.44,3.12,2.57,4.99,3.37c1.94,0.82,3.99,1.23,6.11,1.23
				c2.12,0,4.18-0.42,6.11-1.23c1.87-0.79,3.55-1.92,4.99-3.37c1.44-1.44,2.57-3.12,3.37-4.99c0.82-1.94,1.23-3.99,1.23-6.11
				C31.8,13.88,31.39,11.82,30.57,9.89z M23.76,29.27l-0.16-0.28l-0.22-0.37l-0.22-0.38l-0.22-0.38l-0.22-0.38
				c-0.11,0.06-0.22,0.13-0.34,0.19c-0.11,0.06-0.23,0.12-0.34,0.18c-0.11,0.06-0.23,0.11-0.35,0.17c-0.12,0.05-0.23,0.11-0.35,0.16
				c-0.12,0.05-0.24,0.1-0.36,0.15l0.16,0.4l0.16,0.4l0.16,0.4l0.16,0.4c0.14-0.05,0.27-0.11,0.4-0.17c0.13-0.06,0.27-0.12,0.4-0.18
				c0.13-0.06,0.26-0.13,0.39-0.19l-0.19-0.39l-0.19-0.39c-0.12,0.06-0.25,0.12-0.37,0.18l0.18,0.39c-0.13,0.06-0.26,0.12-0.39,0.17
				l-0.17-0.4l-0.17-0.4c0.12-0.05,0.24-0.11,0.36-0.16c0.12-0.06,0.24-0.11,0.36-0.17c0.12-0.06,0.24-0.12,0.35-0.18l0.21,0.38
				l0.21,0.38l0.21,0.38l0.16,0.29c-1.42,0.77-2.97,1.32-4.61,1.61l-0.06-0.33l-0.07-0.43l-0.07-0.43l-0.07-0.43l-0.07-0.43
				c-0.13,0.02-0.25,0.04-0.38,0.06c-0.13,0.02-0.25,0.04-0.38,0.05c-0.13,0.01-0.26,0.03-0.38,0.04c-0.13,0.01-0.26,0.02-0.38,0.03
				c-0.13,0.01-0.26,0.01-0.39,0.02l0.01,0.43l0.01,0.43l0.01,0.43l0.01,0.43c0.15,0,0.29-0.01,0.44-0.02
				c0.15-0.01,0.29-0.02,0.43-0.03c0.14-0.01,0.29-0.03,0.43-0.04l-0.05-0.43l-0.05-0.43c-0.14,0.02-0.27,0.03-0.41,0.04l0.04,0.43
				c-0.14,0.01-0.28,0.02-0.42,0.03l-0.02-0.43l-0.02-0.43c0.13-0.01,0.27-0.02,0.4-0.03c0.13-0.01,0.26-0.02,0.4-0.04
				c0.13-0.02,0.26-0.03,0.4-0.05l0.06,0.43l0.06,0.43l0.06,0.43l0.05,0.33c-0.73,0.11-1.47,0.16-2.22,0.16
				c-0.91,0-1.8-0.08-2.66-0.23l0.06-0.33l0.07-0.43l0.07-0.43l0.07-0.43l0.07-0.43c-0.13-0.02-0.25-0.05-0.38-0.07
				c-0.13-0.03-0.25-0.05-0.38-0.08c-0.13-0.03-0.25-0.06-0.37-0.09c-0.12-0.03-0.25-0.07-0.37-0.11c-0.12-0.04-0.25-0.08-0.37-0.12
				L11.79,29l-0.14,0.41l-0.14,0.41l-0.14,0.41c0.14,0.05,0.28,0.09,0.42,0.13c0.14,0.04,0.28,0.08,0.42,0.12
				c0.14,0.04,0.28,0.07,0.42,0.11l0.1-0.42l0.1-0.42c-0.13-0.03-0.27-0.06-0.4-0.1l-0.11,0.42c-0.14-0.04-0.27-0.07-0.41-0.12
				l0.12-0.42l0.12-0.42c0.13,0.04,0.25,0.07,0.38,0.11c0.13,0.03,0.26,0.07,0.39,0.1c0.13,0.03,0.26,0.06,0.39,0.09l-0.09,0.42
				l-0.09,0.42l-0.09,0.42L13,31.01c-1.63-0.34-3.17-0.93-4.56-1.74l0.16-0.28l0.22-0.37l0.22-0.38l0.22-0.38l0.22-0.38
				c-0.11-0.06-0.22-0.13-0.33-0.2c-0.11-0.07-0.22-0.14-0.33-0.21c-0.11-0.07-0.21-0.14-0.32-0.22c-0.11-0.07-0.21-0.15-0.31-0.23
				c-0.1-0.08-0.21-0.16-0.31-0.24L7.6,26.74l-0.27,0.34l-0.27,0.34l-0.27,0.34c0.11,0.09,0.23,0.18,0.35,0.27
				c0.12,0.09,0.23,0.17,0.35,0.26c0.12,0.08,0.24,0.17,0.36,0.25l0.24-0.36l0.24-0.36c-0.11-0.08-0.23-0.15-0.34-0.23l-0.25,0.35
				c-0.12-0.08-0.23-0.16-0.34-0.25l0.26-0.35l0.26-0.35c0.11,0.08,0.21,0.16,0.32,0.23c0.11,0.08,0.22,0.15,0.33,0.22
				c0.11,0.07,0.22,0.14,0.34,0.21l-0.23,0.37l-0.23,0.37l-0.23,0.37l-0.17,0.28c-1.39-0.86-2.64-1.94-3.69-3.19l0.25-0.21
				l0.33-0.28l0.33-0.28L5.6,24.8l0.33-0.28c-0.08-0.1-0.16-0.2-0.24-0.3c-0.08-0.1-0.16-0.2-0.24-0.31
				c-0.08-0.1-0.15-0.21-0.23-0.31c-0.07-0.11-0.15-0.21-0.22-0.32c-0.07-0.11-0.14-0.22-0.21-0.32l-0.37,0.23l-0.37,0.23L3.7,23.65
				l-0.37,0.23c0.08,0.12,0.15,0.25,0.23,0.37c0.08,0.12,0.16,0.24,0.25,0.36c0.08,0.12,0.17,0.24,0.26,0.35l0.35-0.26l0.35-0.26
				c-0.08-0.11-0.16-0.22-0.24-0.33l-0.35,0.25C4.09,24.24,4.01,24.12,3.93,24l0.36-0.24l0.36-0.24c0.07,0.11,0.15,0.22,0.22,0.33
				c0.08,0.11,0.15,0.22,0.23,0.32c0.08,0.11,0.16,0.21,0.24,0.32l-0.34,0.27l-0.34,0.27L4.33,25.3l-0.26,0.2
				c-1.01-1.27-1.82-2.71-2.39-4.26L2,21.13l0.41-0.15l0.41-0.15l0.41-0.15l0.41-0.15c-0.04-0.12-0.09-0.24-0.13-0.36
				c-0.04-0.12-0.08-0.24-0.12-0.37c-0.04-0.12-0.07-0.25-0.1-0.37c-0.03-0.12-0.06-0.25-0.09-0.37c-0.03-0.13-0.06-0.25-0.08-0.38
				l-0.42,0.09l-0.42,0.09l-0.42,0.09l-0.42,0.09c0.03,0.14,0.06,0.28,0.09,0.43c0.03,0.14,0.07,0.28,0.11,0.42
				c0.04,0.14,0.08,0.28,0.12,0.42l0.42-0.12l0.42-0.12c-0.04-0.13-0.08-0.26-0.11-0.4l-0.42,0.11c-0.04-0.14-0.07-0.27-0.1-0.41
				l0.42-0.1l0.42-0.1c0.03,0.13,0.06,0.26,0.1,0.39c0.03,0.13,0.07,0.26,0.11,0.38c0.04,0.13,0.08,0.25,0.12,0.38l-0.41,0.14
				l-0.41,0.14l-0.41,0.14l-0.31,0.1C1.04,19.3,0.77,17.68,0.77,16l0,0H1.1h0.43h0.43H2.4h0.43c0-0.13,0-0.26,0.01-0.39
				c0-0.13,0.01-0.26,0.02-0.39c0.01-0.13,0.02-0.26,0.03-0.39c0.01-0.13,0.02-0.26,0.04-0.38c0.01-0.13,0.03-0.26,0.05-0.38
				l-0.43-0.06l-0.43-0.06l-0.43-0.06l-0.43-0.06c-0.02,0.14-0.04,0.29-0.06,0.43c-0.02,0.14-0.03,0.29-0.04,0.43
				c-0.01,0.14-0.02,0.29-0.03,0.43l0.43,0.02l0.43,0.02c0.01-0.14,0.02-0.27,0.03-0.41l-0.43-0.04c0.01-0.14,0.03-0.28,0.04-0.42
				l0.43,0.05l0.43,0.05c-0.02,0.13-0.03,0.26-0.04,0.4c-0.01,0.13-0.02,0.26-0.03,0.4c-0.01,0.13-0.01,0.27-0.02,0.4l-0.43-0.01
				l-0.43-0.01l-0.43-0.01l-0.33-0.01c0.05-1.68,0.37-3.29,0.92-4.8L2,10.87l0.41,0.15l0.41,0.15l0.41,0.15l0.41,0.15
				c0.04-0.12,0.09-0.24,0.14-0.36c0.05-0.12,0.1-0.24,0.15-0.36c0.05-0.12,0.1-0.24,0.16-0.35c0.05-0.12,0.11-0.23,0.17-0.35
				C4.3,9.93,4.36,9.82,4.42,9.71L4.04,9.5L3.66,9.29L3.28,9.09L2.9,8.88c-0.07,0.13-0.14,0.26-0.2,0.39
				C2.63,9.4,2.56,9.53,2.5,9.66c-0.06,0.13-0.12,0.26-0.18,0.4l0.4,0.17l0.4,0.17c0.05-0.13,0.11-0.25,0.17-0.37L2.9,9.85
				c0.06-0.13,0.12-0.26,0.18-0.38l0.39,0.19l0.39,0.19c-0.06,0.12-0.12,0.24-0.17,0.36c-0.06,0.12-0.11,0.24-0.16,0.36
				c-0.05,0.12-0.1,0.24-0.15,0.37l-0.4-0.16l-0.4-0.16l-0.4-0.16l-0.31-0.12C2.46,8.81,3.31,7.4,4.36,6.15l0.25,0.21l0.33,0.28
				l0.33,0.28L5.6,7.2l0.33,0.28c0.08-0.1,0.17-0.2,0.25-0.29c0.09-0.1,0.17-0.19,0.26-0.28c0.09-0.09,0.18-0.19,0.27-0.28
				C6.81,6.53,6.9,6.44,7,6.35c0.09-0.09,0.19-0.18,0.28-0.26L6.99,5.77L6.7,5.45L6.42,5.12L6.13,4.8C6.02,4.9,5.91,4.99,5.81,5.09
				C5.7,5.19,5.6,5.3,5.49,5.4c-0.1,0.1-0.2,0.21-0.3,0.31l0.32,0.3l0.32,0.3c0.09-0.1,0.19-0.2,0.29-0.29L5.8,5.7
				c0.1-0.1,0.2-0.2,0.3-0.3l0.3,0.32l0.3,0.32C6.6,6.13,6.51,6.22,6.41,6.32C6.32,6.41,6.23,6.51,6.13,6.6
				C6.04,6.7,5.95,6.8,5.87,6.9L5.54,6.61L5.22,6.32L4.89,6.03L4.65,5.82C5.74,4.6,7.01,3.55,8.43,2.73L8.6,3.01l0.22,0.38
				l0.22,0.38l0.22,0.38l0.22,0.38C9.58,4.45,9.69,4.39,9.8,4.33c0.11-0.06,0.23-0.12,0.34-0.18c0.11-0.06,0.23-0.11,0.35-0.17
				c0.12-0.05,0.23-0.11,0.35-0.16c0.12-0.05,0.24-0.1,0.36-0.15l-0.16-0.4l-0.16-0.4l-0.16-0.4l-0.16-0.4
				c-0.14,0.05-0.27,0.11-0.4,0.17c-0.13,0.06-0.27,0.12-0.4,0.18C9.62,2.47,9.49,2.53,9.36,2.6l0.19,0.39l0.19,0.39
				C9.88,3.31,10,3.25,10.12,3.19L9.94,2.8c0.13-0.06,0.26-0.12,0.39-0.17l0.17,0.4l0.17,0.4c-0.12,0.05-0.24,0.11-0.36,0.16
				c-0.12,0.06-0.24,0.11-0.36,0.17C9.83,3.82,9.71,3.88,9.6,3.94L9.39,3.56L9.18,3.18L8.98,2.8L8.82,2.51
				c1.42-0.77,2.97-1.32,4.61-1.61l0.06,0.33l0.07,0.43l0.07,0.43l0.07,0.43l0.07,0.43c0.13-0.02,0.25-0.04,0.38-0.06
				c0.13-0.02,0.25-0.04,0.38-0.05c0.13-0.01,0.26-0.03,0.38-0.04c0.13-0.01,0.26-0.02,0.38-0.03c0.13-0.01,0.26-0.01,0.39-0.02
				L15.7,2.31l-0.01-0.43l-0.01-0.43l-0.01-0.43c-0.15,0-0.29,0.01-0.44,0.02c-0.15,0.01-0.29,0.02-0.43,0.03
				c-0.14,0.01-0.29,0.03-0.43,0.04l0.05,0.43l0.05,0.43c0.14-0.02,0.27-0.03,0.41-0.04l-0.04-0.43c0.14-0.01,0.28-0.02,0.42-0.03
				l0.02,0.43l0.02,0.43c-0.13,0.01-0.27,0.02-0.4,0.03c-0.13,0.01-0.26,0.02-0.4,0.04c-0.13,0.02-0.26,0.03-0.4,0.05l-0.06-0.43
				l-0.06-0.43l-0.06-0.43l-0.05-0.33c0.73-0.11,1.47-0.16,2.22-0.16c0.91,0,1.8,0.08,2.66,0.23L18.7,1.23l-0.07,0.43l-0.07,0.43
				l-0.07,0.43L18.4,2.94c0.13,0.02,0.25,0.05,0.38,0.07c0.13,0.03,0.25,0.05,0.38,0.08c0.13,0.03,0.25,0.06,0.37,0.09
				c0.12,0.03,0.25,0.07,0.37,0.1c0.12,0.04,0.25,0.08,0.37,0.12L20.4,3l0.14-0.41l0.14-0.41l0.14-0.41
				c-0.14-0.05-0.28-0.09-0.42-0.13c-0.14-0.04-0.28-0.08-0.42-0.12c-0.14-0.04-0.28-0.07-0.42-0.11l-0.1,0.42l-0.1,0.42
				c0.13,0.03,0.27,0.07,0.4,0.1l0.11-0.42c0.14,0.04,0.27,0.07,0.41,0.12l-0.12,0.42l-0.12,0.42c-0.13-0.04-0.25-0.07-0.38-0.11
				c-0.13-0.03-0.26-0.07-0.39-0.1C19.12,2.64,19,2.61,18.87,2.59l0.09-0.42l0.09-0.42l0.09-0.42l0.07-0.33
				c1.63,0.34,3.17,0.93,4.56,1.74l-0.16,0.28l-0.22,0.38l-0.22,0.38l-0.22,0.38l-0.22,0.38c0.11,0.06,0.22,0.13,0.33,0.2
				c0.11,0.07,0.22,0.14,0.33,0.21c0.11,0.07,0.21,0.14,0.32,0.22c0.11,0.07,0.21,0.15,0.31,0.23c0.1,0.08,0.21,0.16,0.31,0.24
				l0.27-0.34l0.27-0.34l0.27-0.34l0.27-0.34c-0.11-0.09-0.23-0.18-0.35-0.27c-0.12-0.09-0.23-0.17-0.35-0.26
				c-0.12-0.08-0.24-0.17-0.36-0.25L24.1,3.83L23.86,4.2c0.11,0.08,0.23,0.15,0.34,0.23l0.25-0.35c0.12,0.08,0.23,0.16,0.34,0.25
				l-0.26,0.35l-0.26,0.35c-0.11-0.08-0.21-0.16-0.32-0.23c-0.11-0.08-0.22-0.15-0.33-0.22c-0.11-0.07-0.22-0.14-0.34-0.21
				l0.23-0.37l0.23-0.37l0.23-0.37l0.17-0.28c1.39,0.86,2.64,1.94,3.69,3.19l-0.25,0.21l-0.33,0.28l-0.33,0.28L26.59,7.2l-0.33,0.28
				c0.08,0.1,0.16,0.2,0.24,0.3c0.08,0.1,0.16,0.2,0.24,0.31c0.08,0.1,0.15,0.21,0.23,0.31c0.07,0.11,0.15,0.21,0.22,0.32
				c0.07,0.11,0.14,0.22,0.21,0.33l0.37-0.23l0.37-0.23l0.37-0.23l0.37-0.23C28.78,8,28.7,7.88,28.62,7.76
				c-0.08-0.12-0.16-0.24-0.25-0.36c-0.08-0.12-0.17-0.24-0.26-0.35L27.77,7.3l-0.35,0.26c0.08,0.11,0.16,0.22,0.24,0.33l0.35-0.25
				C28.1,7.76,28.18,7.88,28.26,8L27.9,8.24l-0.36,0.24c-0.07-0.11-0.15-0.22-0.22-0.33c-0.08-0.11-0.15-0.22-0.23-0.32
				C27,7.72,26.92,7.61,26.84,7.51l0.34-0.27l0.34-0.27l0.34-0.27l0.26-0.2c1.01,1.27,1.82,2.71,2.39,4.26l-0.31,0.11l-0.41,0.15
				l-0.41,0.15l-0.41,0.15l-0.41,0.15c0.04,0.12,0.09,0.24,0.13,0.36c0.04,0.12,0.08,0.24,0.12,0.37c0.04,0.12,0.07,0.25,0.11,0.37
				c0.03,0.12,0.06,0.25,0.09,0.37c0.03,0.13,0.06,0.25,0.08,0.38l0.42-0.09l0.42-0.09l0.42-0.09l0.42-0.09
				c-0.03-0.14-0.06-0.28-0.09-0.43c-0.03-0.14-0.07-0.28-0.11-0.42c-0.04-0.14-0.08-0.28-0.12-0.42l-0.42,0.12l-0.42,0.12
				c0.04,0.13,0.08,0.26,0.11,0.4l0.42-0.11c0.04,0.14,0.07,0.27,0.1,0.41l-0.42,0.1l-0.42,0.1c-0.03-0.13-0.06-0.26-0.1-0.39
				c-0.03-0.13-0.07-0.26-0.11-0.38c-0.04-0.13-0.08-0.25-0.12-0.38l0.41-0.14l0.41-0.14l0.41-0.14l0.31-0.1
				c0.5,1.52,0.78,3.14,0.78,4.82h-0.33h-0.43h-0.43h-0.43h-0.43c0,0.13,0,0.26-0.01,0.39c0,0.13-0.01,0.26-0.02,0.39
				c-0.01,0.13-0.02,0.26-0.03,0.38c-0.01,0.13-0.02,0.26-0.04,0.38c-0.01,0.13-0.03,0.26-0.05,0.38l0.43,0.06l0.43,0.06l0.43,0.06
				l0.43,0.06c0.02-0.14,0.04-0.29,0.06-0.43c0.02-0.14,0.03-0.29,0.04-0.43c0.01-0.14,0.02-0.29,0.03-0.43l-0.43-0.02l-0.43-0.02
				c-0.01,0.14-0.02,0.27-0.03,0.41l0.43,0.04c-0.01,0.14-0.03,0.28-0.04,0.42l-0.43-0.05l-0.43-0.05c0.02-0.13,0.03-0.26,0.04-0.4
				c0.01-0.13,0.02-0.26,0.03-0.4c0.01-0.13,0.01-0.27,0.02-0.4l0.43,0.01l0.43,0.01l0.43,0.01l0.33,0.01
				c-0.05,1.68-0.37,3.29-0.92,4.8l-0.31-0.11l-0.41-0.15l-0.41-0.15l-0.41-0.15l-0.41-0.15c-0.04,0.12-0.09,0.24-0.14,0.36
				c-0.05,0.12-0.1,0.24-0.15,0.36c-0.05,0.12-0.1,0.24-0.16,0.35c-0.05,0.12-0.11,0.23-0.17,0.35c-0.06,0.11-0.12,0.23-0.18,0.34
				l0.38,0.21l0.38,0.21l0.38,0.21l0.38,0.21c0.07-0.13,0.14-0.26,0.2-0.39c0.07-0.13,0.13-0.26,0.19-0.39
				c0.06-0.13,0.12-0.26,0.18-0.4l-0.4-0.17l-0.4-0.17c-0.05,0.13-0.11,0.25-0.17,0.37l0.39,0.18c-0.06,0.13-0.12,0.26-0.18,0.38
				l-0.39-0.19l-0.39-0.19c0.06-0.12,0.12-0.24,0.17-0.36c0.06-0.12,0.11-0.24,0.16-0.36c0.05-0.12,0.1-0.24,0.15-0.37l0.4,0.16
				l0.4,0.16l0.4,0.16l0.31,0.12c-0.61,1.53-1.46,2.94-2.51,4.19l-0.25-0.21l-0.33-0.28l-0.33-0.28l-0.33-0.28l-0.33-0.28
				c-0.08,0.1-0.17,0.2-0.25,0.29c-0.09,0.1-0.17,0.19-0.26,0.28c-0.09,0.09-0.18,0.19-0.27,0.28c-0.09,0.09-0.18,0.18-0.28,0.27
				c-0.09,0.09-0.19,0.18-0.28,0.26l0.29,0.32l0.29,0.32l0.29,0.32l0.29,0.32c0.11-0.1,0.22-0.19,0.32-0.29
				c0.11-0.1,0.21-0.2,0.31-0.3c0.1-0.1,0.2-0.21,0.3-0.31l-0.32-0.3l-0.32-0.3c-0.09,0.1-0.19,0.2-0.29,0.29l0.31,0.31
				c-0.1,0.1-0.2,0.2-0.3,0.3l-0.3-0.32l-0.3-0.32c0.1-0.09,0.19-0.18,0.29-0.28c0.09-0.09,0.19-0.19,0.28-0.29
				c0.09-0.1,0.18-0.19,0.27-0.29l0.32,0.29l0.32,0.29l0.32,0.29l0.24,0.22C26.45,27.4,25.18,28.45,23.76,29.27z"/>
			<linearGradient id="SVGID_2_" gradientUnits="userSpaceOnUse" x1="1.1075" y1="16.0002" x2="31.0821" y2="16.0002">
				<stop  offset="0" style="stop-color:#B7854D"/>
				<stop  offset="0.1515" style="stop-color:#F5D98F"/>
				<stop  offset="0.303" style="stop-color:#FFF9B3"/>
				<stop  offset="0.5212" style="stop-color:#F4D88E"/>
				<stop  offset="0.6424" style="stop-color:#FEF9B4"/>
				<stop  offset="0.8424" style="stop-color:#D4AF66"/>
				<stop  offset="1" style="stop-color:#B7854D"/>
			</linearGradient>
			<path class="st1" d="M25.18,26.82l-0.28-0.33l-0.28-0.33l-0.21-0.25c0.29-0.24,0.56-0.5,0.83-0.76c0.72-0.72,1.34-1.51,1.87-2.36
				l0.27,0.17l0.37,0.23l0.37,0.23l0.37,0.23c-0.07,0.12-0.15,0.24-0.23,0.36c-0.08,0.12-0.16,0.23-0.24,0.35
				c-0.08,0.12-0.16,0.23-0.25,0.34l-0.35-0.26l-0.35-0.26c0.08-0.11,0.16-0.21,0.23-0.32l0.35,0.25c0.08-0.11,0.16-0.23,0.23-0.34
				l-0.36-0.24l-0.36-0.24c-0.07,0.11-0.14,0.21-0.22,0.32c-0.07,0.11-0.15,0.21-0.23,0.31c-0.08,0.1-0.16,0.21-0.24,0.31l0.34,0.27
				l0.34,0.27l0.34,0.27l0.34,0.27c0.09-0.11,0.18-0.23,0.27-0.35c0.09-0.12,0.17-0.23,0.26-0.35c0.08-0.12,0.17-0.24,0.25-0.36
				c0.08-0.12,0.16-0.24,0.23-0.37c0.08-0.12,0.15-0.25,0.22-0.37l-0.38-0.22l-0.38-0.22l-0.38-0.22l-0.38-0.22l-0.28-0.16
				c0.27-0.46,0.5-0.94,0.71-1.43c0.33-0.78,0.58-1.59,0.75-2.42l0.32,0.06l0.42,0.09l0.42,0.09l0.42,0.09
				c-0.03,0.14-0.06,0.28-0.09,0.41c-0.03,0.14-0.07,0.27-0.1,0.41c-0.04,0.14-0.07,0.27-0.12,0.41l-0.42-0.12l-0.42-0.12
				c0.04-0.13,0.07-0.26,0.11-0.38l0.42,0.11c0.04-0.13,0.07-0.27,0.1-0.4l-0.42-0.1L29,19.06c-0.03,0.13-0.06,0.25-0.09,0.37
				c-0.03,0.12-0.07,0.25-0.11,0.37c-0.04,0.12-0.08,0.25-0.12,0.37l0.41,0.14l0.41,0.14l0.41,0.14l0.41,0.14
				c0.05-0.14,0.09-0.28,0.13-0.42c0.04-0.14,0.08-0.28,0.12-0.42c0.04-0.14,0.07-0.28,0.11-0.42c0.03-0.14,0.06-0.28,0.09-0.43
				c0.03-0.14,0.06-0.29,0.08-0.43l-0.43-0.07l-0.43-0.07l-0.43-0.07l-0.43-0.07l-0.32-0.06c0.13-0.74,0.19-1.49,0.19-2.25
				c0-0.63-0.05-1.26-0.13-1.88l0.32-0.05l0.43-0.06l0.43-0.06l0.43-0.06c0.02,0.14,0.04,0.28,0.05,0.42
				c0.02,0.14,0.03,0.28,0.04,0.42c0.01,0.14,0.02,0.28,0.03,0.42l-0.43,0.02l-0.43,0.02c-0.01-0.13-0.02-0.27-0.03-0.4l0.43-0.04
				c-0.01-0.14-0.03-0.27-0.04-0.41l-0.43,0.05l-0.43,0.05c0.01,0.13,0.03,0.26,0.04,0.38c0.01,0.13,0.02,0.26,0.03,0.39
				c0.01,0.13,0.01,0.26,0.02,0.39l0.43-0.01l0.43-0.01l0.43-0.01l0.43-0.01c0-0.15-0.01-0.29-0.02-0.44
				c-0.01-0.15-0.02-0.29-0.03-0.43c-0.01-0.14-0.03-0.29-0.04-0.43c-0.02-0.14-0.04-0.29-0.06-0.43c-0.02-0.14-0.04-0.29-0.07-0.43
				l-0.43,0.07l-0.43,0.07l-0.43,0.07l-0.43,0.07l-0.32,0.06c-0.17-0.96-0.44-1.89-0.82-2.79c-0.16-0.38-0.34-0.75-0.53-1.1
				l0.28-0.15l0.38-0.21l0.38-0.21l0.38-0.21c0.07,0.12,0.13,0.25,0.2,0.38c0.06,0.13,0.12,0.25,0.18,0.38
				c0.06,0.13,0.12,0.26,0.17,0.39l-0.4,0.17l-0.4,0.17c-0.05-0.12-0.11-0.24-0.16-0.36l0.39-0.18c-0.06-0.12-0.12-0.25-0.18-0.37
				l-0.39,0.19l-0.39,0.19c0.06,0.11,0.11,0.23,0.17,0.35c0.05,0.12,0.11,0.23,0.16,0.35c0.05,0.12,0.1,0.24,0.15,0.36l0.4-0.16
				l0.4-0.16l0.4-0.16l0.4-0.16c-0.05-0.14-0.11-0.27-0.17-0.4c-0.06-0.13-0.12-0.27-0.18-0.4c-0.06-0.13-0.13-0.26-0.19-0.39
				c-0.07-0.13-0.13-0.26-0.2-0.39c-0.07-0.13-0.14-0.25-0.21-0.38l-0.38,0.22l-0.38,0.22l-0.38,0.22l-0.38,0.22L27.3,9.53
				c-0.56-0.98-1.25-1.87-2.06-2.68c-0.18-0.18-0.36-0.35-0.55-0.52l0.21-0.24l0.29-0.32l0.29-0.32l0.29-0.32
				c0.11,0.09,0.21,0.19,0.31,0.29c0.1,0.1,0.2,0.2,0.3,0.3c0.1,0.1,0.2,0.2,0.3,0.3l-0.32,0.3l-0.32,0.3
				c-0.09-0.1-0.18-0.19-0.28-0.29l0.31-0.31c-0.1-0.1-0.2-0.19-0.29-0.29l-0.3,0.32l-0.3,0.32c0.09,0.09,0.19,0.18,0.28,0.27
				c0.09,0.09,0.18,0.18,0.27,0.28c0.09,0.09,0.18,0.19,0.26,0.28l0.32-0.29l0.32-0.29l0.32-0.29l0.32-0.29
				C27.2,5.92,27.1,5.82,27,5.71c-0.1-0.11-0.2-0.21-0.3-0.31c-0.1-0.1-0.21-0.2-0.31-0.3c-0.11-0.1-0.21-0.2-0.32-0.29
				c-0.11-0.1-0.22-0.19-0.33-0.29l-0.28,0.33l-0.28,0.33L24.9,5.51l-0.28,0.33l-0.21,0.25c-0.99-0.83-2.09-1.5-3.28-2.01
				c-0.09-0.04-0.17-0.07-0.26-0.11l0.12-0.3l0.16-0.4l0.16-0.4l0.16-0.4c0.13,0.05,0.26,0.11,0.39,0.16
				c0.13,0.06,0.26,0.11,0.39,0.17c0.13,0.06,0.25,0.12,0.38,0.18l-0.19,0.39l-0.19,0.39C22.12,3.7,22,3.64,21.88,3.59l0.18-0.39
				c-0.12-0.06-0.25-0.11-0.37-0.17l-0.17,0.4l-0.17,0.4c0.12,0.05,0.24,0.1,0.35,0.16c0.12,0.05,0.23,0.11,0.35,0.17
				c0.11,0.06,0.23,0.12,0.34,0.18l0.21-0.38l0.21-0.38l0.21-0.38l0.21-0.38c-0.13-0.07-0.26-0.14-0.39-0.2
				c-0.13-0.07-0.26-0.13-0.39-0.19c-0.13-0.06-0.26-0.12-0.4-0.18c-0.13-0.06-0.27-0.11-0.4-0.17c-0.14-0.05-0.27-0.11-0.41-0.16
				l-0.15,0.41l-0.15,0.41l-0.15,0.41l-0.15,0.41l-0.11,0.3c-1.3-0.47-2.66-0.73-4.05-0.77l0.01-0.32l0.01-0.43l0.01-0.43l0.01-0.43
				c0.14,0,0.28,0.01,0.42,0.02c0.14,0.01,0.28,0.02,0.42,0.03c0.14,0.01,0.28,0.03,0.42,0.04l-0.05,0.43L17.69,2.4
				c-0.13-0.02-0.26-0.03-0.4-0.04l0.04-0.43c-0.14-0.01-0.27-0.02-0.41-0.03l-0.02,0.43l-0.02,0.43c0.13,0.01,0.26,0.02,0.38,0.03
				c0.13,0.01,0.26,0.02,0.38,0.04c0.13,0.01,0.26,0.03,0.38,0.05l0.06-0.43l0.06-0.43l0.06-0.43l0.06-0.43
				c-0.14-0.02-0.29-0.04-0.43-0.06c-0.14-0.02-0.29-0.03-0.43-0.04c-0.14-0.01-0.29-0.02-0.43-0.03c-0.15-0.01-0.29-0.01-0.44-0.02
				c-0.15,0-0.29-0.01-0.44-0.01v0.43v0.43v0.43v0.43v0.32c0,0,0,0,0,0c-1.4,0-2.76,0.22-4.07,0.65l-0.1-0.31L11.79,3l-0.14-0.41
				l-0.14-0.41c0.13-0.04,0.27-0.09,0.4-0.13c0.14-0.04,0.27-0.08,0.41-0.12c0.14-0.04,0.27-0.07,0.41-0.1l0.1,0.42l0.1,0.42
				c-0.13,0.03-0.26,0.06-0.39,0.1l-0.11-0.42c-0.13,0.04-0.26,0.07-0.4,0.11l0.12,0.42l0.12,0.42c0.12-0.04,0.25-0.07,0.37-0.1
				c0.12-0.03,0.25-0.06,0.37-0.09c0.13-0.03,0.25-0.06,0.38-0.08l-0.09-0.42l-0.09-0.42l-0.09-0.42l-0.09-0.42
				c-0.14,0.03-0.28,0.06-0.43,0.09c-0.14,0.03-0.28,0.07-0.42,0.11c-0.14,0.04-0.28,0.08-0.42,0.12c-0.14,0.04-0.28,0.09-0.42,0.13
				c-0.14,0.05-0.28,0.09-0.41,0.14l0.15,0.41l0.15,0.41l0.15,0.41l0.15,0.41l0.11,0.3c-0.2,0.07-0.41,0.15-0.61,0.24
				C9.98,4.54,8.98,5.13,8.07,5.85L7.87,5.6L7.6,5.26L7.33,4.92L7.06,4.58C7.17,4.49,7.29,4.4,7.4,4.32
				c0.11-0.08,0.23-0.17,0.34-0.25c0.12-0.08,0.23-0.16,0.35-0.24L8.33,4.2l0.24,0.36C8.46,4.63,8.35,4.71,8.24,4.78L7.99,4.43
				C7.88,4.51,7.77,4.59,7.66,4.67l0.26,0.35l0.26,0.35c0.1-0.08,0.21-0.15,0.31-0.23C8.59,5.06,8.7,4.99,8.81,4.92
				c0.11-0.07,0.22-0.14,0.33-0.21L8.91,4.34L8.68,3.97L8.45,3.61L8.22,3.24C8.1,3.31,7.98,3.39,7.85,3.47
				C7.73,3.55,7.61,3.63,7.49,3.72C7.37,3.8,7.26,3.89,7.14,3.97C7.02,4.06,6.91,4.15,6.79,4.24C6.68,4.33,6.57,4.42,6.46,4.51
				l0.28,0.33l0.28,0.33l0.28,0.33l0.28,0.33l0.21,0.25c-0.29,0.24-0.56,0.5-0.83,0.76C6.23,7.57,5.61,8.36,5.08,9.21L4.81,9.04
				L4.44,8.81L4.07,8.58L3.7,8.36C3.78,8.24,3.85,8.12,3.93,8c0.08-0.12,0.16-0.23,0.24-0.35C4.25,7.53,4.33,7.42,4.42,7.3
				l0.35,0.26l0.35,0.26C5.03,7.93,4.95,8.04,4.88,8.15L4.52,7.9C4.44,8.01,4.37,8.12,4.29,8.24l0.36,0.24l0.36,0.24
				C5.09,8.61,5.16,8.5,5.23,8.39c0.07-0.11,0.15-0.21,0.23-0.31c0.08-0.1,0.16-0.21,0.24-0.31L5.35,7.51L5.01,7.24L4.67,6.97
				L4.33,6.7C4.24,6.81,4.15,6.93,4.07,7.05C3.98,7.16,3.9,7.28,3.81,7.4C3.73,7.52,3.65,7.64,3.57,7.76C3.49,7.88,3.41,8,3.33,8.13
				C3.26,8.25,3.18,8.38,3.11,8.5l0.38,0.22l0.38,0.22l0.38,0.22l0.38,0.22l0.28,0.16c-0.27,0.46-0.5,0.94-0.71,1.43
				c-0.33,0.78-0.58,1.59-0.75,2.42l-0.32-0.07l-0.42-0.09l-0.42-0.09l-0.42-0.09c0.03-0.14,0.06-0.28,0.09-0.41
				c0.03-0.14,0.07-0.27,0.1-0.41c0.04-0.14,0.07-0.27,0.12-0.41l0.42,0.12l0.42,0.12c-0.04,0.13-0.07,0.25-0.11,0.38l-0.42-0.11
				c-0.04,0.13-0.07,0.27-0.1,0.4l0.42,0.1l0.42,0.1c0.03-0.13,0.06-0.25,0.09-0.37c0.03-0.12,0.07-0.25,0.1-0.37
				c0.04-0.12,0.08-0.25,0.12-0.37l-0.41-0.14l-0.41-0.14l-0.41-0.14l-0.41-0.14c-0.05,0.14-0.09,0.28-0.13,0.42
				c-0.04,0.14-0.08,0.28-0.12,0.42c-0.04,0.14-0.07,0.28-0.11,0.42c-0.03,0.14-0.06,0.28-0.09,0.43c-0.03,0.14-0.06,0.29-0.08,0.43
				l0.43,0.07l0.43,0.07l0.43,0.07l0.43,0.07l0.32,0.06C3.22,14.49,3.16,15.24,3.16,16c0,0.63,0.05,1.26,0.13,1.88l-0.32,0.05
				l-0.43,0.06l-0.43,0.06l-0.43,0.06c-0.02-0.14-0.04-0.28-0.05-0.42c-0.02-0.14-0.03-0.28-0.04-0.42
				c-0.01-0.14-0.02-0.28-0.03-0.42l0.43-0.02l0.43-0.02c0.01,0.13,0.02,0.27,0.03,0.4l-0.43,0.04c0.01,0.14,0.03,0.27,0.04,0.41
				l0.43-0.05l0.43-0.05c-0.01-0.13-0.03-0.26-0.04-0.38c-0.01-0.13-0.02-0.26-0.03-0.38c-0.01-0.13-0.01-0.26-0.02-0.39L2.41,16.4
				l-0.43,0.01l-0.43,0.01l-0.43,0.01c0,0.15,0.01,0.29,0.02,0.44c0.01,0.15,0.02,0.29,0.03,0.43c0.01,0.14,0.03,0.29,0.04,0.43
				c0.02,0.14,0.04,0.29,0.06,0.43c0.02,0.14,0.04,0.29,0.07,0.43l0.43-0.07l0.43-0.07l0.43-0.07l0.43-0.07l0.32-0.06
				c0.17,0.95,0.44,1.89,0.82,2.79c0.16,0.38,0.34,0.75,0.53,1.1l-0.28,0.15L4.04,22.5l-0.38,0.21l-0.38,0.21
				c-0.07-0.12-0.13-0.25-0.2-0.38c-0.06-0.13-0.13-0.25-0.18-0.38c-0.06-0.13-0.12-0.26-0.17-0.39l0.4-0.17l0.4-0.17
				c0.05,0.12,0.11,0.24,0.16,0.36l-0.39,0.18c0.06,0.12,0.12,0.25,0.18,0.37l0.39-0.19l0.39-0.19c-0.06-0.11-0.11-0.23-0.17-0.35
				c-0.05-0.12-0.11-0.23-0.16-0.35c-0.05-0.12-0.1-0.24-0.15-0.36l-0.4,0.16l-0.4,0.16l-0.4,0.16l-0.4,0.16
				c0.05,0.14,0.11,0.27,0.17,0.4c0.06,0.13,0.12,0.27,0.18,0.4c0.06,0.13,0.13,0.26,0.19,0.39c0.07,0.13,0.13,0.26,0.2,0.39
				c0.07,0.13,0.14,0.25,0.21,0.38l0.38-0.22l0.38-0.22l0.38-0.22l0.38-0.22l0.28-0.16c0.56,0.98,1.25,1.87,2.06,2.68
				c0.18,0.18,0.36,0.35,0.55,0.52l-0.21,0.24l-0.29,0.32L6.7,26.55l-0.29,0.32c-0.11-0.09-0.21-0.19-0.31-0.29
				c-0.1-0.1-0.2-0.2-0.3-0.3c-0.1-0.1-0.2-0.2-0.3-0.3l0.32-0.3l0.32-0.3c0.09,0.1,0.18,0.19,0.28,0.29l-0.31,0.31
				c0.1,0.1,0.2,0.19,0.29,0.29l0.3-0.32L7,25.65c-0.09-0.09-0.19-0.18-0.28-0.27c-0.09-0.09-0.18-0.18-0.27-0.28
				c-0.09-0.09-0.18-0.19-0.26-0.28L5.87,25.1l-0.32,0.29l-0.32,0.29l-0.32,0.29c0.1,0.11,0.19,0.22,0.29,0.32
				c0.1,0.11,0.2,0.21,0.3,0.31c0.1,0.1,0.21,0.2,0.31,0.3c0.11,0.1,0.21,0.2,0.32,0.29c0.11,0.1,0.22,0.19,0.33,0.29l0.28-0.33
				l0.28-0.33l0.28-0.33l0.28-0.33l0.21-0.25c0.99,0.83,2.09,1.5,3.28,2.01c0.09,0.04,0.17,0.07,0.26,0.11l-0.12,0.3l-0.16,0.4
				l-0.16,0.4l-0.16,0.4c-0.13-0.05-0.26-0.11-0.39-0.16c-0.13-0.06-0.26-0.11-0.39-0.17c-0.13-0.06-0.26-0.12-0.38-0.18l0.19-0.39
				l0.19-0.39c0.12,0.06,0.24,0.12,0.36,0.17l-0.18,0.39c0.12,0.06,0.25,0.11,0.37,0.17l0.17-0.4l0.17-0.4
				c-0.12-0.05-0.24-0.1-0.35-0.16c-0.12-0.05-0.23-0.11-0.35-0.17c-0.11-0.06-0.23-0.12-0.34-0.18L9.6,28.06l-0.21,0.38l-0.21,0.38
				L8.98,29.2c0.13,0.07,0.26,0.14,0.39,0.2c0.13,0.07,0.26,0.13,0.39,0.19c0.13,0.06,0.26,0.12,0.4,0.18
				c0.13,0.06,0.27,0.11,0.4,0.17c0.14,0.05,0.27,0.11,0.41,0.16l0.15-0.41l0.15-0.41l0.15-0.41l0.15-0.41l0.11-0.3
				c1.3,0.47,2.66,0.73,4.05,0.77l-0.01,0.32l-0.01,0.43l-0.01,0.43l-0.01,0.43c-0.14,0-0.28-0.01-0.42-0.02
				c-0.14-0.01-0.28-0.02-0.42-0.03c-0.14-0.01-0.28-0.03-0.42-0.04l0.05-0.43l0.05-0.43c0.13,0.02,0.26,0.03,0.4,0.04l-0.04,0.43
				c0.14,0.01,0.27,0.02,0.41,0.03l0.02-0.43l0.02-0.43c-0.13-0.01-0.26-0.02-0.38-0.03c-0.13-0.01-0.26-0.02-0.38-0.04
				c-0.13-0.01-0.26-0.03-0.38-0.05l-0.06,0.43l-0.06,0.43l-0.06,0.43l-0.06,0.43c0.14,0.02,0.29,0.04,0.43,0.06
				c0.14,0.02,0.29,0.03,0.43,0.04c0.14,0.01,0.29,0.02,0.43,0.03c0.15,0.01,0.29,0.01,0.44,0.02c0.15,0,0.29,0.01,0.44,0.01v-0.43
				v-0.43v-0.43v-0.43v-0.32c1.4,0,2.76-0.22,4.07-0.65l0.1,0.31L20.4,29l0.14,0.41l0.14,0.41c-0.13,0.04-0.27,0.09-0.4,0.13
				c-0.14,0.04-0.27,0.08-0.41,0.12c-0.14,0.04-0.27,0.07-0.41,0.1l-0.1-0.42l-0.1-0.42c0.13-0.03,0.26-0.06,0.39-0.1l0.11,0.42
				c0.13-0.04,0.26-0.07,0.4-0.11l-0.12-0.42l-0.12-0.42c-0.12,0.04-0.25,0.07-0.37,0.11c-0.12,0.03-0.25,0.06-0.37,0.09
				c-0.13,0.03-0.25,0.06-0.38,0.08l0.09,0.42l0.09,0.42l0.09,0.42l0.09,0.42c0.14-0.03,0.28-0.06,0.43-0.09
				c0.14-0.03,0.28-0.07,0.42-0.11c0.14-0.04,0.28-0.08,0.42-0.12c0.14-0.04,0.28-0.09,0.42-0.13c0.14-0.05,0.28-0.09,0.41-0.14
				l-0.15-0.41l-0.15-0.41l-0.15-0.41l-0.15-0.41l-0.11-0.3c0.2-0.07,0.41-0.15,0.61-0.24c1.08-0.46,2.08-1.05,2.99-1.77l0.2,0.25
				l0.27,0.34l0.27,0.34l0.27,0.34c-0.11,0.09-0.22,0.17-0.34,0.26c-0.11,0.08-0.23,0.17-0.34,0.25c-0.12,0.08-0.23,0.16-0.35,0.24
				l-0.24-0.36l-0.24-0.36c0.11-0.07,0.22-0.15,0.33-0.22l0.25,0.35c0.11-0.08,0.22-0.16,0.33-0.24l-0.26-0.35l-0.26-0.35
				c-0.1,0.08-0.21,0.15-0.31,0.23c-0.11,0.07-0.21,0.15-0.32,0.22c-0.11,0.07-0.22,0.14-0.33,0.21l0.23,0.37l0.23,0.37l0.23,0.37
				l0.23,0.37c0.12-0.08,0.25-0.15,0.37-0.23c0.12-0.08,0.24-0.16,0.36-0.25c0.12-0.08,0.24-0.17,0.35-0.26
				c0.12-0.09,0.23-0.18,0.35-0.27c0.11-0.09,0.23-0.18,0.34-0.28l-0.28-0.33L25.18,26.82z M16.09,28.56
				C9.17,28.56,3.54,22.92,3.54,16c0-6.92,5.63-12.56,12.56-12.56c6.92,0,12.56,5.63,12.56,12.56
				C28.65,22.92,23.02,28.56,16.09,28.56z"/>
		</g>
		<linearGradient id="SVGID_3_" gradientUnits="userSpaceOnUse" x1="6.7254" y1="14.3792" x2="25.4641" y2="14.3792">
			<stop  offset="0" style="stop-color:#B7854D"/>
			<stop  offset="0.1515" style="stop-color:#F5D98F"/>
			<stop  offset="0.303" style="stop-color:#FFF9B3"/>
			<stop  offset="0.5212" style="stop-color:#F4D88E"/>
			<stop  offset="0.6424" style="stop-color:#FEF9B4"/>
			<stop  offset="0.8424" style="stop-color:#D4AF66"/>
			<stop  offset="1" style="stop-color:#B7854D"/>
		</linearGradient>
		<polygon class="st2" points="16.09,6.08 6.73,22.68 8.13,22.68 9.23,22.68 9.92,22.68 11.72,22.68 10.48,20.47 16.09,10.52 
			21.71,20.47 20.47,22.68 22.27,22.68 22.96,22.68 24.06,22.68 25.46,22.68 		"/>
	</g>
</g>
</svg>
