<?xml version="1.0" encoding="utf-8"?>
<!-- Generator: Adobe Illustrator 25.0.0, SVG Export Plug-In . SVG Version: 6.00 Build 0)  -->
<svg version="1.1" xmlns="http://www.w3.org/2000/svg" xmlns:xlink="http://www.w3.org/1999/xlink" x="0px" y="0px"
	 viewBox="0 0 48 48" style="enable-background:new 0 0 48 48;" xml:space="preserve">
<style type="text/css">
	.st0{fill:url(#SVGID_1_);}
	.st1{fill:url(#SVGID_2_);}
	.st2{fill:url(#SVGID_3_);}
</style>
<g id="Layer_2">
</g>
<g id="Layer_3">
</g>
<g id="Layer_1">
	<g>
		<g>
			<linearGradient id="SVGID_1_" gradientUnits="userSpaceOnUse" x1="0.8394" y1="24.0002" x2="47.3502" y2="24.0002">
				<stop  offset="0" style="stop-color:#B7854D"/>
				<stop  offset="0.1515" style="stop-color:#F5D98F"/>
				<stop  offset="0.303" style="stop-color:#FFF9B3"/>
				<stop  offset="0.5212" style="stop-color:#F4D88E"/>
				<stop  offset="0.6424" style="stop-color:#FEF9B4"/>
				<stop  offset="0.8424" style="stop-color:#D4AF66"/>
				<stop  offset="1" style="stop-color:#B7854D"/>
			</linearGradient>
			<path class="st0" d="M45.52,14.95c-1.17-2.77-2.85-5.26-4.98-7.39c-2.14-2.14-4.62-3.81-7.39-4.98
				c-2.87-1.21-5.91-1.83-9.05-1.83c-3.14,0-6.18,0.61-9.05,1.83c-2.77,1.17-5.26,2.85-7.39,4.98c-2.14,2.14-3.81,4.62-4.98,7.39
				C1.45,17.82,0.84,20.86,0.84,24c0,3.14,0.61,6.18,1.83,9.05c1.17,2.77,2.85,5.26,4.98,7.39c2.14,2.14,4.62,3.81,7.39,4.98
				c2.87,1.21,5.91,1.83,9.05,1.83c3.14,0,6.18-0.61,9.05-1.83c2.77-1.17,5.26-2.85,7.39-4.98c2.14-2.14,3.81-4.62,4.98-7.39
				c1.21-2.87,1.83-5.91,1.83-9.05C47.35,20.86,46.74,17.82,45.52,14.95z M35.44,43.65l-0.24-0.42l-0.32-0.56l-0.32-0.56l-0.32-0.56
				l-0.32-0.56c-0.16,0.1-0.33,0.19-0.5,0.28c-0.17,0.09-0.34,0.18-0.51,0.26c-0.17,0.09-0.34,0.17-0.51,0.25
				c-0.17,0.08-0.35,0.16-0.52,0.23c-0.17,0.08-0.35,0.15-0.53,0.22l0.24,0.6l0.24,0.6l0.24,0.6l0.24,0.6
				c0.2-0.08,0.4-0.16,0.6-0.25c0.2-0.09,0.39-0.17,0.59-0.26c0.2-0.09,0.39-0.19,0.58-0.28l-0.29-0.57l-0.29-0.57
				c-0.18,0.09-0.36,0.18-0.55,0.27l0.27,0.58c-0.19,0.09-0.38,0.17-0.57,0.26l-0.25-0.59l-0.25-0.59c0.18-0.08,0.36-0.16,0.54-0.24
				c0.18-0.08,0.36-0.17,0.53-0.26c0.18-0.09,0.35-0.18,0.52-0.27l0.31,0.56l0.3,0.56l0.31,0.56l0.23,0.43
				c-2.1,1.14-4.4,1.95-6.83,2.38l-0.08-0.48l-0.11-0.63l-0.11-0.63l-0.11-0.63l-0.11-0.63c-0.19,0.03-0.38,0.06-0.56,0.09
				c-0.19,0.03-0.38,0.05-0.57,0.07c-0.19,0.02-0.38,0.04-0.57,0.06c-0.19,0.02-0.38,0.03-0.57,0.04c-0.19,0.01-0.38,0.02-0.57,0.02
				l0.02,0.64l0.02,0.64l0.02,0.64l0.02,0.64c0.21-0.01,0.43-0.02,0.64-0.03c0.21-0.01,0.43-0.03,0.64-0.05
				c0.21-0.02,0.43-0.04,0.64-0.06l-0.07-0.64l-0.07-0.64c-0.2,0.02-0.4,0.04-0.61,0.06l0.06,0.64c-0.21,0.02-0.42,0.03-0.63,0.04
				l-0.04-0.64l-0.04-0.64c0.2-0.01,0.39-0.03,0.59-0.04c0.2-0.02,0.39-0.04,0.59-0.06c0.2-0.02,0.39-0.05,0.58-0.08l0.09,0.63
				l0.09,0.64l0.09,0.64l0.07,0.49c-1.07,0.16-2.17,0.24-3.29,0.24c-1.34,0-2.66-0.12-3.94-0.34l0.09-0.48l0.11-0.63l0.11-0.63
				l0.11-0.63l0.11-0.63c-0.19-0.03-0.37-0.07-0.56-0.11c-0.19-0.04-0.37-0.08-0.56-0.12c-0.19-0.04-0.37-0.09-0.55-0.14
				c-0.18-0.05-0.37-0.1-0.55-0.16c-0.18-0.05-0.36-0.11-0.54-0.17l-0.2,0.61l-0.2,0.61l-0.2,0.61l-0.2,0.61
				c0.2,0.07,0.41,0.13,0.62,0.19c0.21,0.06,0.41,0.12,0.62,0.18c0.21,0.06,0.42,0.11,0.63,0.16l0.15-0.62l0.15-0.62
				c-0.2-0.05-0.39-0.1-0.59-0.15l-0.17,0.62c-0.2-0.05-0.4-0.11-0.6-0.17l0.18-0.61l0.18-0.61c0.19,0.06,0.38,0.11,0.57,0.16
				c0.19,0.05,0.38,0.1,0.57,0.14c0.19,0.05,0.38,0.09,0.58,0.13l-0.13,0.63l-0.13,0.63l-0.13,0.63l-0.1,0.48
				c-2.41-0.5-4.69-1.38-6.76-2.58l0.24-0.42l0.32-0.56l0.32-0.56l0.32-0.56l0.32-0.56c-0.16-0.1-0.33-0.19-0.49-0.29
				c-0.16-0.1-0.32-0.2-0.48-0.31c-0.16-0.1-0.32-0.21-0.47-0.32c-0.16-0.11-0.31-0.22-0.46-0.33c-0.15-0.11-0.3-0.23-0.45-0.35
				l-0.4,0.5l-0.4,0.5l-0.4,0.5l-0.4,0.5c0.17,0.13,0.34,0.26,0.51,0.39c0.17,0.13,0.35,0.25,0.52,0.38
				c0.18,0.12,0.35,0.24,0.53,0.36l0.35-0.54l0.35-0.54c-0.17-0.11-0.34-0.23-0.5-0.34l-0.37,0.53c-0.17-0.12-0.34-0.24-0.51-0.37
				l0.38-0.51l0.38-0.51c0.16,0.12,0.32,0.23,0.48,0.35c0.16,0.11,0.32,0.22,0.49,0.33c0.16,0.11,0.33,0.21,0.5,0.32l-0.34,0.55
				l-0.34,0.55l-0.34,0.55l-0.26,0.41c-2.06-1.28-3.91-2.88-5.46-4.73l0.37-0.31l0.49-0.41l0.49-0.41l0.49-0.41l0.49-0.41
				c-0.12-0.15-0.24-0.29-0.36-0.44c-0.12-0.15-0.23-0.3-0.35-0.45c-0.11-0.15-0.23-0.31-0.33-0.46c-0.11-0.16-0.22-0.31-0.32-0.47
				c-0.1-0.16-0.21-0.32-0.31-0.48l-0.55,0.34l-0.55,0.34l-0.55,0.34L5.2,35.66c0.11,0.18,0.23,0.36,0.35,0.54
				c0.12,0.18,0.24,0.36,0.36,0.53c0.12,0.18,0.25,0.35,0.38,0.52l0.51-0.38l0.51-0.38C7.19,36.33,7.08,36.16,6.96,36l-0.53,0.37
				c-0.12-0.17-0.24-0.34-0.35-0.52l0.54-0.35l0.54-0.35c0.11,0.16,0.22,0.33,0.33,0.49c0.11,0.16,0.23,0.32,0.35,0.48
				c0.12,0.16,0.24,0.31,0.36,0.47l-0.5,0.4l-0.5,0.4l-0.5,0.4l-0.38,0.3c-1.49-1.88-2.69-4.01-3.53-6.31l0.46-0.17l0.6-0.22
				l0.6-0.22l0.6-0.22l0.6-0.22c-0.07-0.18-0.13-0.36-0.19-0.54C5.39,30,5.34,29.82,5.28,29.63c-0.05-0.18-0.11-0.37-0.16-0.55
				c-0.05-0.18-0.1-0.37-0.14-0.55c-0.04-0.19-0.08-0.37-0.12-0.56L4.23,28.1l-0.63,0.13l-0.63,0.13l-0.63,0.13
				c0.04,0.21,0.09,0.42,0.14,0.63c0.05,0.21,0.1,0.42,0.16,0.63c0.06,0.21,0.11,0.42,0.18,0.62l0.61-0.18L4.05,30
				c-0.06-0.19-0.11-0.39-0.17-0.59l-0.62,0.17c-0.05-0.2-0.11-0.4-0.15-0.61l0.62-0.15l0.62-0.15c0.05,0.19,0.09,0.38,0.14,0.57
				c0.05,0.19,0.1,0.38,0.16,0.57c0.06,0.19,0.12,0.38,0.18,0.56l-0.61,0.2l-0.61,0.2l-0.61,0.2l-0.46,0.15
				C1.81,28.89,1.4,26.49,1.4,24l0,0h0.49h0.64h0.64h0.64h0.64c0-0.19,0-0.38,0.01-0.57c0.01-0.19,0.01-0.38,0.02-0.57
				c0.01-0.19,0.02-0.38,0.04-0.57c0.02-0.19,0.04-0.38,0.06-0.57c0.02-0.19,0.05-0.38,0.07-0.57l-0.64-0.09L3.4,20.97l-0.64-0.09
				l-0.63-0.09C2.1,21,2.07,21.21,2.04,21.42C2.02,21.64,2,21.85,1.98,22.07c-0.02,0.21-0.03,0.43-0.05,0.64l0.64,0.04l0.64,0.04
				c0.01-0.2,0.03-0.4,0.04-0.61l-0.64-0.06c0.02-0.21,0.04-0.42,0.06-0.62l0.64,0.07l0.64,0.07c-0.02,0.2-0.04,0.39-0.06,0.59
				c-0.02,0.2-0.03,0.39-0.04,0.59c-0.01,0.2-0.02,0.39-0.03,0.59l-0.64-0.02l-0.64-0.02L1.9,23.36l-0.49-0.01
				c0.07-2.49,0.54-4.88,1.36-7.1l0.46,0.17l0.6,0.22l0.6,0.22l0.6,0.22l0.6,0.22c0.06-0.18,0.13-0.36,0.2-0.53
				c0.07-0.18,0.14-0.35,0.22-0.53c0.08-0.17,0.15-0.35,0.23-0.52c0.08-0.17,0.16-0.34,0.25-0.51c0.09-0.17,0.17-0.34,0.26-0.51
				l-0.56-0.3l-0.56-0.31l-0.56-0.3l-0.56-0.31c-0.1,0.19-0.2,0.38-0.3,0.57s-0.19,0.39-0.28,0.58c-0.09,0.2-0.18,0.39-0.26,0.59
				l0.59,0.25l0.59,0.25c0.08-0.19,0.16-0.37,0.25-0.55l-0.58-0.27c0.09-0.19,0.18-0.38,0.27-0.56l0.57,0.29l0.57,0.29
				c-0.09,0.18-0.17,0.35-0.26,0.53c-0.08,0.18-0.16,0.36-0.24,0.54c-0.08,0.18-0.15,0.36-0.23,0.54l-0.6-0.24l-0.6-0.24l-0.6-0.24
				L3,15.62c0.9-2.27,2.17-4.36,3.71-6.2l0.37,0.31l0.49,0.41l0.49,0.41l0.49,0.41l0.49,0.41c0.12-0.15,0.25-0.29,0.37-0.43
				c0.13-0.14,0.26-0.28,0.39-0.42c0.13-0.14,0.26-0.28,0.4-0.41c0.13-0.13,0.27-0.27,0.41-0.4c0.14-0.13,0.28-0.26,0.42-0.39
				l-0.43-0.48l-0.43-0.48L9.76,7.9L9.34,7.42C9.18,7.56,9.02,7.7,8.86,7.85C8.7,8,8.55,8.15,8.4,8.3c-0.15,0.15-0.3,0.31-0.45,0.46
				l0.47,0.44l0.47,0.44C9.02,9.5,9.16,9.35,9.3,9.21L8.85,8.76C9,8.61,9.15,8.46,9.3,8.32l0.44,0.47l0.44,0.47
				C10.04,9.39,9.9,9.52,9.76,9.66C9.62,9.8,9.48,9.94,9.35,10.09c-0.14,0.14-0.27,0.29-0.4,0.44l-0.48-0.43L7.99,9.67L7.51,9.24
				L7.15,8.92c1.61-1.8,3.5-3.35,5.6-4.57l0.24,0.42l0.32,0.56l0.32,0.56l0.32,0.56l0.32,0.56c0.16-0.1,0.33-0.19,0.5-0.28
				c0.17-0.09,0.34-0.18,0.51-0.26c0.17-0.09,0.34-0.17,0.51-0.25c0.17-0.08,0.35-0.16,0.52-0.23c0.17-0.08,0.35-0.15,0.53-0.22
				l-0.24-0.6l-0.24-0.6l-0.24-0.6l-0.24-0.6c-0.2,0.08-0.4,0.16-0.6,0.25c-0.2,0.09-0.39,0.17-0.59,0.26
				c-0.2,0.09-0.39,0.19-0.58,0.28l0.29,0.57l0.29,0.57c0.18-0.09,0.36-0.18,0.55-0.27l-0.27-0.58c0.19-0.09,0.38-0.17,0.57-0.26
				l0.25,0.59l0.25,0.59c-0.18,0.08-0.36,0.16-0.54,0.24c-0.18,0.08-0.36,0.17-0.53,0.26c-0.18,0.09-0.35,0.18-0.52,0.27l-0.31-0.56
				l-0.3-0.56l-0.31-0.56l-0.23-0.43c2.1-1.14,4.4-1.95,6.83-2.38l0.08,0.48l0.11,0.63l0.11,0.63l0.11,0.63l0.11,0.63
				c0.19-0.03,0.38-0.06,0.56-0.09c0.19-0.03,0.38-0.05,0.57-0.07c0.19-0.02,0.38-0.04,0.57-0.06c0.19-0.02,0.38-0.03,0.57-0.04
				c0.19-0.01,0.38-0.02,0.57-0.02L23.5,3.73l-0.02-0.64l-0.02-0.64l-0.02-0.64c-0.22,0.01-0.43,0.02-0.64,0.03
				c-0.21,0.01-0.43,0.03-0.64,0.05c-0.21,0.02-0.43,0.04-0.64,0.06l0.07,0.64l0.07,0.64c0.2-0.02,0.4-0.04,0.61-0.06l-0.06-0.64
				c0.21-0.02,0.42-0.03,0.63-0.04l0.04,0.64l0.04,0.64c-0.2,0.01-0.39,0.03-0.59,0.04c-0.2,0.02-0.39,0.04-0.59,0.06
				c-0.2,0.02-0.39,0.05-0.58,0.08L21.06,3.3l-0.09-0.64l-0.09-0.64l-0.07-0.49c1.07-0.16,2.17-0.24,3.29-0.24
				c1.34,0,2.66,0.12,3.94,0.34l-0.08,0.48l-0.11,0.63L27.73,3.4l-0.11,0.63l-0.11,0.63c0.19,0.03,0.37,0.07,0.56,0.11
				c0.19,0.04,0.37,0.08,0.56,0.12c0.19,0.04,0.37,0.09,0.55,0.14c0.18,0.05,0.37,0.1,0.55,0.16c0.18,0.05,0.36,0.11,0.54,0.17
				l0.2-0.61l0.2-0.61l0.2-0.61l0.2-0.61c-0.2-0.07-0.41-0.13-0.62-0.19c-0.21-0.06-0.41-0.12-0.62-0.18
				c-0.21-0.06-0.42-0.11-0.63-0.16l-0.15,0.62l-0.15,0.62c0.2,0.05,0.39,0.1,0.59,0.15l0.17-0.62c0.2,0.05,0.4,0.11,0.6,0.17
				L30.1,3.96l-0.18,0.61c-0.19-0.06-0.38-0.11-0.57-0.16c-0.19-0.05-0.38-0.1-0.57-0.14c-0.19-0.05-0.38-0.09-0.58-0.13l0.13-0.63
				l0.13-0.63l0.13-0.63l0.1-0.48c2.41,0.5,4.69,1.38,6.76,2.58L35.2,4.77l-0.32,0.56l-0.32,0.56l-0.32,0.56l-0.32,0.56
				c0.16,0.1,0.33,0.19,0.49,0.29c0.16,0.1,0.32,0.2,0.48,0.31c0.16,0.1,0.32,0.21,0.47,0.32c0.16,0.11,0.31,0.22,0.46,0.33
				c0.15,0.11,0.3,0.23,0.45,0.35l0.4-0.5l0.4-0.5l0.4-0.5l0.4-0.5c-0.17-0.13-0.34-0.26-0.51-0.39c-0.17-0.13-0.35-0.25-0.52-0.38
				c-0.18-0.12-0.35-0.24-0.53-0.36l-0.35,0.54l-0.35,0.54c0.17,0.11,0.34,0.23,0.5,0.34l0.37-0.53c0.17,0.12,0.34,0.24,0.51,0.37
				l-0.38,0.51L36.2,7.74c-0.16-0.12-0.32-0.23-0.48-0.35c-0.16-0.11-0.32-0.22-0.49-0.33c-0.16-0.11-0.33-0.21-0.5-0.32l0.34-0.55
				l0.34-0.55l0.34-0.55l0.26-0.41c2.06,1.28,3.91,2.88,5.46,4.73L41.1,9.73l-0.49,0.41l-0.49,0.41l-0.49,0.41l-0.49,0.41
				c0.12,0.15,0.24,0.29,0.36,0.44c0.12,0.15,0.23,0.3,0.35,0.45c0.11,0.15,0.23,0.31,0.33,0.46c0.11,0.16,0.22,0.31,0.32,0.47
				c0.1,0.16,0.21,0.32,0.31,0.48l0.55-0.34l0.55-0.34l0.55-0.34l0.55-0.34c-0.11-0.18-0.23-0.36-0.35-0.54
				c-0.12-0.18-0.24-0.36-0.36-0.53c-0.12-0.18-0.25-0.35-0.38-0.52l-0.51,0.38l-0.51,0.38c0.12,0.16,0.24,0.33,0.36,0.49l0.53-0.37
				c0.12,0.17,0.24,0.34,0.35,0.52l-0.54,0.35l-0.54,0.35c-0.11-0.16-0.22-0.33-0.33-0.49c-0.11-0.16-0.23-0.32-0.35-0.48
				c-0.12-0.16-0.24-0.31-0.36-0.47l0.5-0.4l0.5-0.4l0.5-0.4l0.38-0.3c1.49,1.88,2.69,4.01,3.53,6.31l-0.46,0.17l-0.6,0.22
				l-0.6,0.22l-0.6,0.22l-0.6,0.22c0.07,0.18,0.13,0.36,0.19,0.54c0.06,0.18,0.12,0.36,0.17,0.54c0.05,0.18,0.11,0.37,0.16,0.55
				c0.05,0.18,0.1,0.37,0.14,0.55c0.04,0.19,0.08,0.37,0.12,0.56l0.63-0.13l0.63-0.13l0.63-0.13l0.63-0.13
				c-0.04-0.21-0.09-0.42-0.14-0.63c-0.05-0.21-0.1-0.42-0.16-0.63c-0.06-0.21-0.11-0.42-0.18-0.62l-0.61,0.18L44.14,18
				c0.06,0.19,0.11,0.39,0.17,0.59l0.62-0.17c0.05,0.2,0.11,0.4,0.15,0.61l-0.62,0.15l-0.62,0.15c-0.04-0.19-0.09-0.38-0.14-0.57
				c-0.05-0.19-0.1-0.38-0.16-0.57c-0.06-0.19-0.12-0.38-0.18-0.56l0.61-0.2l0.61-0.2l0.61-0.2l0.46-0.15
				c0.75,2.25,1.15,4.65,1.15,7.14H46.3h-0.64h-0.64h-0.64h-0.64c0,0.19,0,0.38-0.01,0.57c-0.01,0.19-0.01,0.38-0.02,0.57
				c-0.01,0.19-0.02,0.38-0.04,0.57c-0.02,0.19-0.04,0.38-0.06,0.57c-0.02,0.19-0.05,0.38-0.07,0.57l0.64,0.09l0.64,0.09l0.63,0.09
				l0.63,0.09c0.03-0.21,0.06-0.43,0.08-0.64c0.02-0.21,0.05-0.43,0.06-0.64c0.02-0.21,0.03-0.43,0.05-0.64l-0.64-0.04l-0.64-0.04
				c-0.01,0.2-0.03,0.4-0.04,0.61l0.64,0.06c-0.02,0.21-0.04,0.42-0.06,0.62l-0.64-0.07l-0.64-0.07c0.02-0.2,0.04-0.39,0.06-0.59
				c0.02-0.2,0.03-0.39,0.04-0.59c0.01-0.2,0.02-0.39,0.03-0.59L45,24.61l0.64,0.02l0.64,0.02l0.49,0.01
				c-0.07,2.49-0.54,4.88-1.36,7.1l-0.46-0.17l-0.6-0.22l-0.6-0.22l-0.6-0.22l-0.6-0.22c-0.07,0.18-0.13,0.36-0.2,0.53
				c-0.07,0.18-0.14,0.35-0.22,0.53c-0.08,0.17-0.15,0.35-0.23,0.52c-0.08,0.17-0.16,0.34-0.25,0.51c-0.09,0.17-0.17,0.34-0.26,0.51
				l0.56,0.31l0.56,0.31l0.56,0.3l0.56,0.31c0.1-0.19,0.2-0.38,0.3-0.57c0.1-0.19,0.19-0.39,0.28-0.58c0.09-0.2,0.18-0.39,0.26-0.59
				l-0.59-0.25l-0.59-0.25c-0.08,0.19-0.16,0.37-0.25,0.55l0.58,0.27c-0.09,0.19-0.18,0.38-0.27,0.56l-0.57-0.29l-0.57-0.29
				c0.09-0.18,0.17-0.35,0.26-0.53c0.08-0.18,0.16-0.36,0.24-0.54c0.08-0.18,0.15-0.36,0.23-0.54l0.6,0.24l0.6,0.24l0.6,0.24
				l0.45,0.18c-0.9,2.27-2.17,4.36-3.71,6.2l-0.37-0.31l-0.49-0.41l-0.49-0.41l-0.49-0.41l-0.49-0.41
				c-0.12,0.15-0.25,0.29-0.37,0.43c-0.13,0.14-0.26,0.28-0.39,0.42c-0.13,0.14-0.26,0.28-0.4,0.41c-0.13,0.13-0.27,0.27-0.41,0.4
				c-0.14,0.13-0.28,0.26-0.42,0.39l0.43,0.48L38,39.63l0.43,0.48l0.43,0.48c0.16-0.14,0.32-0.29,0.48-0.44
				c0.16-0.15,0.31-0.3,0.46-0.45c0.15-0.15,0.3-0.31,0.45-0.46l-0.47-0.44l-0.47-0.44c-0.14,0.15-0.28,0.29-0.42,0.44l0.45,0.45
				c-0.15,0.15-0.3,0.29-0.45,0.44l-0.44-0.47l-0.44-0.47c0.14-0.14,0.28-0.27,0.42-0.41c0.14-0.14,0.28-0.28,0.41-0.42
				c0.13-0.14,0.27-0.29,0.4-0.43l0.48,0.43l0.48,0.43l0.48,0.43l0.36,0.32C39.43,40.88,37.54,42.43,35.44,43.65z"/>
			<linearGradient id="SVGID_2_" gradientUnits="userSpaceOnUse" x1="1.9039" y1="24.0001" x2="46.2857" y2="24.0001">
				<stop  offset="0" style="stop-color:#B7854D"/>
				<stop  offset="0.1515" style="stop-color:#F5D98F"/>
				<stop  offset="0.303" style="stop-color:#FFF9B3"/>
				<stop  offset="0.5212" style="stop-color:#F4D88E"/>
				<stop  offset="0.6424" style="stop-color:#FEF9B4"/>
				<stop  offset="0.8424" style="stop-color:#D4AF66"/>
				<stop  offset="1" style="stop-color:#B7854D"/>
			</linearGradient>
			<path class="st1" d="M37.54,40.02l-0.41-0.49l-0.41-0.49l-0.31-0.37c0.42-0.36,0.84-0.73,1.23-1.13
				c1.06-1.06,1.99-2.23,2.76-3.49l0.41,0.25l0.55,0.34l0.55,0.34l0.55,0.34c-0.11,0.18-0.22,0.35-0.34,0.53
				c-0.11,0.17-0.23,0.35-0.35,0.52c-0.12,0.17-0.24,0.34-0.37,0.51l-0.51-0.38l-0.51-0.38c0.12-0.16,0.23-0.32,0.35-0.48L41.23,36
				c0.12-0.17,0.23-0.33,0.34-0.5l-0.54-0.35l-0.54-0.35c-0.1,0.16-0.21,0.32-0.32,0.47c-0.11,0.16-0.22,0.31-0.33,0.46
				c-0.11,0.15-0.23,0.3-0.35,0.45l0.5,0.4l0.5,0.4l0.5,0.4l0.5,0.4c0.13-0.17,0.26-0.34,0.39-0.51c0.13-0.17,0.25-0.35,0.38-0.52
				c0.12-0.18,0.24-0.35,0.36-0.53c0.12-0.18,0.23-0.36,0.35-0.54c0.11-0.18,0.22-0.37,0.33-0.55l-0.56-0.32l-0.56-0.32l-0.56-0.32
				l-0.56-0.32l-0.41-0.24c0.39-0.68,0.75-1.39,1.06-2.12c0.49-1.16,0.86-2.36,1.11-3.58l0.47,0.1l0.63,0.13l0.63,0.13l0.63,0.13
				c-0.04,0.2-0.09,0.41-0.14,0.61c-0.05,0.2-0.1,0.41-0.15,0.61c-0.05,0.2-0.11,0.4-0.17,0.6L44.14,30l-0.61-0.18
				c0.06-0.19,0.11-0.38,0.16-0.57l0.62,0.17c0.05-0.2,0.1-0.39,0.15-0.59l-0.62-0.15l-0.62-0.15c-0.04,0.19-0.09,0.37-0.14,0.55
				c-0.05,0.18-0.1,0.37-0.16,0.55c-0.05,0.18-0.11,0.36-0.17,0.54l0.61,0.2l0.61,0.2l0.61,0.2l0.61,0.2
				c0.07-0.2,0.13-0.41,0.19-0.62c0.06-0.21,0.12-0.41,0.18-0.62c0.06-0.21,0.11-0.42,0.16-0.63c0.05-0.21,0.1-0.42,0.14-0.63
				c0.04-0.21,0.08-0.42,0.12-0.63l-0.63-0.11l-0.63-0.11l-0.63-0.11l-0.63-0.11l-0.47-0.08c0.19-1.09,0.29-2.2,0.29-3.33
				c0-0.94-0.07-1.87-0.2-2.78l0.47-0.07l0.64-0.09l0.64-0.09l0.63-0.09c0.03,0.21,0.06,0.41,0.08,0.62
				c0.02,0.21,0.04,0.42,0.06,0.62c0.02,0.21,0.03,0.42,0.05,0.63l-0.64,0.04l-0.64,0.04c-0.01-0.2-0.03-0.39-0.04-0.59l0.64-0.06
				c-0.02-0.2-0.04-0.4-0.06-0.61l-0.64,0.07l-0.64,0.07c0.02,0.19,0.04,0.38,0.06,0.57c0.02,0.19,0.03,0.38,0.04,0.57
				c0.01,0.19,0.02,0.38,0.02,0.57l0.64-0.02L45,23.39l0.64-0.02l0.64-0.02c-0.01-0.22-0.02-0.43-0.03-0.64
				c-0.01-0.21-0.03-0.43-0.05-0.64c-0.02-0.21-0.04-0.43-0.06-0.64c-0.02-0.21-0.05-0.43-0.08-0.64c-0.03-0.21-0.06-0.43-0.1-0.64
				l-0.63,0.11l-0.63,0.11l-0.63,0.11l-0.63,0.11l-0.47,0.08c-0.25-1.41-0.65-2.79-1.22-4.13c-0.24-0.56-0.5-1.1-0.78-1.64
				l0.42-0.23l0.56-0.3l0.56-0.31l0.56-0.3c0.1,0.18,0.2,0.37,0.29,0.56c0.09,0.19,0.19,0.37,0.27,0.56
				c0.09,0.19,0.17,0.38,0.26,0.57l-0.59,0.25l-0.59,0.25c-0.08-0.18-0.16-0.36-0.24-0.54l0.58-0.27c-0.09-0.18-0.17-0.37-0.27-0.55
				l-0.57,0.29l-0.57,0.29c0.09,0.17,0.17,0.34,0.25,0.51c0.08,0.17,0.16,0.35,0.23,0.52c0.08,0.17,0.15,0.35,0.22,0.53l0.6-0.24
				l0.6-0.24l0.6-0.24l0.6-0.24c-0.08-0.2-0.16-0.4-0.25-0.6c-0.09-0.2-0.17-0.39-0.26-0.59c-0.09-0.2-0.19-0.39-0.28-0.58
				c-0.1-0.19-0.2-0.38-0.3-0.57c-0.1-0.19-0.21-0.38-0.32-0.56l-0.56,0.32l-0.56,0.32l-0.56,0.32l-0.56,0.32l-0.41,0.24
				c-0.83-1.44-1.85-2.77-3.05-3.97c-0.26-0.26-0.53-0.52-0.81-0.77l0.32-0.36l0.43-0.48L38,8.37l0.43-0.48
				c0.16,0.14,0.31,0.28,0.46,0.42c0.15,0.14,0.3,0.29,0.45,0.44c0.15,0.15,0.29,0.3,0.44,0.45l-0.47,0.44l-0.47,0.44
				c-0.14-0.14-0.27-0.28-0.41-0.42l0.45-0.45c-0.14-0.14-0.29-0.28-0.44-0.42l-0.44,0.47l-0.44,0.47c0.14,0.13,0.28,0.26,0.41,0.4
				c0.13,0.13,0.27,0.27,0.4,0.41c0.13,0.14,0.26,0.28,0.39,0.42l0.48-0.43l0.48-0.43l0.48-0.43l0.48-0.43
				c-0.14-0.16-0.29-0.32-0.44-0.48c-0.15-0.16-0.3-0.31-0.45-0.46c-0.15-0.15-0.31-0.3-0.46-0.45c-0.16-0.15-0.32-0.29-0.48-0.44
				c-0.16-0.14-0.32-0.28-0.49-0.42l-0.41,0.49l-0.41,0.49l-0.41,0.49l-0.41,0.49l-0.31,0.37c-1.46-1.23-3.09-2.23-4.86-2.97
				c-0.13-0.05-0.25-0.11-0.38-0.16l0.18-0.45l0.24-0.6l0.24-0.6l0.24-0.6c0.19,0.08,0.39,0.16,0.58,0.24
				c0.19,0.08,0.38,0.17,0.57,0.26c0.19,0.09,0.38,0.18,0.56,0.27L33.48,5.3L33.2,5.88c-0.18-0.09-0.35-0.17-0.53-0.26l0.27-0.58
				c-0.18-0.09-0.37-0.17-0.56-0.25l-0.25,0.59l-0.25,0.59c0.17,0.08,0.35,0.15,0.52,0.23c0.17,0.08,0.34,0.16,0.51,0.25
				c0.17,0.09,0.34,0.17,0.51,0.26l0.31-0.56l0.31-0.56l0.3-0.56l0.31-0.56c-0.19-0.1-0.38-0.2-0.57-0.3
				c-0.19-0.1-0.39-0.19-0.58-0.28c-0.2-0.09-0.39-0.18-0.59-0.26c-0.2-0.09-0.4-0.17-0.6-0.25c-0.2-0.08-0.4-0.16-0.6-0.23
				l-0.22,0.6l-0.22,0.6l-0.22,0.6l-0.22,0.6L30.65,6c-1.92-0.7-3.93-1.08-5.99-1.14l0.01-0.48l0.02-0.64l0.02-0.64l0.02-0.64
				c0.21,0.01,0.42,0.01,0.63,0.03c0.21,0.01,0.42,0.03,0.63,0.04c0.21,0.02,0.42,0.04,0.62,0.06l-0.07,0.64l-0.07,0.64
				c-0.2-0.02-0.39-0.04-0.59-0.06l0.06-0.64c-0.2-0.02-0.4-0.03-0.61-0.04l-0.04,0.64L25.24,4.4c0.19,0.01,0.38,0.02,0.57,0.04
				C26,4.46,26.19,4.48,26.38,4.5c0.19,0.02,0.38,0.05,0.57,0.07l0.09-0.63l0.09-0.63l0.09-0.64l0.09-0.64
				C27.1,2,26.88,1.97,26.67,1.95c-0.21-0.02-0.43-0.05-0.64-0.06c-0.21-0.02-0.43-0.03-0.64-0.05c-0.21-0.01-0.43-0.02-0.64-0.03
				C24.52,1.8,24.31,1.8,24.09,1.8v0.64v0.64v0.64v0.64v0.48c0,0,0,0,0,0c-2.07,0-4.09,0.33-6.03,0.97l-0.15-0.45l-0.2-0.61
				l-0.2-0.61l-0.2-0.61c0.2-0.07,0.4-0.13,0.6-0.19c0.2-0.06,0.4-0.12,0.6-0.17c0.2-0.05,0.4-0.11,0.61-0.15l0.15,0.62l0.15,0.62
				c-0.19,0.05-0.38,0.09-0.57,0.14l-0.17-0.62c-0.2,0.05-0.39,0.11-0.59,0.17l0.18,0.61l0.18,0.61c0.18-0.05,0.37-0.11,0.55-0.16
				c0.18-0.05,0.37-0.1,0.55-0.14c0.19-0.04,0.37-0.08,0.56-0.12l-0.13-0.63l-0.13-0.63l-0.13-0.63l-0.13-0.63
				c-0.21,0.04-0.42,0.09-0.63,0.14c-0.21,0.05-0.42,0.1-0.63,0.16c-0.21,0.06-0.42,0.11-0.62,0.18c-0.21,0.06-0.41,0.13-0.62,0.19
				c-0.2,0.07-0.41,0.14-0.61,0.21l0.22,0.6l0.22,0.6l0.22,0.6l0.22,0.6L17.54,6c-0.3,0.11-0.6,0.23-0.9,0.36
				c-1.6,0.67-3.08,1.55-4.42,2.62l-0.3-0.37l-0.4-0.5l-0.4-0.5l-0.4-0.5c0.16-0.13,0.33-0.26,0.5-0.38
				c0.17-0.12,0.34-0.25,0.51-0.37c0.17-0.12,0.34-0.24,0.52-0.35l0.35,0.54l0.35,0.54c-0.16,0.11-0.33,0.22-0.49,0.33L12.1,6.86
				c-0.17,0.12-0.33,0.24-0.49,0.36l0.38,0.51l0.38,0.51c0.15-0.11,0.31-0.23,0.46-0.33c0.16-0.11,0.31-0.22,0.47-0.32
				c0.16-0.1,0.32-0.21,0.48-0.31l-0.34-0.55l-0.34-0.55l-0.34-0.55L12.44,5.1c-0.18,0.11-0.36,0.23-0.54,0.35
				c-0.18,0.12-0.36,0.24-0.53,0.36c-0.18,0.12-0.35,0.25-0.52,0.38c-0.17,0.13-0.34,0.26-0.51,0.39c-0.17,0.13-0.34,0.27-0.5,0.41
				l0.41,0.49l0.41,0.49l0.41,0.49l0.41,0.49l0.31,0.37c-0.42,0.36-0.84,0.73-1.23,1.13c-1.06,1.06-1.99,2.23-2.76,3.49l-0.41-0.25
				l-0.55-0.34l-0.55-0.34l-0.55-0.34c0.11-0.18,0.22-0.35,0.34-0.53c0.12-0.17,0.23-0.35,0.35-0.52c0.12-0.17,0.24-0.34,0.37-0.51
				l0.51,0.38l0.51,0.38c-0.12,0.16-0.23,0.32-0.35,0.48L6.96,12c-0.12,0.17-0.23,0.33-0.34,0.5l0.54,0.35l0.54,0.35
				c0.1-0.16,0.21-0.32,0.32-0.47c0.11-0.16,0.22-0.31,0.33-0.46c0.11-0.15,0.23-0.3,0.35-0.45l-0.5-0.4l-0.5-0.4l-0.5-0.4l-0.5-0.4
				c-0.13,0.17-0.26,0.34-0.39,0.51c-0.13,0.17-0.25,0.35-0.38,0.52c-0.12,0.18-0.24,0.35-0.36,0.53c-0.12,0.18-0.23,0.36-0.35,0.54
				c-0.11,0.18-0.22,0.37-0.33,0.55l0.56,0.32l0.56,0.32l0.56,0.32l0.56,0.32l0.41,0.24c-0.39,0.68-0.75,1.39-1.06,2.12
				c-0.49,1.16-0.86,2.36-1.11,3.58l-0.47-0.1L4.23,19.9l-0.63-0.13l-0.63-0.13c0.04-0.2,0.09-0.41,0.14-0.61
				c0.05-0.2,0.1-0.41,0.15-0.61c0.05-0.2,0.11-0.4,0.17-0.6L4.05,18l0.61,0.18c-0.06,0.19-0.11,0.38-0.16,0.57l-0.62-0.17
				c-0.05,0.2-0.1,0.39-0.15,0.59l0.62,0.15l0.62,0.15c0.04-0.19,0.09-0.37,0.14-0.55c0.05-0.18,0.1-0.37,0.16-0.55
				c0.05-0.18,0.11-0.36,0.17-0.54l-0.61-0.2l-0.61-0.2l-0.61-0.2l-0.61-0.2c-0.07,0.2-0.13,0.41-0.19,0.62
				c-0.06,0.21-0.12,0.41-0.18,0.62c-0.06,0.21-0.11,0.42-0.16,0.63c-0.05,0.21-0.1,0.42-0.14,0.63c-0.04,0.21-0.08,0.42-0.12,0.63
				l0.63,0.11l0.63,0.11l0.63,0.11l0.63,0.11l0.47,0.08c-0.19,1.09-0.29,2.2-0.29,3.33c0,0.94,0.07,1.87,0.2,2.78l-0.47,0.07
				l-0.64,0.09L3.4,27.03l-0.64,0.09c-0.03-0.21-0.06-0.41-0.08-0.62c-0.02-0.21-0.04-0.42-0.06-0.62
				c-0.02-0.21-0.03-0.42-0.04-0.63l0.64-0.04l0.64-0.04c0.01,0.2,0.03,0.39,0.04,0.59l-0.64,0.06c0.02,0.2,0.04,0.4,0.06,0.61
				l0.64-0.07l0.64-0.07c-0.02-0.19-0.04-0.38-0.06-0.57c-0.02-0.19-0.03-0.38-0.04-0.57c-0.01-0.19-0.02-0.38-0.02-0.57l-0.64,0.02
				l-0.64,0.02l-0.64,0.02L1.9,24.65c0.01,0.21,0.02,0.43,0.03,0.64c0.01,0.21,0.03,0.43,0.05,0.64c0.02,0.21,0.04,0.43,0.06,0.64
				C2.07,26.79,2.1,27,2.13,27.22c0.03,0.21,0.07,0.43,0.1,0.64l0.63-0.11l0.63-0.11l0.63-0.11l0.63-0.11l0.47-0.08
				c0.25,1.41,0.65,2.79,1.22,4.13c0.24,0.56,0.5,1.1,0.78,1.64l-0.42,0.23l-0.56,0.31l-0.56,0.31l-0.56,0.3
				c-0.1-0.18-0.2-0.37-0.29-0.56c-0.09-0.19-0.19-0.37-0.27-0.56c-0.09-0.19-0.17-0.38-0.26-0.57l0.59-0.25l0.59-0.25
				c0.08,0.18,0.16,0.36,0.24,0.54l-0.58,0.27c0.09,0.18,0.17,0.37,0.27,0.55l0.57-0.29l0.57-0.29c-0.09-0.17-0.17-0.34-0.25-0.51
				c-0.08-0.17-0.16-0.35-0.23-0.52c-0.08-0.17-0.15-0.35-0.22-0.53l-0.6,0.24l-0.6,0.24l-0.6,0.24l-0.6,0.24
				c0.08,0.2,0.16,0.4,0.25,0.6c0.09,0.2,0.17,0.39,0.26,0.59c0.09,0.2,0.19,0.39,0.28,0.58c0.1,0.19,0.2,0.38,0.3,0.57
				c0.1,0.19,0.21,0.38,0.32,0.56l0.56-0.32l0.56-0.32l0.56-0.32l0.56-0.32l0.41-0.24c0.83,1.44,1.85,2.77,3.05,3.97
				c0.26,0.26,0.53,0.52,0.81,0.77l-0.32,0.36l-0.43,0.48l-0.43,0.48l-0.43,0.48c-0.16-0.14-0.31-0.28-0.46-0.42
				c-0.15-0.14-0.3-0.29-0.45-0.44c-0.15-0.15-0.29-0.3-0.44-0.45l0.47-0.44l0.47-0.44c0.13,0.14,0.27,0.28,0.41,0.42L9.3,38.79
				c0.14,0.14,0.29,0.28,0.44,0.42l0.44-0.47l0.44-0.47c-0.14-0.13-0.28-0.26-0.41-0.4c-0.13-0.13-0.27-0.27-0.4-0.41
				c-0.13-0.14-0.26-0.28-0.39-0.42l-0.48,0.43l-0.48,0.43l-0.48,0.43l-0.48,0.43c0.14,0.16,0.29,0.32,0.44,0.48
				c0.15,0.16,0.3,0.31,0.45,0.46c0.15,0.15,0.31,0.3,0.46,0.45c0.16,0.15,0.32,0.29,0.48,0.44c0.16,0.14,0.32,0.28,0.49,0.42
				l0.41-0.49l0.41-0.49l0.41-0.49l0.41-0.49l0.31-0.37c1.46,1.23,3.09,2.23,4.86,2.97c0.13,0.05,0.25,0.11,0.38,0.16l-0.18,0.45
				l-0.24,0.6l-0.24,0.6l-0.24,0.6c-0.19-0.08-0.39-0.16-0.58-0.24c-0.19-0.08-0.38-0.17-0.57-0.26c-0.19-0.09-0.38-0.18-0.56-0.27
				l0.29-0.57l0.29-0.57c0.18,0.09,0.35,0.17,0.53,0.26l-0.27,0.58c0.18,0.09,0.37,0.17,0.55,0.25l0.25-0.59l0.25-0.59
				c-0.17-0.08-0.35-0.15-0.52-0.23c-0.17-0.08-0.34-0.16-0.51-0.25c-0.17-0.09-0.34-0.17-0.51-0.26l-0.3,0.56l-0.31,0.56l-0.3,0.56
				l-0.31,0.56c0.19,0.1,0.38,0.2,0.57,0.3c0.19,0.1,0.39,0.19,0.58,0.28c0.2,0.09,0.39,0.18,0.59,0.26c0.2,0.09,0.4,0.17,0.6,0.25
				c0.2,0.08,0.4,0.16,0.6,0.23l0.22-0.6l0.22-0.6l0.22-0.6l0.22-0.6L17.54,42c1.92,0.7,3.93,1.08,5.99,1.14l-0.01,0.48l-0.02,0.64
				l-0.02,0.64l-0.02,0.64c-0.21-0.01-0.42-0.01-0.63-0.03c-0.21-0.01-0.42-0.03-0.63-0.04c-0.21-0.02-0.42-0.04-0.62-0.06
				l0.07-0.64l0.07-0.64c0.2,0.02,0.39,0.04,0.59,0.06l-0.06,0.64c0.2,0.02,0.4,0.03,0.61,0.04l0.04-0.64l0.04-0.64
				c-0.19-0.01-0.38-0.02-0.57-0.04c-0.19-0.02-0.38-0.04-0.57-0.06c-0.19-0.02-0.38-0.05-0.57-0.07l-0.09,0.63l-0.09,0.63
				l-0.09,0.64l-0.09,0.64c0.21,0.03,0.43,0.06,0.64,0.08c0.21,0.02,0.43,0.05,0.64,0.06c0.21,0.02,0.43,0.03,0.64,0.05
				c0.21,0.01,0.43,0.02,0.64,0.03c0.22,0.01,0.43,0.01,0.65,0.01v-0.64v-0.64v-0.64v-0.64v-0.48c2.07,0,4.09-0.33,6.03-0.97
				l0.15,0.45l0.2,0.61l0.2,0.61l0.2,0.61c-0.2,0.07-0.4,0.13-0.6,0.19c-0.2,0.06-0.4,0.12-0.6,0.17c-0.2,0.05-0.4,0.11-0.61,0.15
				l-0.15-0.62l-0.15-0.62c0.19-0.04,0.38-0.09,0.57-0.14l0.17,0.62c0.2-0.05,0.39-0.11,0.59-0.17l-0.18-0.61l-0.18-0.61
				c-0.18,0.05-0.37,0.11-0.55,0.16c-0.18,0.05-0.37,0.1-0.55,0.14c-0.19,0.04-0.37,0.08-0.56,0.12l0.13,0.63l0.13,0.63l0.13,0.63
				l0.13,0.63c0.21-0.04,0.42-0.09,0.63-0.14c0.21-0.05,0.42-0.1,0.63-0.16c0.21-0.06,0.42-0.11,0.62-0.18
				c0.21-0.06,0.41-0.13,0.62-0.19c0.2-0.07,0.41-0.14,0.61-0.21l-0.22-0.6l-0.22-0.6l-0.22-0.6l-0.22-0.6L30.65,42
				c0.3-0.11,0.6-0.23,0.9-0.36c1.6-0.67,3.08-1.55,4.42-2.62l0.3,0.37l0.4,0.5l0.4,0.5l0.4,0.5c-0.16,0.13-0.33,0.26-0.5,0.38
				c-0.17,0.12-0.34,0.25-0.51,0.37c-0.17,0.12-0.34,0.24-0.52,0.35l-0.35-0.54l-0.35-0.54c0.16-0.11,0.33-0.22,0.49-0.33l0.37,0.53
				c0.17-0.12,0.33-0.24,0.49-0.36l-0.38-0.51l-0.38-0.51c-0.15,0.11-0.31,0.23-0.46,0.33c-0.16,0.11-0.31,0.22-0.47,0.32
				c-0.16,0.1-0.32,0.21-0.48,0.31l0.34,0.55l0.34,0.55l0.34,0.55l0.34,0.55c0.18-0.11,0.36-0.23,0.54-0.35
				c0.18-0.12,0.36-0.24,0.53-0.36c0.18-0.12,0.35-0.25,0.52-0.38c0.17-0.13,0.34-0.26,0.51-0.39c0.17-0.13,0.34-0.27,0.5-0.41
				l-0.41-0.49L37.54,40.02z M24.09,42.59C13.84,42.59,5.5,34.25,5.5,24c0-10.25,8.34-18.59,18.59-18.59
				c10.25,0,18.59,8.34,18.59,18.59C42.69,34.25,34.35,42.59,24.09,42.59z"/>
		</g>
		<linearGradient id="SVGID_3_" gradientUnits="userSpaceOnUse" x1="10.2221" y1="21.6001" x2="37.9675" y2="21.6001">
			<stop  offset="0" style="stop-color:#B7854D"/>
			<stop  offset="0.1515" style="stop-color:#F5D98F"/>
			<stop  offset="0.303" style="stop-color:#FFF9B3"/>
			<stop  offset="0.5212" style="stop-color:#F4D88E"/>
			<stop  offset="0.6424" style="stop-color:#FEF9B4"/>
			<stop  offset="0.8424" style="stop-color:#D4AF66"/>
			<stop  offset="1" style="stop-color:#B7854D"/>
		</linearGradient>
		<polygon class="st2" points="24.09,9.31 10.22,33.89 12.3,33.89 13.93,33.89 14.96,33.89 17.62,33.89 15.78,30.62 24.09,15.88 
			32.41,30.62 30.57,33.89 33.23,33.89 34.26,33.89 35.89,33.89 37.97,33.89 		"/>
	</g>
</g>
</svg>
