<?xml version="1.0" encoding="utf-8"?>
<!-- Generator: Adobe Illustrator 25.0.0, SVG Export Plug-In . SVG Version: 6.00 Build 0)  -->
<svg version="1.1" xmlns="http://www.w3.org/2000/svg" xmlns:xlink="http://www.w3.org/1999/xlink" x="0px" y="0px"
	 viewBox="0 0 512 512" style="enable-background:new 0 0 512 512;" xml:space="preserve">
<style type="text/css">
	.st0{fill:url(#SVGID_1_);}
	.st1{fill:url(#SVGID_2_);}
	.st2{fill:url(#SVGID_3_);}
</style>
<g id="Layer_2">
</g>
<g id="Layer_3">
</g>
<g id="Layer_1">
	<g>
		<g>
			<linearGradient id="SVGID_1_" gradientUnits="userSpaceOnUse" x1="3.6906" y1="256.0002" x2="508.499" y2="256.0002">
				<stop  offset="0" style="stop-color:#B7854D"/>
				<stop  offset="0.1515" style="stop-color:#F5D98F"/>
				<stop  offset="0.303" style="stop-color:#FFF9B3"/>
				<stop  offset="0.5212" style="stop-color:#F4D88E"/>
				<stop  offset="0.6424" style="stop-color:#FEF9B4"/>
				<stop  offset="0.8424" style="stop-color:#D4AF66"/>
				<stop  offset="1" style="stop-color:#B7854D"/>
			</linearGradient>
			<path class="st0" d="M488.66,157.75c-12.71-30.06-30.91-57.05-54.09-80.23c-23.18-23.18-50.17-41.38-80.23-54.09
				c-31.12-13.16-64.18-19.84-98.25-19.84c-34.07,0-67.13,6.67-98.25,19.84c-30.06,12.71-57.05,30.91-80.23,54.09
				c-23.18,23.18-41.38,50.17-54.09,80.23C10.36,188.87,3.69,221.93,3.69,256c0,34.07,6.67,67.13,19.84,98.25
				c12.71,30.06,30.91,57.05,54.09,80.23c23.18,23.18,50.17,41.38,80.23,54.09c31.12,13.16,64.18,19.84,98.25,19.84
				c34.07,0,67.13-6.67,98.25-19.84c30.06-12.71,57.05-30.91,80.23-54.09c23.18-23.18,41.38-50.17,54.09-80.23
				c13.16-31.12,19.84-64.17,19.84-98.25C508.5,221.93,501.82,188.87,488.66,157.75z M379.24,469.26l-2.64-4.56l-3.49-6.03
				l-3.49-6.03l-3.49-6.03l-3.49-6.03c-1.79,1.03-3.59,2.04-5.41,3.03c-1.82,0.98-3.65,1.94-5.49,2.87c-1.85,0.93-3.7,1.83-5.58,2.7
				c-1.87,0.87-3.76,1.72-5.65,2.54c-1.9,0.82-3.81,1.61-5.72,2.37l2.57,6.47l2.57,6.47l2.57,6.47l2.57,6.47
				c2.17-0.86,4.33-1.76,6.48-2.68c2.14-0.93,4.28-1.89,6.4-2.87c2.12-0.99,4.22-2.01,6.31-3.06l-3.13-6.22l-3.13-6.22
				c-1.97,0.99-3.95,1.95-5.94,2.88l2.95,6.31c-2.06,0.96-4.13,1.89-6.21,2.79l-2.76-6.39l-2.76-6.39c1.96-0.85,3.9-1.72,5.84-2.62
				c1.93-0.9,3.85-1.84,5.76-2.79c1.91-0.96,3.8-1.95,5.67-2.96l3.31,6.13l3.31,6.13l3.31,6.13l2.51,4.64
				c-22.8,12.34-47.75,21.19-74.14,25.83l-0.92-5.26l-1.2-6.86l-1.2-6.86l-1.2-6.86l-1.2-6.86c-2.04,0.36-4.08,0.68-6.12,0.98
				c-2.04,0.3-4.09,0.56-6.15,0.8c-2.05,0.24-4.11,0.45-6.17,0.62c-2.06,0.18-4.12,0.33-6.19,0.45c-2.07,0.12-4.13,0.2-6.2,0.26
				l0.2,6.96l0.2,6.96l0.2,6.96l0.2,6.96c2.33-0.07,4.67-0.17,7-0.3c2.33-0.13,4.66-0.3,6.99-0.5c2.33-0.2,4.65-0.43,6.97-0.7
				l-0.8-6.92l-0.8-6.92c-2.19,0.25-4.38,0.47-6.57,0.66l0.6,6.94c-2.26,0.19-4.52,0.36-6.79,0.49l-0.4-6.95l-0.4-6.95
				c2.13-0.12,4.26-0.28,6.39-0.46c2.13-0.18,4.25-0.4,6.37-0.64c2.12-0.25,4.24-0.52,6.35-0.83l1,6.89l1,6.89l1,6.89l0.77,5.29
				c-11.65,1.7-23.57,2.58-35.68,2.58c-14.58,0-28.87-1.28-42.76-3.72l0.92-5.26l1.2-6.86l1.2-6.86l1.2-6.86l1.2-6.86
				c-2.03-0.36-4.07-0.74-6.09-1.16c-2.02-0.42-4.04-0.86-6.05-1.34c-2.01-0.47-4.01-0.98-6.01-1.51c-2-0.53-3.98-1.09-5.96-1.69
				c-1.98-0.59-3.95-1.21-5.91-1.86l-2.19,6.61l-2.19,6.61l-2.19,6.61l-2.19,6.61c2.22,0.73,4.45,1.44,6.69,2.11
				c2.24,0.67,4.49,1.31,6.75,1.91c2.26,0.6,4.53,1.18,6.8,1.71l1.6-6.78l1.6-6.78c-2.14-0.5-4.28-1.04-6.4-1.61l-1.8,6.73
				c-2.19-0.59-4.38-1.2-6.55-1.85l1.99-6.67l2-6.67c2.04,0.61,4.1,1.19,6.16,1.74c2.06,0.55,4.13,1.08,6.21,1.56
				c2.08,0.49,4.16,0.95,6.25,1.38l-1.4,6.82l-1.4,6.82l-1.4,6.82l-1.08,5.23c-26.2-5.4-50.89-14.97-73.34-27.99l2.64-4.56
				l3.49-6.03l3.49-6.03l3.49-6.03l3.49-6.03c-1.79-1.04-3.56-2.09-5.32-3.18c-1.76-1.09-3.5-2.2-5.23-3.34
				c-1.73-1.14-3.43-2.3-5.13-3.49c-1.69-1.19-3.37-2.4-5.02-3.64c-1.66-1.23-3.3-2.5-4.92-3.78l-4.32,5.46l-4.32,5.46l-4.32,5.46
				l-4.32,5.46c1.83,1.45,3.68,2.88,5.56,4.27c1.87,1.4,3.77,2.77,5.68,4.11c1.91,1.34,3.85,2.65,5.8,3.94l3.83-5.82l3.83-5.81
				c-1.84-1.21-3.66-2.45-5.46-3.72l-4,5.7c-1.86-1.3-3.7-2.63-5.51-3.99l4.16-5.58l4.16-5.58c1.71,1.27,3.44,2.53,5.19,3.75
				c1.75,1.23,3.51,2.43,5.29,3.6c1.78,1.17,3.58,2.32,5.4,3.44l-3.66,5.93l-3.66,5.92l-3.66,5.92l-2.77,4.48
				c-22.4-13.87-42.43-31.23-59.31-51.32l4.02-3.38l5.33-4.48l5.33-4.48l5.33-4.48l5.33-4.48c-1.33-1.58-2.64-3.18-3.92-4.81
				c-1.28-1.62-2.54-3.26-3.78-4.92c-1.23-1.66-2.45-3.33-3.63-5.02c-1.19-1.69-2.35-3.4-3.49-5.13c-1.14-1.72-2.25-3.47-3.34-5.22
				l-5.92,3.66l-5.92,3.66l-5.92,3.66L51,382.52c1.23,1.99,2.49,3.96,3.77,5.91c1.29,1.95,2.6,3.88,3.94,5.79
				c1.34,1.91,2.71,3.81,4.11,5.68l5.58-4.16l5.58-4.16c-1.31-1.77-2.61-3.55-3.87-5.35l-5.7,4c-1.3-1.86-2.58-3.74-3.83-5.63
				l5.82-3.83l5.82-3.83c1.18,1.78,2.37,3.55,3.6,5.29c1.23,1.75,2.48,3.48,3.75,5.19c1.27,1.71,2.58,3.4,3.9,5.08l-5.46,4.32
				l-5.46,4.32l-5.46,4.32l-4.11,3.26c-16.2-20.45-29.24-43.52-38.34-68.47l4.99-1.82l6.54-2.38l6.54-2.38l6.54-2.38l6.54-2.38
				c-0.71-1.94-1.39-3.89-2.04-5.85c-0.65-1.96-1.27-3.93-1.86-5.91c-0.59-1.98-1.15-3.97-1.69-5.96c-0.53-1.99-1.04-4-1.51-6.01
				c-0.47-2.01-0.92-4.03-1.34-6.05l-6.82,1.4l-6.82,1.4l-6.82,1.4l-6.82,1.4c0.47,2.29,0.98,4.57,1.51,6.85
				c0.54,2.28,1.11,4.54,1.71,6.8c0.6,2.26,1.24,4.51,1.91,6.75l6.67-1.99l6.67-2c-0.63-2.11-1.23-4.23-1.8-6.36l-6.73,1.8
				c-0.59-2.19-1.14-4.39-1.66-6.6l6.78-1.6l6.78-1.6c0.49,2.08,1.01,4.14,1.56,6.21c0.55,2.06,1.13,4.11,1.74,6.16
				c0.61,2.04,1.25,4.08,1.92,6.1l-6.61,2.19l-6.61,2.19l-6.61,2.19l-5.04,1.67C14.17,309.11,9.78,283.06,9.78,256l0,0h5.36h6.96
				h6.96h6.96H43c0-2.07,0.03-4.14,0.09-6.21c0.06-2.07,0.15-4.13,0.26-6.2c0.12-2.06,0.27-4.13,0.45-6.19
				c0.18-2.06,0.38-4.12,0.62-6.17c0.24-2.05,0.5-4.1,0.8-6.15l-6.89-1l-6.89-1l-6.89-1l-6.89-1c-0.34,2.31-0.64,4.63-0.91,6.95
				c-0.27,2.32-0.5,4.65-0.7,6.97c-0.2,2.33-0.37,4.66-0.5,6.99l6.95,0.4l6.95,0.4c0.13-2.2,0.28-4.39,0.47-6.59l-6.94-0.6
				c0.2-2.26,0.42-4.52,0.68-6.77l6.92,0.8l6.92,0.8c-0.25,2.12-0.46,4.24-0.64,6.37c-0.18,2.13-0.34,4.26-0.46,6.39
				c-0.12,2.13-0.21,4.26-0.27,6.4l-6.96-0.2l-6.96-0.2l-6.96-0.2l-5.35-0.15c0.77-27,5.91-52.92,14.74-77.09l4.99,1.82l6.54,2.38
				l6.54,2.38l6.54,2.38l6.54,2.38c0.71-1.94,1.44-3.87,2.2-5.79c0.76-1.92,1.55-3.83,2.37-5.72c0.82-1.9,1.67-3.78,2.54-5.65
				c0.88-1.87,1.78-3.73,2.71-5.58c0.93-1.85,1.88-3.68,2.87-5.5l-6.13-3.31l-6.13-3.31l-6.13-3.31l-6.13-3.31
				c-1.11,2.06-2.19,4.13-3.24,6.22c-1.05,2.09-2.07,4.19-3.06,6.31c-0.99,2.12-1.95,4.25-2.87,6.4l6.39,2.76l6.39,2.76
				c0.87-2.02,1.78-4.03,2.71-6.02l-6.31-2.95c0.96-2.06,1.95-4.1,2.97-6.12l6.22,3.13l6.22,3.13c-0.96,1.91-1.89,3.83-2.79,5.76
				c-0.9,1.93-1.78,3.88-2.62,5.84c-0.85,1.96-1.66,3.93-2.45,5.91l-6.47-2.57l-6.47-2.57l-6.47-2.57l-4.93-1.96
				c9.82-24.64,23.51-47.33,40.31-67.32l4.02,3.37l5.33,4.48l5.33,4.48l5.33,4.48l5.33,4.48c1.33-1.58,2.68-3.15,4.06-4.69
				c1.38-1.54,2.77-3.07,4.19-4.57c1.42-1.5,2.86-2.99,4.32-4.45c1.46-1.46,2.95-2.9,4.45-4.32c1.5-1.42,3.03-2.81,4.57-4.19
				l-4.63-5.2l-4.63-5.2l-4.63-5.2L95.91,76c-1.74,1.55-3.47,3.13-5.16,4.73c-1.7,1.6-3.37,3.23-5.03,4.88
				c-1.65,1.65-3.28,3.33-4.88,5.03l5.06,4.78l5.07,4.78c1.51-1.6,3.05-3.18,4.6-4.74l-4.92-4.92c1.61-1.6,3.23-3.18,4.88-4.74
				l4.78,5.06l4.78,5.06c-1.55,1.47-3.08,2.95-4.59,4.46c-1.51,1.51-3,3.04-4.46,4.59c-1.47,1.55-2.91,3.13-4.33,4.72l-5.2-4.63
				l-5.2-4.63l-5.2-4.63l-3.92-3.49c17.44-19.58,37.95-36.36,60.77-49.59l2.64,4.56l3.49,6.03l3.49,6.03l3.49,6.03l3.49,6.03
				c1.79-1.04,3.59-2.04,5.41-3.03c1.82-0.98,3.65-1.94,5.5-2.87c1.85-0.93,3.7-1.83,5.58-2.71c1.87-0.87,3.76-1.72,5.65-2.54
				c1.9-0.82,3.81-1.61,5.72-2.37l-2.57-6.47l-2.57-6.47l-2.57-6.47l-2.57-6.47c-2.17,0.86-4.33,1.76-6.48,2.69
				c-2.15,0.93-4.28,1.89-6.4,2.87c-2.12,0.99-4.22,2.01-6.31,3.06l3.13,6.22l3.13,6.22c1.97-0.99,3.95-1.95,5.94-2.88l-2.95-6.31
				c2.06-0.96,4.13-1.89,6.21-2.79l2.76,6.39l2.76,6.39c-1.96,0.85-3.9,1.72-5.84,2.62c-1.93,0.9-3.85,1.83-5.76,2.79
				c-1.91,0.96-3.8,1.95-5.68,2.96l-3.31-6.13l-3.31-6.13l-3.31-6.13l-2.51-4.64c22.8-12.34,47.75-21.19,74.14-25.83l0.92,5.26
				l1.2,6.86l1.2,6.86l1.2,6.86l1.2,6.86c2.03-0.36,4.08-0.68,6.12-0.98c2.04-0.3,4.09-0.56,6.15-0.8c2.05-0.24,4.11-0.44,6.17-0.62
				c2.06-0.18,4.12-0.33,6.19-0.45c2.07-0.12,4.13-0.21,6.2-0.27l-0.2-6.96l-0.2-6.96l-0.2-6.96l-0.2-6.96
				c-2.33,0.07-4.67,0.17-7,0.3c-2.33,0.13-4.66,0.3-6.99,0.5c-2.33,0.2-4.65,0.43-6.97,0.7l0.8,6.92l0.8,6.92
				c2.19-0.25,4.38-0.47,6.57-0.66l-0.6-6.94c2.26-0.2,4.52-0.36,6.79-0.49l0.4,6.95l0.4,6.95c-2.13,0.12-4.26,0.28-6.39,0.46
				c-2.13,0.18-4.25,0.4-6.37,0.64c-2.12,0.25-4.24,0.52-6.35,0.83l-1-6.89l-1-6.89l-1-6.89l-0.77-5.29
				c11.65-1.7,23.56-2.58,35.68-2.58c14.58,0,28.87,1.28,42.76,3.72l-0.92,5.26l-1.2,6.86l-1.2,6.86l-1.2,6.86l-1.2,6.86
				c2.03,0.36,4.07,0.74,6.09,1.16c2.02,0.42,4.04,0.86,6.05,1.34c2.01,0.47,4.01,0.98,6.01,1.51c2,0.53,3.98,1.09,5.96,1.69
				c1.98,0.59,3.95,1.21,5.91,1.86l2.19-6.61l2.19-6.61l2.19-6.61l2.19-6.61c-2.22-0.73-4.45-1.44-6.69-2.11
				c-2.24-0.67-4.49-1.31-6.75-1.91c-2.26-0.6-4.53-1.18-6.8-1.71l-1.6,6.78l-1.6,6.78c2.14,0.5,4.28,1.04,6.41,1.61l1.8-6.73
				c2.19,0.59,4.38,1.2,6.55,1.85l-1.99,6.67l-1.99,6.67c-2.04-0.61-4.1-1.19-6.16-1.74c-2.06-0.55-4.13-1.07-6.21-1.56
				c-2.08-0.49-4.16-0.95-6.25-1.38l1.4-6.82l1.4-6.82l1.4-6.82l1.08-5.23c26.2,5.4,50.89,14.97,73.34,27.99l-2.64,4.56l-3.49,6.03
				l-3.49,6.03l-3.49,6.03l-3.49,6.03c1.79,1.04,3.56,2.09,5.32,3.18c1.76,1.09,3.5,2.2,5.23,3.34c1.73,1.14,3.44,2.3,5.13,3.49
				c1.69,1.19,3.37,2.4,5.02,3.63c1.66,1.23,3.29,2.5,4.92,3.78l4.32-5.46l4.32-5.46l4.32-5.46l4.32-5.46
				c-1.83-1.45-3.68-2.87-5.56-4.27c-1.87-1.4-3.77-2.77-5.68-4.11c-1.91-1.34-3.85-2.65-5.8-3.94l-3.83,5.81l-3.83,5.82
				c1.84,1.21,3.66,2.45,5.46,3.71l4-5.7c1.86,1.3,3.7,2.63,5.52,3.99l-4.16,5.58l-4.16,5.58c-1.71-1.28-3.44-2.53-5.19-3.75
				c-1.75-1.23-3.51-2.43-5.29-3.6c-1.78-1.18-3.58-2.32-5.39-3.45l3.66-5.92l3.66-5.92l3.66-5.92l2.77-4.48
				c22.4,13.87,42.43,31.23,59.31,51.32l-4.01,3.37l-5.33,4.48l-5.33,4.48l-5.33,4.48l-5.33,4.48c1.33,1.58,2.64,3.18,3.92,4.81
				c1.28,1.62,2.55,3.26,3.78,4.92c1.23,1.66,2.45,3.33,3.63,5.02c1.19,1.69,2.35,3.4,3.49,5.13c1.14,1.73,2.25,3.47,3.33,5.23
				l5.92-3.66l5.92-3.66l5.93-3.66l5.92-3.66c-1.23-1.99-2.48-3.96-3.77-5.91c-1.29-1.95-2.6-3.88-3.94-5.8
				c-1.34-1.91-2.71-3.81-4.11-5.68l-5.58,4.16l-5.58,4.16c1.32,1.77,2.61,3.55,3.87,5.35l5.7-4c1.3,1.86,2.58,3.74,3.83,5.63
				l-5.81,3.83l-5.82,3.83c-1.18-1.78-2.38-3.55-3.6-5.29c-1.23-1.75-2.48-3.48-3.75-5.19c-1.27-1.71-2.58-3.4-3.9-5.08l5.46-4.32
				l5.46-4.32l5.46-4.32l4.11-3.26c16.21,20.45,29.24,43.52,38.34,68.47l-4.99,1.82l-6.54,2.38l-6.54,2.38l-6.54,2.38l-6.55,2.38
				c0.71,1.94,1.39,3.89,2.03,5.85c0.65,1.96,1.27,3.93,1.86,5.91c0.59,1.98,1.15,3.97,1.69,5.96c0.53,2,1.04,4,1.51,6.01
				c0.47,2.01,0.92,4.03,1.33,6.05l6.82-1.4l6.82-1.4l6.82-1.4l6.82-1.4c-0.47-2.29-0.97-4.57-1.51-6.85
				c-0.53-2.28-1.11-4.54-1.71-6.8c-0.6-2.26-1.24-4.51-1.91-6.75l-6.67,2l-6.67,1.99c0.63,2.11,1.23,4.23,1.8,6.36l6.73-1.8
				c0.59,2.19,1.14,4.39,1.66,6.6l-6.78,1.6l-6.78,1.6c-0.49-2.08-1.01-4.14-1.56-6.21c-0.55-2.06-1.13-4.11-1.74-6.16
				c-0.61-2.04-1.25-4.08-1.92-6.11l6.61-2.19l6.61-2.19l6.61-2.19l5.04-1.67c8.1,24.37,12.49,50.42,12.49,77.48h-5.36h-6.96h-6.97
				h-6.96h-6.97c0,2.07-0.03,4.14-0.09,6.21c-0.06,2.07-0.15,4.14-0.26,6.2c-0.12,2.06-0.27,4.13-0.45,6.19
				c-0.18,2.06-0.38,4.12-0.62,6.17c-0.24,2.05-0.5,4.1-0.8,6.15l6.89,1l6.89,1l6.89,1l6.89,1c0.34-2.31,0.64-4.63,0.91-6.95
				c0.27-2.32,0.5-4.64,0.7-6.97c0.2-2.33,0.37-4.66,0.5-6.99l-6.95-0.4l-6.95-0.4c-0.13,2.2-0.28,4.4-0.47,6.59l6.94,0.6
				c-0.19,2.26-0.42,4.52-0.68,6.77l-6.92-0.8l-6.92-0.8c0.25-2.12,0.46-4.24,0.64-6.37c0.18-2.13,0.34-4.25,0.46-6.39
				c0.12-2.13,0.21-4.26,0.27-6.4l6.96,0.2l6.96,0.2l6.96,0.2l5.35,0.15c-0.77,27-5.91,52.93-14.74,77.09l-4.99-1.82l-6.54-2.38
				l-6.54-2.38l-6.54-2.38l-6.55-2.38c-0.71,1.94-1.44,3.87-2.2,5.79c-0.76,1.92-1.55,3.83-2.37,5.72c-0.82,1.9-1.67,3.78-2.54,5.65
				c-0.87,1.87-1.78,3.73-2.7,5.57c-0.93,1.85-1.89,3.68-2.87,5.5l6.13,3.31l6.13,3.31l6.13,3.31l6.13,3.31
				c1.11-2.06,2.19-4.13,3.24-6.22c1.05-2.09,2.07-4.19,3.06-6.31c0.99-2.12,1.95-4.25,2.87-6.4L471,348.7l-6.39-2.76
				c-0.87,2.02-1.78,4.03-2.71,6.02l6.31,2.95c-0.96,2.06-1.95,4.1-2.97,6.12l-6.22-3.13l-6.22-3.13c0.96-1.91,1.89-3.83,2.8-5.76
				c0.9-1.93,1.77-3.88,2.62-5.84c0.85-1.96,1.66-3.93,2.45-5.91l6.47,2.57l6.47,2.57l6.47,2.57l4.93,1.96
				c-9.82,24.64-23.51,47.32-40.31,67.32l-4.02-3.37l-5.33-4.48l-5.33-4.48l-5.33-4.48l-5.33-4.48c-1.33,1.58-2.68,3.15-4.06,4.69
				c-1.38,1.54-2.77,3.07-4.19,4.57c-1.42,1.5-2.86,2.99-4.32,4.45c-1.46,1.46-2.95,2.9-4.45,4.32c-1.5,1.42-3.03,2.81-4.57,4.19
				l4.63,5.2l4.63,5.2l4.63,5.2l4.63,5.2c1.74-1.55,3.47-3.13,5.17-4.74c1.7-1.6,3.37-3.23,5.02-4.88c1.65-1.65,3.28-3.33,4.88-5.03
				l-5.06-4.78l-5.07-4.78c-1.51,1.6-3.05,3.18-4.6,4.74l4.92,4.92c-1.6,1.6-3.23,3.18-4.88,4.74l-4.78-5.06l-4.78-5.06
				c1.55-1.47,3.08-2.95,4.59-4.46c1.51-1.51,3-3.04,4.46-4.59c1.46-1.55,2.91-3.13,4.33-4.72l5.2,4.63l5.2,4.63l5.2,4.63l3.92,3.49
				C422.57,439.25,402.05,456.03,379.24,469.26z"/>
			<linearGradient id="SVGID_2_" gradientUnits="userSpaceOnUse" x1="15.2435" y1="255.9995" x2="496.9454" y2="255.9995">
				<stop  offset="0" style="stop-color:#B7854D"/>
				<stop  offset="0.1515" style="stop-color:#F5D98F"/>
				<stop  offset="0.303" style="stop-color:#FFF9B3"/>
				<stop  offset="0.5212" style="stop-color:#F4D88E"/>
				<stop  offset="0.6424" style="stop-color:#FEF9B4"/>
				<stop  offset="0.8424" style="stop-color:#D4AF66"/>
				<stop  offset="1" style="stop-color:#B7854D"/>
			</linearGradient>
			<path class="st1" d="M402.02,429.92l-4.48-5.33l-4.48-5.33l-3.34-3.97c4.61-3.88,9.07-7.97,13.37-12.27
				c11.52-11.52,21.55-24.19,29.99-37.86l4.41,2.73l5.92,3.66l5.92,3.66l5.93,3.66c-1.2,1.93-2.41,3.84-3.66,5.74
				c-1.25,1.89-2.53,3.77-3.83,5.63c-1.3,1.86-2.63,3.69-3.99,5.52l-5.58-4.16l-5.58-4.16c1.27-1.71,2.53-3.44,3.75-5.19l5.7,4
				c1.26-1.8,2.5-3.62,3.71-5.46l-5.82-3.83l-5.82-3.83c-1.14,1.73-2.3,3.44-3.49,5.13c-1.19,1.69-2.4,3.37-3.63,5.02
				c-1.23,1.66-2.5,3.3-3.78,4.92l5.46,4.32l5.46,4.32l5.46,4.32l5.46,4.32c1.45-1.83,2.87-3.68,4.27-5.56
				c1.4-1.87,2.77-3.77,4.11-5.68c1.34-1.91,2.65-3.85,3.94-5.79c1.29-1.95,2.54-3.92,3.77-5.91c1.23-1.99,2.43-3.99,3.6-6.02
				l-6.03-3.49l-6.03-3.49l-6.03-3.49l-6.03-3.49l-4.49-2.6c4.28-7.4,8.1-15.08,11.46-23.03c5.33-12.6,9.36-25.58,12.09-38.85
				l5.08,1.04l6.82,1.4l6.82,1.4l6.82,1.4c-0.46,2.22-0.95,4.44-1.47,6.65c-0.52,2.21-1.08,4.41-1.66,6.6
				c-0.59,2.19-1.2,4.38-1.85,6.55l-6.67-2l-6.67-1.99c0.61-2.04,1.19-4.1,1.74-6.16l6.73,1.8c0.57-2.13,1.11-4.26,1.61-6.4
				l-6.78-1.6l-6.78-1.6c-0.47,2.01-0.98,4.01-1.51,6.01c-0.53,2-1.09,3.98-1.69,5.96c-0.59,1.98-1.21,3.95-1.86,5.91l6.61,2.19
				l6.61,2.19l6.61,2.19l6.61,2.19c0.73-2.22,1.44-4.45,2.11-6.69c0.67-2.24,1.31-4.49,1.91-6.75c0.6-2.26,1.18-4.53,1.71-6.8
				c0.54-2.28,1.04-4.56,1.51-6.85c0.47-2.29,0.91-4.59,1.31-6.89l-6.86-1.2l-6.86-1.2l-6.86-1.2l-6.86-1.2l-5.11-0.9
				c2.08-11.84,3.12-23.91,3.12-36.13c0-10.18-0.73-20.24-2.16-30.16l5.14-0.75l6.89-1l6.89-1l6.89-1c0.33,2.25,0.62,4.49,0.88,6.75
				c0.26,2.25,0.49,4.51,0.68,6.77c0.2,2.26,0.36,4.52,0.49,6.79l-6.95,0.4l-6.95,0.4c-0.12-2.13-0.28-4.26-0.46-6.39l6.94-0.6
				c-0.19-2.19-0.41-4.38-0.66-6.57l-6.92,0.8l-6.92,0.8c0.24,2.05,0.45,4.11,0.62,6.17c0.18,2.06,0.33,4.12,0.45,6.19
				c0.12,2.06,0.21,4.13,0.26,6.2l6.96-0.2l6.96-0.2l6.96-0.2l6.96-0.2c-0.07-2.33-0.16-4.67-0.3-7c-0.14-2.33-0.3-4.66-0.5-6.99
				c-0.2-2.33-0.44-4.65-0.7-6.97c-0.27-2.32-0.57-4.64-0.91-6.95c-0.33-2.31-0.7-4.62-1.11-6.92l-6.86,1.2l-6.86,1.2l-6.86,1.2
				l-6.86,1.2l-5.11,0.9c-2.69-15.35-7.1-30.32-13.22-44.79c-2.57-6.07-5.41-11.99-8.52-17.75l4.57-2.47l6.13-3.31l6.13-3.31
				l6.13-3.31c1.08,2,2.13,4.01,3.15,6.04c1.02,2.03,2.01,4.07,2.97,6.12c0.96,2.06,1.89,4.13,2.79,6.21l-6.39,2.76l-6.39,2.76
				c-0.85-1.96-1.72-3.91-2.62-5.84l6.31-2.95c-0.93-1.99-1.89-3.98-2.88-5.94l-6.22,3.13l-6.22,3.13c0.93,1.85,1.83,3.7,2.7,5.58
				c0.87,1.87,1.72,3.76,2.54,5.65c0.82,1.9,1.61,3.81,2.37,5.72l6.47-2.57l6.47-2.57l6.47-2.57l6.47-2.57
				c-0.86-2.17-1.76-4.33-2.69-6.48c-0.93-2.15-1.88-4.28-2.87-6.4c-0.99-2.12-2.01-4.22-3.06-6.31c-1.05-2.09-2.13-4.16-3.24-6.22
				c-1.11-2.06-2.25-4.1-3.42-6.12l-6.03,3.49l-6.03,3.49l-6.03,3.49l-6.03,3.49l-4.49,2.6c-9.05-15.67-20.12-30.09-33.09-43.05
				c-2.86-2.86-5.8-5.63-8.8-8.31l3.45-3.88l4.63-5.2l4.63-5.2l4.63-5.2c1.69,1.51,3.37,3.04,5.02,4.6
				c1.65,1.56,3.28,3.14,4.88,4.74c1.6,1.6,3.18,3.23,4.74,4.88l-5.07,4.78l-5.06,4.78c-1.47-1.55-2.95-3.08-4.46-4.59l4.92-4.92
				c-1.56-1.56-3.14-3.09-4.74-4.6l-4.78,5.06l-4.78,5.06c1.5,1.42,2.99,2.86,4.45,4.32c1.46,1.46,2.9,2.95,4.32,4.45
				c1.42,1.5,2.82,3.03,4.19,4.57l5.2-4.63l5.2-4.63l5.2-4.63l5.2-4.63c-1.55-1.74-3.13-3.47-4.74-5.16
				c-1.6-1.7-3.23-3.37-4.88-5.03c-1.65-1.65-3.33-3.28-5.02-4.88c-1.7-1.6-3.42-3.18-5.17-4.73c-1.74-1.55-3.51-3.08-5.3-4.58
				l-4.48,5.33l-4.48,5.33l-4.48,5.33l-4.48,5.33l-3.34,3.97c-15.87-13.34-33.53-24.17-52.71-32.28c-1.38-0.58-2.76-1.15-4.16-1.7
				l1.92-4.84l2.57-6.47l2.57-6.47l2.57-6.47c2.11,0.84,4.21,1.71,6.29,2.61c2.08,0.9,4.15,1.83,6.21,2.79
				c2.05,0.96,4.1,1.95,6.12,2.97L358,53.08l-3.13,6.22c-1.91-0.96-3.83-1.89-5.76-2.79l2.95-6.31c-2-0.93-4-1.83-6.02-2.71
				l-2.76,6.39l-2.76,6.39c1.89,0.82,3.78,1.67,5.65,2.54c1.87,0.88,3.73,1.78,5.58,2.71c1.85,0.93,3.68,1.88,5.49,2.87l3.31-6.13
				l3.31-6.13l3.31-6.13l3.31-6.13c-2.06-1.11-4.13-2.19-6.22-3.24c-2.09-1.05-4.19-2.07-6.31-3.06c-2.12-0.99-4.25-1.95-6.4-2.87
				c-2.14-0.93-4.31-1.82-6.48-2.69c-2.17-0.86-4.36-1.7-6.55-2.5l-2.38,6.54l-2.38,6.54l-2.38,6.54L329,55.7l-1.78,4.89
				c-20.86-7.6-42.67-11.76-65.07-12.39l0.15-5.2l0.2-6.96l0.2-6.96l0.2-6.96c2.27,0.07,4.53,0.16,6.8,0.29
				c2.27,0.13,4.53,0.29,6.79,0.49c2.26,0.2,4.52,0.42,6.77,0.68l-0.8,6.92l-0.8,6.92c-2.12-0.25-4.24-0.46-6.37-0.64l0.6-6.94
				c-2.19-0.19-4.39-0.35-6.59-0.47l-0.4,6.95l-0.4,6.95c2.06,0.12,4.13,0.27,6.19,0.45c2.06,0.18,4.12,0.38,6.17,0.62
				c2.05,0.24,4.1,0.51,6.15,0.8l1-6.89l1-6.89l1-6.89l1-6.89c-2.31-0.34-4.63-0.64-6.95-0.91c-2.32-0.27-4.65-0.5-6.97-0.7
				c-2.33-0.2-4.66-0.37-6.99-0.5c-2.33-0.13-4.67-0.23-7-0.3c-2.33-0.07-4.67-0.1-7-0.1v6.96v6.96v6.96v6.96v5.2c0,0,0,0,0,0
				c-22.47,0-44.4,3.53-65.41,10.5l-1.64-4.94l-2.19-6.61l-2.19-6.61l-2.19-6.61c2.15-0.71,4.32-1.39,6.49-2.04
				c2.17-0.65,4.36-1.27,6.55-1.85c2.19-0.59,4.39-1.14,6.6-1.66l1.6,6.78l1.6,6.78c-2.08,0.49-4.15,1.01-6.21,1.56l-1.8-6.73
				c-2.13,0.57-4.25,1.17-6.36,1.8l2,6.67l2,6.67c1.98-0.59,3.97-1.15,5.96-1.69c2-0.53,4-1.04,6.01-1.51
				c2.01-0.47,4.03-0.92,6.05-1.34l-1.4-6.82l-1.4-6.82l-1.4-6.82l-1.4-6.82c-2.29,0.47-4.57,0.98-6.85,1.51
				c-2.28,0.54-4.54,1.11-6.8,1.71c-2.26,0.6-4.51,1.24-6.75,1.91c-2.24,0.67-4.47,1.37-6.69,2.11c-2.22,0.74-4.43,1.5-6.62,2.3
				l2.38,6.54l2.38,6.54l2.38,6.54l2.38,6.54l1.78,4.89c-3.29,1.2-6.56,2.49-9.8,3.86c-17.31,7.32-33.39,16.86-48.02,28.46
				l-3.22-4.07l-4.32-5.46l-4.32-5.46l-4.32-5.46c1.78-1.41,3.58-2.79,5.4-4.15c1.82-1.36,3.66-2.69,5.51-3.99
				c1.86-1.3,3.73-2.58,5.63-3.83l3.83,5.82l3.83,5.82c-1.78,1.18-3.55,2.37-5.29,3.6l-4-5.7c-1.8,1.26-3.59,2.56-5.35,3.87
				l4.16,5.58l4.16,5.58c1.66-1.24,3.33-2.45,5.02-3.63c1.69-1.19,3.4-2.35,5.13-3.49c1.73-1.14,3.47-2.25,5.23-3.34l-3.66-5.92
				l-3.66-5.92l-3.66-5.92l-3.66-5.92c-1.99,1.23-3.96,2.48-5.91,3.77c-1.95,1.29-3.88,2.6-5.8,3.94c-1.91,1.34-3.81,2.71-5.68,4.11
				c-1.87,1.4-3.72,2.82-5.56,4.27c-1.83,1.45-3.64,2.93-5.43,4.43l4.48,5.33l4.48,5.33l4.48,5.33l4.48,5.33l3.34,3.97
				c-4.61,3.88-9.07,7.97-13.37,12.27c-11.52,11.52-21.55,24.19-29.99,37.86l-4.41-2.72l-5.92-3.66l-5.92-3.66l-5.92-3.66
				c1.19-1.93,2.41-3.84,3.66-5.74c1.25-1.89,2.53-3.77,3.83-5.63c1.3-1.86,2.63-3.69,3.99-5.51l5.58,4.16l5.58,4.16
				c-1.27,1.71-2.53,3.44-3.75,5.19l-5.7-4c-1.26,1.8-2.5,3.62-3.71,5.46l5.82,3.83l5.82,3.83c1.14-1.73,2.3-3.43,3.49-5.13
				c1.19-1.69,2.4-3.37,3.63-5.02c1.23-1.66,2.5-3.3,3.78-4.92l-5.46-4.32l-5.46-4.32l-5.46-4.32l-5.46-4.32
				c-1.45,1.83-2.88,3.68-4.27,5.56c-1.4,1.87-2.77,3.77-4.11,5.68c-1.34,1.91-2.66,3.84-3.94,5.8c-1.29,1.95-2.54,3.92-3.77,5.91
				c-1.23,1.99-2.43,3.99-3.6,6.02l6.03,3.49l6.03,3.49l6.03,3.49l6.03,3.49l4.49,2.6c-4.28,7.4-8.1,15.09-11.46,23.03
				c-5.33,12.6-9.36,25.58-12.09,38.85l-5.08-1.04l-6.82-1.4l-6.82-1.4l-6.82-1.4c0.46-2.22,0.95-4.44,1.47-6.65
				c0.52-2.21,1.08-4.41,1.66-6.6c0.59-2.19,1.2-4.38,1.85-6.55l6.67,1.99l6.67,2c-0.61,2.04-1.19,4.1-1.74,6.16l-6.73-1.8
				c-0.57,2.13-1.11,4.26-1.61,6.4l6.78,1.6l6.78,1.6c0.47-2.01,0.98-4.01,1.51-6.01c0.53-2,1.09-3.98,1.69-5.96
				c0.59-1.98,1.21-3.95,1.86-5.91l-6.61-2.19l-6.61-2.19l-6.61-2.19l-6.61-2.19c-0.73,2.22-1.44,4.45-2.11,6.69
				c-0.67,2.24-1.31,4.49-1.91,6.75c-0.6,2.26-1.18,4.52-1.71,6.8c-0.54,2.28-1.04,4.56-1.51,6.85c-0.47,2.29-0.91,4.59-1.31,6.89
				l6.86,1.2l6.86,1.2l6.86,1.2l6.86,1.2l5.11,0.9c-2.07,11.84-3.12,23.91-3.12,36.13c0,10.18,0.73,20.24,2.16,30.16l-5.14,0.74
				l-6.89,1l-6.89,1l-6.89,1c-0.33-2.25-0.62-4.5-0.88-6.75c-0.26-2.25-0.49-4.51-0.68-6.77c-0.19-2.26-0.36-4.52-0.49-6.79
				l6.95-0.4l6.95-0.4c0.12,2.13,0.28,4.26,0.46,6.39l-6.94,0.6c0.19,2.19,0.41,4.38,0.66,6.57l6.92-0.8l6.92-0.8
				c-0.24-2.05-0.44-4.11-0.62-6.17c-0.18-2.06-0.33-4.12-0.45-6.19c-0.12-2.06-0.21-4.13-0.26-6.2l-6.96,0.2l-6.96,0.2l-6.96,0.2
				l-6.96,0.2c0.07,2.33,0.17,4.67,0.3,7c0.13,2.33,0.3,4.66,0.5,6.99c0.2,2.33,0.43,4.65,0.7,6.97c0.27,2.32,0.57,4.64,0.91,6.95
				c0.33,2.31,0.71,4.62,1.11,6.92l6.86-1.2l6.86-1.2l6.86-1.2l6.86-1.2l5.11-0.9c2.69,15.35,7.1,30.32,13.22,44.79
				c2.57,6.07,5.41,11.99,8.52,17.75l-4.57,2.47l-6.13,3.31l-6.13,3.31l-6.13,3.31c-1.08-2-2.13-4.01-3.15-6.04
				c-1.02-2.03-2.01-4.07-2.97-6.12c-0.96-2.06-1.89-4.13-2.79-6.21l6.39-2.76l6.39-2.76c0.85,1.96,1.72,3.9,2.62,5.84l-6.31,2.95
				c0.93,1.99,1.89,3.98,2.88,5.94l6.22-3.13l6.22-3.13c-0.93-1.84-1.83-3.7-2.71-5.57c-0.87-1.87-1.72-3.76-2.54-5.65
				c-0.82-1.9-1.61-3.8-2.37-5.72l-6.47,2.57l-6.47,2.57l-6.47,2.57l-6.47,2.57c0.86,2.17,1.76,4.33,2.68,6.48
				c0.93,2.15,1.89,4.28,2.87,6.4c0.99,2.12,2.01,4.22,3.06,6.31c1.05,2.09,2.13,4.16,3.24,6.22c1.11,2.06,2.25,4.1,3.42,6.12
				l6.03-3.49l6.03-3.49l6.03-3.49l6.03-3.49l4.49-2.6c9.05,15.67,20.12,30.09,33.09,43.05c2.86,2.86,5.8,5.63,8.8,8.31l-3.45,3.88
				l-4.63,5.2l-4.63,5.2l-4.63,5.2c-1.69-1.51-3.37-3.04-5.02-4.6c-1.65-1.56-3.28-3.14-4.88-4.74c-1.6-1.61-3.18-3.23-4.74-4.88
				l5.07-4.78l5.07-4.78c1.47,1.55,2.95,3.08,4.46,4.59l-4.92,4.92c1.56,1.56,3.14,3.09,4.74,4.6l4.78-5.06l4.78-5.07
				c-1.5-1.42-2.99-2.86-4.45-4.32c-1.46-1.46-2.9-2.95-4.32-4.45c-1.42-1.5-2.82-3.03-4.19-4.57l-5.2,4.63l-5.2,4.63l-5.2,4.63
				l-5.2,4.63c1.55,1.74,3.13,3.47,4.73,5.17c1.6,1.7,3.23,3.37,4.88,5.03c1.65,1.65,3.33,3.28,5.03,4.88
				c1.7,1.6,3.42,3.18,5.16,4.74c1.74,1.56,3.51,3.08,5.3,4.58l4.48-5.33l4.48-5.33l4.48-5.33l4.48-5.33l3.34-3.97
				c15.86,13.34,33.53,24.17,52.71,32.28c1.38,0.58,2.77,1.15,4.15,1.7l-1.92,4.84l-2.57,6.47l-2.57,6.47l-2.57,6.47
				c-2.11-0.84-4.21-1.71-6.29-2.61c-2.08-0.9-4.15-1.83-6.21-2.79c-2.06-0.96-4.1-1.95-6.12-2.97l3.13-6.22l3.13-6.22
				c1.91,0.96,3.83,1.89,5.76,2.79l-2.95,6.31c2,0.93,4,1.83,6.02,2.71l2.76-6.39l2.76-6.4c-1.9-0.82-3.78-1.67-5.65-2.54
				c-1.87-0.88-3.73-1.78-5.58-2.7c-1.85-0.93-3.68-1.89-5.5-2.87l-3.31,6.13l-3.31,6.13l-3.31,6.13l-3.31,6.13
				c2.06,1.11,4.13,2.19,6.22,3.24c2.09,1.05,4.19,2.07,6.31,3.06c2.12,0.99,4.25,1.95,6.4,2.87c2.14,0.93,4.31,1.82,6.48,2.68
				c2.17,0.86,4.36,1.7,6.55,2.5l2.38-6.54l2.38-6.54l2.38-6.54l2.38-6.54l1.78-4.89c20.86,7.6,42.67,11.76,65.07,12.39l-0.15,5.2
				l-0.2,6.96l-0.2,6.96l-0.2,6.96c-2.27-0.06-4.53-0.16-6.8-0.29c-2.26-0.13-4.53-0.29-6.79-0.49c-2.26-0.2-4.52-0.42-6.77-0.68
				l0.8-6.92l0.8-6.92c2.12,0.25,4.24,0.46,6.37,0.64l-0.6,6.94c2.19,0.19,4.39,0.35,6.59,0.47l0.4-6.95l0.4-6.95
				c-2.06-0.12-4.13-0.27-6.19-0.45c-2.06-0.18-4.12-0.38-6.17-0.62c-2.05-0.24-4.1-0.5-6.15-0.8l-1,6.89l-1,6.89l-1,6.89l-1,6.89
				c2.31,0.34,4.63,0.64,6.95,0.91c2.32,0.27,4.64,0.5,6.97,0.7c2.33,0.2,4.66,0.37,6.99,0.5c2.33,0.13,4.66,0.23,7,0.3
				c2.33,0.07,4.67,0.1,7,0.1v-6.96v-6.97v-6.96v-6.96v-5.2c22.47,0,44.41-3.53,65.41-10.5l1.64,4.94l2.19,6.61l2.19,6.61l2.19,6.61
				c-2.15,0.71-4.32,1.39-6.49,2.04c-2.17,0.65-4.36,1.27-6.55,1.85c-2.19,0.58-4.39,1.14-6.6,1.66l-1.6-6.78l-1.6-6.78
				c2.08-0.49,4.15-1.01,6.21-1.56l1.8,6.73c2.13-0.57,4.25-1.17,6.35-1.8l-1.99-6.67l-1.99-6.67c-1.98,0.59-3.97,1.15-5.96,1.69
				c-2,0.53-4,1.04-6.01,1.51c-2.01,0.47-4.03,0.92-6.05,1.34l1.4,6.82l1.4,6.82l1.4,6.82l1.4,6.82c2.29-0.47,4.57-0.98,6.85-1.51
				c2.27-0.54,4.54-1.11,6.8-1.71c2.26-0.6,4.51-1.24,6.75-1.91c2.24-0.67,4.47-1.37,6.69-2.11c2.22-0.74,4.43-1.51,6.62-2.3
				l-2.38-6.54l-2.38-6.54l-2.38-6.54L329,456.3l-1.78-4.89c3.29-1.2,6.56-2.48,9.8-3.86c17.31-7.32,33.39-16.86,48.02-28.46
				l3.22,4.06l4.32,5.46l4.32,5.46l4.32,5.46c-1.78,1.41-3.58,2.79-5.4,4.15c-1.82,1.35-3.66,2.69-5.52,3.99
				c-1.86,1.3-3.73,2.58-5.63,3.83l-3.83-5.81l-3.83-5.81c1.78-1.18,3.55-2.38,5.29-3.6l4,5.7c1.8-1.26,3.58-2.56,5.35-3.87
				l-4.16-5.58l-4.16-5.58c-1.66,1.24-3.33,2.45-5.02,3.64c-1.69,1.19-3.4,2.35-5.13,3.49c-1.72,1.14-3.47,2.25-5.23,3.34l3.66,5.92
				l3.66,5.93l3.66,5.92l3.66,5.92c1.99-1.23,3.96-2.49,5.91-3.77c1.95-1.29,3.88-2.6,5.8-3.94c1.91-1.34,3.81-2.71,5.68-4.11
				c1.87-1.4,3.72-2.82,5.56-4.27c1.83-1.45,3.64-2.92,5.43-4.43l-4.48-5.33L402.02,429.92z M256.09,457.8
				c-111.27,0-201.8-90.53-201.8-201.8c0-111.28,90.53-201.81,201.8-201.81C367.37,54.2,457.9,144.72,457.9,256
				C457.9,367.28,367.37,457.8,256.09,457.8z"/>
		</g>
		<linearGradient id="SVGID_3_" gradientUnits="userSpaceOnUse" x1="105.5263" y1="229.9505" x2="406.6633" y2="229.9505">
			<stop  offset="0" style="stop-color:#B7854D"/>
			<stop  offset="0.1515" style="stop-color:#F5D98F"/>
			<stop  offset="0.303" style="stop-color:#FFF9B3"/>
			<stop  offset="0.5212" style="stop-color:#F4D88E"/>
			<stop  offset="0.6424" style="stop-color:#FEF9B4"/>
			<stop  offset="0.8424" style="stop-color:#D4AF66"/>
			<stop  offset="1" style="stop-color:#B7854D"/>
		</linearGradient>
		<polygon class="st2" points="256.09,96.59 105.53,363.31 128.04,363.31 145.78,363.31 156.93,363.31 185.81,363.31 165.8,327.86 
			256.09,167.9 346.39,327.86 326.38,363.31 355.26,363.31 366.41,363.31 384.15,363.31 406.66,363.31 		"/>
	</g>
</g>
</svg>
