<?xml version="1.0" encoding="utf-8"?>
<!-- Generator: Adobe Illustrator 25.0.0, SVG Export Plug-In . SVG Version: 6.00 Build 0)  -->
<svg version="1.1" xmlns="http://www.w3.org/2000/svg" xmlns:xlink="http://www.w3.org/1999/xlink" x="0px" y="0px"
	 viewBox="0 0 64 64" style="enable-background:new 0 0 64 64;" xml:space="preserve">
<style type="text/css">
	.st0{fill:url(#SVGID_1_);}
	.st1{fill:url(#SVGID_2_);}
	.st2{fill:url(#SVGID_3_);}
</style>
<g id="Layer_2">
</g>
<g id="Layer_3">
</g>
<g id="Layer_1">
	<g>
		<g>
			<linearGradient id="SVGID_1_" gradientUnits="userSpaceOnUse" x1="0.7543" y1="32.0002" x2="63.4353" y2="32.0002">
				<stop  offset="0" style="stop-color:#B7854D"/>
				<stop  offset="0.1515" style="stop-color:#F5D98F"/>
				<stop  offset="0.303" style="stop-color:#FFF9B3"/>
				<stop  offset="0.5212" style="stop-color:#F4D88E"/>
				<stop  offset="0.6424" style="stop-color:#FEF9B4"/>
				<stop  offset="0.8424" style="stop-color:#D4AF66"/>
				<stop  offset="1" style="stop-color:#B7854D"/>
			</linearGradient>
			<path class="st0" d="M60.97,19.8c-1.58-3.73-3.84-7.08-6.72-9.96c-2.88-2.88-6.23-5.14-9.96-6.72c-3.86-1.63-7.97-2.46-12.2-2.46
				c-4.23,0-8.34,0.83-12.2,2.46c-3.73,1.58-7.08,3.84-9.96,6.72c-2.88,2.88-5.14,6.23-6.72,9.96C1.58,23.67,0.75,27.77,0.75,32
				c0,4.23,0.83,8.34,2.46,12.2c1.58,3.73,3.84,7.08,6.72,9.96c2.88,2.88,6.23,5.14,9.96,6.72c3.86,1.63,7.97,2.46,12.2,2.46
				c4.23,0,8.34-0.83,12.2-2.46c3.73-1.58,7.08-3.84,9.96-6.72c2.88-2.88,5.14-6.23,6.72-9.96c1.63-3.86,2.46-7.97,2.46-12.2
				C63.44,27.77,62.61,23.67,60.97,19.8z M47.38,58.48l-0.33-0.57l-0.43-0.75l-0.43-0.75l-0.43-0.75l-0.43-0.75
				c-0.22,0.13-0.45,0.25-0.67,0.38c-0.23,0.12-0.45,0.24-0.68,0.36c-0.23,0.12-0.46,0.23-0.69,0.34c-0.23,0.11-0.47,0.21-0.7,0.32
				c-0.24,0.1-0.47,0.2-0.71,0.29l0.32,0.8l0.32,0.8l0.32,0.8l0.32,0.8c0.27-0.11,0.54-0.22,0.8-0.33c0.27-0.12,0.53-0.23,0.79-0.36
				c0.26-0.12,0.52-0.25,0.78-0.38l-0.39-0.77l-0.39-0.77c-0.24,0.12-0.49,0.24-0.74,0.36l0.37,0.78c-0.26,0.12-0.51,0.23-0.77,0.35
				l-0.34-0.79l-0.34-0.79c0.24-0.11,0.48-0.21,0.72-0.33c0.24-0.11,0.48-0.23,0.72-0.35c0.24-0.12,0.47-0.24,0.7-0.37l0.41,0.76
				l0.41,0.76l0.41,0.76l0.31,0.58c-2.83,1.53-5.93,2.63-9.21,3.21l-0.11-0.65l-0.15-0.85l-0.15-0.85l-0.15-0.85l-0.15-0.85
				c-0.25,0.04-0.51,0.09-0.76,0.12c-0.25,0.04-0.51,0.07-0.76,0.1c-0.25,0.03-0.51,0.06-0.77,0.08c-0.26,0.02-0.51,0.04-0.77,0.06
				c-0.26,0.01-0.51,0.03-0.77,0.03l0.02,0.86l0.02,0.86l0.02,0.86l0.02,0.86c0.29-0.01,0.58-0.02,0.87-0.04
				c0.29-0.02,0.58-0.04,0.87-0.06c0.29-0.03,0.58-0.05,0.87-0.09l-0.1-0.86L35.37,60c-0.27,0.03-0.54,0.06-0.82,0.08l0.07,0.86
				c-0.28,0.02-0.56,0.04-0.84,0.06l-0.05-0.86l-0.05-0.86c0.26-0.02,0.53-0.03,0.79-0.06c0.26-0.02,0.53-0.05,0.79-0.08
				c0.26-0.03,0.53-0.06,0.79-0.1l0.12,0.86l0.12,0.86l0.12,0.86l0.1,0.66c-1.45,0.21-2.93,0.32-4.43,0.32
				c-1.81,0-3.58-0.16-5.31-0.46l0.11-0.65l0.15-0.85l0.15-0.85l0.15-0.85l0.15-0.85c-0.25-0.04-0.5-0.09-0.76-0.14
				c-0.25-0.05-0.5-0.11-0.75-0.17c-0.25-0.06-0.5-0.12-0.75-0.19c-0.25-0.07-0.49-0.14-0.74-0.21c-0.25-0.07-0.49-0.15-0.73-0.23
				l-0.27,0.82l-0.27,0.82l-0.27,0.82l-0.27,0.82c0.28,0.09,0.55,0.18,0.83,0.26c0.28,0.08,0.56,0.16,0.84,0.24
				c0.28,0.07,0.56,0.15,0.84,0.21l0.2-0.84l0.2-0.84c-0.27-0.06-0.53-0.13-0.8-0.2l-0.22,0.84c-0.27-0.07-0.54-0.15-0.81-0.23
				l0.25-0.83l0.25-0.83c0.25,0.08,0.51,0.15,0.76,0.22c0.26,0.07,0.51,0.13,0.77,0.19c0.26,0.06,0.52,0.12,0.78,0.17l-0.17,0.85
				l-0.17,0.85l-0.17,0.85l-0.13,0.65c-3.25-0.67-6.32-1.86-9.11-3.48l0.33-0.57l0.43-0.75L18,56.42l0.43-0.75l0.43-0.75
				c-0.22-0.13-0.44-0.26-0.66-0.4c-0.22-0.13-0.43-0.27-0.65-0.41c-0.21-0.14-0.43-0.29-0.64-0.43c-0.21-0.15-0.42-0.3-0.62-0.45
				c-0.21-0.15-0.41-0.31-0.61-0.47l-0.54,0.68l-0.54,0.68l-0.54,0.68l-0.54,0.68c0.23,0.18,0.46,0.36,0.69,0.53
				c0.23,0.17,0.47,0.34,0.71,0.51c0.24,0.17,0.48,0.33,0.72,0.49l0.48-0.72l0.48-0.72c-0.23-0.15-0.45-0.3-0.68-0.46l-0.5,0.71
				c-0.23-0.16-0.46-0.33-0.68-0.5l0.52-0.69l0.52-0.69c0.21,0.16,0.43,0.31,0.64,0.47c0.22,0.15,0.44,0.3,0.66,0.45
				c0.22,0.15,0.44,0.29,0.67,0.43L17.29,56l-0.45,0.74l-0.45,0.74l-0.34,0.56c-2.78-1.72-5.27-3.88-7.36-6.37l0.5-0.42l0.66-0.56
				l0.66-0.56l0.66-0.56l0.66-0.56c-0.17-0.2-0.33-0.4-0.49-0.6c-0.16-0.2-0.32-0.4-0.47-0.61c-0.15-0.21-0.3-0.41-0.45-0.62
				c-0.15-0.21-0.29-0.42-0.43-0.64c-0.14-0.21-0.28-0.43-0.41-0.65l-0.74,0.45L8.1,46.8l-0.74,0.45l-0.74,0.45
				c0.15,0.25,0.31,0.49,0.47,0.73c0.16,0.24,0.32,0.48,0.49,0.72c0.17,0.24,0.34,0.47,0.51,0.71l0.69-0.52l0.69-0.52
				C9.32,48.61,9.16,48.39,9,48.17l-0.71,0.5c-0.16-0.23-0.32-0.46-0.48-0.7l0.72-0.48l0.72-0.48c0.15,0.22,0.29,0.44,0.45,0.66
				c0.15,0.22,0.31,0.43,0.47,0.64c0.16,0.21,0.32,0.42,0.48,0.63l-0.68,0.54L9.3,50.02l-0.68,0.54l-0.51,0.4
				c-2.01-2.54-3.63-5.4-4.76-8.5l0.62-0.23l0.81-0.3l0.81-0.3l0.81-0.3l0.81-0.3c-0.09-0.24-0.17-0.48-0.25-0.73
				c-0.08-0.24-0.16-0.49-0.23-0.73c-0.07-0.25-0.14-0.49-0.21-0.74c-0.07-0.25-0.13-0.5-0.19-0.75c-0.06-0.25-0.11-0.5-0.17-0.75
				l-0.85,0.17L4.48,37.7l-0.85,0.17l-0.85,0.17c0.06,0.28,0.12,0.57,0.19,0.85c0.07,0.28,0.14,0.56,0.21,0.84
				c0.07,0.28,0.15,0.56,0.24,0.84l0.83-0.25l0.83-0.25C5,39.83,4.93,39.56,4.86,39.3l-0.84,0.22c-0.07-0.27-0.14-0.55-0.21-0.82
				l0.84-0.2l0.84-0.2c0.06,0.26,0.13,0.51,0.19,0.77c0.07,0.26,0.14,0.51,0.22,0.76c0.08,0.25,0.16,0.51,0.24,0.76l-0.82,0.27
				l-0.82,0.27l-0.82,0.27l-0.63,0.21C2.06,38.59,1.51,35.36,1.51,32l0,0h0.67h0.86h0.86h0.86h0.86c0-0.26,0-0.51,0.01-0.77
				c0.01-0.26,0.02-0.51,0.03-0.77c0.01-0.26,0.03-0.51,0.06-0.77c0.02-0.26,0.05-0.51,0.08-0.77c0.03-0.25,0.06-0.51,0.1-0.76
				l-0.86-0.12L4.2,27.91l-0.86-0.12l-0.86-0.12c-0.04,0.29-0.08,0.57-0.11,0.86c-0.03,0.29-0.06,0.58-0.09,0.87
				c-0.03,0.29-0.05,0.58-0.06,0.87l0.86,0.05l0.86,0.05c0.02-0.27,0.04-0.55,0.06-0.82l-0.86-0.07c0.02-0.28,0.05-0.56,0.08-0.84
				l0.86,0.1l0.86,0.1c-0.03,0.26-0.06,0.53-0.08,0.79c-0.02,0.26-0.04,0.53-0.06,0.79c-0.02,0.26-0.03,0.53-0.03,0.79l-0.86-0.02
				l-0.86-0.02l-0.86-0.02l-0.66-0.02c0.1-3.35,0.73-6.57,1.83-9.57l0.62,0.23l0.81,0.3l0.81,0.3l0.81,0.3l0.81,0.3
				c0.09-0.24,0.18-0.48,0.27-0.72c0.09-0.24,0.19-0.48,0.29-0.71c0.1-0.24,0.21-0.47,0.32-0.7c0.11-0.23,0.22-0.46,0.34-0.69
				c0.12-0.23,0.23-0.46,0.36-0.68l-0.76-0.41l-0.76-0.41l-0.76-0.41L5.76,17.8c-0.14,0.26-0.27,0.51-0.4,0.77
				c-0.13,0.26-0.26,0.52-0.38,0.78c-0.12,0.26-0.24,0.53-0.36,0.79l0.79,0.34l0.79,0.34c0.11-0.25,0.22-0.5,0.34-0.75l-0.78-0.37
				c0.12-0.26,0.24-0.51,0.37-0.76l0.77,0.39l0.77,0.39c-0.12,0.24-0.23,0.48-0.35,0.72C7.21,20.69,7.1,20.93,7,21.18
				c-0.11,0.24-0.21,0.49-0.3,0.73l-0.8-0.32l-0.8-0.32l-0.8-0.32l-0.61-0.24c1.22-3.06,2.92-5.88,5.01-8.36l0.5,0.42l0.66,0.56
				l0.66,0.56l0.66,0.56l0.66,0.56c0.17-0.2,0.33-0.39,0.5-0.58c0.17-0.19,0.34-0.38,0.52-0.57c0.18-0.19,0.36-0.37,0.54-0.55
				c0.18-0.18,0.37-0.36,0.55-0.54c0.19-0.18,0.38-0.35,0.57-0.52l-0.58-0.65l-0.58-0.65l-0.58-0.65L12.2,9.65
				c-0.22,0.19-0.43,0.39-0.64,0.59c-0.21,0.2-0.42,0.4-0.62,0.61c-0.21,0.21-0.41,0.41-0.61,0.62l0.63,0.59l0.63,0.59
				c0.19-0.2,0.38-0.39,0.57-0.59l-0.61-0.61c0.2-0.2,0.4-0.4,0.61-0.59l0.59,0.63l0.59,0.63c-0.19,0.18-0.38,0.37-0.57,0.55
				c-0.19,0.19-0.37,0.38-0.55,0.57c-0.18,0.19-0.36,0.39-0.54,0.59l-0.65-0.58l-0.65-0.58l-0.65-0.58l-0.49-0.43
				c2.17-2.43,4.71-4.51,7.55-6.16l0.33,0.57l0.43,0.75L18,7.58l0.43,0.75l0.43,0.75c0.22-0.13,0.45-0.25,0.67-0.38
				c0.23-0.12,0.45-0.24,0.68-0.36c0.23-0.12,0.46-0.23,0.69-0.34c0.23-0.11,0.47-0.21,0.7-0.32c0.24-0.1,0.47-0.2,0.71-0.29L22,6.6
				l-0.32-0.8l-0.32-0.8l-0.32-0.8c-0.27,0.11-0.54,0.22-0.8,0.33c-0.27,0.12-0.53,0.23-0.79,0.36C19.18,5,18.92,5.13,18.66,5.26
				l0.39,0.77l0.39,0.77c0.24-0.12,0.49-0.24,0.74-0.36l-0.37-0.78c0.26-0.12,0.51-0.23,0.77-0.35l0.34,0.79l0.34,0.79
				c-0.24,0.11-0.48,0.21-0.72,0.33c-0.24,0.11-0.48,0.23-0.72,0.35c-0.24,0.12-0.47,0.24-0.7,0.37l-0.41-0.76L18.3,6.42l-0.41-0.76
				l-0.31-0.58c2.83-1.53,5.93-2.63,9.21-3.21l0.11,0.65l0.15,0.85l0.15,0.85l0.15,0.85l0.15,0.85c0.25-0.04,0.51-0.08,0.76-0.12
				c0.25-0.04,0.51-0.07,0.76-0.1c0.25-0.03,0.51-0.06,0.77-0.08c0.26-0.02,0.51-0.04,0.77-0.06c0.26-0.01,0.51-0.03,0.77-0.03
				L31.3,4.69l-0.02-0.86l-0.02-0.86l-0.02-0.86c-0.29,0.01-0.58,0.02-0.87,0.04c-0.29,0.02-0.58,0.04-0.87,0.06
				c-0.29,0.03-0.58,0.05-0.87,0.09l0.1,0.86L28.82,4c0.27-0.03,0.54-0.06,0.82-0.08l-0.07-0.86c0.28-0.02,0.56-0.04,0.84-0.06
				l0.05,0.86l0.05,0.86c-0.26,0.02-0.53,0.03-0.79,0.06c-0.26,0.02-0.53,0.05-0.79,0.08c-0.26,0.03-0.53,0.06-0.79,0.1l-0.12-0.86
				l-0.12-0.86l-0.12-0.86l-0.1-0.66c1.45-0.21,2.93-0.32,4.43-0.32c1.81,0,3.58,0.16,5.31,0.46l-0.11,0.65l-0.15,0.85l-0.15,0.85
				l-0.15,0.85l-0.15,0.85c0.25,0.04,0.5,0.09,0.76,0.14c0.25,0.05,0.5,0.11,0.75,0.17c0.25,0.06,0.5,0.12,0.75,0.19
				c0.25,0.07,0.49,0.14,0.74,0.21c0.25,0.07,0.49,0.15,0.73,0.23l0.27-0.82l0.27-0.82l0.27-0.82l0.27-0.82
				c-0.28-0.09-0.55-0.18-0.83-0.26c-0.28-0.08-0.56-0.16-0.84-0.24c-0.28-0.07-0.56-0.15-0.84-0.21l-0.2,0.84l-0.2,0.84
				c0.27,0.06,0.53,0.13,0.8,0.2l0.22-0.84c0.27,0.07,0.54,0.15,0.81,0.23l-0.25,0.83l-0.25,0.83c-0.25-0.08-0.51-0.15-0.76-0.22
				c-0.26-0.07-0.51-0.13-0.77-0.19c-0.26-0.06-0.52-0.12-0.78-0.17l0.17-0.85l0.17-0.85l0.17-0.85l0.13-0.65
				c3.25,0.67,6.32,1.86,9.11,3.48l-0.33,0.57l-0.43,0.75l-0.43,0.75l-0.43,0.75l-0.43,0.75c0.22,0.13,0.44,0.26,0.66,0.4
				c0.22,0.13,0.43,0.27,0.65,0.41c0.21,0.14,0.43,0.29,0.64,0.43c0.21,0.15,0.42,0.3,0.62,0.45c0.21,0.15,0.41,0.31,0.61,0.47
				l0.54-0.68l0.54-0.68l0.54-0.68l0.54-0.68C50.42,8.35,50.2,8.17,49.96,8c-0.23-0.17-0.47-0.34-0.71-0.51
				C49.02,7.32,48.78,7.16,48.54,7l-0.48,0.72l-0.48,0.72c0.23,0.15,0.45,0.3,0.68,0.46l0.5-0.71c0.23,0.16,0.46,0.33,0.68,0.5
				l-0.52,0.69l-0.52,0.69c-0.21-0.16-0.43-0.31-0.64-0.47c-0.22-0.15-0.44-0.3-0.66-0.45c-0.22-0.15-0.44-0.29-0.67-0.43L46.89,8
				l0.45-0.74l0.45-0.74l0.34-0.56c2.78,1.72,5.27,3.88,7.36,6.37l-0.5,0.42l-0.66,0.56l-0.66,0.56l-0.66,0.56l-0.66,0.56
				c0.17,0.2,0.33,0.4,0.49,0.6c0.16,0.2,0.32,0.4,0.47,0.61c0.15,0.21,0.3,0.41,0.45,0.62c0.15,0.21,0.29,0.42,0.43,0.64
				c0.14,0.21,0.28,0.43,0.41,0.65l0.74-0.45l0.74-0.45l0.74-0.45l0.74-0.45c-0.15-0.25-0.31-0.49-0.47-0.73
				c-0.16-0.24-0.32-0.48-0.49-0.72c-0.17-0.24-0.34-0.47-0.51-0.71l-0.69,0.52l-0.69,0.52c0.16,0.22,0.32,0.44,0.48,0.66l0.71-0.5
				c0.16,0.23,0.32,0.46,0.48,0.7l-0.72,0.48l-0.72,0.48c-0.15-0.22-0.29-0.44-0.45-0.66c-0.15-0.22-0.31-0.43-0.47-0.64
				c-0.16-0.21-0.32-0.42-0.48-0.63l0.68-0.54l0.68-0.54l0.68-0.54l0.51-0.4c2.01,2.54,3.63,5.4,4.76,8.5l-0.62,0.23l-0.81,0.3
				l-0.81,0.3l-0.81,0.3l-0.81,0.3c0.09,0.24,0.17,0.48,0.25,0.73c0.08,0.24,0.16,0.49,0.23,0.73c0.07,0.25,0.14,0.49,0.21,0.74
				c0.07,0.25,0.13,0.5,0.19,0.75c0.06,0.25,0.11,0.5,0.17,0.75l0.85-0.17l0.85-0.17l0.85-0.17l0.85-0.17
				c-0.06-0.28-0.12-0.57-0.19-0.85c-0.07-0.28-0.14-0.56-0.21-0.84c-0.07-0.28-0.15-0.56-0.24-0.84l-0.83,0.25l-0.83,0.25
				c0.08,0.26,0.15,0.52,0.22,0.79l0.84-0.22c0.07,0.27,0.14,0.55,0.21,0.82l-0.84,0.2l-0.84,0.2c-0.06-0.26-0.13-0.51-0.19-0.77
				c-0.07-0.26-0.14-0.51-0.22-0.76c-0.08-0.25-0.16-0.51-0.24-0.76l0.82-0.27l0.82-0.27l0.82-0.27l0.63-0.21
				c1.01,3.03,1.55,6.26,1.55,9.62h-0.67h-0.86h-0.86h-0.86h-0.86c0,0.26,0,0.51-0.01,0.77c-0.01,0.26-0.02,0.51-0.03,0.77
				c-0.01,0.26-0.03,0.51-0.06,0.77c-0.02,0.26-0.05,0.51-0.08,0.77c-0.03,0.25-0.06,0.51-0.1,0.76l0.86,0.12l0.86,0.12l0.86,0.12
				l0.86,0.12c0.04-0.29,0.08-0.57,0.11-0.86c0.03-0.29,0.06-0.58,0.09-0.87c0.02-0.29,0.05-0.58,0.06-0.87l-0.86-0.05l-0.86-0.05
				c-0.02,0.27-0.04,0.55-0.06,0.82l0.86,0.07c-0.02,0.28-0.05,0.56-0.08,0.84l-0.86-0.1l-0.86-0.1c0.03-0.26,0.06-0.53,0.08-0.79
				c0.02-0.26,0.04-0.53,0.06-0.79c0.02-0.26,0.03-0.53,0.03-0.79l0.86,0.02l0.86,0.02L62,32.87l0.66,0.02
				c-0.1,3.35-0.73,6.57-1.83,9.57l-0.62-0.23l-0.81-0.3l-0.81-0.3l-0.81-0.3l-0.81-0.3c-0.09,0.24-0.18,0.48-0.27,0.72
				c-0.09,0.24-0.19,0.48-0.29,0.71c-0.1,0.24-0.21,0.47-0.32,0.7c-0.11,0.23-0.22,0.46-0.34,0.69c-0.12,0.23-0.23,0.46-0.36,0.68
				l0.76,0.41l0.76,0.41l0.76,0.41l0.76,0.41c0.14-0.26,0.27-0.51,0.4-0.77c0.13-0.26,0.26-0.52,0.38-0.78
				c0.12-0.26,0.24-0.53,0.36-0.79l-0.79-0.34l-0.79-0.34c-0.11,0.25-0.22,0.5-0.34,0.75l0.78,0.37c-0.12,0.26-0.24,0.51-0.37,0.76
				l-0.77-0.39l-0.77-0.39c0.12-0.24,0.23-0.48,0.35-0.72c0.11-0.24,0.22-0.48,0.33-0.72c0.11-0.24,0.21-0.49,0.3-0.73l0.8,0.32
				l0.8,0.32l0.8,0.32l0.61,0.24c-1.22,3.06-2.92,5.88-5.01,8.36l-0.5-0.42l-0.66-0.56l-0.66-0.56l-0.66-0.56l-0.66-0.56
				c-0.16,0.2-0.33,0.39-0.5,0.58c-0.17,0.19-0.34,0.38-0.52,0.57c-0.18,0.19-0.36,0.37-0.54,0.55c-0.18,0.18-0.37,0.36-0.55,0.54
				c-0.19,0.18-0.38,0.35-0.57,0.52l0.58,0.65l0.58,0.65l0.57,0.65l0.58,0.65c0.22-0.19,0.43-0.39,0.64-0.59
				c0.21-0.2,0.42-0.4,0.62-0.61c0.21-0.21,0.41-0.41,0.61-0.62l-0.63-0.59l-0.63-0.59c-0.19,0.2-0.38,0.39-0.57,0.59l0.61,0.61
				c-0.2,0.2-0.4,0.4-0.61,0.59l-0.59-0.63l-0.59-0.63c0.19-0.18,0.38-0.37,0.57-0.55c0.19-0.19,0.37-0.38,0.55-0.57
				c0.18-0.19,0.36-0.39,0.54-0.59l0.65,0.58l0.65,0.58l0.65,0.58l0.49,0.43C52.77,54.75,50.22,56.84,47.38,58.48z"/>
			<linearGradient id="SVGID_2_" gradientUnits="userSpaceOnUse" x1="2.1888" y1="32.0001" x2="62.0007" y2="32.0001">
				<stop  offset="0" style="stop-color:#B7854D"/>
				<stop  offset="0.1515" style="stop-color:#F5D98F"/>
				<stop  offset="0.303" style="stop-color:#FFF9B3"/>
				<stop  offset="0.5212" style="stop-color:#F4D88E"/>
				<stop  offset="0.6424" style="stop-color:#FEF9B4"/>
				<stop  offset="0.8424" style="stop-color:#D4AF66"/>
				<stop  offset="1" style="stop-color:#B7854D"/>
			</linearGradient>
			<path class="st1" d="M50.21,53.59l-0.56-0.66l-0.56-0.66l-0.41-0.49c0.57-0.48,1.13-0.99,1.66-1.52c1.43-1.43,2.68-3,3.72-4.7
				l0.55,0.34l0.74,0.45l0.74,0.45l0.74,0.45c-0.15,0.24-0.3,0.48-0.45,0.71c-0.15,0.24-0.31,0.47-0.48,0.7
				c-0.16,0.23-0.33,0.46-0.5,0.68l-0.69-0.52l-0.69-0.52c0.16-0.21,0.31-0.43,0.47-0.64l0.71,0.5c0.16-0.22,0.31-0.45,0.46-0.68
				l-0.72-0.48l-0.72-0.48c-0.14,0.21-0.29,0.43-0.43,0.64c-0.15,0.21-0.3,0.42-0.45,0.62c-0.15,0.21-0.31,0.41-0.47,0.61l0.68,0.54
				l0.68,0.54l0.68,0.54l0.68,0.54c0.18-0.23,0.36-0.46,0.53-0.69c0.17-0.23,0.34-0.47,0.51-0.71c0.17-0.24,0.33-0.48,0.49-0.72
				c0.16-0.24,0.32-0.49,0.47-0.73c0.15-0.25,0.3-0.5,0.45-0.75l-0.75-0.43l-0.75-0.43l-0.75-0.43l-0.75-0.43l-0.56-0.32
				c0.53-0.92,1.01-1.87,1.42-2.86c0.66-1.56,1.16-3.18,1.5-4.82l0.63,0.13l0.85,0.17l0.85,0.17l0.85,0.17
				c-0.06,0.28-0.12,0.55-0.18,0.83c-0.06,0.27-0.13,0.55-0.21,0.82c-0.07,0.27-0.15,0.54-0.23,0.81l-0.83-0.25l-0.83-0.25
				c0.08-0.25,0.15-0.51,0.22-0.76l0.84,0.22c0.07-0.26,0.14-0.53,0.2-0.8l-0.84-0.2l-0.84-0.2c-0.06,0.25-0.12,0.5-0.19,0.75
				c-0.07,0.25-0.14,0.49-0.21,0.74c-0.07,0.25-0.15,0.49-0.23,0.73l0.82,0.27l0.82,0.27l0.82,0.27l0.82,0.27
				c0.09-0.28,0.18-0.55,0.26-0.83c0.08-0.28,0.16-0.56,0.24-0.84c0.08-0.28,0.15-0.56,0.21-0.84c0.07-0.28,0.13-0.57,0.19-0.85
				c0.06-0.28,0.11-0.57,0.16-0.86l-0.85-0.15l-0.85-0.15l-0.85-0.15l-0.85-0.15l-0.63-0.11c0.26-1.47,0.39-2.97,0.39-4.49
				c0-1.26-0.09-2.51-0.27-3.75l0.64-0.09l0.86-0.12l0.86-0.12l0.86-0.12c0.04,0.28,0.08,0.56,0.11,0.84
				c0.03,0.28,0.06,0.56,0.08,0.84c0.02,0.28,0.04,0.56,0.06,0.84l-0.86,0.05l-0.86,0.05c-0.02-0.26-0.03-0.53-0.06-0.79l0.86-0.07
				c-0.02-0.27-0.05-0.54-0.08-0.82l-0.86,0.1l-0.86,0.1c0.03,0.25,0.06,0.51,0.08,0.77c0.02,0.26,0.04,0.51,0.06,0.77
				c0.01,0.26,0.03,0.51,0.03,0.77l0.86-0.02l0.86-0.02l0.86-0.02L62,31.13c-0.01-0.29-0.02-0.58-0.04-0.87
				c-0.02-0.29-0.04-0.58-0.06-0.87c-0.03-0.29-0.05-0.58-0.09-0.87c-0.03-0.29-0.07-0.58-0.11-0.86c-0.04-0.29-0.09-0.57-0.14-0.86
				l-0.85,0.15l-0.85,0.15l-0.85,0.15l-0.85,0.15l-0.63,0.11c-0.33-1.91-0.88-3.77-1.64-5.56c-0.32-0.75-0.67-1.49-1.06-2.2
				l0.57-0.31l0.76-0.41l0.76-0.41l0.76-0.41c0.13,0.25,0.26,0.5,0.39,0.75c0.13,0.25,0.25,0.51,0.37,0.76
				c0.12,0.26,0.23,0.51,0.35,0.77l-0.79,0.34l-0.79,0.34c-0.11-0.24-0.21-0.48-0.33-0.72l0.78-0.37c-0.12-0.25-0.24-0.49-0.36-0.74
				l-0.77,0.39l-0.77,0.39c0.12,0.23,0.23,0.46,0.34,0.69c0.11,0.23,0.21,0.47,0.32,0.7c0.1,0.24,0.2,0.47,0.29,0.71l0.8-0.32
				l0.8-0.32l0.8-0.32l0.8-0.32c-0.11-0.27-0.22-0.54-0.33-0.8c-0.12-0.27-0.23-0.53-0.36-0.79c-0.12-0.26-0.25-0.52-0.38-0.78
				c-0.13-0.26-0.26-0.52-0.4-0.77c-0.14-0.26-0.28-0.51-0.42-0.76l-0.75,0.43l-0.75,0.43l-0.75,0.43l-0.75,0.43l-0.56,0.32
				c-1.12-1.95-2.5-3.74-4.11-5.35c-0.36-0.36-0.72-0.7-1.09-1.03l0.43-0.48l0.58-0.65l0.58-0.65l0.57-0.65
				c0.21,0.19,0.42,0.38,0.62,0.57c0.2,0.19,0.41,0.39,0.61,0.59c0.2,0.2,0.4,0.4,0.59,0.61l-0.63,0.59l-0.63,0.59
				c-0.18-0.19-0.37-0.38-0.55-0.57l0.61-0.61c-0.19-0.19-0.39-0.38-0.59-0.57l-0.59,0.63l-0.59,0.63c0.19,0.18,0.37,0.36,0.55,0.54
				c0.18,0.18,0.36,0.37,0.54,0.55c0.18,0.19,0.35,0.38,0.52,0.57l0.65-0.57l0.65-0.58l0.65-0.58l0.65-0.58
				c-0.19-0.22-0.39-0.43-0.59-0.64c-0.2-0.21-0.4-0.42-0.61-0.62c-0.2-0.2-0.41-0.41-0.62-0.61c-0.21-0.2-0.42-0.39-0.64-0.59
				c-0.22-0.19-0.44-0.38-0.66-0.57l-0.56,0.66l-0.56,0.66l-0.56,0.66l-0.56,0.66l-0.41,0.49c-1.97-1.66-4.16-3-6.54-4.01
				C41.97,8.14,41.8,8.07,41.63,8l0.24-0.6l0.32-0.8l0.32-0.8l0.32-0.8c0.26,0.1,0.52,0.21,0.78,0.32c0.26,0.11,0.52,0.23,0.77,0.35
				c0.25,0.12,0.51,0.24,0.76,0.37L44.75,6.8l-0.39,0.77c-0.24-0.12-0.48-0.23-0.72-0.35l0.37-0.78c-0.25-0.12-0.5-0.23-0.75-0.34
				L42.92,6.9L42.58,7.7c0.24,0.1,0.47,0.21,0.7,0.32c0.23,0.11,0.46,0.22,0.69,0.34c0.23,0.12,0.46,0.23,0.68,0.36l0.41-0.76
				l0.41-0.76l0.41-0.76l0.41-0.76c-0.26-0.14-0.51-0.27-0.77-0.4C45.27,5.13,45.01,5,44.74,4.88c-0.26-0.12-0.53-0.24-0.79-0.36
				c-0.27-0.12-0.53-0.23-0.8-0.33c-0.27-0.11-0.54-0.21-0.81-0.31l-0.3,0.81l-0.3,0.81l-0.3,0.81l-0.3,0.81l-0.22,0.61
				c-2.59-0.94-5.3-1.46-8.08-1.54l0.02-0.65l0.02-0.86l0.02-0.86l0.02-0.86c0.28,0.01,0.56,0.02,0.84,0.04
				c0.28,0.02,0.56,0.04,0.84,0.06c0.28,0.02,0.56,0.05,0.84,0.08L35.37,4l-0.1,0.86c-0.26-0.03-0.53-0.06-0.79-0.08l0.07-0.86
				c-0.27-0.02-0.55-0.04-0.82-0.06l-0.05,0.86l-0.05,0.86c0.26,0.01,0.51,0.03,0.77,0.06c0.26,0.02,0.51,0.05,0.77,0.08
				c0.25,0.03,0.51,0.06,0.76,0.1l0.12-0.86l0.12-0.86l0.12-0.86l0.12-0.86c-0.29-0.04-0.57-0.08-0.86-0.11
				c-0.29-0.03-0.58-0.06-0.87-0.09c-0.29-0.02-0.58-0.05-0.87-0.06c-0.29-0.02-0.58-0.03-0.87-0.04c-0.29-0.01-0.58-0.01-0.87-0.01
				v0.86v0.86v0.86v0.86v0.65c0,0,0,0,0,0c-2.79,0-5.51,0.44-8.12,1.3l-0.2-0.61L23.5,6.06l-0.27-0.82l-0.27-0.82
				c0.27-0.09,0.54-0.17,0.81-0.25C24.03,4.08,24.3,4,24.57,3.93c0.27-0.07,0.55-0.14,0.82-0.21l0.2,0.84l0.2,0.84
				c-0.26,0.06-0.51,0.13-0.77,0.19L24.8,4.76c-0.26,0.07-0.53,0.14-0.79,0.22l0.25,0.83l0.25,0.83C24.75,6.57,25,6.5,25.24,6.44
				c0.25-0.07,0.5-0.13,0.75-0.19c0.25-0.06,0.5-0.11,0.75-0.17l-0.17-0.85l-0.17-0.85l-0.17-0.85l-0.17-0.85
				c-0.28,0.06-0.57,0.12-0.85,0.19c-0.28,0.07-0.56,0.14-0.84,0.21c-0.28,0.08-0.56,0.15-0.84,0.24c-0.28,0.08-0.55,0.17-0.83,0.26
				c-0.28,0.09-0.55,0.19-0.82,0.29l0.3,0.81l0.3,0.81l0.3,0.81l0.3,0.81l0.22,0.61c-0.41,0.15-0.81,0.31-1.22,0.48
				c-2.15,0.91-4.15,2.09-5.96,3.53l-0.4-0.5l-0.54-0.68l-0.54-0.68l-0.54-0.68c0.22-0.17,0.44-0.35,0.67-0.52
				c0.23-0.17,0.45-0.33,0.68-0.5c0.23-0.16,0.46-0.32,0.7-0.48l0.48,0.72l0.48,0.72c-0.22,0.15-0.44,0.29-0.66,0.45l-0.5-0.71
				c-0.22,0.16-0.45,0.32-0.66,0.48l0.52,0.69l0.52,0.69c0.21-0.15,0.41-0.3,0.62-0.45c0.21-0.15,0.42-0.29,0.64-0.43
				c0.21-0.14,0.43-0.28,0.65-0.41l-0.45-0.74L17.29,8l-0.45-0.74l-0.45-0.74C16.14,6.69,15.89,6.84,15.65,7
				c-0.24,0.16-0.48,0.32-0.72,0.49C14.69,7.66,14.46,7.83,14.23,8c-0.23,0.17-0.46,0.35-0.69,0.53c-0.23,0.18-0.45,0.36-0.67,0.55
				l0.56,0.66l0.56,0.66l0.56,0.66l0.56,0.66l0.41,0.49c-0.57,0.48-1.13,0.99-1.66,1.52c-1.43,1.43-2.68,3-3.72,4.7l-0.55-0.34
				l-0.74-0.45L8.1,17.2l-0.74-0.45c0.15-0.24,0.3-0.48,0.45-0.71c0.16-0.24,0.31-0.47,0.48-0.7c0.16-0.23,0.33-0.46,0.5-0.68
				l0.69,0.52l0.69,0.52c-0.16,0.21-0.31,0.43-0.47,0.64L9,15.83c-0.16,0.22-0.31,0.45-0.46,0.68l0.72,0.48l0.72,0.48
				c0.14-0.21,0.29-0.43,0.43-0.64c0.15-0.21,0.3-0.42,0.45-0.62c0.15-0.21,0.31-0.41,0.47-0.61l-0.68-0.54l-0.68-0.54L9.3,13.98
				l-0.68-0.54c-0.18,0.23-0.36,0.46-0.53,0.69c-0.17,0.23-0.34,0.47-0.51,0.71c-0.17,0.24-0.33,0.48-0.49,0.72
				c-0.16,0.24-0.32,0.49-0.47,0.73c-0.15,0.25-0.3,0.5-0.45,0.75l0.75,0.43l0.75,0.43l0.75,0.43l0.75,0.43l0.56,0.32
				c-0.53,0.92-1.01,1.87-1.42,2.86c-0.66,1.56-1.16,3.18-1.5,4.82l-0.63-0.13l-0.85-0.17L4.48,26.3l-0.85-0.17
				c0.06-0.28,0.12-0.55,0.18-0.83c0.06-0.27,0.13-0.55,0.21-0.82c0.07-0.27,0.15-0.54,0.23-0.81l0.83,0.25l0.83,0.25
				c-0.08,0.25-0.15,0.51-0.22,0.76L4.86,24.7c-0.07,0.26-0.14,0.53-0.2,0.8l0.84,0.2l0.84,0.2c0.06-0.25,0.12-0.5,0.19-0.75
				c0.07-0.25,0.14-0.49,0.21-0.74c0.07-0.25,0.15-0.49,0.23-0.73L6.15,23.4l-0.82-0.27l-0.82-0.27l-0.82-0.27
				c-0.09,0.28-0.18,0.55-0.26,0.83c-0.08,0.28-0.16,0.56-0.24,0.84c-0.07,0.28-0.15,0.56-0.21,0.84c-0.07,0.28-0.13,0.57-0.19,0.85
				c-0.06,0.28-0.11,0.57-0.16,0.86l0.85,0.15l0.85,0.15l0.85,0.15l0.85,0.15l0.63,0.11C6.41,28.98,6.28,30.48,6.28,32
				c0,1.26,0.09,2.51,0.27,3.75l-0.64,0.09l-0.86,0.12L4.2,36.09l-0.86,0.12c-0.04-0.28-0.08-0.56-0.11-0.84
				c-0.03-0.28-0.06-0.56-0.08-0.84c-0.02-0.28-0.04-0.56-0.06-0.84l0.86-0.05l0.86-0.05c0.02,0.26,0.03,0.53,0.06,0.79l-0.86,0.07
				c0.02,0.27,0.05,0.54,0.08,0.82l0.86-0.1l0.86-0.1c-0.03-0.25-0.06-0.51-0.08-0.77c-0.02-0.26-0.04-0.51-0.06-0.77
				c-0.01-0.26-0.03-0.51-0.03-0.77L4.78,32.8l-0.86,0.02l-0.86,0.02l-0.86,0.02c0.01,0.29,0.02,0.58,0.04,0.87
				c0.02,0.29,0.04,0.58,0.06,0.87c0.02,0.29,0.05,0.58,0.09,0.87c0.03,0.29,0.07,0.58,0.11,0.86c0.04,0.29,0.09,0.57,0.14,0.86
				l0.85-0.15l0.85-0.15l0.85-0.15l0.85-0.15l0.63-0.11c0.33,1.91,0.88,3.77,1.64,5.56c0.32,0.75,0.67,1.49,1.06,2.2L8.8,44.56
				l-0.76,0.41l-0.76,0.41l-0.76,0.41c-0.13-0.25-0.26-0.5-0.39-0.75C6,44.79,5.88,44.54,5.76,44.28c-0.12-0.26-0.23-0.51-0.35-0.77
				l0.79-0.34L7,42.82c0.11,0.24,0.21,0.48,0.33,0.72l-0.78,0.37c0.12,0.25,0.24,0.49,0.36,0.74l0.77-0.39l0.77-0.39
				c-0.12-0.23-0.23-0.46-0.34-0.69c-0.11-0.23-0.21-0.47-0.32-0.7c-0.1-0.24-0.2-0.47-0.29-0.71l-0.8,0.32l-0.8,0.32l-0.8,0.32
				l-0.8,0.32c0.11,0.27,0.22,0.54,0.33,0.8c0.12,0.27,0.23,0.53,0.36,0.79c0.12,0.26,0.25,0.52,0.38,0.78
				c0.13,0.26,0.26,0.52,0.4,0.77c0.14,0.26,0.28,0.51,0.42,0.76l0.75-0.43l0.75-0.43l0.75-0.43l0.75-0.43l0.56-0.32
				c1.12,1.95,2.5,3.74,4.11,5.35c0.36,0.36,0.72,0.7,1.09,1.03l-0.43,0.48l-0.58,0.65l-0.58,0.65l-0.58,0.65
				c-0.21-0.19-0.42-0.38-0.62-0.57c-0.2-0.19-0.41-0.39-0.61-0.59c-0.2-0.2-0.4-0.4-0.59-0.61l0.63-0.59l0.63-0.59
				c0.18,0.19,0.37,0.38,0.55,0.57l-0.61,0.61c0.19,0.19,0.39,0.38,0.59,0.57l0.59-0.63l0.59-0.63c-0.19-0.18-0.37-0.36-0.55-0.54
				c-0.18-0.18-0.36-0.37-0.54-0.55c-0.18-0.19-0.35-0.38-0.52-0.57l-0.65,0.57l-0.65,0.58l-0.65,0.58l-0.65,0.58
				c0.19,0.22,0.39,0.43,0.59,0.64c0.2,0.21,0.4,0.42,0.61,0.62c0.21,0.2,0.41,0.41,0.62,0.61c0.21,0.2,0.42,0.4,0.64,0.59
				c0.22,0.19,0.44,0.38,0.66,0.57l0.56-0.66l0.56-0.66l0.56-0.66l0.56-0.66l0.41-0.49c1.97,1.66,4.16,3,6.54,4.01
				c0.17,0.07,0.34,0.14,0.52,0.21l-0.24,0.6L22,57.4l-0.32,0.8l-0.32,0.8c-0.26-0.1-0.52-0.21-0.78-0.32
				c-0.26-0.11-0.52-0.23-0.77-0.35c-0.26-0.12-0.51-0.24-0.76-0.37l0.39-0.77l0.39-0.77c0.24,0.12,0.48,0.23,0.72,0.35l-0.37,0.78
				c0.25,0.12,0.5,0.23,0.75,0.34l0.34-0.79l0.34-0.79c-0.24-0.1-0.47-0.21-0.7-0.32c-0.23-0.11-0.46-0.22-0.69-0.34
				c-0.23-0.12-0.46-0.23-0.68-0.36l-0.41,0.76l-0.41,0.76l-0.41,0.76l-0.41,0.76c0.26,0.14,0.51,0.27,0.77,0.4
				c0.26,0.13,0.52,0.26,0.78,0.38c0.26,0.12,0.53,0.24,0.79,0.36c0.27,0.12,0.53,0.23,0.8,0.33c0.27,0.11,0.54,0.21,0.81,0.31
				l0.3-0.81l0.3-0.81l0.3-0.81l0.3-0.81l0.22-0.61c2.59,0.94,5.3,1.46,8.08,1.54l-0.02,0.65l-0.02,0.86l-0.02,0.86l-0.02,0.86
				c-0.28-0.01-0.56-0.02-0.84-0.04c-0.28-0.02-0.56-0.04-0.84-0.06c-0.28-0.02-0.56-0.05-0.84-0.08l0.1-0.86l0.1-0.86
				c0.26,0.03,0.53,0.06,0.79,0.08l-0.07,0.86c0.27,0.02,0.55,0.04,0.82,0.06l0.05-0.86l0.05-0.86c-0.26-0.01-0.51-0.03-0.77-0.06
				c-0.26-0.02-0.51-0.05-0.77-0.08c-0.25-0.03-0.51-0.06-0.76-0.1l-0.12,0.86l-0.12,0.86l-0.12,0.86l-0.12,0.86
				c0.29,0.04,0.57,0.08,0.86,0.11c0.29,0.03,0.58,0.06,0.87,0.09c0.29,0.02,0.58,0.05,0.87,0.06c0.29,0.02,0.58,0.03,0.87,0.04
				c0.29,0.01,0.58,0.01,0.87,0.01v-0.86v-0.86v-0.86v-0.86v-0.65c2.79,0,5.51-0.44,8.12-1.3l0.2,0.61l0.27,0.82l0.27,0.82
				l0.27,0.82c-0.27,0.09-0.54,0.17-0.81,0.25c-0.27,0.08-0.54,0.16-0.81,0.23c-0.27,0.07-0.55,0.14-0.82,0.21l-0.2-0.84l-0.2-0.84
				c0.26-0.06,0.51-0.13,0.77-0.19l0.22,0.84c0.26-0.07,0.53-0.14,0.79-0.22l-0.25-0.83l-0.25-0.83c-0.25,0.07-0.49,0.14-0.74,0.21
				c-0.25,0.07-0.5,0.13-0.75,0.19c-0.25,0.06-0.5,0.11-0.75,0.17l0.17,0.85l0.17,0.85l0.17,0.85l0.17,0.85
				c0.28-0.06,0.57-0.12,0.85-0.19c0.28-0.07,0.56-0.14,0.84-0.21c0.28-0.07,0.56-0.15,0.84-0.24c0.28-0.08,0.55-0.17,0.83-0.26
				c0.28-0.09,0.55-0.19,0.82-0.29l-0.3-0.81l-0.3-0.81l-0.3-0.81l-0.3-0.81l-0.22-0.61c0.41-0.15,0.81-0.31,1.22-0.48
				c2.15-0.91,4.15-2.09,5.96-3.53l0.4,0.5l0.54,0.68l0.54,0.68l0.54,0.68c-0.22,0.17-0.44,0.35-0.67,0.51
				c-0.23,0.17-0.45,0.33-0.68,0.5c-0.23,0.16-0.46,0.32-0.7,0.48l-0.48-0.72l-0.48-0.72c0.22-0.15,0.44-0.3,0.66-0.45l0.5,0.71
				c0.22-0.16,0.45-0.32,0.66-0.48l-0.52-0.69l-0.52-0.69c-0.21,0.15-0.41,0.3-0.62,0.45c-0.21,0.15-0.42,0.29-0.64,0.43
				c-0.21,0.14-0.43,0.28-0.65,0.41l0.45,0.74L46.89,56l0.45,0.74l0.45,0.74c0.25-0.15,0.49-0.31,0.73-0.47
				c0.24-0.16,0.48-0.32,0.72-0.49c0.24-0.17,0.47-0.34,0.71-0.51c0.23-0.17,0.46-0.35,0.69-0.53c0.23-0.18,0.45-0.36,0.67-0.55
				l-0.56-0.66L50.21,53.59z M32.09,57.06C18.28,57.06,7.04,45.82,7.04,32c0-13.82,11.24-25.06,25.06-25.06
				c13.82,0,25.06,11.24,25.06,25.06C57.15,45.82,45.91,57.06,32.09,57.06z"/>
		</g>
		<linearGradient id="SVGID_3_" gradientUnits="userSpaceOnUse" x1="13.399" y1="28.7657" x2="50.7905" y2="28.7657">
			<stop  offset="0" style="stop-color:#B7854D"/>
			<stop  offset="0.1515" style="stop-color:#F5D98F"/>
			<stop  offset="0.303" style="stop-color:#FFF9B3"/>
			<stop  offset="0.5212" style="stop-color:#F4D88E"/>
			<stop  offset="0.6424" style="stop-color:#FEF9B4"/>
			<stop  offset="0.8424" style="stop-color:#D4AF66"/>
			<stop  offset="1" style="stop-color:#B7854D"/>
		</linearGradient>
		<polygon class="st2" points="32.09,12.21 13.4,45.32 16.19,45.32 18.4,45.32 19.78,45.32 23.37,45.32 20.88,40.92 32.09,21.06 
			43.31,40.92 40.82,45.32 44.41,45.32 45.79,45.32 47.99,45.32 50.79,45.32 		"/>
	</g>
</g>
</svg>
