<?xml version="1.0" encoding="utf-8"?>
<!-- Generator: Adobe Illustrator 25.0.0, SVG Export Plug-In . SVG Version: 6.00 Build 0)  -->
<svg version="1.1" xmlns="http://www.w3.org/2000/svg" xmlns:xlink="http://www.w3.org/1999/xlink" x="0px" y="0px"
	 viewBox="0 0 72 72" style="enable-background:new 0 0 72 72;" xml:space="preserve">
<style type="text/css">
	.st0{fill:url(#SVGID_1_);}
	.st1{fill:url(#SVGID_2_);}
	.st2{fill:url(#SVGID_3_);}
</style>
<g id="Layer_2">
</g>
<g id="Layer_3">
</g>
<g id="Layer_1">
	<g>
		<g>
			<linearGradient id="SVGID_1_" gradientUnits="userSpaceOnUse" x1="0.7543" y1="36.0002" x2="71.4353" y2="36.0002">
				<stop  offset="0" style="stop-color:#B7854D"/>
				<stop  offset="0.1515" style="stop-color:#F5D98F"/>
				<stop  offset="0.303" style="stop-color:#FFF9B3"/>
				<stop  offset="0.5212" style="stop-color:#F4D88E"/>
				<stop  offset="0.6424" style="stop-color:#FEF9B4"/>
				<stop  offset="0.8424" style="stop-color:#D4AF66"/>
				<stop  offset="1" style="stop-color:#B7854D"/>
			</linearGradient>
			<path class="st0" d="M68.66,22.24c-1.78-4.21-4.33-7.99-7.57-11.23c-3.25-3.25-7.02-5.79-11.23-7.57
				c-4.36-1.84-8.99-2.78-13.76-2.78c-4.77,0-9.4,0.93-13.76,2.78c-4.21,1.78-7.99,4.33-11.23,7.57c-3.25,3.25-5.79,7.02-7.57,11.23
				C1.69,26.6,0.75,31.23,0.75,36c0,4.77,0.93,9.4,2.78,13.76c1.78,4.21,4.33,7.99,7.57,11.23c3.25,3.25,7.02,5.79,11.23,7.57
				c4.36,1.84,8.99,2.78,13.76,2.78c4.77,0,9.4-0.93,13.76-2.78c4.21-1.78,7.99-4.33,11.23-7.57c3.25-3.25,5.79-7.02,7.57-11.23
				c1.84-4.36,2.78-8.99,2.78-13.76C71.44,31.23,70.5,26.6,68.66,22.24z M53.34,65.86l-0.37-0.64l-0.49-0.84l-0.49-0.84l-0.49-0.84
				l-0.49-0.84c-0.25,0.14-0.5,0.29-0.76,0.42c-0.25,0.14-0.51,0.27-0.77,0.4c-0.26,0.13-0.52,0.26-0.78,0.38
				c-0.26,0.12-0.53,0.24-0.79,0.36c-0.27,0.12-0.53,0.23-0.8,0.33l0.36,0.91l0.36,0.91l0.36,0.91l0.36,0.91
				c0.3-0.12,0.61-0.25,0.91-0.38c0.3-0.13,0.6-0.26,0.9-0.4c0.3-0.14,0.59-0.28,0.88-0.43l-0.44-0.87l-0.44-0.87
				c-0.28,0.14-0.55,0.27-0.83,0.4l0.41,0.88c-0.29,0.13-0.58,0.26-0.87,0.39l-0.39-0.9L48.3,64.3c0.27-0.12,0.55-0.24,0.82-0.37
				c0.27-0.13,0.54-0.26,0.81-0.39c0.27-0.13,0.53-0.27,0.79-0.41l0.46,0.86l0.46,0.86l0.46,0.86l0.35,0.65
				c-3.19,1.73-6.69,2.97-10.38,3.62l-0.13-0.74l-0.17-0.96l-0.17-0.96l-0.17-0.96l-0.17-0.96c-0.29,0.05-0.57,0.1-0.86,0.14
				c-0.29,0.04-0.57,0.08-0.86,0.11c-0.29,0.03-0.58,0.06-0.86,0.09c-0.29,0.02-0.58,0.05-0.87,0.06c-0.29,0.02-0.58,0.03-0.87,0.04
				l0.03,0.97l0.03,0.97l0.03,0.97l0.03,0.97c0.33-0.01,0.65-0.02,0.98-0.04c0.33-0.02,0.65-0.04,0.98-0.07
				c0.33-0.03,0.65-0.06,0.98-0.1l-0.11-0.97l-0.11-0.97c-0.31,0.04-0.61,0.07-0.92,0.09l0.08,0.97c-0.32,0.03-0.63,0.05-0.95,0.07
				l-0.06-0.97l-0.06-0.97c0.3-0.02,0.6-0.04,0.89-0.06c0.3-0.03,0.6-0.06,0.89-0.09c0.3-0.03,0.59-0.07,0.89-0.12l0.14,0.96
				l0.14,0.97l0.14,0.97l0.11,0.74c-1.63,0.24-3.3,0.36-5,0.36c-2.04,0-4.04-0.18-5.99-0.52l0.13-0.74l0.17-0.96l0.17-0.96
				l0.17-0.96l0.17-0.96c-0.28-0.05-0.57-0.1-0.85-0.16c-0.28-0.06-0.57-0.12-0.85-0.19c-0.28-0.07-0.56-0.14-0.84-0.21
				c-0.28-0.07-0.56-0.15-0.83-0.24c-0.28-0.08-0.55-0.17-0.83-0.26l-0.31,0.93l-0.31,0.93l-0.31,0.93l-0.31,0.93
				c0.31,0.1,0.62,0.2,0.94,0.29c0.31,0.09,0.63,0.18,0.94,0.27c0.32,0.08,0.63,0.16,0.95,0.24l0.22-0.95l0.22-0.95
				c-0.3-0.07-0.6-0.15-0.9-0.23l-0.25,0.94c-0.31-0.08-0.61-0.17-0.92-0.26l0.28-0.93l0.28-0.93c0.29,0.09,0.57,0.17,0.86,0.24
				c0.29,0.08,0.58,0.15,0.87,0.22c0.29,0.07,0.58,0.13,0.88,0.19l-0.2,0.96l-0.2,0.95l-0.2,0.96l-0.15,0.73
				c-3.67-0.76-7.12-2.1-10.27-3.92l0.37-0.64l0.49-0.84l0.49-0.84l0.49-0.84l0.49-0.84c-0.25-0.15-0.5-0.29-0.74-0.45
				c-0.25-0.15-0.49-0.31-0.73-0.47c-0.24-0.16-0.48-0.32-0.72-0.49c-0.24-0.17-0.47-0.34-0.7-0.51c-0.23-0.17-0.46-0.35-0.69-0.53
				l-0.61,0.76l-0.61,0.76l-0.61,0.76l-0.61,0.76c0.26,0.2,0.52,0.4,0.78,0.6c0.26,0.2,0.53,0.39,0.8,0.58
				c0.27,0.19,0.54,0.37,0.81,0.55l0.54-0.81l0.54-0.81c-0.26-0.17-0.51-0.34-0.76-0.52l-0.56,0.8c-0.26-0.18-0.52-0.37-0.77-0.56
				l0.58-0.78l0.58-0.78c0.24,0.18,0.48,0.35,0.73,0.53c0.24,0.17,0.49,0.34,0.74,0.5c0.25,0.16,0.5,0.33,0.76,0.48l-0.51,0.83
				l-0.51,0.83l-0.51,0.83l-0.39,0.63c-3.14-1.94-5.94-4.37-8.3-7.18l0.56-0.47L11,57.06l0.75-0.63l0.75-0.63l0.75-0.63
				c-0.19-0.22-0.37-0.45-0.55-0.67c-0.18-0.23-0.36-0.46-0.53-0.69c-0.17-0.23-0.34-0.47-0.51-0.7c-0.17-0.24-0.33-0.48-0.49-0.72
				c-0.16-0.24-0.31-0.49-0.47-0.73l-0.83,0.51l-0.83,0.51L8.21,53.2l-0.83,0.51c0.17,0.28,0.35,0.55,0.53,0.83
				c0.18,0.27,0.36,0.54,0.55,0.81c0.19,0.27,0.38,0.53,0.58,0.8l0.78-0.58l0.78-0.58c-0.18-0.25-0.36-0.5-0.54-0.75l-0.8,0.56
				c-0.18-0.26-0.36-0.52-0.54-0.79l0.81-0.54l0.81-0.54c0.16,0.25,0.33,0.5,0.5,0.74c0.17,0.24,0.35,0.49,0.53,0.73
				c0.18,0.24,0.36,0.48,0.55,0.71l-0.76,0.61l-0.76,0.61l-0.76,0.61l-0.58,0.46c-2.27-2.86-4.09-6.09-5.37-9.59l0.7-0.25l0.92-0.33
				l0.92-0.33l0.92-0.33l0.92-0.33c-0.1-0.27-0.19-0.54-0.28-0.82c-0.09-0.27-0.18-0.55-0.26-0.83c-0.08-0.28-0.16-0.56-0.24-0.83
				c-0.07-0.28-0.15-0.56-0.21-0.84c-0.07-0.28-0.13-0.56-0.19-0.85l-0.96,0.2l-0.96,0.2L4,42.63l-0.96,0.2
				c0.07,0.32,0.14,0.64,0.21,0.96c0.08,0.32,0.16,0.64,0.24,0.95c0.08,0.32,0.17,0.63,0.27,0.94L4.7,45.4l0.93-0.28
				c-0.09-0.3-0.17-0.59-0.25-0.89l-0.94,0.25c-0.08-0.31-0.16-0.62-0.23-0.92l0.95-0.22l0.95-0.22c0.07,0.29,0.14,0.58,0.22,0.87
				c0.08,0.29,0.16,0.58,0.24,0.86c0.09,0.29,0.18,0.57,0.27,0.85L5.91,46l-0.93,0.31l-0.93,0.31l-0.71,0.23
				C2.22,43.44,1.61,39.79,1.61,36l0,0h0.75h0.98h0.98h0.98h0.98c0-0.29,0-0.58,0.01-0.87c0.01-0.29,0.02-0.58,0.04-0.87
				c0.02-0.29,0.04-0.58,0.06-0.87c0.02-0.29,0.05-0.58,0.09-0.86c0.03-0.29,0.07-0.57,0.11-0.86L5.6,31.53l-0.96-0.14l-0.97-0.14
				l-0.96-0.14c-0.05,0.32-0.09,0.65-0.13,0.97c-0.04,0.33-0.07,0.65-0.1,0.98c-0.03,0.33-0.05,0.65-0.07,0.98l0.97,0.06l0.97,0.06
				c0.02-0.31,0.04-0.62,0.07-0.92l-0.97-0.08c0.03-0.32,0.06-0.63,0.1-0.95l0.97,0.11l0.97,0.11c-0.03,0.3-0.06,0.59-0.09,0.89
				c-0.03,0.3-0.05,0.6-0.06,0.89c-0.02,0.3-0.03,0.6-0.04,0.9l-0.97-0.03l-0.97-0.03l-0.97-0.03L1.62,35
				c0.11-3.78,0.83-7.41,2.06-10.79l0.7,0.25l0.92,0.33l0.92,0.33l0.92,0.33l0.92,0.33c0.1-0.27,0.2-0.54,0.31-0.81
				c0.11-0.27,0.22-0.54,0.33-0.8c0.11-0.27,0.23-0.53,0.36-0.79c0.12-0.26,0.25-0.52,0.38-0.78c0.13-0.26,0.26-0.51,0.4-0.77
				l-0.86-0.46l-0.86-0.46l-0.86-0.46l-0.86-0.46c-0.16,0.29-0.31,0.58-0.45,0.87c-0.15,0.29-0.29,0.59-0.43,0.88
				c-0.14,0.3-0.27,0.6-0.4,0.9L6,23.02l0.9,0.39c0.12-0.28,0.25-0.56,0.38-0.84L6.4,22.15c0.13-0.29,0.27-0.57,0.42-0.86l0.87,0.44
				l0.87,0.44c-0.13,0.27-0.26,0.54-0.39,0.81c-0.13,0.27-0.25,0.54-0.37,0.82c-0.12,0.27-0.23,0.55-0.34,0.83l-0.91-0.36L5.64,23.9
				l-0.91-0.36l-0.69-0.27c1.38-3.45,3.29-6.63,5.64-9.43l0.56,0.47L11,14.94l0.75,0.63l0.75,0.63l0.75,0.63
				c0.19-0.22,0.38-0.44,0.57-0.66c0.19-0.22,0.39-0.43,0.59-0.64c0.2-0.21,0.4-0.42,0.6-0.62c0.2-0.2,0.41-0.41,0.62-0.61
				c0.21-0.2,0.42-0.39,0.64-0.59l-0.65-0.73l-0.65-0.73l-0.65-0.73l-0.65-0.73c-0.24,0.22-0.49,0.44-0.72,0.66
				c-0.24,0.22-0.47,0.45-0.7,0.68c-0.23,0.23-0.46,0.47-0.68,0.7l0.71,0.67l0.71,0.67c0.21-0.22,0.43-0.45,0.64-0.66l-0.69-0.69
				c0.22-0.22,0.45-0.45,0.68-0.66l0.67,0.71l0.67,0.71c-0.22,0.21-0.43,0.41-0.64,0.62c-0.21,0.21-0.42,0.43-0.62,0.64
				c-0.21,0.22-0.41,0.44-0.61,0.66l-0.73-0.65l-0.73-0.65l-0.73-0.65l-0.55-0.49c2.44-2.74,5.31-5.09,8.51-6.94l0.37,0.64
				l0.49,0.84l0.49,0.84l0.49,0.84l0.49,0.84c0.25-0.15,0.5-0.29,0.76-0.42c0.25-0.14,0.51-0.27,0.77-0.4
				c0.26-0.13,0.52-0.26,0.78-0.38c0.26-0.12,0.53-0.24,0.79-0.36c0.27-0.11,0.53-0.23,0.8-0.33l-0.36-0.91l-0.36-0.91L24,5.55
				l-0.36-0.91c-0.3,0.12-0.61,0.25-0.91,0.38c-0.3,0.13-0.6,0.26-0.9,0.4c-0.3,0.14-0.59,0.28-0.88,0.43l0.44,0.87l0.44,0.87
				c0.28-0.14,0.55-0.27,0.83-0.4L22.25,6.3c0.29-0.13,0.58-0.26,0.87-0.39l0.39,0.9l0.39,0.9c-0.27,0.12-0.55,0.24-0.82,0.37
				c-0.27,0.13-0.54,0.26-0.81,0.39C22,8.59,21.73,8.73,21.47,8.87l-0.46-0.86l-0.46-0.86L20.08,6.3l-0.35-0.65
				c3.19-1.73,6.69-2.97,10.38-3.62l0.13,0.74l0.17,0.96l0.17,0.96l0.17,0.96l0.17,0.96c0.28-0.05,0.57-0.1,0.86-0.14
				c0.29-0.04,0.57-0.08,0.86-0.11c0.29-0.03,0.58-0.06,0.86-0.09c0.29-0.02,0.58-0.05,0.87-0.06c0.29-0.02,0.58-0.03,0.87-0.04
				L35.2,5.2l-0.03-0.97l-0.03-0.97l-0.03-0.97c-0.33,0.01-0.65,0.02-0.98,0.04c-0.33,0.02-0.65,0.04-0.98,0.07
				c-0.33,0.03-0.65,0.06-0.98,0.1l0.11,0.97l0.11,0.97c0.31-0.04,0.61-0.07,0.92-0.09l-0.08-0.97c0.32-0.03,0.63-0.05,0.95-0.07
				l0.06,0.97l0.06,0.97c-0.3,0.02-0.6,0.04-0.89,0.06c-0.3,0.03-0.6,0.06-0.89,0.09c-0.3,0.03-0.59,0.07-0.89,0.12l-0.14-0.96
				l-0.14-0.97l-0.14-0.97L31.1,1.87c1.63-0.24,3.3-0.36,5-0.36c2.04,0,4.04,0.18,5.99,0.52l-0.13,0.74l-0.17,0.96l-0.17,0.96
				l-0.17,0.96l-0.17,0.96c0.28,0.05,0.57,0.1,0.85,0.16c0.28,0.06,0.57,0.12,0.85,0.19c0.28,0.07,0.56,0.14,0.84,0.21
				c0.28,0.07,0.56,0.15,0.83,0.24c0.28,0.08,0.55,0.17,0.83,0.26l0.31-0.93l0.31-0.93l0.31-0.93l0.31-0.93
				c-0.31-0.1-0.62-0.2-0.94-0.29c-0.31-0.09-0.63-0.18-0.94-0.27c-0.32-0.08-0.63-0.16-0.95-0.24l-0.22,0.95l-0.22,0.95
				c0.3,0.07,0.6,0.15,0.9,0.23l0.25-0.94c0.31,0.08,0.61,0.17,0.92,0.26l-0.28,0.93l-0.28,0.93c-0.29-0.09-0.57-0.17-0.86-0.24
				c-0.29-0.08-0.58-0.15-0.87-0.22c-0.29-0.07-0.58-0.13-0.88-0.19l0.2-0.96l0.2-0.96l0.2-0.96l0.15-0.73
				c3.67,0.76,7.12,2.1,10.27,3.92l-0.37,0.64l-0.49,0.84l-0.49,0.84L51.5,9.31l-0.49,0.84c0.25,0.14,0.5,0.29,0.74,0.45
				c0.25,0.15,0.49,0.31,0.73,0.47c0.24,0.16,0.48,0.32,0.72,0.49c0.24,0.17,0.47,0.34,0.7,0.51c0.23,0.17,0.46,0.35,0.69,0.53
				l0.61-0.76l0.61-0.76l0.61-0.76l0.61-0.76c-0.26-0.2-0.52-0.4-0.78-0.6c-0.26-0.2-0.53-0.39-0.8-0.58
				c-0.27-0.19-0.54-0.37-0.81-0.55L54.1,8.63l-0.54,0.81c0.26,0.17,0.51,0.34,0.76,0.52l0.56-0.8c0.26,0.18,0.52,0.37,0.77,0.56
				l-0.58,0.78l-0.58,0.78c-0.24-0.18-0.48-0.35-0.73-0.53c-0.24-0.17-0.49-0.34-0.74-0.5c-0.25-0.16-0.5-0.33-0.76-0.48l0.51-0.83
				l0.51-0.83l0.51-0.83l0.39-0.63c3.14,1.94,5.94,4.37,8.3,7.19l-0.56,0.47l-0.75,0.63l-0.75,0.63L59.7,16.2l-0.75,0.63
				c0.19,0.22,0.37,0.45,0.55,0.67c0.18,0.23,0.36,0.46,0.53,0.69c0.17,0.23,0.34,0.47,0.51,0.7c0.17,0.24,0.33,0.48,0.49,0.72
				c0.16,0.24,0.31,0.49,0.47,0.73l0.83-0.51l0.83-0.51l0.83-0.51l0.83-0.51c-0.17-0.28-0.35-0.55-0.53-0.83
				c-0.18-0.27-0.36-0.54-0.55-0.81c-0.19-0.27-0.38-0.53-0.58-0.8l-0.78,0.58l-0.78,0.58c0.18,0.25,0.37,0.5,0.54,0.75l0.8-0.56
				c0.18,0.26,0.36,0.52,0.54,0.79l-0.81,0.54l-0.81,0.54c-0.16-0.25-0.33-0.5-0.5-0.74c-0.17-0.24-0.35-0.49-0.53-0.73
				c-0.18-0.24-0.36-0.48-0.55-0.71l0.76-0.61l0.76-0.61l0.76-0.61l0.58-0.46c2.27,2.86,4.09,6.09,5.37,9.59l-0.7,0.25l-0.92,0.33
				l-0.92,0.33l-0.92,0.33l-0.92,0.33c0.1,0.27,0.19,0.54,0.28,0.82c0.09,0.27,0.18,0.55,0.26,0.83c0.08,0.28,0.16,0.56,0.24,0.83
				c0.07,0.28,0.15,0.56,0.21,0.84c0.07,0.28,0.13,0.56,0.19,0.85l0.96-0.2l0.96-0.2l0.96-0.2l0.96-0.2
				c-0.07-0.32-0.14-0.64-0.21-0.96c-0.07-0.32-0.16-0.64-0.24-0.95c-0.08-0.32-0.17-0.63-0.27-0.94l-0.93,0.28l-0.93,0.28
				c0.09,0.3,0.17,0.59,0.25,0.89l0.94-0.25c0.08,0.31,0.16,0.62,0.23,0.92l-0.95,0.22l-0.95,0.22c-0.07-0.29-0.14-0.58-0.22-0.87
				c-0.08-0.29-0.16-0.58-0.24-0.86c-0.09-0.29-0.18-0.57-0.27-0.85L66.28,26l0.93-0.31l0.93-0.31l0.71-0.23
				c1.13,3.41,1.75,7.06,1.75,10.85h-0.75h-0.98h-0.98h-0.97h-0.98c0,0.29,0,0.58-0.01,0.87c-0.01,0.29-0.02,0.58-0.04,0.87
				c-0.02,0.29-0.04,0.58-0.06,0.87c-0.02,0.29-0.05,0.58-0.09,0.86c-0.03,0.29-0.07,0.57-0.11,0.86l0.97,0.14l0.97,0.14l0.96,0.14
				l0.96,0.14c0.05-0.32,0.09-0.65,0.13-0.97c0.04-0.32,0.07-0.65,0.1-0.98c0.03-0.33,0.05-0.65,0.07-0.98L68.8,37.9l-0.97-0.06
				c-0.02,0.31-0.04,0.62-0.07,0.92l0.97,0.08c-0.03,0.32-0.06,0.63-0.1,0.95l-0.97-0.11l-0.97-0.11c0.03-0.3,0.06-0.59,0.09-0.89
				c0.03-0.3,0.05-0.6,0.06-0.89c0.02-0.3,0.03-0.6,0.04-0.9l0.97,0.03l0.97,0.03l0.97,0.03L70.57,37
				c-0.11,3.78-0.83,7.41-2.06,10.79l-0.7-0.25l-0.92-0.33l-0.92-0.33l-0.92-0.33l-0.92-0.33c-0.1,0.27-0.2,0.54-0.31,0.81
				c-0.11,0.27-0.22,0.54-0.33,0.8c-0.11,0.27-0.23,0.53-0.36,0.79c-0.12,0.26-0.25,0.52-0.38,0.78c-0.13,0.26-0.26,0.52-0.4,0.77
				l0.86,0.46l0.86,0.46l0.86,0.46l0.86,0.46c0.16-0.29,0.31-0.58,0.45-0.87c0.15-0.29,0.29-0.59,0.43-0.88
				c0.14-0.3,0.27-0.6,0.4-0.9l-0.9-0.39l-0.9-0.39c-0.12,0.28-0.25,0.56-0.38,0.84l0.88,0.41c-0.13,0.29-0.27,0.57-0.42,0.86
				l-0.87-0.44l-0.87-0.44c0.13-0.27,0.26-0.54,0.39-0.81c0.13-0.27,0.25-0.54,0.37-0.82c0.12-0.27,0.23-0.55,0.34-0.83l0.91,0.36
				l0.91,0.36l0.91,0.36l0.69,0.27c-1.38,3.45-3.29,6.63-5.64,9.43l-0.56-0.47l-0.75-0.63l-0.75-0.63l-0.75-0.63l-0.75-0.63
				c-0.19,0.22-0.38,0.44-0.57,0.66c-0.19,0.22-0.39,0.43-0.59,0.64c-0.2,0.21-0.4,0.42-0.6,0.62c-0.2,0.2-0.41,0.41-0.62,0.6
				c-0.21,0.2-0.42,0.39-0.64,0.59l0.65,0.73l0.65,0.73l0.65,0.73l0.65,0.73c0.24-0.22,0.49-0.44,0.72-0.66
				c0.24-0.22,0.47-0.45,0.7-0.68c0.23-0.23,0.46-0.47,0.68-0.7l-0.71-0.67l-0.71-0.67c-0.21,0.22-0.43,0.45-0.64,0.66l0.69,0.69
				c-0.22,0.22-0.45,0.45-0.68,0.66l-0.67-0.71l-0.67-0.71c0.22-0.21,0.43-0.41,0.64-0.62c0.21-0.21,0.42-0.43,0.62-0.64
				c0.21-0.22,0.41-0.44,0.61-0.66l0.73,0.65l0.73,0.65l0.73,0.65l0.55,0.49C59.4,61.66,56.53,64.01,53.34,65.86z"/>
			<linearGradient id="SVGID_2_" gradientUnits="userSpaceOnUse" x1="2.3719" y1="36.0001" x2="69.8176" y2="36.0001">
				<stop  offset="0" style="stop-color:#B7854D"/>
				<stop  offset="0.1515" style="stop-color:#F5D98F"/>
				<stop  offset="0.303" style="stop-color:#FFF9B3"/>
				<stop  offset="0.5212" style="stop-color:#F4D88E"/>
				<stop  offset="0.6424" style="stop-color:#FEF9B4"/>
				<stop  offset="0.8424" style="stop-color:#D4AF66"/>
				<stop  offset="1" style="stop-color:#B7854D"/>
			</linearGradient>
			<path class="st1" d="M56.53,60.35L55.9,59.6l-0.63-0.75l-0.47-0.56c0.65-0.54,1.27-1.12,1.87-1.72c1.61-1.61,3.02-3.39,4.2-5.3
				l0.62,0.38l0.83,0.51l0.83,0.51l0.83,0.51c-0.17,0.27-0.34,0.54-0.51,0.8c-0.17,0.27-0.35,0.53-0.54,0.79
				c-0.18,0.26-0.37,0.52-0.56,0.77l-0.78-0.58l-0.78-0.58c0.18-0.24,0.35-0.48,0.53-0.73l0.8,0.56c0.18-0.25,0.35-0.51,0.52-0.76
				l-0.81-0.54l-0.81-0.54c-0.16,0.24-0.32,0.48-0.49,0.72c-0.17,0.24-0.34,0.47-0.51,0.7c-0.17,0.23-0.35,0.46-0.53,0.69l0.76,0.61
				l0.76,0.61l0.76,0.61l0.76,0.61c0.2-0.26,0.4-0.52,0.6-0.78c0.2-0.26,0.39-0.53,0.58-0.8c0.19-0.27,0.37-0.54,0.55-0.81
				c0.18-0.27,0.36-0.55,0.53-0.83c0.17-0.28,0.34-0.56,0.5-0.84l-0.84-0.49l-0.84-0.49l-0.84-0.49l-0.84-0.49l-0.63-0.36
				c0.6-1.04,1.13-2.11,1.61-3.22c0.75-1.76,1.31-3.58,1.69-5.44l0.71,0.15l0.96,0.2l0.96,0.2l0.96,0.2
				c-0.06,0.31-0.13,0.62-0.21,0.93c-0.07,0.31-0.15,0.62-0.23,0.92c-0.08,0.31-0.17,0.61-0.26,0.92l-0.93-0.28l-0.93-0.28
				c0.09-0.29,0.17-0.57,0.24-0.86l0.94,0.25c0.08-0.3,0.15-0.6,0.23-0.9l-0.95-0.22l-0.95-0.22c-0.07,0.28-0.14,0.56-0.21,0.84
				c-0.07,0.28-0.15,0.56-0.24,0.83c-0.08,0.28-0.17,0.55-0.26,0.83l0.93,0.31L66.28,46l0.93,0.31l0.93,0.31
				c0.1-0.31,0.2-0.62,0.3-0.94c0.09-0.31,0.18-0.63,0.27-0.94c0.08-0.32,0.16-0.63,0.24-0.95c0.08-0.32,0.15-0.64,0.21-0.96
				c0.07-0.32,0.13-0.64,0.18-0.96l-0.96-0.17l-0.96-0.17l-0.96-0.17l-0.96-0.17l-0.72-0.13c0.29-1.66,0.44-3.35,0.44-5.06
				c0-1.42-0.1-2.83-0.3-4.22l0.72-0.1l0.97-0.14l0.97-0.14l0.96-0.14c0.05,0.31,0.09,0.63,0.12,0.94c0.04,0.32,0.07,0.63,0.1,0.95
				c0.03,0.32,0.05,0.63,0.07,0.95l-0.97,0.06l-0.97,0.06c-0.02-0.3-0.04-0.6-0.06-0.89l0.97-0.08c-0.03-0.31-0.06-0.61-0.09-0.92
				l-0.97,0.11l-0.97,0.11c0.03,0.29,0.06,0.58,0.09,0.86c0.02,0.29,0.05,0.58,0.06,0.87c0.02,0.29,0.03,0.58,0.04,0.87l0.97-0.03
				l0.97-0.03l0.97-0.03l0.97-0.03c-0.01-0.33-0.02-0.65-0.04-0.98c-0.02-0.33-0.04-0.65-0.07-0.98c-0.03-0.33-0.06-0.65-0.1-0.98
				c-0.04-0.32-0.08-0.65-0.13-0.97c-0.05-0.32-0.1-0.65-0.16-0.97l-0.96,0.17l-0.96,0.17l-0.96,0.17l-0.96,0.17l-0.72,0.13
				c-0.38-2.15-0.99-4.25-1.85-6.27c-0.36-0.85-0.76-1.68-1.19-2.49l0.64-0.35l0.86-0.46l0.86-0.46l0.86-0.46
				c0.15,0.28,0.3,0.56,0.44,0.85c0.14,0.28,0.28,0.57,0.42,0.86c0.13,0.29,0.26,0.58,0.39,0.87l-0.9,0.39l-0.9,0.39
				c-0.12-0.27-0.24-0.55-0.37-0.82l0.88-0.41c-0.13-0.28-0.27-0.56-0.4-0.83l-0.87,0.44l-0.87,0.44c0.13,0.26,0.26,0.52,0.38,0.78
				c0.12,0.26,0.24,0.53,0.36,0.79c0.11,0.27,0.23,0.53,0.33,0.8l0.91-0.36l0.91-0.36l0.91-0.36l0.91-0.36
				c-0.12-0.3-0.25-0.61-0.38-0.91c-0.13-0.3-0.26-0.6-0.4-0.9c-0.14-0.3-0.28-0.59-0.43-0.88c-0.15-0.29-0.3-0.58-0.45-0.87
				c-0.16-0.29-0.32-0.57-0.48-0.86l-0.84,0.49l-0.84,0.49l-0.84,0.49l-0.84,0.49l-0.63,0.36c-1.27-2.19-2.82-4.21-4.63-6.03
				c-0.4-0.4-0.81-0.79-1.23-1.16l0.48-0.54l0.65-0.73l0.65-0.73l0.65-0.73c0.24,0.21,0.47,0.43,0.7,0.64
				c0.23,0.22,0.46,0.44,0.68,0.66c0.22,0.22,0.45,0.45,0.66,0.68l-0.71,0.67l-0.71,0.67c-0.21-0.22-0.41-0.43-0.62-0.64l0.69-0.69
				c-0.22-0.22-0.44-0.43-0.66-0.64l-0.67,0.71l-0.67,0.71c0.21,0.2,0.42,0.4,0.62,0.61c0.2,0.2,0.41,0.41,0.6,0.62
				c0.2,0.21,0.39,0.42,0.59,0.64l0.73-0.65l0.73-0.65l0.73-0.65l0.73-0.65c-0.22-0.24-0.44-0.49-0.66-0.72
				c-0.22-0.24-0.45-0.47-0.68-0.7c-0.23-0.23-0.47-0.46-0.7-0.68c-0.24-0.22-0.48-0.45-0.72-0.66c-0.24-0.22-0.49-0.43-0.74-0.64
				l-0.63,0.75l-0.63,0.75L55.9,12.4l-0.63,0.75l-0.47,0.56c-2.22-1.87-4.69-3.38-7.38-4.52c-0.19-0.08-0.39-0.16-0.58-0.24
				l0.27-0.68l0.36-0.91l0.36-0.91l0.36-0.91c0.3,0.12,0.59,0.24,0.88,0.37c0.29,0.13,0.58,0.26,0.87,0.39
				c0.29,0.13,0.57,0.27,0.86,0.42l-0.44,0.87l-0.44,0.87c-0.27-0.13-0.54-0.26-0.81-0.39l0.41-0.88c-0.28-0.13-0.56-0.26-0.84-0.38
				L48.3,7.7l-0.39,0.9c0.27,0.11,0.53,0.23,0.79,0.36c0.26,0.12,0.52,0.25,0.78,0.38c0.26,0.13,0.51,0.26,0.77,0.4l0.46-0.86
				l0.46-0.86l0.46-0.86l0.46-0.86c-0.29-0.16-0.58-0.31-0.87-0.45c-0.29-0.15-0.59-0.29-0.88-0.43c-0.3-0.14-0.6-0.27-0.9-0.4
				c-0.3-0.13-0.6-0.26-0.91-0.38c-0.3-0.12-0.61-0.24-0.92-0.35L47.3,5.21l-0.33,0.92l-0.33,0.92L46.3,7.95l-0.25,0.68
				c-2.92-1.06-5.98-1.65-9.11-1.74l0.02-0.73l0.03-0.97l0.03-0.97l0.03-0.97c0.32,0.01,0.63,0.02,0.95,0.04
				c0.32,0.02,0.63,0.04,0.95,0.07c0.32,0.03,0.63,0.06,0.95,0.1l-0.11,0.97l-0.11,0.97c-0.3-0.03-0.59-0.06-0.89-0.09l0.08-0.97
				c-0.31-0.03-0.61-0.05-0.92-0.07l-0.06,0.97l-0.06,0.97c0.29,0.02,0.58,0.04,0.87,0.06c0.29,0.02,0.58,0.05,0.86,0.09
				c0.29,0.03,0.57,0.07,0.86,0.11l0.14-0.96l0.14-0.96l0.14-0.97l0.14-0.97c-0.32-0.05-0.65-0.09-0.97-0.13
				c-0.33-0.04-0.65-0.07-0.98-0.1c-0.33-0.03-0.65-0.05-0.98-0.07c-0.33-0.02-0.65-0.03-0.98-0.04c-0.33-0.01-0.65-0.01-0.98-0.01
				v0.98v0.98v0.98v0.98v0.73c0,0,0,0,0,0c-3.15,0-6.22,0.49-9.16,1.47l-0.23-0.69L26.4,6.74l-0.31-0.93l-0.31-0.93
				c0.3-0.1,0.6-0.2,0.91-0.29c0.3-0.09,0.61-0.18,0.92-0.26c0.31-0.08,0.62-0.16,0.92-0.23l0.22,0.95l0.22,0.95
				c-0.29,0.07-0.58,0.14-0.87,0.22l-0.25-0.94c-0.3,0.08-0.59,0.16-0.89,0.25l0.28,0.93l0.28,0.93c0.28-0.08,0.56-0.16,0.83-0.24
				c0.28-0.07,0.56-0.15,0.84-0.21c0.28-0.07,0.56-0.13,0.85-0.19l-0.2-0.96l-0.2-0.96l-0.2-0.96l-0.2-0.96
				c-0.32,0.07-0.64,0.14-0.96,0.21C28,3.24,27.68,3.32,27.36,3.4c-0.32,0.08-0.63,0.17-0.94,0.27c-0.31,0.09-0.63,0.19-0.94,0.29
				c-0.31,0.1-0.62,0.21-0.93,0.32l0.33,0.92l0.33,0.92l0.33,0.92l0.33,0.92l0.25,0.68c-0.46,0.17-0.92,0.35-1.37,0.54
				c-2.42,1.03-4.67,2.36-6.72,3.98l-0.45-0.57l-0.61-0.76l-0.61-0.76l-0.61-0.76c0.25-0.2,0.5-0.39,0.76-0.58
				c0.25-0.19,0.51-0.38,0.77-0.56c0.26-0.18,0.52-0.36,0.79-0.54l0.54,0.81l0.54,0.81c-0.25,0.16-0.5,0.33-0.74,0.5l-0.56-0.8
				c-0.25,0.18-0.5,0.36-0.75,0.54l0.58,0.78l0.58,0.78c0.23-0.17,0.47-0.34,0.7-0.51c0.24-0.17,0.48-0.33,0.72-0.49
				c0.24-0.16,0.49-0.31,0.73-0.47l-0.51-0.83l-0.51-0.83l-0.51-0.83l-0.51-0.83c-0.28,0.17-0.55,0.35-0.83,0.53
				c-0.27,0.18-0.54,0.36-0.81,0.55c-0.27,0.19-0.53,0.38-0.8,0.58c-0.26,0.2-0.52,0.39-0.78,0.6c-0.26,0.2-0.51,0.41-0.76,0.62
				l0.63,0.75l0.63,0.75l0.63,0.75l0.63,0.75l0.47,0.56c-0.65,0.54-1.27,1.12-1.87,1.72c-1.61,1.61-3.02,3.39-4.2,5.3l-0.62-0.38
				l-0.83-0.51l-0.83-0.51L8.21,18.8c0.17-0.27,0.34-0.54,0.51-0.8c0.18-0.27,0.35-0.53,0.54-0.79c0.18-0.26,0.37-0.52,0.56-0.77
				l0.78,0.58l0.78,0.58c-0.18,0.24-0.35,0.48-0.53,0.73l-0.8-0.56c-0.18,0.25-0.35,0.51-0.52,0.76l0.81,0.54l0.81,0.54
				c0.16-0.24,0.32-0.48,0.49-0.72c0.17-0.24,0.34-0.47,0.51-0.7c0.17-0.23,0.35-0.46,0.53-0.69l-0.76-0.61l-0.76-0.61l-0.76-0.61
				l-0.76-0.61c-0.2,0.26-0.4,0.52-0.6,0.78c-0.2,0.26-0.39,0.53-0.58,0.8c-0.19,0.27-0.37,0.54-0.55,0.81
				c-0.18,0.27-0.36,0.55-0.53,0.83c-0.17,0.28-0.34,0.56-0.5,0.84l0.84,0.49l0.84,0.49l0.84,0.49l0.84,0.49l0.63,0.36
				c-0.6,1.04-1.13,2.11-1.61,3.22c-0.75,1.76-1.31,3.58-1.69,5.44l-0.71-0.15l-0.96-0.2l-0.96-0.2L4,29.37
				c0.06-0.31,0.13-0.62,0.21-0.93c0.07-0.31,0.15-0.62,0.23-0.92c0.08-0.31,0.17-0.61,0.26-0.92l0.93,0.28l0.93,0.28
				c-0.09,0.29-0.17,0.57-0.24,0.86l-0.94-0.25c-0.08,0.3-0.16,0.6-0.23,0.9l0.95,0.22l0.95,0.22c0.07-0.28,0.14-0.56,0.21-0.84
				C7.34,28,7.42,27.72,7.5,27.44c0.08-0.28,0.17-0.55,0.26-0.83l-0.93-0.31L5.91,26l-0.93-0.31l-0.93-0.31
				c-0.1,0.31-0.2,0.62-0.29,0.94c-0.09,0.31-0.18,0.63-0.27,0.94c-0.08,0.32-0.16,0.63-0.24,0.95c-0.07,0.32-0.15,0.64-0.21,0.96
				c-0.07,0.32-0.13,0.64-0.18,0.96l0.96,0.17l0.96,0.17l0.96,0.17l0.96,0.17l0.72,0.13C7.13,32.6,6.99,34.29,6.99,36
				c0,1.42,0.1,2.83,0.3,4.22l-0.72,0.1L5.6,40.47l-0.96,0.14l-0.97,0.14c-0.05-0.31-0.09-0.63-0.12-0.95
				c-0.04-0.32-0.07-0.63-0.1-0.95c-0.03-0.32-0.05-0.63-0.07-0.95l0.97-0.06l0.97-0.06c0.02,0.3,0.04,0.6,0.06,0.89l-0.97,0.08
				c0.03,0.31,0.06,0.61,0.09,0.92l0.97-0.11l0.97-0.11c-0.03-0.29-0.06-0.58-0.09-0.86c-0.02-0.29-0.05-0.58-0.06-0.87
				c-0.02-0.29-0.03-0.58-0.04-0.87L5.3,36.9l-0.97,0.03l-0.97,0.03l-0.97,0.03c0.01,0.33,0.02,0.65,0.04,0.98
				c0.02,0.33,0.04,0.65,0.07,0.98c0.03,0.33,0.06,0.65,0.1,0.98c0.04,0.33,0.08,0.65,0.13,0.97c0.05,0.32,0.1,0.65,0.16,0.97
				l0.96-0.17l0.96-0.17l0.96-0.17l0.96-0.17l0.72-0.13c0.38,2.15,0.99,4.25,1.85,6.27c0.36,0.85,0.76,1.68,1.19,2.49l-0.64,0.35
				l-0.86,0.46l-0.86,0.46l-0.86,0.46c-0.15-0.28-0.3-0.56-0.44-0.85c-0.14-0.28-0.28-0.57-0.42-0.86C6.26,49.56,6.13,49.27,6,48.98
				l0.9-0.39l0.9-0.39c0.12,0.27,0.24,0.55,0.37,0.82l-0.88,0.41c0.13,0.28,0.27,0.56,0.4,0.83l0.87-0.44l0.87-0.44
				c-0.13-0.26-0.26-0.52-0.38-0.78c-0.12-0.26-0.24-0.53-0.36-0.79c-0.11-0.27-0.23-0.53-0.33-0.8l-0.91,0.36l-0.91,0.36L5.64,48.1
				l-0.91,0.36c0.12,0.3,0.25,0.61,0.38,0.91c0.13,0.3,0.26,0.6,0.4,0.9c0.14,0.3,0.28,0.59,0.43,0.88c0.15,0.29,0.3,0.58,0.45,0.87
				c0.16,0.29,0.32,0.57,0.48,0.86l0.84-0.49l0.84-0.49l0.84-0.49l0.84-0.49l0.63-0.36c1.27,2.19,2.82,4.21,4.63,6.03
				c0.4,0.4,0.81,0.79,1.23,1.16l-0.48,0.54l-0.65,0.73l-0.65,0.73l-0.65,0.73c-0.24-0.21-0.47-0.43-0.7-0.64
				c-0.23-0.22-0.46-0.44-0.68-0.66c-0.22-0.22-0.45-0.45-0.66-0.68l0.71-0.67l0.71-0.67c0.21,0.22,0.41,0.43,0.62,0.64l-0.69,0.69
				c0.22,0.22,0.44,0.43,0.66,0.64l0.67-0.71l0.67-0.71c-0.21-0.2-0.42-0.4-0.62-0.6c-0.2-0.2-0.41-0.41-0.6-0.62
				c-0.2-0.21-0.39-0.42-0.59-0.64l-0.73,0.65l-0.73,0.65l-0.73,0.65l-0.73,0.65c0.22,0.24,0.44,0.49,0.66,0.72
				c0.22,0.24,0.45,0.47,0.68,0.7c0.23,0.23,0.47,0.46,0.7,0.68c0.24,0.22,0.48,0.45,0.72,0.66c0.24,0.22,0.49,0.43,0.74,0.64
				l0.63-0.75l0.63-0.75l0.63-0.75l0.63-0.75l0.47-0.56c2.22,1.87,4.69,3.38,7.38,4.52c0.19,0.08,0.39,0.16,0.58,0.24l-0.27,0.68
				l-0.36,0.91l-0.36,0.91L24,66.46c-0.3-0.12-0.59-0.24-0.88-0.37c-0.29-0.13-0.58-0.26-0.87-0.39c-0.29-0.13-0.57-0.27-0.86-0.42
				l0.44-0.87l0.44-0.87c0.27,0.13,0.54,0.26,0.81,0.39l-0.41,0.88c0.28,0.13,0.56,0.26,0.84,0.38l0.39-0.89l0.39-0.9
				c-0.27-0.11-0.53-0.23-0.79-0.36c-0.26-0.12-0.52-0.25-0.78-0.38c-0.26-0.13-0.51-0.26-0.77-0.4l-0.46,0.86l-0.46,0.86
				l-0.46,0.86l-0.46,0.86c0.29,0.16,0.58,0.31,0.87,0.45c0.29,0.15,0.59,0.29,0.88,0.43c0.3,0.14,0.6,0.27,0.9,0.4
				c0.3,0.13,0.6,0.26,0.91,0.38c0.3,0.12,0.61,0.24,0.92,0.35l0.33-0.92l0.33-0.92l0.33-0.92l0.33-0.92l0.25-0.68
				c2.92,1.06,5.98,1.65,9.11,1.74l-0.02,0.73L35.2,66.8l-0.03,0.97l-0.03,0.97c-0.32-0.01-0.63-0.02-0.95-0.04
				c-0.32-0.02-0.63-0.04-0.95-0.07c-0.32-0.03-0.63-0.06-0.95-0.1l0.11-0.97l0.11-0.97c0.3,0.03,0.59,0.06,0.89,0.09l-0.08,0.97
				c0.31,0.03,0.61,0.05,0.92,0.07l0.06-0.97l0.06-0.97c-0.29-0.02-0.58-0.04-0.87-0.06c-0.29-0.02-0.58-0.05-0.86-0.09
				c-0.29-0.03-0.57-0.07-0.86-0.11l-0.14,0.96l-0.14,0.96l-0.14,0.97l-0.14,0.97c0.32,0.05,0.65,0.09,0.97,0.13
				c0.32,0.04,0.65,0.07,0.98,0.1c0.33,0.03,0.65,0.05,0.98,0.07c0.33,0.02,0.65,0.03,0.98,0.04c0.33,0.01,0.65,0.01,0.98,0.01
				v-0.97v-0.98v-0.98v-0.97v-0.73c3.15,0,6.22-0.49,9.16-1.47l0.23,0.69l0.31,0.93l0.31,0.93l0.31,0.93c-0.3,0.1-0.6,0.2-0.91,0.29
				c-0.3,0.09-0.61,0.18-0.92,0.26c-0.31,0.08-0.62,0.16-0.92,0.23l-0.22-0.95l-0.22-0.95c0.29-0.07,0.58-0.14,0.87-0.22l0.25,0.94
				c0.3-0.08,0.59-0.16,0.89-0.25l-0.28-0.93l-0.28-0.93c-0.28,0.08-0.56,0.16-0.83,0.24c-0.28,0.07-0.56,0.15-0.84,0.21
				c-0.28,0.07-0.56,0.13-0.85,0.19l0.2,0.96l0.2,0.96l0.2,0.95l0.2,0.96c0.32-0.07,0.64-0.14,0.96-0.21
				c0.32-0.08,0.64-0.16,0.95-0.24c0.32-0.08,0.63-0.17,0.94-0.27c0.31-0.09,0.63-0.19,0.94-0.29c0.31-0.1,0.62-0.21,0.93-0.32
				l-0.33-0.92l-0.33-0.92l-0.33-0.92l-0.33-0.92l-0.25-0.68c0.46-0.17,0.92-0.35,1.37-0.54c2.42-1.03,4.67-2.36,6.72-3.98
				l0.45,0.57l0.61,0.76l0.61,0.76l0.61,0.76c-0.25,0.2-0.5,0.39-0.76,0.58c-0.25,0.19-0.51,0.38-0.77,0.56
				c-0.26,0.18-0.52,0.36-0.79,0.54l-0.54-0.81l-0.54-0.81c0.25-0.16,0.5-0.33,0.74-0.5l0.56,0.8c0.25-0.18,0.5-0.36,0.75-0.54
				l-0.58-0.78l-0.58-0.78c-0.23,0.17-0.47,0.34-0.7,0.51c-0.24,0.17-0.48,0.33-0.72,0.49c-0.24,0.16-0.49,0.31-0.73,0.47l0.51,0.83
				l0.51,0.83l0.51,0.83l0.51,0.83c0.28-0.17,0.55-0.35,0.83-0.53c0.27-0.18,0.54-0.36,0.81-0.55c0.27-0.19,0.53-0.38,0.8-0.58
				c0.26-0.2,0.52-0.39,0.78-0.6c0.26-0.2,0.51-0.41,0.76-0.62l-0.63-0.75L56.53,60.35z M36.09,64.26
				C20.51,64.26,7.84,51.58,7.84,36c0-15.58,12.68-28.26,28.26-28.26c15.58,0,28.26,12.68,28.26,28.26
				C64.35,51.58,51.68,64.26,36.09,64.26z"/>
		</g>
		<linearGradient id="SVGID_3_" gradientUnits="userSpaceOnUse" x1="15.0129" y1="32.3528" x2="57.1767" y2="32.3528">
			<stop  offset="0" style="stop-color:#B7854D"/>
			<stop  offset="0.1515" style="stop-color:#F5D98F"/>
			<stop  offset="0.303" style="stop-color:#FFF9B3"/>
			<stop  offset="0.5212" style="stop-color:#F4D88E"/>
			<stop  offset="0.6424" style="stop-color:#FEF9B4"/>
			<stop  offset="0.8424" style="stop-color:#D4AF66"/>
			<stop  offset="1" style="stop-color:#B7854D"/>
		</linearGradient>
		<polygon class="st2" points="36.09,13.68 15.01,51.03 18.17,51.03 20.65,51.03 22.21,51.03 26.25,51.03 23.45,46.06 36.09,23.66 
			48.74,46.06 45.94,51.03 49.98,51.03 51.54,51.03 54.02,51.03 57.18,51.03 		"/>
	</g>
</g>
</svg>
