<?xml version="1.0" encoding="utf-8"?>
<!-- Generator: Adobe Illustrator 25.0.0, SVG Export Plug-In . SVG Version: 6.00 Build 0)  -->
<svg version="1.1" xmlns="http://www.w3.org/2000/svg" xmlns:xlink="http://www.w3.org/1999/xlink" x="0px" y="0px"
	 viewBox="0 0 96 96" style="enable-background:new 0 0 96 96;" xml:space="preserve">
<style type="text/css">
	.st0{fill:url(#SVGID_1_);}
	.st1{fill:url(#SVGID_2_);}
	.st2{fill:url(#SVGID_3_);}
</style>
<g id="Layer_2">
</g>
<g id="Layer_3">
</g>
<g id="Layer_1">
	<g>
		<g>
			<linearGradient id="SVGID_1_" gradientUnits="userSpaceOnUse" x1="0.9245" y1="48.0002" x2="95.265" y2="48.0002">
				<stop  offset="0" style="stop-color:#B7854D"/>
				<stop  offset="0.1515" style="stop-color:#F5D98F"/>
				<stop  offset="0.303" style="stop-color:#FFF9B3"/>
				<stop  offset="0.5212" style="stop-color:#F4D88E"/>
				<stop  offset="0.6424" style="stop-color:#FEF9B4"/>
				<stop  offset="0.8424" style="stop-color:#D4AF66"/>
				<stop  offset="1" style="stop-color:#B7854D"/>
			</linearGradient>
			<path class="st0" d="M91.56,29.64c-2.38-5.62-5.78-10.66-10.11-14.99c-4.33-4.33-9.38-7.73-14.99-10.11
				c-5.82-2.46-11.99-3.71-18.36-3.71c-6.37,0-12.55,1.25-18.36,3.71c-5.62,2.38-10.66,5.78-14.99,10.11
				c-4.33,4.33-7.73,9.38-10.11,14.99C2.17,35.46,0.92,41.63,0.92,48c0,6.37,1.25,12.55,3.71,18.36
				c2.38,5.62,5.78,10.66,10.11,14.99c4.33,4.33,9.38,7.73,14.99,10.11c5.82,2.46,11.99,3.71,18.36,3.71
				c6.37,0,12.55-1.25,18.36-3.71c5.62-2.38,10.66-5.78,14.99-10.11c4.33-4.33,7.73-9.38,10.11-14.99
				c2.46-5.82,3.71-11.99,3.71-18.36C95.27,41.63,94.02,35.46,91.56,29.64z M71.11,87.85L70.61,87l-0.65-1.13l-0.65-1.13l-0.65-1.13
				l-0.65-1.13c-0.33,0.19-0.67,0.38-1.01,0.57c-0.34,0.18-0.68,0.36-1.03,0.54c-0.35,0.17-0.69,0.34-1.04,0.51
				c-0.35,0.16-0.7,0.32-1.06,0.47c-0.35,0.15-0.71,0.3-1.07,0.44l0.48,1.21l0.48,1.21l0.48,1.21l0.48,1.21
				c0.41-0.16,0.81-0.33,1.21-0.5c0.4-0.17,0.8-0.35,1.2-0.54c0.4-0.19,0.79-0.38,1.18-0.57l-0.59-1.16l-0.58-1.16
				c-0.37,0.18-0.74,0.36-1.11,0.54l0.55,1.18c-0.38,0.18-0.77,0.35-1.16,0.52l-0.52-1.19l-0.52-1.19c0.37-0.16,0.73-0.32,1.09-0.49
				c0.36-0.17,0.72-0.34,1.08-0.52c0.36-0.18,0.71-0.36,1.06-0.55l0.62,1.15l0.62,1.15l0.62,1.15l0.47,0.87
				c-4.26,2.31-8.92,3.96-13.85,4.83l-0.17-0.98l-0.22-1.28l-0.22-1.28l-0.22-1.28l-0.22-1.28c-0.38,0.07-0.76,0.13-1.14,0.18
				c-0.38,0.06-0.76,0.11-1.15,0.15c-0.38,0.04-0.77,0.08-1.15,0.12c-0.38,0.03-0.77,0.06-1.16,0.08c-0.39,0.02-0.77,0.04-1.16,0.05
				l0.04,1.3l0.04,1.3l0.04,1.3l0.04,1.3c0.44-0.01,0.87-0.03,1.31-0.06c0.44-0.02,0.87-0.06,1.31-0.09
				c0.43-0.04,0.87-0.08,1.3-0.13l-0.15-1.29l-0.15-1.29c-0.41,0.05-0.82,0.09-1.23,0.12l0.11,1.3c-0.42,0.04-0.85,0.07-1.27,0.09
				l-0.07-1.3l-0.07-1.3c0.4-0.02,0.8-0.05,1.19-0.09c0.4-0.03,0.79-0.07,1.19-0.12c0.4-0.05,0.79-0.1,1.19-0.15l0.19,1.29
				l0.19,1.29l0.19,1.29l0.14,0.99c-2.18,0.32-4.4,0.48-6.67,0.48c-2.72,0-5.39-0.24-7.99-0.69l0.17-0.98l0.22-1.28l0.22-1.28
				l0.22-1.28l0.22-1.28c-0.38-0.07-0.76-0.14-1.14-0.22c-0.38-0.08-0.76-0.16-1.13-0.25c-0.38-0.09-0.75-0.18-1.12-0.28
				c-0.37-0.1-0.74-0.2-1.11-0.32c-0.37-0.11-0.74-0.23-1.1-0.35l-0.41,1.24l-0.41,1.24l-0.41,1.24l-0.41,1.24
				c0.41,0.14,0.83,0.27,1.25,0.39c0.42,0.13,0.84,0.24,1.26,0.36c0.42,0.11,0.85,0.22,1.27,0.32l0.3-1.27l0.3-1.27
				c-0.4-0.09-0.8-0.19-1.2-0.3l-0.34,1.26c-0.41-0.11-0.82-0.22-1.22-0.35l0.37-1.25l0.37-1.25c0.38,0.11,0.77,0.22,1.15,0.33
				c0.39,0.1,0.77,0.2,1.16,0.29c0.39,0.09,0.78,0.18,1.17,0.26l-0.26,1.27l-0.26,1.27l-0.26,1.28l-0.2,0.98
				c-4.9-1.01-9.51-2.8-13.71-5.23L25.58,87l0.65-1.13l0.65-1.13l0.65-1.13l0.65-1.13c-0.33-0.19-0.67-0.39-0.99-0.59
				c-0.33-0.2-0.65-0.41-0.98-0.62c-0.32-0.21-0.64-0.43-0.96-0.65c-0.32-0.22-0.63-0.45-0.94-0.68c-0.31-0.23-0.62-0.47-0.92-0.71
				l-0.81,1.02l-0.81,1.02l-0.81,1.02l-0.81,1.02c0.34,0.27,0.69,0.54,1.04,0.8c0.35,0.26,0.7,0.52,1.06,0.77
				c0.36,0.25,0.72,0.5,1.08,0.74l0.72-1.09l0.72-1.09c-0.34-0.23-0.68-0.46-1.02-0.69l-0.75,1.07c-0.35-0.24-0.69-0.49-1.03-0.75
				l0.78-1.04l0.78-1.04c0.32,0.24,0.64,0.47,0.97,0.7c0.33,0.23,0.66,0.45,0.99,0.67c0.33,0.22,0.67,0.43,1.01,0.64l-0.68,1.11
				l-0.68,1.11l-0.68,1.11l-0.52,0.84c-4.19-2.59-7.93-5.84-11.08-9.59l0.75-0.63l1-0.84l1-0.84l1-0.84l1-0.84
				c-0.25-0.3-0.49-0.6-0.73-0.9c-0.24-0.3-0.48-0.61-0.71-0.92c-0.23-0.31-0.46-0.62-0.68-0.94c-0.22-0.32-0.44-0.64-0.65-0.96
				c-0.21-0.32-0.42-0.65-0.62-0.98l-1.11,0.68l-1.11,0.68l-1.11,0.68l-1.11,0.68c0.23,0.37,0.46,0.74,0.7,1.1
				c0.24,0.36,0.49,0.73,0.74,1.08c0.25,0.36,0.51,0.71,0.77,1.06l1.04-0.78l1.04-0.78c-0.25-0.33-0.49-0.66-0.72-1l-1.07,0.75
				c-0.24-0.35-0.48-0.7-0.72-1.05l1.09-0.72l1.09-0.72c0.22,0.33,0.44,0.66,0.67,0.99c0.23,0.33,0.46,0.65,0.7,0.97
				c0.24,0.32,0.48,0.64,0.73,0.95l-1.02,0.81l-1.02,0.81l-1.02,0.81L12,76.54c-3.03-3.82-5.46-8.13-7.17-12.8l0.93-0.34l1.22-0.45
				l1.22-0.45l1.22-0.45l1.22-0.45c-0.13-0.36-0.26-0.73-0.38-1.09c-0.12-0.37-0.24-0.73-0.35-1.1c-0.11-0.37-0.22-0.74-0.32-1.11
				c-0.1-0.37-0.19-0.75-0.28-1.12c-0.09-0.38-0.17-0.75-0.25-1.13l-1.27,0.26l-1.27,0.26l-1.27,0.26l-1.28,0.26
				c0.09,0.43,0.18,0.85,0.28,1.28c0.1,0.43,0.21,0.85,0.32,1.27c0.11,0.42,0.23,0.84,0.36,1.26l1.25-0.37l1.25-0.37
				c-0.12-0.39-0.23-0.79-0.34-1.19l-1.26,0.34c-0.11-0.41-0.21-0.82-0.31-1.23l1.27-0.3l1.27-0.3c0.09,0.39,0.19,0.77,0.29,1.16
				c0.1,0.39,0.21,0.77,0.33,1.15c0.11,0.38,0.23,0.76,0.36,1.14l-1.24,0.41l-1.24,0.41l-1.24,0.41L4.4,62.48
				C2.88,57.92,2.06,53.06,2.06,48l0,0h1h1.3h1.3h1.3h1.3c0-0.39,0.01-0.77,0.02-1.16c0.01-0.39,0.03-0.77,0.05-1.16
				c0.02-0.39,0.05-0.77,0.08-1.16c0.03-0.38,0.07-0.77,0.12-1.15c0.04-0.38,0.09-0.77,0.15-1.15L7.4,42.04l-1.29-0.19l-1.29-0.19
				l-1.29-0.19c-0.06,0.43-0.12,0.87-0.17,1.3c-0.05,0.43-0.09,0.87-0.13,1.3c-0.04,0.43-0.07,0.87-0.09,1.31l1.3,0.07l1.3,0.07
				c0.02-0.41,0.05-0.82,0.09-1.23l-1.3-0.11c0.04-0.42,0.08-0.84,0.13-1.27l1.29,0.15l1.29,0.15c-0.05,0.4-0.09,0.79-0.12,1.19
				c-0.03,0.4-0.06,0.8-0.09,1.19c-0.02,0.4-0.04,0.8-0.05,1.2l-1.3-0.04l-1.3-0.04l-1.3-0.04l-1-0.03
				c0.14-5.05,1.11-9.89,2.75-14.41l0.93,0.34l1.22,0.45l1.22,0.45l1.22,0.45l1.22,0.45c0.13-0.36,0.27-0.72,0.41-1.08
				c0.14-0.36,0.29-0.72,0.44-1.07c0.15-0.35,0.31-0.71,0.47-1.06c0.16-0.35,0.33-0.7,0.51-1.04c0.17-0.35,0.35-0.69,0.54-1.03
				l-1.15-0.62l-1.15-0.62L9.6,27.24l-1.14-0.62c-0.21,0.38-0.41,0.77-0.61,1.16c-0.2,0.39-0.39,0.78-0.57,1.18
				c-0.18,0.4-0.36,0.79-0.54,1.2l1.19,0.52l1.19,0.52c0.16-0.38,0.33-0.75,0.51-1.13l-1.18-0.55c0.18-0.38,0.36-0.77,0.56-1.14
				l1.16,0.58l1.16,0.59c-0.18,0.36-0.35,0.72-0.52,1.08c-0.17,0.36-0.33,0.73-0.49,1.09c-0.16,0.37-0.31,0.73-0.46,1.11l-1.21-0.48
				l-1.21-0.48l-1.21-0.48L5.32,31c1.84-4.6,4.39-8.84,7.53-12.58l0.75,0.63l1,0.84l1,0.84l1,0.84l1,0.84
				c0.25-0.3,0.5-0.59,0.76-0.88c0.26-0.29,0.52-0.57,0.78-0.85c0.27-0.28,0.53-0.56,0.81-0.83c0.27-0.27,0.55-0.54,0.83-0.81
				c0.28-0.27,0.57-0.53,0.85-0.78l-0.87-0.97l-0.87-0.97l-0.87-0.97l-0.87-0.97c-0.33,0.29-0.65,0.59-0.97,0.88
				c-0.32,0.3-0.63,0.6-0.94,0.91c-0.31,0.31-0.61,0.62-0.91,0.94l0.95,0.89l0.95,0.89c0.28-0.3,0.57-0.59,0.86-0.89l-0.92-0.92
				c0.3-0.3,0.6-0.6,0.91-0.89l0.89,0.95l0.89,0.95c-0.29,0.27-0.58,0.55-0.86,0.83c-0.28,0.28-0.56,0.57-0.83,0.86
				c-0.27,0.29-0.54,0.58-0.81,0.88l-0.97-0.87l-0.97-0.87l-0.97-0.87l-0.73-0.65c3.26-3.66,7.09-6.79,11.36-9.27L25.58,9l0.65,1.13
				l0.65,1.13l0.65,1.13l0.65,1.13c0.33-0.19,0.67-0.38,1.01-0.57c0.34-0.18,0.68-0.36,1.03-0.54c0.34-0.17,0.69-0.34,1.04-0.51
				c0.35-0.16,0.7-0.32,1.06-0.47c0.35-0.15,0.71-0.3,1.07-0.44l-0.48-1.21l-0.48-1.21l-0.48-1.21l-0.48-1.21
				c-0.41,0.16-0.81,0.33-1.21,0.5c-0.4,0.17-0.8,0.35-1.2,0.54c-0.4,0.19-0.79,0.38-1.18,0.57l0.59,1.16l0.58,1.16
				c0.37-0.18,0.74-0.36,1.11-0.54l-0.55-1.18c0.38-0.18,0.77-0.35,1.16-0.52l0.52,1.19l0.52,1.19c-0.37,0.16-0.73,0.32-1.09,0.49
				c-0.36,0.17-0.72,0.34-1.08,0.52c-0.36,0.18-0.71,0.36-1.06,0.55l-0.62-1.15L27.34,9.5l-0.62-1.15l-0.47-0.87
				c4.26-2.31,8.92-3.96,13.85-4.83l0.17,0.98l0.22,1.28l0.22,1.28l0.22,1.28l0.22,1.28c0.38-0.07,0.76-0.13,1.14-0.18
				c0.38-0.06,0.77-0.11,1.15-0.15c0.38-0.04,0.77-0.08,1.15-0.12c0.38-0.03,0.77-0.06,1.16-0.08c0.39-0.02,0.77-0.04,1.16-0.05
				l-0.04-1.3l-0.04-1.3l-0.04-1.3l-0.04-1.3C46.35,3,45.91,3.02,45.48,3.04c-0.44,0.03-0.87,0.06-1.31,0.09
				c-0.44,0.04-0.87,0.08-1.3,0.13l0.15,1.29l0.15,1.29c0.41-0.05,0.82-0.09,1.23-0.12l-0.11-1.3c0.42-0.04,0.85-0.07,1.27-0.09
				l0.07,1.3l0.07,1.3c-0.4,0.02-0.8,0.05-1.19,0.09c-0.4,0.03-0.79,0.07-1.19,0.12c-0.4,0.05-0.79,0.1-1.19,0.15l-0.19-1.29
				l-0.19-1.29l-0.19-1.29l-0.14-0.99c2.18-0.32,4.4-0.48,6.67-0.48c2.72,0,5.39,0.24,7.99,0.69l-0.17,0.98l-0.22,1.28l-0.22,1.28
				l-0.22,1.28l-0.22,1.28c0.38,0.07,0.76,0.14,1.14,0.22c0.38,0.08,0.76,0.16,1.13,0.25c0.38,0.09,0.75,0.18,1.12,0.28
				c0.37,0.1,0.74,0.2,1.11,0.32c0.37,0.11,0.74,0.23,1.1,0.35l0.41-1.24l0.41-1.24l0.41-1.24l0.41-1.24
				c-0.41-0.14-0.83-0.27-1.25-0.39c-0.42-0.13-0.84-0.24-1.26-0.36c-0.42-0.11-0.85-0.22-1.27-0.32l-0.3,1.27l-0.3,1.27
				c0.4,0.09,0.8,0.2,1.2,0.3l0.34-1.26c0.41,0.11,0.82,0.22,1.22,0.35l-0.37,1.25l-0.37,1.25c-0.38-0.11-0.77-0.22-1.15-0.33
				c-0.39-0.1-0.77-0.2-1.16-0.29c-0.39-0.09-0.78-0.18-1.17-0.26l0.26-1.27l0.26-1.27l0.26-1.27l0.2-0.98
				c4.9,1.01,9.51,2.8,13.71,5.23L70.61,9l-0.65,1.13l-0.65,1.13l-0.65,1.13l-0.65,1.13c0.33,0.19,0.67,0.39,0.99,0.59
				c0.33,0.2,0.65,0.41,0.98,0.62c0.32,0.21,0.64,0.43,0.96,0.65c0.32,0.22,0.63,0.45,0.94,0.68c0.31,0.23,0.62,0.47,0.92,0.71
				l0.81-1.02l0.81-1.02l0.81-1.02l0.81-1.02c-0.34-0.27-0.69-0.54-1.04-0.8c-0.35-0.26-0.7-0.52-1.06-0.77
				c-0.36-0.25-0.72-0.5-1.08-0.74l-0.72,1.09l-0.72,1.09c0.34,0.23,0.68,0.46,1.02,0.69l0.75-1.07c0.35,0.24,0.69,0.49,1.03,0.75
				l-0.78,1.04l-0.78,1.04c-0.32-0.24-0.64-0.47-0.97-0.7c-0.33-0.23-0.66-0.45-0.99-0.67c-0.33-0.22-0.67-0.43-1.01-0.64l0.68-1.11
				l0.68-1.11l0.68-1.11l0.52-0.84c4.19,2.59,7.93,5.84,11.08,9.59l-0.75,0.63l-1,0.84l-1,0.84l-1,0.84l-1,0.84
				c0.25,0.3,0.49,0.6,0.73,0.9c0.24,0.3,0.48,0.61,0.71,0.92c0.23,0.31,0.46,0.62,0.68,0.94c0.22,0.32,0.44,0.64,0.65,0.96
				c0.21,0.32,0.42,0.65,0.62,0.98l1.11-0.68l1.11-0.68l1.11-0.68l1.11-0.68c-0.23-0.37-0.46-0.74-0.7-1.1
				c-0.24-0.36-0.49-0.73-0.74-1.08c-0.25-0.36-0.51-0.71-0.77-1.06l-1.04,0.78l-1.04,0.78c0.25,0.33,0.49,0.66,0.72,1l1.07-0.75
				c0.24,0.35,0.48,0.7,0.72,1.05l-1.09,0.72l-1.09,0.72c-0.22-0.33-0.44-0.66-0.67-0.99c-0.23-0.33-0.46-0.65-0.7-0.97
				c-0.24-0.32-0.48-0.64-0.73-0.95l1.02-0.81l1.02-0.81l1.02-0.81l0.77-0.61c3.03,3.82,5.46,8.13,7.17,12.8l-0.93,0.34l-1.22,0.45
				l-1.22,0.45l-1.22,0.45l-1.22,0.45c0.13,0.36,0.26,0.73,0.38,1.09c0.12,0.37,0.24,0.73,0.35,1.1c0.11,0.37,0.22,0.74,0.32,1.11
				c0.1,0.37,0.19,0.75,0.28,1.12c0.09,0.38,0.17,0.75,0.25,1.13l1.27-0.26l1.27-0.26l1.27-0.26l1.27-0.26
				c-0.09-0.43-0.18-0.85-0.28-1.28c-0.1-0.43-0.21-0.85-0.32-1.27c-0.11-0.42-0.23-0.84-0.36-1.26L90,35.46l-1.25,0.37
				c0.12,0.39,0.23,0.79,0.34,1.19l1.26-0.34c0.11,0.41,0.21,0.82,0.31,1.23l-1.27,0.3l-1.27,0.3c-0.09-0.39-0.19-0.77-0.29-1.16
				c-0.1-0.39-0.21-0.77-0.33-1.15c-0.11-0.38-0.23-0.76-0.36-1.14l1.24-0.41l1.24-0.41l1.24-0.41l0.94-0.31
				c1.51,4.55,2.33,9.42,2.33,14.48h-1h-1.3h-1.3h-1.3h-1.3c0,0.39-0.01,0.77-0.02,1.16c-0.01,0.39-0.03,0.77-0.05,1.16
				c-0.02,0.39-0.05,0.77-0.08,1.16c-0.03,0.38-0.07,0.77-0.12,1.15c-0.04,0.38-0.09,0.77-0.15,1.15l1.29,0.19l1.29,0.19l1.29,0.19
				l1.29,0.19c0.06-0.43,0.12-0.87,0.17-1.3c0.05-0.43,0.09-0.87,0.13-1.3c0.04-0.44,0.07-0.87,0.09-1.31l-1.3-0.07l-1.3-0.07
				c-0.02,0.41-0.05,0.82-0.09,1.23l1.3,0.11c-0.04,0.42-0.08,0.84-0.13,1.27l-1.29-0.15l-1.29-0.15c0.05-0.4,0.09-0.79,0.12-1.19
				c0.03-0.4,0.06-0.8,0.09-1.19c0.02-0.4,0.04-0.8,0.05-1.2l1.3,0.04l1.3,0.04l1.3,0.04l1,0.03c-0.14,5.05-1.1,9.89-2.75,14.41
				l-0.93-0.34l-1.22-0.45l-1.22-0.45l-1.22-0.45l-1.22-0.45c-0.13,0.36-0.27,0.72-0.41,1.08c-0.14,0.36-0.29,0.72-0.44,1.07
				c-0.15,0.35-0.31,0.71-0.47,1.06c-0.16,0.35-0.33,0.7-0.51,1.04c-0.17,0.35-0.35,0.69-0.54,1.03l1.15,0.62l1.15,0.62l1.14,0.62
				l1.15,0.62c0.21-0.38,0.41-0.77,0.61-1.16c0.2-0.39,0.39-0.78,0.57-1.18c0.19-0.4,0.36-0.79,0.54-1.2l-1.19-0.52l-1.19-0.52
				c-0.16,0.38-0.33,0.75-0.51,1.13l1.18,0.55c-0.18,0.38-0.37,0.77-0.56,1.14l-1.16-0.58l-1.16-0.58c0.18-0.36,0.35-0.72,0.52-1.08
				c0.17-0.36,0.33-0.73,0.49-1.09c0.16-0.37,0.31-0.73,0.46-1.11l1.21,0.48l1.21,0.48l1.21,0.48L90.87,65
				c-1.84,4.6-4.39,8.84-7.53,12.58l-0.75-0.63l-1-0.84l-1-0.84l-1-0.84l-1-0.84c-0.25,0.3-0.5,0.59-0.76,0.88
				c-0.26,0.29-0.52,0.57-0.78,0.85c-0.27,0.28-0.53,0.56-0.81,0.83c-0.27,0.27-0.55,0.54-0.83,0.81c-0.28,0.27-0.57,0.53-0.85,0.78
				l0.87,0.97l0.87,0.97l0.87,0.97l0.87,0.97c0.33-0.29,0.65-0.59,0.97-0.89c0.32-0.3,0.63-0.6,0.94-0.91
				c0.31-0.31,0.61-0.62,0.91-0.94l-0.95-0.89l-0.95-0.89c-0.28,0.3-0.57,0.59-0.86,0.89l0.92,0.92c-0.3,0.3-0.6,0.59-0.91,0.89
				l-0.89-0.95l-0.89-0.95c0.29-0.27,0.58-0.55,0.86-0.83c0.28-0.28,0.56-0.57,0.83-0.86c0.27-0.29,0.54-0.58,0.81-0.88l0.97,0.87
				l0.97,0.87l0.97,0.87l0.73,0.65C79.21,82.25,75.37,85.38,71.11,87.85z"/>
			<linearGradient id="SVGID_2_" gradientUnits="userSpaceOnUse" x1="3.0836" y1="48.0001" x2="93.1059" y2="48.0001">
				<stop  offset="0" style="stop-color:#B7854D"/>
				<stop  offset="0.1515" style="stop-color:#F5D98F"/>
				<stop  offset="0.303" style="stop-color:#FFF9B3"/>
				<stop  offset="0.5212" style="stop-color:#F4D88E"/>
				<stop  offset="0.6424" style="stop-color:#FEF9B4"/>
				<stop  offset="0.8424" style="stop-color:#D4AF66"/>
				<stop  offset="1" style="stop-color:#B7854D"/>
			</linearGradient>
			<path class="st1" d="M75.37,80.5l-0.84-1l-0.84-1l-0.62-0.74c0.86-0.73,1.7-1.49,2.5-2.29c2.15-2.15,4.03-4.52,5.6-7.08L82,68.91
				l1.11,0.68l1.11,0.68l1.11,0.68c-0.22,0.36-0.45,0.72-0.68,1.07c-0.23,0.35-0.47,0.7-0.72,1.05c-0.24,0.35-0.49,0.69-0.75,1.03
				l-1.04-0.78l-1.04-0.78c0.24-0.32,0.47-0.64,0.7-0.97l1.07,0.75c0.24-0.34,0.47-0.68,0.69-1.02l-1.09-0.72l-1.09-0.72
				c-0.21,0.32-0.43,0.64-0.65,0.96c-0.22,0.32-0.45,0.63-0.68,0.94c-0.23,0.31-0.47,0.62-0.71,0.92l1.02,0.81l1.02,0.81l1.02,0.81
				l1.02,0.81c0.27-0.34,0.54-0.69,0.8-1.04c0.26-0.35,0.52-0.7,0.77-1.06c0.25-0.36,0.5-0.72,0.74-1.08
				c0.24-0.36,0.48-0.73,0.7-1.1c0.23-0.37,0.45-0.75,0.67-1.12l-1.13-0.65l-1.13-0.65l-1.13-0.65l-1.13-0.65l-0.84-0.49
				c0.8-1.38,1.51-2.82,2.14-4.3c1-2.35,1.75-4.78,2.26-7.26l0.95,0.2l1.27,0.26l1.27,0.26l1.27,0.26
				c-0.09,0.42-0.18,0.83-0.27,1.24c-0.1,0.41-0.2,0.82-0.31,1.23c-0.11,0.41-0.22,0.82-0.35,1.22l-1.25-0.37L87.5,59.8
				c0.11-0.38,0.22-0.77,0.33-1.15l1.26,0.34c0.11-0.4,0.21-0.8,0.3-1.2l-1.27-0.3l-1.27-0.3c-0.09,0.38-0.18,0.75-0.28,1.12
				c-0.1,0.37-0.2,0.74-0.32,1.11c-0.11,0.37-0.23,0.74-0.35,1.1l1.24,0.41l1.24,0.41l1.24,0.41l1.24,0.41
				c0.14-0.41,0.27-0.83,0.39-1.25c0.13-0.42,0.24-0.84,0.36-1.26c0.11-0.42,0.22-0.85,0.32-1.27c0.1-0.43,0.19-0.85,0.28-1.28
				c0.09-0.43,0.17-0.86,0.24-1.29l-1.28-0.22l-1.28-0.22l-1.28-0.22l-1.28-0.22l-0.96-0.17c0.39-2.21,0.58-4.47,0.58-6.75
				c0-1.9-0.14-3.78-0.4-5.64l0.96-0.14l1.29-0.19l1.29-0.19l1.29-0.19c0.06,0.42,0.12,0.84,0.16,1.26
				c0.05,0.42,0.09,0.84,0.13,1.27c0.04,0.42,0.07,0.85,0.09,1.27l-1.3,0.07l-1.3,0.07c-0.02-0.4-0.05-0.8-0.09-1.19l1.3-0.11
				c-0.04-0.41-0.08-0.82-0.12-1.23l-1.29,0.15l-1.29,0.15c0.04,0.38,0.08,0.77,0.12,1.15c0.03,0.39,0.06,0.77,0.08,1.16
				c0.02,0.39,0.04,0.77,0.05,1.16l1.3-0.04l1.3-0.04l1.3-0.04l1.3-0.04c-0.01-0.44-0.03-0.87-0.06-1.31
				c-0.03-0.44-0.06-0.87-0.09-1.31c-0.04-0.43-0.08-0.87-0.13-1.3c-0.05-0.43-0.11-0.87-0.17-1.3c-0.06-0.43-0.13-0.86-0.21-1.29
				l-1.28,0.22l-1.28,0.22l-1.28,0.22l-1.28,0.22l-0.96,0.17c-0.5-2.87-1.33-5.67-2.47-8.37c-0.48-1.13-1.01-2.24-1.59-3.32
				l0.85-0.46l1.15-0.62l1.15-0.62l1.14-0.62c0.2,0.37,0.4,0.75,0.59,1.13c0.19,0.38,0.38,0.76,0.56,1.14
				c0.18,0.38,0.35,0.77,0.52,1.16l-1.19,0.52l-1.19,0.52c-0.16-0.37-0.32-0.73-0.49-1.09l1.18-0.55c-0.17-0.37-0.35-0.74-0.54-1.11
				l-1.16,0.59l-1.16,0.59c0.17,0.34,0.34,0.69,0.51,1.04c0.16,0.35,0.32,0.7,0.47,1.06c0.15,0.35,0.3,0.71,0.44,1.07l1.21-0.48
				l1.21-0.48l1.21-0.48l1.21-0.48c-0.16-0.41-0.33-0.81-0.5-1.21c-0.17-0.4-0.35-0.8-0.54-1.2c-0.18-0.4-0.38-0.79-0.57-1.18
				c-0.2-0.39-0.4-0.78-0.61-1.16c-0.21-0.38-0.42-0.77-0.64-1.14l-1.13,0.65l-1.13,0.65l-1.13,0.65l-1.13,0.65l-0.84,0.49
				c-1.69-2.93-3.76-5.62-6.18-8.05c-0.54-0.54-1.08-1.05-1.64-1.55l0.65-0.72l0.87-0.97l0.87-0.97l0.87-0.97
				c0.32,0.28,0.63,0.57,0.94,0.86c0.31,0.29,0.61,0.59,0.91,0.89c0.3,0.3,0.6,0.6,0.89,0.91l-0.95,0.89l-0.95,0.89
				c-0.27-0.29-0.55-0.58-0.83-0.86L78.1,18c-0.29-0.29-0.59-0.58-0.89-0.86l-0.89,0.95l-0.89,0.95c0.28,0.27,0.56,0.53,0.83,0.81
				c0.27,0.27,0.54,0.55,0.81,0.83c0.27,0.28,0.53,0.57,0.78,0.85l0.97-0.87l0.97-0.87l0.97-0.87l0.97-0.87
				c-0.29-0.33-0.59-0.65-0.88-0.97c-0.3-0.32-0.6-0.63-0.91-0.94c-0.31-0.31-0.62-0.61-0.94-0.91c-0.32-0.3-0.64-0.59-0.97-0.88
				c-0.33-0.29-0.66-0.58-0.99-0.86l-0.84,1l-0.84,1l-0.84,1l-0.84,1l-0.62,0.74c-2.97-2.49-6.27-4.52-9.85-6.03
				c-0.26-0.11-0.52-0.21-0.78-0.32l0.36-0.9l0.48-1.21l0.48-1.21l0.48-1.21c0.39,0.16,0.79,0.32,1.18,0.49
				c0.39,0.17,0.78,0.34,1.16,0.52c0.38,0.18,0.77,0.36,1.14,0.56l-0.58,1.16l-0.58,1.16c-0.36-0.18-0.72-0.35-1.08-0.52l0.55-1.18
				c-0.37-0.17-0.75-0.34-1.13-0.51l-0.52,1.19l-0.52,1.19c0.35,0.15,0.71,0.31,1.06,0.47c0.35,0.16,0.7,0.33,1.04,0.51
				c0.34,0.17,0.69,0.35,1.03,0.54l0.62-1.15l0.62-1.15l0.62-1.15l0.62-1.15c-0.38-0.21-0.77-0.41-1.16-0.61
				c-0.39-0.2-0.78-0.39-1.18-0.57c-0.4-0.18-0.79-0.36-1.2-0.54c-0.4-0.17-0.8-0.34-1.21-0.5c-0.41-0.16-0.81-0.32-1.22-0.47
				L63.05,6.9l-0.45,1.22l-0.45,1.22l-0.44,1.22l-0.33,0.91c-3.9-1.42-7.98-2.2-12.16-2.32l0.03-0.97l0.04-1.3l0.04-1.3l0.04-1.3
				c0.42,0.01,0.85,0.03,1.27,0.05c0.42,0.02,0.85,0.05,1.27,0.09c0.42,0.04,0.84,0.08,1.27,0.13l-0.15,1.29l-0.15,1.29
				c-0.4-0.05-0.79-0.09-1.19-0.12l0.11-1.3c-0.41-0.04-0.82-0.06-1.23-0.09l-0.07,1.3l-0.07,1.3c0.39,0.02,0.77,0.05,1.16,0.08
				c0.38,0.03,0.77,0.07,1.15,0.12c0.38,0.04,0.77,0.09,1.15,0.15l0.19-1.29l0.19-1.29l0.19-1.29l0.19-1.29
				c-0.43-0.06-0.87-0.12-1.3-0.17c-0.43-0.05-0.87-0.09-1.3-0.13c-0.43-0.04-0.87-0.07-1.31-0.09C50.28,3.02,49.84,3,49.4,2.99
				c-0.44-0.01-0.87-0.02-1.31-0.02v1.3v1.3v1.3v1.3v0.97c0,0,0,0,0,0c-4.2,0-8.3,0.66-12.22,1.96l-0.31-0.92l-0.41-1.24l-0.41-1.24
				l-0.41-1.24c0.4-0.13,0.81-0.26,1.21-0.38c0.41-0.12,0.81-0.24,1.22-0.35c0.41-0.11,0.82-0.21,1.23-0.31l0.3,1.27l0.3,1.27
				c-0.39,0.09-0.77,0.19-1.16,0.29l-0.34-1.26c-0.4,0.11-0.79,0.22-1.19,0.34l0.37,1.25l0.37,1.25c0.37-0.11,0.74-0.22,1.11-0.32
				c0.37-0.1,0.75-0.19,1.12-0.28c0.38-0.09,0.75-0.17,1.13-0.25l-0.26-1.28l-0.26-1.27l-0.26-1.27l-0.26-1.27
				c-0.43,0.09-0.85,0.18-1.28,0.28c-0.43,0.1-0.85,0.21-1.27,0.32c-0.42,0.11-0.84,0.23-1.26,0.36c-0.42,0.13-0.84,0.26-1.25,0.39
				c-0.41,0.14-0.83,0.28-1.24,0.43l0.45,1.22l0.45,1.22l0.45,1.22l0.45,1.22l0.33,0.91c-0.62,0.22-1.23,0.46-1.83,0.72
				c-3.24,1.37-6.24,3.15-8.97,5.32l-0.6-0.76l-0.81-1.02l-0.81-1.02l-0.81-1.02c0.33-0.26,0.67-0.52,1.01-0.78
				c0.34-0.25,0.68-0.5,1.03-0.75c0.35-0.24,0.7-0.48,1.05-0.72l0.72,1.09l0.72,1.09c-0.33,0.22-0.66,0.44-0.99,0.67l-0.75-1.07
				c-0.34,0.24-0.67,0.48-1,0.72l0.78,1.04l0.78,1.04c0.31-0.23,0.62-0.46,0.94-0.68c0.32-0.22,0.64-0.44,0.96-0.65
				c0.32-0.21,0.65-0.42,0.98-0.62l-0.68-1.11l-0.68-1.11l-0.68-1.11l-0.68-1.11c-0.37,0.23-0.74,0.46-1.1,0.7
				c-0.36,0.24-0.73,0.49-1.08,0.74c-0.36,0.25-0.71,0.51-1.06,0.77c-0.35,0.26-0.7,0.53-1.04,0.8c-0.34,0.27-0.68,0.55-1.01,0.83
				l0.84,1l0.84,1l0.84,1l0.84,1l0.62,0.74c-0.86,0.73-1.7,1.49-2.5,2.29c-2.15,2.15-4.03,4.52-5.6,7.08l-0.82-0.51l-1.11-0.68
				l-1.11-0.68l-1.11-0.68c0.22-0.36,0.45-0.72,0.68-1.07c0.23-0.35,0.47-0.7,0.72-1.05c0.24-0.35,0.49-0.69,0.75-1.03l1.04,0.78
				l1.04,0.78c-0.24,0.32-0.47,0.64-0.7,0.97l-1.07-0.75c-0.24,0.34-0.47,0.68-0.69,1.02l1.09,0.72l1.09,0.72
				c0.21-0.32,0.43-0.64,0.65-0.96c0.22-0.32,0.45-0.63,0.68-0.94c0.23-0.31,0.47-0.62,0.71-0.92l-1.02-0.81l-1.02-0.81l-1.02-0.81
				l-1.02-0.81c-0.27,0.34-0.54,0.69-0.8,1.04c-0.26,0.35-0.52,0.7-0.77,1.06c-0.25,0.36-0.5,0.72-0.74,1.08
				c-0.24,0.36-0.48,0.73-0.7,1.1c-0.23,0.37-0.45,0.75-0.67,1.12l1.13,0.65l1.13,0.65l1.13,0.65l1.13,0.65l0.84,0.49
				c-0.8,1.38-1.51,2.82-2.14,4.3c-1,2.35-1.75,4.78-2.26,7.26l-0.95-0.2l-1.27-0.26l-1.27-0.26l-1.27-0.26
				c0.09-0.42,0.18-0.83,0.27-1.24c0.1-0.41,0.2-0.82,0.31-1.23c0.11-0.41,0.22-0.82,0.35-1.22l1.25,0.37l1.25,0.37
				c-0.11,0.38-0.22,0.77-0.33,1.15L7.1,37.02c-0.11,0.4-0.21,0.8-0.3,1.2l1.27,0.3l1.27,0.3c0.09-0.38,0.18-0.75,0.28-1.12
				c0.1-0.37,0.2-0.74,0.32-1.11c0.11-0.37,0.23-0.74,0.35-1.1l-1.24-0.41l-1.24-0.41l-1.24-0.41l-1.24-0.41
				c-0.14,0.41-0.27,0.83-0.39,1.25c-0.13,0.42-0.24,0.84-0.36,1.26c-0.11,0.42-0.22,0.85-0.32,1.27c-0.1,0.43-0.19,0.85-0.28,1.28
				c-0.09,0.43-0.17,0.86-0.24,1.29l1.28,0.22l1.28,0.22l1.28,0.22l1.28,0.22l0.95,0.17C9.44,43.46,9.24,45.72,9.24,48
				c0,1.9,0.14,3.78,0.4,5.64l-0.96,0.14L7.4,53.96l-1.29,0.19l-1.29,0.19c-0.06-0.42-0.12-0.84-0.16-1.26
				c-0.05-0.42-0.09-0.84-0.13-1.27c-0.04-0.42-0.07-0.85-0.09-1.27l1.3-0.07l1.3-0.07c0.02,0.4,0.05,0.8,0.09,1.19l-1.3,0.11
				c0.04,0.41,0.08,0.82,0.12,1.23l1.29-0.15l1.29-0.15c-0.04-0.38-0.08-0.77-0.12-1.15c-0.03-0.38-0.06-0.77-0.08-1.16
				c-0.02-0.39-0.04-0.77-0.05-1.16l-1.3,0.04l-1.3,0.04l-1.3,0.04l-1.3,0.04c0.01,0.44,0.03,0.87,0.06,1.31
				c0.03,0.44,0.06,0.87,0.09,1.31c0.04,0.43,0.08,0.87,0.13,1.3c0.05,0.43,0.11,0.87,0.17,1.3c0.06,0.43,0.13,0.86,0.21,1.29
				l1.28-0.22l1.28-0.22l1.28-0.22l1.28-0.22l0.95-0.17c0.5,2.87,1.33,5.67,2.47,8.37c0.48,1.13,1.01,2.24,1.59,3.32l-0.85,0.46
				l-1.15,0.62l-1.15,0.62L9.6,68.76c-0.2-0.37-0.4-0.75-0.59-1.13c-0.19-0.38-0.38-0.76-0.56-1.14c-0.18-0.38-0.35-0.77-0.52-1.16
				l1.19-0.52l1.19-0.52c0.16,0.37,0.32,0.73,0.49,1.09l-1.18,0.55c0.17,0.37,0.35,0.74,0.54,1.11l1.16-0.58l1.16-0.59
				c-0.17-0.34-0.34-0.69-0.51-1.04c-0.16-0.35-0.32-0.7-0.47-1.06c-0.15-0.35-0.3-0.71-0.44-1.07l-1.21,0.48l-1.21,0.48l-1.21,0.48
				l-1.21,0.48c0.16,0.41,0.33,0.81,0.5,1.21c0.17,0.4,0.35,0.8,0.54,1.2c0.19,0.4,0.38,0.79,0.57,1.18c0.2,0.39,0.4,0.78,0.61,1.16
				c0.21,0.38,0.42,0.77,0.64,1.14l1.13-0.65l1.13-0.65l1.13-0.65l1.13-0.65l0.84-0.49c1.69,2.93,3.76,5.62,6.18,8.05
				c0.54,0.53,1.08,1.05,1.64,1.55l-0.65,0.72l-0.87,0.97l-0.87,0.97l-0.87,0.97c-0.32-0.28-0.63-0.57-0.94-0.86
				c-0.31-0.29-0.61-0.59-0.91-0.89c-0.3-0.3-0.6-0.6-0.89-0.91l0.95-0.89l0.95-0.89c0.27,0.29,0.55,0.58,0.83,0.86L18.09,78
				c0.29,0.29,0.59,0.58,0.89,0.86l0.89-0.95l0.89-0.95c-0.28-0.27-0.56-0.53-0.83-0.81c-0.27-0.27-0.54-0.55-0.81-0.83
				c-0.27-0.28-0.53-0.57-0.78-0.85l-0.97,0.87l-0.97,0.87l-0.97,0.87l-0.97,0.87c0.29,0.33,0.59,0.65,0.88,0.97
				c0.3,0.32,0.6,0.63,0.91,0.94c0.31,0.31,0.62,0.61,0.94,0.91c0.32,0.3,0.64,0.59,0.97,0.89c0.33,0.29,0.66,0.58,0.99,0.86l0.84-1
				l0.84-1l0.84-1l0.84-1l0.62-0.74c2.96,2.49,6.27,4.52,9.85,6.03c0.26,0.11,0.52,0.21,0.78,0.32l-0.36,0.9l-0.48,1.21l-0.48,1.21
				l-0.48,1.21c-0.39-0.16-0.79-0.32-1.18-0.49c-0.39-0.17-0.78-0.34-1.16-0.52c-0.38-0.18-0.77-0.36-1.14-0.56l0.58-1.16l0.58-1.16
				c0.36,0.18,0.72,0.35,1.08,0.52l-0.55,1.18c0.37,0.17,0.75,0.34,1.13,0.51l0.52-1.19l0.52-1.2c-0.35-0.15-0.71-0.31-1.06-0.47
				c-0.35-0.16-0.7-0.33-1.04-0.51c-0.34-0.17-0.69-0.35-1.03-0.54l-0.62,1.15l-0.62,1.15l-0.62,1.15l-0.62,1.15
				c0.38,0.21,0.77,0.41,1.16,0.61c0.39,0.2,0.78,0.39,1.18,0.57c0.4,0.18,0.79,0.36,1.2,0.54c0.4,0.17,0.8,0.34,1.21,0.5
				c0.41,0.16,0.81,0.32,1.22,0.47l0.45-1.22l0.45-1.22l0.45-1.22l0.45-1.22l0.33-0.91c3.9,1.42,7.98,2.2,12.16,2.32l-0.03,0.97
				l-0.04,1.3l-0.04,1.3l-0.04,1.3c-0.42-0.01-0.85-0.03-1.27-0.05c-0.42-0.02-0.85-0.05-1.27-0.09c-0.42-0.04-0.84-0.08-1.27-0.13
				l0.15-1.29l0.15-1.29c0.4,0.05,0.79,0.09,1.19,0.12l-0.11,1.3c0.41,0.04,0.82,0.07,1.23,0.09l0.07-1.3l0.07-1.3
				c-0.39-0.02-0.77-0.05-1.16-0.08c-0.38-0.03-0.77-0.07-1.15-0.12c-0.38-0.04-0.77-0.09-1.15-0.15l-0.19,1.29l-0.19,1.29
				l-0.19,1.29l-0.19,1.29c0.43,0.06,0.87,0.12,1.3,0.17c0.43,0.05,0.87,0.09,1.3,0.13c0.43,0.04,0.87,0.07,1.31,0.09
				c0.44,0.02,0.87,0.04,1.31,0.06c0.44,0.01,0.87,0.02,1.31,0.02v-1.3v-1.3v-1.3v-1.3v-0.97c4.2,0,8.3-0.66,12.22-1.96l0.31,0.92
				l0.41,1.24l0.41,1.24l0.41,1.24c-0.4,0.13-0.81,0.26-1.21,0.38c-0.41,0.12-0.81,0.24-1.22,0.35c-0.41,0.11-0.82,0.21-1.23,0.31
				l-0.3-1.27l-0.3-1.27c0.39-0.09,0.77-0.19,1.16-0.29l0.34,1.26c0.4-0.11,0.79-0.22,1.19-0.34l-0.37-1.25l-0.37-1.25
				c-0.37,0.11-0.74,0.22-1.11,0.32c-0.37,0.1-0.75,0.19-1.12,0.28c-0.38,0.09-0.75,0.17-1.13,0.25l0.26,1.27l0.26,1.27l0.26,1.27
				l0.26,1.28c0.43-0.09,0.85-0.18,1.28-0.28c0.42-0.1,0.85-0.21,1.27-0.32c0.42-0.11,0.84-0.23,1.26-0.36
				c0.42-0.13,0.84-0.26,1.25-0.39c0.41-0.14,0.83-0.28,1.24-0.43l-0.45-1.22l-0.45-1.22l-0.45-1.22l-0.44-1.22l-0.33-0.91
				c0.61-0.22,1.23-0.46,1.83-0.72c3.24-1.37,6.24-3.15,8.97-5.32l0.6,0.76l0.81,1.02l0.81,1.02l0.81,1.02
				c-0.33,0.26-0.67,0.52-1.01,0.78c-0.34,0.25-0.68,0.5-1.03,0.75c-0.35,0.24-0.7,0.48-1.05,0.72l-0.72-1.09l-0.72-1.09
				c0.33-0.22,0.66-0.44,0.99-0.67l0.75,1.07c0.34-0.24,0.67-0.48,1-0.72l-0.78-1.04l-0.78-1.04c-0.31,0.23-0.62,0.46-0.94,0.68
				c-0.32,0.22-0.64,0.44-0.96,0.65c-0.32,0.21-0.65,0.42-0.98,0.62l0.68,1.11l0.68,1.11l0.68,1.11l0.68,1.11
				c0.37-0.23,0.74-0.46,1.1-0.7c0.36-0.24,0.73-0.49,1.08-0.74c0.36-0.25,0.71-0.51,1.06-0.77c0.35-0.26,0.7-0.53,1.04-0.8
				c0.34-0.27,0.68-0.55,1.01-0.83l-0.84-1L75.37,80.5z M48.09,85.71C27.3,85.71,10.38,68.8,10.38,48
				c0-20.8,16.92-37.71,37.71-37.71c20.8,0,37.71,16.92,37.71,37.71C85.81,68.8,68.89,85.71,48.09,85.71z"/>
		</g>
		<linearGradient id="SVGID_3_" gradientUnits="userSpaceOnUse" x1="19.956" y1="43.1319" x2="76.2336" y2="43.1319">
			<stop  offset="0" style="stop-color:#B7854D"/>
			<stop  offset="0.1515" style="stop-color:#F5D98F"/>
			<stop  offset="0.303" style="stop-color:#FFF9B3"/>
			<stop  offset="0.5212" style="stop-color:#F4D88E"/>
			<stop  offset="0.6424" style="stop-color:#FEF9B4"/>
			<stop  offset="0.8424" style="stop-color:#D4AF66"/>
			<stop  offset="1" style="stop-color:#B7854D"/>
		</linearGradient>
		<polygon class="st2" points="48.09,18.21 19.96,68.06 24.16,68.06 27.48,68.06 29.56,68.06 34.96,68.06 31.22,61.43 48.09,31.54 
			64.97,61.43 61.23,68.06 66.63,68.06 68.71,68.06 72.03,68.06 76.23,68.06 		"/>
	</g>
</g>
</svg>
